<svg width="64" height="64" viewBox="0 0 64 64" fill="none" xmlns="http://www.w3.org/2000/svg">
<path d="M37.5 30C38.1575 30 38.8025 29.7325 39.2675 29.2673C39.7325 28.8025 40 28.1575 40 27.5C40 26.8422 39.7325 26.1975 39.2675 25.7325C38.8025 25.2675 38.1575 25 37.5 25C36.8425 25 36.1975 25.2672 35.7325 25.7325C35.2675 26.1975 35 26.84 35 27.5C35 28.1575 35.2675 28.8025 35.7325 29.2673C36.1977 29.7323 36.8428 30 37.5 30Z" fill="#1C1C1C"/>
<path d="M16.0144 10.3597C16.6618 10.3597 17.1865 9.83487 17.1865 9.18762V8.33619C17.1865 7.68894 16.6618 7.16406 16.0144 7.16406C15.367 7.16406 14.8423 7.68894 14.8423 8.33619V9.18762C14.8423 9.83487 15.367 10.3597 16.0144 10.3597Z" fill="white"/>
<path d="M15.9919 29.1591C16.6393 29.1591 17.1641 28.6342 17.1641 27.9869V27.1355C17.1641 26.4883 16.6393 25.9634 15.9919 25.9634C15.3446 25.9634 14.8198 26.4883 14.8198 27.1355V27.9869C14.8198 28.6342 15.3446 29.1591 15.9919 29.1591Z" fill="white"/>
<path d="M6.17786 16.9783H7.02918C7.67654 16.9783 8.2013 17.5031 8.2013 18.1504C8.2013 18.7976 7.67654 19.3225 7.02918 19.3225H6.17786C5.5305 19.3225 5.00574 18.7976 5.00574 18.1504C5.00574 17.5031 5.5305 16.9783 6.17786 16.9783Z" fill="white"/>
<path d="M16.0032 19.3336H24.9383C25.5856 19.3336 26.1104 18.8087 26.1104 18.1615C26.1104 17.5142 25.5856 16.9893 24.9383 16.9893H17.1753V14.408C17.1753 13.7607 16.6505 13.2358 16.0032 13.2358C15.3558 13.2358 14.8311 13.7607 14.8311 14.408V18.1615C14.8311 18.8088 15.3558 19.3336 16.0032 19.3336Z" fill="white"/>
<path fill-rule="evenodd" clip-rule="evenodd" d="M31 18.2812C31 26.5655 24.2843 33.2812 16 33.2812C7.71573 33.2812 1 26.5655 1 18.2812C1 9.99698 7.71573 3.28125 16 3.28125C24.2843 3.28125 31 9.99698 31 18.2812ZM28.6562 18.2812C28.6562 25.2711 22.9899 30.9375 16 30.9375C9.01015 30.9375 3.34375 25.2711 3.34375 18.2812C3.34375 11.2914 9.01015 5.625 16 5.625C22.9899 5.625 28.6562 11.2914 28.6562 18.2812Z" fill="white"/>
<path fill-rule="evenodd" clip-rule="evenodd" d="M8.31665 34.2825V53.0433C8.31665 53.6905 8.84141 54.2154 9.48877 54.2154H13.5843C13.5518 54.4434 13.534 54.676 13.534 54.9129C13.534 57.6306 15.745 59.8416 18.4627 59.8416C21.1804 59.8416 23.3913 57.6306 23.3913 54.9129C23.3913 54.676 23.3735 54.4434 23.3411 54.2154H48.019C47.9865 54.4434 47.9687 54.676 47.9687 54.9129C47.9687 57.6306 50.1797 59.8416 52.8974 59.8416C55.615 59.8416 57.826 57.6306 57.826 54.9129C57.826 54.676 57.8082 54.4434 57.7757 54.2154H60.8278C61.4752 54.2154 62 53.6905 62 53.0433V47H60C59.4477 47 59 46.5523 59 46C59 45.4477 59.4477 45 60 45H62V42.7023C62 42.4979 61.9464 42.2969 61.8446 42.1194L61.1923 39.9815C61.1301 39.9936 61.0658 40 61 40H49C47.8954 40 47 39.1046 47 38V30.4895H44.5739V22.1565C44.5739 21.5093 44.0491 20.9844 43.4017 20.9844H33.7537C32.3319 29.5052 24.9244 36 16 36C13.2515 36 10.6469 35.384 8.31665 34.2825ZM51 48C51 48.5523 50.5523 49 50 49H24C23.4477 49 23 48.5523 23 48C23 47.4477 23.4477 47 24 47H50C50.5523 47 51 47.4477 51 48ZM18.4627 57.4973C17.0376 57.4973 15.8783 56.338 15.8783 54.9129C15.8783 53.4879 17.0376 52.3285 18.4627 52.3285C19.8877 52.3285 21.0471 53.4879 21.0471 54.9129C21.0471 56.338 19.8876 57.4973 18.4627 57.4973ZM52.8974 57.4973C51.4723 57.4973 50.3129 56.338 50.3129 54.9129C50.3129 53.4879 51.4723 52.3285 52.8974 52.3285C54.3224 52.3285 55.4818 53.4879 55.4818 54.9129C55.4818 56.338 54.3224 57.4973 52.8974 57.4973ZM18 43C17.4477 43 17 43.4477 17 44C17 44.5523 17.4477 45 18 45H44C44.5523 45 45 44.5523 45 44C45 43.4477 44.5523 43 44 43H18ZM12 40C12 39.4477 12.4477 39 13 39H39C39.5523 39 40 39.4477 40 40C40 40.5523 39.5523 41 39 41H13C12.4477 41 12 40.5523 12 40Z" fill="#FAA701"/>
<path d="M60.0564 38L55.5152 31.0786C55.3063 30.7143 54.9183 30.4895 54.4984 30.4895H49V37C49 37.5523 49.4477 38 50 38H60.0564Z" fill="#FAA701"/>
</svg>
