<svg width="60" height="59" viewBox="0 0 60 59" fill="none" xmlns="http://www.w3.org/2000/svg">
<path d="M32.2816 1.18226C32.1898 1.18864 32.0973 1.20636 32.0074 1.23527L13.1274 7.13527C12.6341 7.28867 12.3 7.7443 12.3 8.25996V51.92C12.3 52.4616 12.6679 52.9332 13.1942 53.0654L32.0742 57.7854C32.1686 57.809 32.2644 57.82 32.36 57.82C32.6208 57.82 32.8759 57.7328 33.086 57.5687C33.3727 57.3457 33.54 57.0034 33.54 56.64V2.35996C33.54 1.98472 33.3627 1.63114 33.0606 1.40812C32.8341 1.24174 32.5571 1.16312 32.2816 1.18226ZM28.82 28.32C29.4713 28.32 30 29.1129 30 30.09C30 31.067 29.4713 31.86 28.82 31.86C28.1686 31.86 27.64 31.067 27.64 30.09C27.64 29.1129 28.1686 28.32 28.82 28.32Z" fill="#FAA701"/>
<path d="M35.9 8.26002V5.90002H46.52C46.8329 5.90006 47.1331 6.02439 47.3543 6.24567C47.5756 6.46696 47.7 6.76708 47.7 7.08002V31.86H45.34V8.26002H35.9Z" fill="white"/>
<path fill-rule="evenodd" clip-rule="evenodd" d="M37.5 34C36.3954 34 35.5 34.8954 35.5 36V51C35.5 52.1046 36.3954 53 37.5 53H54.5C55.6046 53 56.5 52.1046 56.5 51V36C56.5 34.8954 55.6046 34 54.5 34H37.5ZM43.5 39C42.9477 39 42.5 39.4477 42.5 40C42.5 40.5523 42.9477 41 43.5 41H49.5C50.0523 41 50.5 40.5523 50.5 40C50.5 39.4477 50.0523 39 49.5 39H43.5Z" fill="#FAA701"/>
</svg>
