<svg width="64" height="64" viewBox="0 0 64 64" fill="none" xmlns="http://www.w3.org/2000/svg">
<path fill-rule="evenodd" clip-rule="evenodd" d="M33.8182 16.7574L35 11L42.5 15H49.5C52.2614 15 54.5 17.2386 54.5 20V53.5C54.5 56.8137 51.8137 59.5 48.5 59.5H26.5C23.7386 59.5 21.5 57.2614 21.5 54.5V43.5H40.5L42.5 24.4782L33.8182 16.7574ZM45.5 22.5L43.5 46.5H24.5V54.5C24.5 55.6046 25.3954 56.5 26.5 56.5H48.5C50.1569 56.5 51.5 55.1569 51.5 53.5V20C51.5 18.8954 50.6046 18 49.5 18H42.25L35 14L45.5 22.5Z" fill="white"/>
<path d="M43.91 51.34C45.4347 51.34 46.6721 50.1025 46.6721 48.578V9.76211C46.6721 8.23747 45.4347 7 43.91 7H25.1784V7.90625C25.1888 8.00023 25.1784 8.10001 25.1784 8.19922L25.1941 15.7719C25.1941 18.5 23.5 20.6619 20.3041 20.6619H12.7383C12.66 20.6619 12.5765 20.6566 12.4981 20.6514H11.5374V48.578C11.5374 50.1025 12.7749 51.34 14.2995 51.34H43.91ZM29.6609 38.952H20.0065C19.2859 38.952 18.7011 38.3671 18.7011 37.6466C18.7011 36.926 19.2859 36.3413 20.0065 36.3413H29.6661C30.3866 36.3413 30.9714 36.926 30.9714 37.6466C30.9714 38.3671 30.3814 38.952 29.6609 38.952ZM39.3204 32.2895H20.0065C19.2859 32.2895 18.7011 31.7047 18.7011 30.9842C18.7011 30.2636 19.2859 29.6788 20.0065 29.6788H39.3204C40.041 29.6788 40.6258 30.2636 40.6258 30.9842C40.6258 31.7047 40.041 32.2895 39.3204 32.2895ZM20.0065 22.6038H39.3204C40.041 22.6038 40.6258 23.1886 40.6258 23.9091C40.6258 24.6297 40.041 25.2145 39.3204 25.2145H20.0065C19.2859 25.2145 18.7011 24.6297 18.7011 23.9091C18.7011 23.1886 19.2859 22.6038 20.0065 22.6038Z" fill="#FAA701"/>
<path d="M25.1784 7L13.8894 7.04177C13.8842 7.04177 13.8738 7.04177 13.8685 7.04177C12.605 7.05221 11.5816 8.07561 11.5711 9.33918C11.5711 9.3444 11.5711 9.35485 11.5711 9.36007V21.9311C11.5711 22.6307 12.1455 23.0954 12.7407 23.0954C13.0278 23.0954 13.315 22.991 13.5552 22.7508L25.4552 21L26.2802 9.0259C27.0112 8.2949 26.2174 7 25.1784 7Z" fill="#FAA701"/>
</svg>
