<svg width="64" height="64" viewBox="0 0 64 64" fill="none" xmlns="http://www.w3.org/2000/svg">
<path d="M18 49V35C18 34.4477 18.4477 34 19 34H44C44.5523 34 45 34.4477 45 35V49" stroke="white" stroke-width="2" stroke-linecap="round"/>
<path fill-rule="evenodd" clip-rule="evenodd" d="M32.322 42.1023C32.322 41.9918 32.4115 41.9023 32.522 41.9023H41.8C41.9105 41.9023 42 41.9918 42 42.1023V43.7349C42 43.8453 41.9105 43.9349 41.8 43.9349H32.522C32.4115 43.9349 32.322 43.8453 32.322 43.7349V42.1023ZM32.322 46.1674C32.322 46.057 32.4115 45.9674 32.522 45.9674H41.8C41.9105 45.9674 42 46.057 42 46.1674V47.8C42 47.9105 41.9105 48 41.8 48H32.522C32.4115 48 32.322 47.9105 32.322 47.8V46.1674ZM21 42.1023C21 41.9918 21.0895 41.9023 21.2 41.9023H30.478C30.5885 41.9023 30.678 41.9918 30.678 42.1023V43.7349C30.678 43.8453 30.5885 43.9349 30.478 43.9349H21.2C21.0895 43.9349 21 43.8453 21 43.7349V42.1023ZM21 46.1674C21 46.057 21.0895 45.9674 21.2 45.9674H30.478C30.5885 45.9674 30.678 46.057 30.678 46.1674V47.8C30.678 47.9105 30.5885 48 30.478 48H21.2C21.0895 48 21 47.9105 21 47.8V46.1674Z" fill="white"/>
<path d="M32.322 38.2C32.322 38.0895 32.4115 38 32.522 38H41.8C41.9105 38 42 38.0895 42 38.2V39.8326C42 39.943 41.9105 40.0326 41.8 40.0326H32.522C32.4115 40.0326 32.322 39.943 32.322 39.8326V38.2Z" fill="white"/>
<path d="M21 38.2C21 38.0895 21.0895 38 21.2 38H30.478C30.5885 38 30.678 38.0895 30.678 38.2V39.8326C30.678 39.943 30.5885 40.0326 30.478 40.0326H21.2C21.0895 40.0326 21 39.943 21 39.8326V38.2Z" fill="white"/>
<path fill-rule="evenodd" clip-rule="evenodd" d="M30.7087 10.3409C31.2138 10.1233 31.7862 10.1233 32.2913 10.3409L53.7913 19.6037C54.5248 19.9198 55 20.6419 55 21.4405V51C55 52.1046 54.1046 53 53 53H49.7031C48.5986 53 47.7031 52.1046 47.7031 51V35.3497C47.7031 33.1406 45.9123 31.3497 43.7031 31.3497H19.2969C17.0877 31.3497 15.2969 33.1406 15.2969 35.3497V51C15.2969 52.1046 14.4014 53 13.2969 53H10C8.89543 53 8 52.1046 8 51V21.4405C8 20.6419 8.47517 19.9198 9.20866 19.6037L30.7087 10.3409ZM31 20C30.4477 20 30 20.4477 30 21V23C30 23.5523 30.4477 24 31 24H33C33.5523 24 34 23.5523 34 23V21C34 20.4477 33.5523 20 33 20H31Z" fill="#FAA701"/>
</svg>
