<svg width="251" height="120" viewBox="0 0 251 120" fill="none" xmlns="http://www.w3.org/2000/svg">
<path d="M103.502 69.8971H94.5049V72.6813H103.502V69.8971Z" fill="black"/>
<path d="M200.495 68.8828H193.542V75.7749H200.495V68.8828Z" fill="#1A1A1A"/>
<path d="M82.2675 43.1803V50.1993C82.2675 50.9347 81.6741 51.528 80.9387 51.528H55.6064L55.9108 49.3879L55.9819 48.8655L56.1289 47.8411C56.7578 44.3823 59.8768 41.8567 63.5334 41.8567H80.9335C81.674 41.8567 82.2675 42.45 82.2675 43.1803Z" fill="white"/>
<path d="M195.362 68.8827H151.483V80.1921H195.362V68.8827Z" fill="#333333"/>
<path d="M63.9339 76.6422H52.2236V78.3919H63.9339V76.6422Z" fill="white"/>
<path d="M63.9339 76.6422H52.2236V78.3919H63.9339V76.6422Z" fill="white"/>
<path d="M80.8023 71.4084L64.5938 73.7869V80.4205H80.8023V71.4084Z" fill="#E2E2E0"/>
<path d="M78.3369 63.4309V72.1691H68.3309C68.2446 72.1691 68.1583 72.1742 68.0721 72.1792C68.0264 72.1792 67.9859 72.1843 67.9453 72.1894C67.7881 72.2046 67.6309 72.235 67.4788 72.2756C67.428 72.2857 67.3774 72.301 67.3267 72.3162C66.7993 72.4835 66.3226 72.7726 65.9422 73.158C65.7495 73.3507 65.582 73.5637 65.44 73.797C65.298 74.0303 65.1865 74.2788 65.1003 74.5425C65.085 74.5932 65.0698 74.644 65.0596 74.6947C65.0191 74.8468 64.9887 75.0041 64.9735 75.1613C64.9684 75.2019 64.9633 75.2424 64.9633 75.2881C64.9582 75.3743 64.9532 75.4605 64.9532 75.5467V75.5619C64.9532 75.8966 64.8314 76.2009 64.6285 76.4443C64.6082 76.4646 64.5424 76.5407 64.5272 76.5509C64.512 76.5661 63.7158 76.9413 63.6702 76.9464C63.6296 76.9515 63.584 76.9515 63.5434 76.9515H52.0411C51.468 76.9515 51.0016 76.4849 51.0016 75.9119L50.8493 66.6259C50.8442 66.4332 50.8696 66.2455 50.9203 66.0579L52.4366 60.5452C52.4924 60.3322 52.5533 60.1242 52.6243 59.9112L52.6396 59.8656V59.8707C52.6549 59.825 52.67 59.7743 52.6852 59.7287L53.1111 58.5318L53.1924 58.3036L55.7992 50.9702L55.8854 50.7217C56.3317 49.469 57.5183 48.6322 58.847 48.6322H74.1326C74.1681 48.6322 74.1984 48.6322 74.2339 48.6322C74.2339 48.6322 74.234 48.6322 74.2391 48.6322C74.9796 48.6576 75.6643 48.9416 76.1917 49.4031C76.2728 49.4741 76.3538 49.5501 76.4299 49.6262C76.4502 49.6516 76.4706 49.6718 76.4908 49.6972C76.5061 49.7124 76.5162 49.7277 76.5315 49.7429C76.5923 49.8088 76.6429 49.8798 76.6937 49.9508C76.719 49.9863 76.7495 50.0268 76.7749 50.0674C77.0487 50.4833 77.2262 50.9753 77.2719 51.5027L78.3369 63.4309Z" fill="white"/>
<path d="M64.9032 82.2513L64.8223 81.0645L65.0402 80.9935C65.0453 80.7602 65.0604 80.532 65.0857 80.3038L64.878 80.2074L65.1214 79.041L65.3495 79.0359C65.4154 78.8128 65.4968 78.5947 65.583 78.3817L65.4104 78.2346L65.9582 77.1798L66.1813 77.2355C66.3081 77.0428 66.4399 76.8501 66.5819 76.6675L66.4552 76.4748L67.2666 75.6076L67.4645 75.7192C67.6369 75.567 67.8142 75.4199 68.0019 75.283L67.931 75.0649L68.9453 74.4462L69.1075 74.6085C69.3155 74.507 69.5286 74.4158 69.7467 74.3296L69.7365 74.1013L70.8826 73.7818L70.9943 73.9796C71.2174 73.939 71.4505 73.9086 71.6787 73.8833L71.7347 73.6601H72.9213L72.977 73.8833C73.2103 73.9036 73.4386 73.934 73.6617 73.9796L73.7734 73.7818L74.9195 74.1013L74.9093 74.3296C75.1274 74.4107 75.3405 74.502 75.5485 74.6085L75.7107 74.4462L76.725 75.0649L76.6539 75.283C76.8415 75.4199 77.0191 75.567 77.1915 75.7192L77.3894 75.6076L78.2008 76.4748L78.0741 76.6675C78.2161 76.8501 78.3479 77.0377 78.4747 77.2355L78.6978 77.1798L79.2456 78.2346L79.073 78.3817C79.1592 78.5947 79.2403 78.8128 79.3063 79.0359L79.5346 79.041L79.778 80.2074L79.57 80.3038C79.5954 80.532 79.6107 80.7602 79.6158 80.9935L79.8337 81.0645L79.7528 82.2513L79.5296 82.2918C79.4941 82.52 79.4484 82.7482 79.3875 82.9714L79.5752 83.0931L79.1795 84.2139L78.9514 84.1885C78.8551 84.4016 78.7486 84.6045 78.632 84.8022L78.784 84.9747L78.0993 85.9483L77.8864 85.8622C77.7393 86.0397 77.5769 86.207 77.4146 86.3693L77.5109 86.5773L76.588 87.3278L76.4055 87.1909C76.2128 87.3228 76.015 87.4394 75.8122 87.551L75.8528 87.7741L74.7622 88.2458L74.6253 88.0632C74.4072 88.1342 74.1842 88.2001 73.9559 88.2508L73.9356 88.4791L72.7591 88.6413L72.6779 88.4283C72.5613 88.4334 72.4496 88.4385 72.333 88.4385C72.2163 88.4385 72.0998 88.4334 71.9882 88.4283L71.907 88.6413L70.7305 88.4791L70.705 88.2508C70.4768 88.2001 70.2537 88.1342 70.0357 88.0632L69.8987 88.2458L68.8084 87.7741L68.849 87.551C68.6462 87.4394 68.4482 87.3177 68.2554 87.1909L68.0729 87.3278L67.15 86.5773L67.2463 86.3693C67.079 86.207 66.9217 86.0397 66.7746 85.8622L66.5616 85.9483L65.8769 84.9747L66.0292 84.8022C65.9126 84.6045 65.8061 84.3965 65.7098 84.1885L65.4815 84.2139L65.0808 83.0931L65.2685 82.9714C65.2127 82.7482 65.1669 82.52 65.1264 82.2918L64.9032 82.2513Z" fill="#232C33"/>
<g opacity="0.4">
<path d="M73.0969 84.6073C75.0758 84.1401 76.3012 82.157 75.8339 80.178C75.3666 78.1991 73.3836 76.9736 71.4047 77.4409C69.4257 77.9081 68.2001 79.8913 68.6674 81.8702C69.1347 83.8492 71.1179 85.0746 73.0969 84.6073Z" fill="#14191E"/>
</g>
<path d="M72.3281 84.5131C74.1823 84.5131 75.6855 83.0099 75.6855 81.1557C75.6855 79.3015 74.1823 77.7984 72.3281 77.7984C70.4739 77.7984 68.9707 79.3015 68.9707 81.1557C68.9707 83.0099 70.4739 84.5131 72.3281 84.5131Z" fill="#686A6B"/>
<path d="M72.3286 83.0069C73.3509 83.0069 74.1796 82.1781 74.1796 81.1557C74.1796 80.1334 73.3509 79.3046 72.3286 79.3046C71.3063 79.3046 70.4775 80.1334 70.4775 81.1557C70.4775 82.1781 71.3063 83.0069 72.3286 83.0069Z" fill="#31393F"/>
<g opacity="0.2">
<path d="M69.8431 78.8939C69.7569 79.1931 69.7111 79.5075 69.7111 79.8321C69.7111 81.6832 71.2123 83.1894 73.0685 83.1894C74.0524 83.1894 74.9349 82.7685 75.5486 82.0939C75.1428 83.4886 73.8546 84.508 72.3281 84.508C70.477 84.508 68.9707 83.0068 68.9707 81.1507C68.9707 80.2834 69.3005 79.4923 69.8431 78.8939Z" fill="#14191E"/>
</g>
<g opacity="0.2">
<path d="M79.5193 83.0575L79.575 83.093L79.4735 83.3821L79.4482 83.3668C79.4736 83.2654 79.499 83.1589 79.5193 83.0575Z" fill="#14191E"/>
<path d="M79.6562 81.0086L79.8336 81.0644L79.8083 81.4296L79.6763 81.389C79.6712 81.2622 79.6664 81.1354 79.6562 81.0086Z" fill="#14191E"/>
<path d="M65.6436 78.7772C65.5574 78.9902 65.4763 79.2082 65.4103 79.4314L65.1823 79.4365L65.0097 80.2682L64.8779 80.2073L65.1214 79.0409L65.3494 79.0359C65.39 78.8989 65.4356 78.7671 65.4864 78.6352L65.6436 78.7772Z" fill="#14191E"/>
<path d="M78.084 76.6776L77.45 75.998L77.2522 76.1096C77.0797 75.9575 76.9022 75.8104 76.7146 75.6735L76.7856 75.4554L75.7713 74.8366L75.6089 74.9989C75.401 74.8975 75.1881 74.8062 74.97 74.72L74.9802 74.4918L73.8339 74.1723L73.7224 74.37C73.4993 74.3295 73.2659 74.2991 73.0377 74.2737L72.982 74.0505H71.7954L71.7394 74.2737C71.5061 74.294 71.2778 74.3244 71.0547 74.37L70.9433 74.1723L69.797 74.4918L69.8071 74.72C69.589 74.8012 69.3762 74.8924 69.1682 74.9989L69.006 74.8366L67.9917 75.4554L68.0625 75.6735C67.8749 75.8104 67.6974 75.9575 67.5249 76.1096L67.3273 75.998L66.5158 76.8653L66.6426 77.058C66.5006 77.2405 66.3687 77.4282 66.242 77.626L66.0188 77.5702L65.532 78.5135C65.5472 78.4678 65.5625 78.4273 65.5828 78.3816L65.4102 78.2345L65.9579 77.1797L66.181 77.2355C66.3078 77.0427 66.4397 76.85 66.5817 76.6675L66.4549 76.4747L67.2664 75.6075L67.4643 75.7191C67.6367 75.5669 67.814 75.4199 68.0016 75.2829L67.9308 75.0648L68.9451 74.4461L69.1073 74.6084C69.3152 74.507 69.5284 74.4157 69.7464 74.3295L69.7363 74.1012L70.8823 73.7817L70.994 73.9795C71.2172 73.939 71.4503 73.9086 71.6785 73.8883L71.7344 73.6651H72.9211L72.9768 73.8883C73.2101 73.9086 73.4384 73.939 73.6615 73.9795L73.7732 73.7817L74.9192 74.1012L74.9091 74.3295C75.1272 74.4106 75.3402 74.5019 75.543 74.6084L75.7055 74.4461L76.7198 75.0648L76.6487 75.2829C76.8363 75.4199 77.0139 75.5669 77.1863 75.7191L77.3839 75.6075L78.1954 76.4747L78.0686 76.6675C78.0788 76.6725 78.0789 76.6725 78.084 76.6776Z" fill="#14191E"/>
<path d="M66.085 85.1977L66.0546 85.2332L65.8721 84.9746L65.9278 84.9137C65.9785 85.0101 66.0292 85.1064 66.085 85.1977Z" fill="#14191E"/>
<path d="M65.0402 80.9986C65.0402 80.8819 65.0454 80.7703 65.0555 80.6588L65.1467 80.7044C65.1213 80.9326 65.1062 81.1608 65.1011 81.3941L64.8829 81.4651L64.9389 82.2614L64.9032 82.2563L64.8223 81.0695L65.0402 80.9986Z" fill="#14191E"/>
<path d="M65.3283 83.367L65.2015 83.4482L65.0747 83.0932L65.2419 82.9866C65.2672 83.1134 65.2928 83.2402 65.3283 83.367Z" fill="#14191E"/>
<path d="M78.7586 77.5702L78.5352 77.626C78.4084 77.4333 78.2768 77.2405 78.1348 77.058L78.2412 76.8906C78.3224 77.0021 78.3983 77.1137 78.4693 77.2253L78.6924 77.1695L79.2402 78.2244L79.1439 78.3106L78.7586 77.5702Z" fill="#14191E"/>
<path d="M79.5902 79.4365L79.3622 79.4314C79.2962 79.2083 79.2151 78.9902 79.1289 78.7772L79.1948 78.7214C79.2303 78.8279 79.2658 78.9344 79.3013 79.0409L79.5296 79.046L79.773 80.2124L79.7527 80.2226L79.5902 79.4365Z" fill="#14191E"/>
</g>
<g opacity="0.4">
<path d="M78.1795 85.8266L78.0933 85.9483L77.936 85.8875C78.0172 85.8672 78.0983 85.8469 78.1795 85.8266Z" fill="#14191E"/>
<path d="M64.9032 82.2512L64.8223 81.0645L65.0402 80.9935C65.0453 80.7602 65.0604 80.532 65.0857 80.3038L64.878 80.2074L65.1214 79.0409L65.3495 79.0359C65.4154 78.8128 65.4968 78.5947 65.583 78.3817L65.4104 78.2346L65.9582 77.1797L66.1813 77.2355C66.3081 77.0428 66.4399 76.8501 66.5819 76.6675L66.4552 76.4748L67.2666 75.6076L67.4645 75.7191C67.6369 75.567 67.8142 75.4199 68.0019 75.283L67.931 75.0649L68.3164 74.8316C67.4846 75.9626 67.0029 77.3014 67.0029 78.7316C67.0029 82.8141 70.918 86.1208 75.7461 86.1208C76.4713 86.1208 77.1764 86.0447 77.8509 85.9027C77.714 86.065 77.5668 86.2171 77.4146 86.3693L77.5109 86.5772L76.588 87.3278L76.4055 87.1909C76.2128 87.3227 76.015 87.4394 75.8122 87.5509L75.8528 87.7741L74.7622 88.2457L74.6253 88.0632C74.4072 88.1342 74.1841 88.2001 73.9559 88.2508L73.9356 88.479L72.7591 88.6413L72.6779 88.4283C72.5613 88.4334 72.4496 88.4384 72.333 88.4384C72.2163 88.4384 72.0998 88.4334 71.9882 88.4283L71.907 88.6413L70.7305 88.479L70.705 88.2508C70.4768 88.2001 70.2537 88.1342 70.0357 88.0632L69.8987 88.2457L68.8084 87.7741L68.849 87.5509C68.6462 87.4394 68.4482 87.3177 68.2554 87.1909L68.0729 87.3278L67.15 86.5772L67.2463 86.3693C67.079 86.207 66.9217 86.0396 66.7746 85.8621L66.5616 85.9483L65.8769 84.9746L66.0292 84.8022C65.9126 84.6044 65.8061 84.3964 65.7098 84.1885L65.4815 84.2139L65.0808 83.0931L65.2685 82.9713C65.2127 82.7482 65.1669 82.52 65.1264 82.2918L64.9032 82.2512Z" fill="#14191E"/>
</g>
<path d="M72.3269 79.8067C72.4025 79.8067 72.4638 79.7455 72.4638 79.6698C72.4638 79.5942 72.4025 79.5329 72.3269 79.5329C72.2513 79.5329 72.1899 79.5942 72.1899 79.6698C72.1899 79.7455 72.2513 79.8067 72.3269 79.8067Z" fill="#22272B"/>
<g opacity="0.5">
<path d="M72.2155 79.5938C72.2155 79.5988 72.2155 79.6038 72.2155 79.6089C72.2155 79.685 72.2763 79.7459 72.3524 79.7459C72.3981 79.7459 72.4387 79.7205 72.4641 79.6901C72.454 79.756 72.398 79.8118 72.3321 79.8118C72.256 79.8118 72.1952 79.7509 72.1952 79.6748C72.1901 79.6444 72.2003 79.614 72.2155 79.5938Z" fill="#22272B"/>
</g>
<path d="M72.8047 79.7458C72.7743 79.8168 72.8048 79.893 72.8758 79.9234C72.9417 79.9538 73.0229 79.9234 73.0533 79.8524C73.0838 79.7814 73.0533 79.7053 72.9823 79.6748C72.9163 79.6444 72.8351 79.6748 72.8047 79.7458Z" fill="#22272B"/>
<g opacity="0.5">
<path d="M72.8607 79.6851C72.8556 79.6901 72.8556 79.6952 72.8505 79.7003C72.8201 79.7662 72.8506 79.8473 72.9216 79.8778C72.9622 79.8981 73.0078 79.893 73.0484 79.8676C73.0129 79.9234 72.942 79.9488 72.876 79.9235C72.8101 79.893 72.7745 79.8118 72.805 79.7459C72.8151 79.7206 72.8353 79.6952 72.8607 79.6851Z" fill="#22272B"/>
</g>
<path d="M73.3372 80.0603C73.2814 80.111 73.2763 80.1973 73.3271 80.2531C73.3778 80.3088 73.4642 80.3139 73.52 80.2632C73.5757 80.2125 73.5808 80.1263 73.5301 80.0705C73.4794 80.0147 73.393 80.0096 73.3372 80.0603Z" fill="#22272B"/>
<g opacity="0.5">
<path d="M73.4135 80.0298C73.4084 80.0349 73.4032 80.0349 73.3981 80.04C73.3423 80.0907 73.3373 80.1769 73.388 80.2327C73.4184 80.2682 73.464 80.2834 73.5046 80.2783C73.4488 80.3189 73.3727 80.3088 73.3271 80.258C73.2763 80.2023 73.2814 80.116 73.3372 80.0653C73.3575 80.04 73.3831 80.0298 73.4135 80.0298Z" fill="#22272B"/>
</g>
<path d="M73.6929 80.5675C73.6219 80.5929 73.5814 80.669 73.6067 80.74C73.6321 80.811 73.7081 80.8515 73.7791 80.8262C73.8501 80.8008 73.8906 80.7248 73.8652 80.6538C73.8399 80.5828 73.7639 80.5422 73.6929 80.5675Z" fill="#22272B"/>
<g opacity="0.5">
<path d="M73.7741 80.5675C73.769 80.5675 73.7638 80.5675 73.7588 80.5726C73.6878 80.598 73.6472 80.6741 73.6726 80.7451C73.6878 80.7907 73.7234 80.8211 73.764 80.8313C73.698 80.8465 73.6321 80.8059 73.6067 80.74C73.5814 80.669 73.6219 80.5929 73.6929 80.5675C73.7233 80.5574 73.7488 80.5574 73.7741 80.5675Z" fill="#22272B"/>
</g>
<path d="M73.8128 81.1761C73.7368 81.1659 73.6708 81.2217 73.6657 81.2978C73.6556 81.3738 73.7113 81.4398 73.7873 81.4449C73.8634 81.455 73.9294 81.3992 73.9344 81.3231C73.9395 81.247 73.8889 81.1811 73.8128 81.1761Z" fill="#22272B"/>
<g opacity="0.5">
<path d="M73.89 81.2064C73.8849 81.2064 73.8797 81.2013 73.8747 81.2013C73.7986 81.1912 73.7326 81.247 73.7276 81.3231C73.7225 81.3687 73.7429 81.4093 73.7734 81.4397C73.7074 81.4245 73.6618 81.3637 73.6669 81.2927C73.677 81.2166 73.743 81.1659 73.814 81.1709C73.8444 81.176 73.8697 81.1912 73.89 81.2064Z" fill="#22272B"/>
</g>
<path d="M73.677 81.7795C73.611 81.744 73.5298 81.7643 73.4893 81.8302C73.4487 81.8961 73.4741 81.9773 73.54 82.0178C73.6059 82.0533 73.6869 82.0331 73.7275 81.9671C73.763 81.8961 73.7429 81.815 73.677 81.7795Z" fill="#22272B"/>
<g opacity="0.5">
<path d="M73.7323 81.8352C73.7272 81.8301 73.722 81.8302 73.7169 81.8251C73.651 81.7896 73.57 81.8099 73.5295 81.8758C73.5092 81.9164 73.504 81.962 73.5243 82.0026C73.4685 81.962 73.4534 81.886 73.4889 81.8251C73.5244 81.7592 73.6106 81.7389 73.6766 81.7744C73.7019 81.7896 73.7221 81.8149 73.7323 81.8352Z" fill="#22272B"/>
</g>
<path d="M73.3057 82.2715C73.2601 82.2106 73.1789 82.1954 73.118 82.2411C73.0572 82.2867 73.0419 82.3679 73.0876 82.4287C73.1332 82.4896 73.2144 82.5048 73.2753 82.4592C73.3361 82.4186 73.3514 82.3323 73.3057 82.2715Z" fill="#22272B"/>
<g opacity="0.5">
<path d="M73.3312 82.3526C73.3261 82.3476 73.3261 82.3425 73.3211 82.3374C73.2754 82.2766 73.1942 82.2614 73.1334 82.307C73.0979 82.3324 73.0776 82.378 73.0776 82.4186C73.0472 82.3577 73.0574 82.2817 73.1183 82.2411C73.1791 82.1954 73.2654 82.2106 73.306 82.2715C73.3212 82.2968 73.3312 82.3222 73.3312 82.3526Z" fill="#22272B"/>
</g>
<path d="M72.7682 82.5759C72.753 82.5049 72.6818 82.4542 72.6058 82.4694C72.5348 82.4846 72.4841 82.5556 72.4993 82.6317C72.5145 82.7027 72.5857 82.7534 72.6617 82.7382C72.7327 82.7179 72.7834 82.6469 72.7682 82.5759Z" fill="#22272B"/>
<g opacity="0.5">
<path d="M72.7587 82.657C72.7587 82.6519 72.7587 82.6469 72.7587 82.6418C72.7435 82.5708 72.6723 82.5201 72.5962 82.5353C72.5506 82.5454 72.5151 82.5759 72.4999 82.6164C72.4948 82.5505 72.5404 82.4846 72.6064 82.4744C72.6774 82.4592 72.7536 82.5049 72.7688 82.581C72.7739 82.6012 72.7688 82.6316 72.7587 82.657Z" fill="#22272B"/>
</g>
<path d="M72.1505 82.6315C72.1657 82.5605 72.1201 82.4844 72.044 82.4692C71.973 82.454 71.897 82.4997 71.8818 82.5758C71.8666 82.6468 71.9122 82.7228 71.9883 82.738C72.0644 82.7532 72.1353 82.7025 72.1505 82.6315Z" fill="#22272B"/>
<g opacity="0.5">
<path d="M72.1098 82.7026C72.1098 82.6975 72.115 82.6924 72.115 82.6873C72.1303 82.6163 72.0846 82.5402 72.0086 82.525C71.9629 82.5149 71.9171 82.5301 71.8867 82.5606C71.907 82.4946 71.973 82.4591 72.044 82.4692C72.115 82.4845 72.1657 82.5555 72.1504 82.6316C72.1454 82.662 72.1301 82.6823 72.1098 82.7026Z" fill="#22272B"/>
</g>
<path d="M71.5684 82.4337C71.6141 82.3729 71.5988 82.2867 71.538 82.2461C71.4771 82.2005 71.3908 82.2156 71.3503 82.2765C71.3046 82.3373 71.3199 82.4236 71.3807 82.4641C71.4365 82.5047 71.5228 82.4946 71.5684 82.4337Z" fill="#22272B"/>
<g opacity="0.5">
<path d="M71.502 82.4794C71.5071 82.4743 71.5122 82.4692 71.5122 82.4692C71.5578 82.4084 71.5426 82.3222 71.4817 82.2816C71.4462 82.2562 71.4004 82.2512 71.3599 82.2614C71.4055 82.2106 71.4816 82.2005 71.5374 82.2461C71.5983 82.2918 71.6135 82.3729 71.5679 82.4338C71.5476 82.4541 71.5274 82.4743 71.502 82.4794Z" fill="#22272B"/>
</g>
<path d="M71.1098 82.0128C71.1757 81.9773 71.196 81.891 71.1605 81.8251C71.125 81.7592 71.0388 81.7389 70.9728 81.7744C70.9069 81.8099 70.8866 81.8961 70.9221 81.962C70.9626 82.0279 71.0438 82.0483 71.1098 82.0128Z" fill="#22272B"/>
<g opacity="0.5">
<path d="M71.0294 82.028C71.0345 82.028 71.0394 82.0229 71.0445 82.0229C71.1104 81.9874 71.1308 81.9012 71.0953 81.8353C71.0699 81.7947 71.0344 81.7744 70.9888 81.7693C71.0496 81.744 71.1259 81.7643 71.1614 81.8252C71.1969 81.8911 71.1765 81.9722 71.1106 82.0128C71.0852 82.028 71.0598 82.0331 71.0294 82.028Z" fill="#22272B"/>
</g>
<path d="M70.8667 81.4448C70.9428 81.4347 70.9933 81.3688 70.9883 81.2978C70.9832 81.2268 70.9122 81.171 70.8412 81.176C70.7651 81.1862 70.7145 81.2521 70.7196 81.3231C70.7247 81.3991 70.7906 81.4499 70.8667 81.4448Z" fill="#22272B"/>
<g opacity="0.5">
<path d="M70.7856 81.4245C70.7907 81.4245 70.7957 81.4245 70.8008 81.4245C70.8768 81.4144 70.9277 81.3484 70.9226 81.2774C70.9175 81.2318 70.8921 81.1963 70.8515 81.171C70.9174 81.171 70.9784 81.2217 70.9835 81.2927C70.9936 81.3687 70.9377 81.4347 70.8617 81.4398C70.8363 81.4448 70.811 81.4397 70.7856 81.4245Z" fill="#22272B"/>
</g>
<path d="M70.8721 80.8261C70.9431 80.8514 71.0191 80.8109 71.0445 80.7399C71.0698 80.6689 71.0293 80.5928 70.9583 80.5674C70.8873 80.542 70.8113 80.5826 70.7859 80.6536C70.7657 80.7246 70.8011 80.8007 70.8721 80.8261Z" fill="#22272B"/>
<g opacity="0.5">
<path d="M70.8057 80.7755C70.8107 80.7755 70.8157 80.7806 70.8208 80.7806C70.8918 80.8059 70.968 80.7653 70.9934 80.6943C71.0086 80.6487 70.9984 80.6031 70.9731 80.5726C71.0339 80.6031 71.0642 80.669 71.0439 80.735C71.0185 80.806 70.9425 80.8465 70.8715 80.8211C70.8462 80.8161 70.826 80.8009 70.8057 80.7755Z" fill="#22272B"/>
</g>
<path d="M71.1365 80.2632C71.1923 80.3139 71.2785 80.3088 71.3292 80.2531C71.3799 80.1973 71.3748 80.111 71.319 80.0603C71.2632 80.0096 71.1771 80.0147 71.1264 80.0705C71.0757 80.1263 71.0807 80.2125 71.1365 80.2632Z" fill="#22272B"/>
<g opacity="0.5">
<path d="M71.0913 80.192C71.0964 80.1971 71.0964 80.2022 71.1015 80.2022C71.1572 80.2529 71.2434 80.2478 71.2941 80.192C71.3245 80.1565 71.3347 80.1109 71.3246 80.0703C71.3702 80.121 71.3702 80.1971 71.3246 80.2478C71.2739 80.3036 71.1877 80.3087 71.1319 80.258C71.1116 80.2427 71.1015 80.2174 71.0913 80.192Z" fill="#22272B"/>
</g>
<path d="M71.5979 79.8575C71.6283 79.9234 71.7095 79.9589 71.7755 79.9285C71.8414 79.898 71.8767 79.8169 71.8463 79.751C71.8159 79.685 71.7349 79.6495 71.669 79.68C71.6031 79.7104 71.5675 79.7865 71.5979 79.8575Z" fill="#22272B"/>
<g opacity="0.5">
<path d="M71.5922 79.7713C71.5922 79.7763 71.5974 79.7814 71.5974 79.7865C71.6278 79.8524 71.709 79.8879 71.7749 79.8575C71.8155 79.8372 71.8459 79.8017 71.8509 79.7611C71.8712 79.827 71.8408 79.8981 71.7749 79.9234C71.7039 79.9539 71.6278 79.9234 71.5974 79.8524C71.5872 79.8271 71.5871 79.8017 71.5922 79.7713Z" fill="#22272B"/>
</g>
<path d="M52.0165 77.7985C51.7224 77.7985 51.4636 77.976 51.3571 78.2498C51.0629 79.0258 50.5 80.5422 50.5 80.7907V83.5901C50.5 84.1784 51.0426 84.6602 51.707 84.6602H63.9345V82.3425H64.5937V77.8441L52.0165 77.7985Z" fill="white"/>
<g opacity="0.4">
<path d="M54.4814 54.652C54.4814 54.652 54.4662 76.6776 54.4814 76.9565V54.652Z" fill="#4D4D4D"/>
<path d="M54.329 76.9616C54.3138 76.6827 54.329 55.5497 54.329 54.647H54.6386C54.6386 54.865 54.6234 76.6421 54.6386 76.9464L54.329 76.9616Z" fill="#4D4D4D"/>
</g>
<path d="M56.4542 62.3405L67.794 60.459C68.2048 60.388 68.6256 60.3677 69.0465 60.3879C69.7464 60.4184 70.8368 60.3981 71.7598 60.3727C72.7031 60.3423 73.4536 59.5714 73.4536 58.6281V52.1112C73.4536 51.5888 72.9009 51.1628 72.2162 51.1628H59.1318C57.7473 51.1628 55.3079 59.0592 55.3079 59.0592C54.8565 59.9467 55.3384 62.3405 56.4542 62.3405Z" fill="#333333"/>
<path d="M56.2158 63.1799H58.001V62.338H56.2158V63.1799Z" fill="#1A1A1A"/>
<path d="M72.8556 66.1846H69.7672C69.6302 66.1846 69.5186 66.0731 69.5186 65.9361V65.5304C69.8634 65.1856 70.0563 64.9928 70.4011 64.6479H72.8049C72.9824 64.6479 73.1295 64.79 73.1295 64.9725V65.9108C73.1245 66.063 73.0027 66.1846 72.8556 66.1846Z" fill="black"/>
<path d="M72.8556 66.2861H69.7671C69.5744 66.2861 69.417 66.1289 69.417 65.9361V65.4899L70.3553 64.5516H72.8048C73.0381 64.5516 73.2308 64.7393 73.2308 64.9776V65.9158C73.2257 66.1187 73.0585 66.2861 72.8556 66.2861ZM69.6201 65.571V65.9361C69.6201 66.0173 69.686 66.0832 69.7671 66.0832H72.8556C72.9469 66.0832 73.023 66.0071 73.023 65.9158V64.9776C73.023 64.8559 72.9216 64.7545 72.7999 64.7545H70.4365L69.6201 65.571Z" fill="#666666"/>
<path d="M53.2545 71.9459L50.9773 71.9966L50.8201 68.548C50.7947 67.9698 51.4287 67.488 52.2452 67.4677L53.1379 67.4474C53.5994 67.4373 53.9899 67.6959 54.0051 68.0256L54.1522 71.2663C54.1674 71.6314 53.7617 71.9357 53.2545 71.9459Z" fill="#979797"/>
<g opacity="0.7">
<path d="M53.9997 68.0256C53.9896 67.7822 53.7766 67.5794 53.4824 67.4932L53.6144 70.4295C53.6296 70.7947 53.229 71.099 52.7168 71.1092L50.9365 71.1497L50.9771 71.9967L53.2544 71.9459C53.7666 71.9358 54.1672 71.6315 54.152 71.2663L53.9997 68.0256Z" fill="#979797"/>
</g>
<path d="M57.2399 61.5696L67.6516 59.9467C68.032 59.8859 68.4175 59.8707 68.8029 59.8859C69.4419 59.9112 70.4461 59.896 71.2931 59.8707C72.1603 59.8453 72.845 59.1809 72.845 58.3644V52.7401C72.845 52.2887 72.3377 51.9236 71.7089 51.9236H59.6945C58.4215 51.9236 56.1801 58.7346 56.1801 58.7346C55.7693 59.5055 56.2155 61.5696 57.2399 61.5696Z" fill="#424756"/>
<path d="M57.9451 62.9845C57.1235 62.9845 56.4541 62.2745 56.4541 61.4022V51.6852C56.4541 50.8129 57.1235 50.1029 57.9451 50.1029H58.8274C58.9491 50.1029 59.0456 50.1992 59.0456 50.3209C59.0456 50.4427 58.9491 50.539 58.8274 50.539H57.9451C57.3669 50.539 56.8951 51.0513 56.8951 51.6801V61.3972C56.8951 62.026 57.3669 62.5383 57.9451 62.5383C58.0668 62.5383 58.163 62.6346 58.163 62.7563C58.163 62.878 58.0668 62.9845 57.9451 62.9845Z" fill="#1A1A1A"/>
<path d="M56.2613 56.5082H57.3215C57.5649 56.5082 57.7625 56.3104 57.7625 56.067V51.7004C57.7625 51.457 57.5649 51.2592 57.3215 51.2592H56.2613C56.0179 51.2592 55.8203 51.457 55.8203 51.7004V56.067C55.8203 56.3104 56.0179 56.5082 56.2613 56.5082Z" fill="#666666"/>
<path d="M56.2567 61.0015H57.332C57.5196 61.0015 57.6717 60.8493 57.6717 60.6617V57.8927C57.6717 57.705 57.5196 57.5529 57.332 57.5529H56.2567C56.0691 57.5529 55.917 57.705 55.917 57.8927V60.6617C55.917 60.8493 56.0691 61.0015 56.2567 61.0015Z" fill="#666666"/>
<g opacity="0.4">
<path d="M56.0484 51.3201V55.5192C56.0484 55.7677 56.241 55.9757 56.4743 55.9757H57.5649C57.6359 55.9757 57.7016 55.9554 57.7625 55.9199V56.0518C57.7625 56.3003 57.5699 56.5082 57.3366 56.5082H56.2462C56.013 56.5082 55.8203 56.3053 55.8203 56.0518V51.7156C55.8203 51.5432 55.9115 51.3961 56.0484 51.3201Z" fill="#323E47"/>
</g>
<g opacity="0.3">
<path d="M56.0336 57.6392V60.3372C56.0336 60.5299 56.1805 60.6871 56.358 60.6871H57.4536C57.5347 60.6871 57.6058 60.6567 57.6616 60.606V60.6567C57.6616 60.8494 57.5144 61.0066 57.3369 61.0066H56.2414C56.0639 61.0066 55.917 60.8494 55.917 60.6567V57.908C55.917 57.7964 55.9626 57.7 56.0336 57.6392Z" fill="#323E47"/>
</g>
<path d="M62.3071 83.7779H54.4819V74.2536H63.3977V82.6926C63.3977 83.286 62.9106 83.7779 62.3071 83.7779Z" fill="#C3CAD0"/>
<g opacity="0.7">
<path d="M63.3977 78.3918H54.4819V79.0968H63.3977V78.3918Z" fill="#676D70"/>
</g>
<g opacity="0.7">
<path d="M63.3977 82.1902H54.4819V82.8952H63.3977V82.1902Z" fill="#676D70"/>
</g>
<g opacity="0.4">
<path d="M63.3977 78.8078H54.4819V79.5127H63.3977V78.8078Z" fill="#333333"/>
</g>
<g opacity="0.4">
<path d="M63.3977 76.2873H54.4819V76.9922H63.3977V76.2873Z" fill="#333333"/>
</g>
<g opacity="0.4">
<path d="M63.3977 82.581H54.4819V83.2859H63.3977V82.581Z" fill="#333333"/>
</g>
<g opacity="0.2">
<path d="M51.0985 78.9446C51.0377 79.1627 51.0022 79.325 51.0022 79.396V82.5656C51.0022 83.2351 51.5448 83.7727 52.2092 83.7727H63.9345V84.6602H51.707C51.6664 84.6602 51.6209 84.6602 51.5854 84.6551C50.9768 84.5942 50.5 84.077 50.5 83.4532V80.7906L51.0985 78.9446Z" fill="#4D4D4D"/>
<path d="M64.5886 81.1558H64.4365V82.0433H64.5886V81.1558Z" fill="#4D4D4D"/>
</g>
<path d="M82.2634 71.8394H74.4736V48.6322H79.8495C81.1833 48.6322 82.2686 49.7124 82.2686 51.0513V71.8394H82.2634Z" fill="white"/>
<g opacity="0.4">
<path d="M82.268 68.9994V80.6942H80.5283C80.5283 80.324 80.5234 79.893 80.5234 79.4061C80.5183 77.9607 80.0821 76.7182 79.4786 75.6836C78.2057 73.4927 75.8272 72.1589 73.2762 72.1386C72.059 72.1285 70.8621 72.1285 70.6897 72.1488C70.3195 72.1944 69.9493 72.2401 69.5892 72.2958C69.4066 72.3212 69.2291 72.3567 69.0516 72.3871C68.9603 72.4023 68.8791 72.4227 68.7879 72.4429C68.7016 72.4632 68.6153 72.4784 68.5291 72.5038C68.1842 72.59 67.8597 72.6965 67.5655 72.8385C67.4945 72.874 67.4136 72.9095 67.3476 72.9501L67.1446 73.0718C67.0229 73.1631 66.8911 73.2442 66.7694 73.3659C66.5209 73.5941 66.2926 73.8477 66.0847 74.1368C65.6739 74.7099 65.3442 75.3742 65.1058 76.0944C64.8675 76.8095 64.7103 77.5753 64.619 78.3461C64.5683 78.7316 64.548 79.1272 64.5328 79.5177C64.5277 79.7155 64.5228 79.9133 64.5278 80.106C64.5278 80.2023 64.5329 80.3037 64.538 80.4001C64.538 80.4965 64.548 80.5979 64.5531 80.6791V80.7044C64.5785 81.029 64.33 81.318 63.9902 81.3434C63.6707 81.3688 63.3918 81.1152 63.3461 80.7957C63.3309 80.6892 63.3207 80.5979 63.3055 80.5015L63.2751 80.177C63.2548 79.964 63.2344 79.751 63.2243 79.538C63.1989 79.112 63.194 78.686 63.199 78.2599C63.2092 77.4029 63.2954 76.5356 63.4729 75.6735C63.6504 74.8063 63.9345 73.939 64.3807 73.1073C64.6039 72.6914 64.8778 72.2959 65.1922 71.9206C65.3444 71.7329 65.527 71.5452 65.7095 71.3677C65.9023 71.2004 66.0899 71.033 66.2927 70.8809C66.6934 70.5817 67.1041 70.3129 67.5301 70.0948C67.9561 69.8717 68.3871 69.6739 68.8233 69.5217C69.6956 69.1972 70.5881 69.0247 71.4757 68.9131C72.3632 68.8117 82.268 68.9994 82.268 68.9994Z" fill="#333333"/>
</g>
<path d="M118.569 71.6873V80.6943H80.543V80.4205C80.5379 78.9751 80.1018 77.7326 79.5084 76.698C78.2507 74.5071 75.8922 73.1733 73.3666 73.153C72.1596 73.1429 70.978 73.1429 70.8056 73.1631C70.4354 73.2088 70.0752 73.2545 69.7202 73.3102C69.5427 73.3356 69.3652 73.3711 69.1928 73.4015C69.1066 73.4167 69.0205 73.437 68.9343 73.4573C68.848 73.4776 68.7618 73.4928 68.6807 73.5182C68.3409 73.6044 68.0214 73.7109 67.7273 73.8529C67.6563 73.8884 67.5751 73.9239 67.5091 73.9645L67.3063 74.0913C67.1846 74.1826 67.0578 74.2637 66.9361 74.3854C66.6927 74.6136 66.4644 74.8672 66.2616 75.1512C65.8558 75.7243 65.5261 76.3886 65.2928 77.1088C65.0595 77.8239 64.9025 78.5896 64.8112 79.3605C64.7605 79.751 64.74 80.1416 64.7248 80.5321C64.7197 80.7299 64.7147 80.9277 64.7198 81.1204C64.7198 81.2167 64.7249 81.3131 64.73 81.4094C64.735 81.5058 64.74 81.6072 64.7451 81.6884V81.7137C64.7704 82.0383 64.5272 82.3274 64.1874 82.3527C63.8679 82.3781 63.5939 82.1245 63.5483 81.805C63.533 81.6985 63.523 81.6072 63.5128 81.5108L63.4772 81.1914C63.4569 80.9784 63.4419 80.7654 63.4267 80.5524C63.4013 80.1264 63.3961 79.7003 63.4012 79.2743C63.4113 78.4173 63.4925 77.55 63.675 76.6879C63.8475 75.8207 64.1315 74.9534 64.5727 74.1217C64.7959 73.7058 65.0647 73.3102 65.374 72.935C65.5211 72.7473 65.7086 72.5596 65.8862 72.3821C66.0738 72.2148 66.2616 72.0474 66.4594 71.9003C66.855 71.6011 67.2607 71.3323 67.6867 71.1142C68.1025 70.8911 68.5336 70.6984 68.9647 70.5412C69.8319 70.2166 70.7142 70.0442 71.5916 69.9326C72.4639 69.8261 82.2673 70.0188 82.2673 70.0188V71.6924H118.569V71.6873Z" fill="white"/>
<g opacity="0.4">
<path d="M66.5272 74.7201C66.4562 74.7556 66.375 74.7911 66.309 74.8317L66.1062 74.9585C65.9845 75.0497 65.8577 75.1309 65.736 75.2526C65.4926 75.4808 65.2643 75.7344 65.0615 76.0184C64.6557 76.5915 64.326 77.2558 64.0927 77.976C63.8594 78.6911 63.7024 79.4569 63.6111 80.2278C63.5604 80.6183 63.5401 81.0087 63.5249 81.3992C63.5249 81.4702 63.5249 81.5413 63.5249 81.6072C63.535 81.6681 63.54 81.734 63.5502 81.805C63.5958 82.1245 63.8698 82.373 64.1893 82.3527C64.524 82.3273 64.7673 82.0383 64.747 81.7137V81.6884C64.7419 81.6072 64.7369 81.5058 64.7319 81.4094C64.7268 81.313 64.7217 81.2167 64.7217 81.1203C64.7217 80.9226 64.7216 80.7248 64.7267 80.532C64.7419 80.1415 64.7624 79.751 64.8131 79.3605C64.9044 78.5845 65.0614 77.8238 65.2947 77.1088C65.5331 76.3937 65.8577 75.7243 66.2635 75.1512C66.3903 74.9737 66.5272 74.8114 66.6743 74.6542C66.6236 74.6795 66.5728 74.6998 66.5272 74.7201Z" fill="white"/>
<path d="M82.2688 71.6873V70.0137C82.2688 70.0137 72.4654 69.821 71.5931 69.9275C70.7157 70.039 69.8335 70.2064 68.9662 70.5361C68.5351 70.6933 68.1041 70.886 67.6882 71.1092C67.2673 71.3272 66.8565 71.6011 66.4609 71.8952C66.3291 71.9916 66.2074 72.0981 66.0806 72.2046C66.2124 72.1234 66.3493 72.0474 66.4862 71.9764C66.9071 71.7532 67.3331 71.5605 67.7642 71.4033C68.6314 71.0787 69.514 70.9063 70.3913 70.7947C71.2636 70.6882 81.0668 70.8809 81.0668 70.8809V72.5545H117.369V80.6943H118.565V71.6873H82.2688Z" fill="white"/>
</g>
<g opacity="0.2">
<path d="M79.4226 59.962H77.1355C76.2327 59.962 75.4922 59.2266 75.4922 58.3239V52.8618C75.4922 51.9591 76.2277 51.2238 77.1355 51.2238H79.4226C80.3253 51.2238 81.0659 51.9591 81.0659 52.8618V58.3239C81.0608 59.2266 80.3253 59.962 79.4226 59.962ZM77.1355 51.4216C76.3443 51.4216 75.7054 52.0657 75.7054 52.8518V58.3137C75.7054 59.1049 76.3494 59.7439 77.1355 59.7439H79.4226C80.2138 59.7439 80.8529 59.0998 80.8529 58.3137V52.8518C80.8529 52.0606 80.2087 51.4216 79.4226 51.4216H77.1355Z" fill="black"/>
</g>
<g opacity="0.6">
<path d="M64.6433 81.891C64.3238 81.9113 64.0498 81.6628 64.0042 81.3433C63.9889 81.2368 63.9789 81.1455 63.9687 81.0491L63.9383 80.7296C63.918 80.5166 63.9027 80.3036 63.8875 80.0906C63.8622 79.6646 63.8572 79.2386 63.8623 78.8075C63.8724 77.9504 63.9536 77.0832 64.1361 76.2211C64.3086 75.3538 64.5926 74.4866 65.0338 73.6548C65.2519 73.239 65.5258 72.8434 65.8351 72.4681C65.8808 72.4123 65.9313 72.3515 65.982 72.2957C65.9516 72.3261 65.9161 72.3515 65.8857 72.3819C65.7031 72.5645 65.5206 72.7522 65.3736 72.9347C65.0642 73.31 64.7954 73.7056 64.5722 74.1214C64.131 74.9481 63.847 75.8204 63.6746 76.6877C63.492 77.5549 63.4108 78.417 63.4007 79.2741C63.3956 79.7052 63.4008 80.1312 63.4262 80.5572C63.4363 80.7702 63.4564 80.9832 63.4767 81.1962L63.5072 81.5157C63.5173 81.612 63.5275 81.7034 63.5478 81.8099C63.5934 82.1243 63.8674 82.3779 64.1869 82.3576C64.4658 82.3373 64.6788 82.1345 64.7295 81.8809C64.694 81.8809 64.6687 81.8859 64.6433 81.891Z" fill="#676D70"/>
<path d="M80.5375 80.6942C80.5375 80.6029 80.5375 80.5167 80.5375 80.4203C80.5324 78.975 80.0963 77.7324 79.5029 76.6978C78.2451 74.5069 75.887 73.1731 73.3614 73.1528C72.1543 73.1427 70.9725 73.1427 70.8001 73.163C70.4299 73.2086 70.07 73.2543 69.715 73.3101C69.5375 73.3354 69.3599 73.3709 69.1875 73.4013C69.1013 73.4165 69.015 73.4369 68.9287 73.4572C68.8425 73.4775 68.7563 73.4927 68.6752 73.518C68.3354 73.6042 68.0159 73.7107 67.7218 73.8527C67.6508 73.8882 67.5695 73.9237 67.5036 73.9643L67.3008 74.0911C67.2044 74.1621 67.1133 74.2229 67.022 74.3041C67.1386 74.1671 67.2654 74.0404 67.3922 73.9237C67.5139 73.802 67.6407 73.7209 67.7624 73.6296L67.9652 73.5079C68.0311 73.4673 68.1072 73.4368 68.1782 73.3962C68.4723 73.2542 68.792 73.1478 69.1318 73.0616C69.2129 73.0362 69.2992 73.021 69.3854 73.0007C69.4716 72.9855 69.5526 72.9602 69.6439 72.9449C69.8214 72.9145 69.9937 72.879 70.1763 72.8536C70.5313 72.7978 70.8965 72.7522 71.2617 72.7065C71.4341 72.6862 72.6159 72.6863 73.8229 72.6964C76.3536 72.7167 78.7067 74.0455 79.9645 76.2414C80.5578 77.2709 80.9888 78.5185 80.9939 79.9639C80.9939 80.2276 80.994 80.471 80.9991 80.7043H80.5375V80.6942Z" fill="#676D70"/>
</g>
<g opacity="0.5">
<path d="M79.1342 48.8605H55.9878L55.917 49.3828H74.0627V51.2085C74.0627 60.956 74.0578 69.7196 74.0679 69.9376L74.433 69.9326V49.3879H79.1342V48.8605Z" fill="#4D4D4D"/>
</g>
<g opacity="0.4">
<path d="M80.9382 41.8567H63.5378C60.6471 41.8567 58.0961 43.4339 56.8384 45.7973C58.1925 43.7991 60.5305 42.5059 63.1424 42.5059H80.5477C81.283 42.5059 81.8765 43.0992 81.8765 43.8346V50.8535C81.8765 50.9651 81.8612 51.0767 81.8359 51.1781C82.0996 50.9347 82.2719 50.5847 82.2719 50.1993V43.1803C82.2669 42.45 81.6736 41.8567 80.9382 41.8567Z" fill="#676D70"/>
</g>
<path d="M200.13 31.3586H84.0635V69.1465H200.13V31.3586Z" fill="#FAA701"/>
<g opacity="0.6">
<path d="M196.813 31.3586V58.2884C196.813 62.9795 192.594 66.7781 187.385 66.7781H84.0635V69.1465H200.13V31.3586H196.813Z" fill="#FFD47D"/>
</g>
<path d="M200.13 31.3586H84.0635V33.1894H200.13V31.3586Z" fill="#BF7F00"/>
<path d="M90.3726 64.2272C90.6975 64.2272 90.9607 63.9638 90.9607 63.6388C90.9607 63.3139 90.6975 63.0506 90.3726 63.0506C90.0476 63.0506 89.7842 63.3139 89.7842 63.6388C89.7842 63.9638 90.0476 64.2272 90.3726 64.2272Z" fill="#1A1A1A"/>
<path d="M90.3731 63.7455C90.3173 63.7455 90.2666 63.6998 90.2666 63.6389V62.4117C90.2666 62.3559 90.3122 62.3051 90.3731 62.3051C90.4339 62.3051 90.4796 62.3508 90.4796 62.4117V63.6389C90.4796 63.6947 90.4289 63.7455 90.3731 63.7455Z" fill="#1A1A1A"/>
<path d="M86.0415 64.2272C86.3664 64.2272 86.6299 63.9638 86.6299 63.6388C86.6299 63.3139 86.3664 63.0506 86.0415 63.0506C85.7166 63.0506 85.4531 63.3139 85.4531 63.6388C85.4531 63.9638 85.7166 64.2272 86.0415 64.2272Z" fill="#1A1A1A"/>
<path d="M86.0411 63.7455C85.9853 63.7455 85.9346 63.6998 85.9346 63.6389V62.4117C85.9346 62.3559 85.9802 62.3051 86.0411 62.3051C86.1019 62.3051 86.1475 62.3508 86.1475 62.4117V63.6389C86.1475 63.6947 86.1019 63.7455 86.0411 63.7455Z" fill="#1A1A1A"/>
<path d="M95.3667 63.6388C95.3667 63.9634 95.1029 64.2272 94.7783 64.2272C94.4537 64.2272 94.1899 63.9634 94.1899 63.6388C94.1899 63.3143 94.4537 63.0506 94.7783 63.0506C95.1029 63.0506 95.3667 63.3143 95.3667 63.6388Z" fill="#1A1A1A"/>
<path d="M94.7788 63.7454C94.7231 63.7454 94.6724 63.6997 94.6724 63.6389V62.4116C94.6724 62.3558 94.718 62.3051 94.7788 62.3051C94.8397 62.3051 94.8853 62.3507 94.8853 62.4116V63.6389C94.8853 63.6946 94.8397 63.7454 94.7788 63.7454Z" fill="#1A1A1A"/>
<path d="M99.1916 64.2272C99.5165 64.2272 99.78 63.9638 99.78 63.6388C99.78 63.3139 99.5165 63.0506 99.1916 63.0506C98.8667 63.0506 98.6035 63.3139 98.6035 63.6388C98.6035 63.9638 98.8667 64.2272 99.1916 64.2272Z" fill="#1A1A1A"/>
<path d="M99.1914 63.7454C99.1357 63.7454 99.085 63.6997 99.085 63.6389V62.4116C99.085 62.3558 99.1306 62.3051 99.1914 62.3051C99.2523 62.3051 99.2982 62.3507 99.2982 62.4116V63.6389C99.2982 63.6946 99.2472 63.7454 99.1914 63.7454Z" fill="#1A1A1A"/>
<path d="M104.187 63.6388C104.187 63.9634 103.924 64.2272 103.599 64.2272C103.275 64.2272 103.011 63.9634 103.011 63.6388C103.011 63.3143 103.275 63.0506 103.599 63.0506C103.924 63.0506 104.187 63.3143 104.187 63.6388Z" fill="#1A1A1A"/>
<path d="M103.604 63.7455C103.548 63.7455 103.497 63.6998 103.497 63.6389V62.4117C103.497 62.3559 103.543 62.3051 103.604 62.3051C103.664 62.3051 103.71 62.3508 103.71 62.4117V63.6389C103.705 63.6947 103.659 63.7455 103.604 63.7455Z" fill="#1A1A1A"/>
<path d="M108.011 64.2272C108.336 64.2272 108.599 63.9638 108.599 63.6388C108.599 63.3139 108.336 63.0506 108.011 63.0506C107.686 63.0506 107.423 63.3139 107.423 63.6388C107.423 63.9638 107.686 64.2272 108.011 64.2272Z" fill="#1A1A1A"/>
<path d="M108.011 63.7454C107.955 63.7454 107.904 63.6997 107.904 63.6389V62.4116C107.904 62.3558 107.95 62.3051 108.011 62.3051C108.072 62.3051 108.117 62.3507 108.117 62.4116V63.6389C108.117 63.6946 108.067 63.7454 108.011 63.7454Z" fill="#1A1A1A"/>
<path d="M112.418 64.2272C112.743 64.2272 113.007 63.9638 113.007 63.6388C113.007 63.3139 112.743 63.0506 112.418 63.0506C112.093 63.0506 111.83 63.3139 111.83 63.6388C111.83 63.9638 112.093 64.2272 112.418 64.2272Z" fill="#1A1A1A"/>
<path d="M112.418 63.7454C112.362 63.7454 112.312 63.6997 112.312 63.6389V62.4116C112.312 62.3558 112.357 62.3051 112.418 62.3051C112.479 62.3051 112.524 62.3507 112.524 62.4116V63.6389C112.524 63.6946 112.479 63.7454 112.418 63.7454Z" fill="#1A1A1A"/>
<path d="M117.419 63.6388C117.419 63.9634 117.155 64.2272 116.831 64.2272C116.506 64.2272 116.242 63.9634 116.242 63.6388C116.242 63.3143 116.506 63.0506 116.831 63.0506C117.155 63.0506 117.419 63.3143 117.419 63.6388Z" fill="#1A1A1A"/>
<path d="M116.83 63.7455C116.774 63.7455 116.724 63.6998 116.724 63.6389V62.4117C116.724 62.3559 116.769 62.3051 116.83 62.3051C116.891 62.3051 116.937 62.3508 116.937 62.4117V63.6389C116.937 63.6947 116.886 63.7455 116.83 63.7455Z" fill="#1A1A1A"/>
<path d="M121.238 64.2272C121.563 64.2272 121.827 63.9638 121.827 63.6388C121.827 63.3139 121.563 63.0506 121.238 63.0506C120.913 63.0506 120.65 63.3139 120.65 63.6388C120.65 63.9638 120.913 64.2272 121.238 64.2272Z" fill="#1A1A1A"/>
<path d="M121.243 63.7454C121.187 63.7454 121.136 63.6997 121.136 63.6389V62.4116C121.136 62.3558 121.182 62.3051 121.243 62.3051C121.304 62.3051 121.349 62.3507 121.349 62.4116V63.6389C121.344 63.6946 121.299 63.7454 121.243 63.7454Z" fill="#1A1A1A"/>
<path d="M126.238 63.6388C126.238 63.9634 125.974 64.2272 125.65 64.2272C125.325 64.2272 125.062 63.9634 125.062 63.6388C125.062 63.3143 125.325 63.0506 125.65 63.0506C125.974 63.0506 126.238 63.3143 126.238 63.6388Z" fill="#1A1A1A"/>
<path d="M125.65 63.7455C125.595 63.7455 125.544 63.6998 125.544 63.6389V62.4117C125.544 62.3559 125.59 62.3051 125.65 62.3051C125.711 62.3051 125.757 62.3508 125.757 62.4117V63.6389C125.757 63.6947 125.706 63.7455 125.65 63.7455Z" fill="#1A1A1A"/>
<path d="M130.057 64.2272C130.382 64.2272 130.645 63.9638 130.645 63.6388C130.645 63.3139 130.382 63.0506 130.057 63.0506C129.732 63.0506 129.469 63.3139 129.469 63.6388C129.469 63.9638 129.732 64.2272 130.057 64.2272Z" fill="#1A1A1A"/>
<path d="M130.057 63.7455C130.001 63.7455 129.95 63.6998 129.95 63.6389V62.4117C129.95 62.3559 129.996 62.3051 130.057 62.3051C130.118 62.3051 130.163 62.3508 130.163 62.4117V63.6389C130.163 63.6947 130.118 63.7455 130.057 63.7455Z" fill="#1A1A1A"/>
<path d="M134.469 64.2272C134.794 64.2272 135.057 63.9638 135.057 63.6388C135.057 63.3139 134.794 63.0506 134.469 63.0506C134.144 63.0506 133.881 63.3139 133.881 63.6388C133.881 63.9638 134.144 64.2272 134.469 64.2272Z" fill="#1A1A1A"/>
<path d="M134.469 63.7454C134.413 63.7454 134.362 63.6997 134.362 63.6389V62.4116C134.362 62.3558 134.408 62.3051 134.469 62.3051C134.53 62.3051 134.575 62.3507 134.575 62.4116V63.6389C134.575 63.6946 134.525 63.7454 134.469 63.7454Z" fill="#1A1A1A"/>
<path d="M138.881 64.2272C139.206 64.2272 139.47 63.9638 139.47 63.6388C139.47 63.3139 139.206 63.0506 138.881 63.0506C138.556 63.0506 138.293 63.3139 138.293 63.6388C138.293 63.9638 138.556 64.2272 138.881 64.2272Z" fill="#1A1A1A"/>
<path d="M138.881 63.7455C138.825 63.7455 138.774 63.6998 138.774 63.6389V62.4117C138.774 62.3559 138.82 62.3051 138.881 62.3051C138.942 62.3051 138.987 62.3508 138.987 62.4117V63.6389C138.982 63.6947 138.937 63.7455 138.881 63.7455Z" fill="#1A1A1A"/>
<path d="M143.289 64.2272C143.613 64.2272 143.877 63.9638 143.877 63.6388C143.877 63.3139 143.613 63.0506 143.289 63.0506C142.964 63.0506 142.7 63.3139 142.7 63.6388C142.7 63.9638 142.964 64.2272 143.289 64.2272Z" fill="#1A1A1A"/>
<path d="M143.289 63.7455C143.233 63.7455 143.183 63.6998 143.183 63.6389V62.4117C143.183 62.3559 143.228 62.3051 143.289 62.3051C143.35 62.3051 143.396 62.3508 143.396 62.4117V63.6389C143.396 63.6947 143.345 63.7455 143.289 63.7455Z" fill="#1A1A1A"/>
<path d="M148.289 63.6388C148.289 63.9634 148.025 64.2272 147.701 64.2272C147.376 64.2272 147.112 63.9634 147.112 63.6388C147.112 63.3143 147.376 63.0506 147.701 63.0506C148.025 63.0506 148.289 63.3143 148.289 63.6388Z" fill="#1A1A1A"/>
<path d="M147.701 63.7455C147.645 63.7455 147.595 63.6998 147.595 63.6389V62.4117C147.595 62.3559 147.64 62.3051 147.701 62.3051C147.762 62.3051 147.808 62.3508 147.808 62.4117V63.6389C147.803 63.6947 147.757 63.7455 147.701 63.7455Z" fill="#1A1A1A"/>
<path d="M152.108 64.2272C152.433 64.2272 152.696 63.9638 152.696 63.6388C152.696 63.3139 152.433 63.0506 152.108 63.0506C151.783 63.0506 151.52 63.3139 151.52 63.6388C151.52 63.9638 151.783 64.2272 152.108 64.2272Z" fill="#1A1A1A"/>
<path d="M152.107 63.7455C152.052 63.7455 152.001 63.6998 152.001 63.6389V62.4117C152.001 62.3559 152.047 62.3051 152.107 62.3051C152.168 62.3051 152.214 62.3508 152.214 62.4117V63.6389C152.214 63.6947 152.163 63.7455 152.107 63.7455Z" fill="#1A1A1A"/>
<path d="M156.52 64.2272C156.845 64.2272 157.108 63.9638 157.108 63.6388C157.108 63.3139 156.845 63.0506 156.52 63.0506C156.195 63.0506 155.932 63.3139 155.932 63.6388C155.932 63.9638 156.195 64.2272 156.52 64.2272Z" fill="#1A1A1A"/>
<path d="M156.515 63.7454C156.459 63.7454 156.408 63.6997 156.408 63.6389V62.4116C156.408 62.3558 156.454 62.3051 156.515 62.3051C156.576 62.3051 156.621 62.3507 156.621 62.4116V63.6389C156.621 63.6946 156.576 63.7454 156.515 63.7454Z" fill="#1A1A1A"/>
<path d="M160.927 64.2272C161.252 64.2272 161.515 63.9638 161.515 63.6388C161.515 63.3139 161.252 63.0506 160.927 63.0506C160.602 63.0506 160.339 63.3139 160.339 63.6388C160.339 63.9638 160.602 64.2272 160.927 64.2272Z" fill="#1A1A1A"/>
<path d="M160.927 63.7454C160.871 63.7454 160.82 63.6997 160.82 63.6389V62.4116C160.82 62.3558 160.866 62.3051 160.927 62.3051C160.988 62.3051 161.034 62.3507 161.034 62.4116V63.6389C161.034 63.6946 160.983 63.7454 160.927 63.7454Z" fill="#1A1A1A"/>
<path d="M165.339 64.2272C165.664 64.2272 165.928 63.9638 165.928 63.6388C165.928 63.3139 165.664 63.0506 165.339 63.0506C165.014 63.0506 164.751 63.3139 164.751 63.6388C164.751 63.9638 165.014 64.2272 165.339 64.2272Z" fill="#1A1A1A"/>
<path d="M165.34 63.7455C165.284 63.7455 165.233 63.6998 165.233 63.6389V62.4117C165.233 62.3559 165.279 62.3051 165.34 62.3051C165.401 62.3051 165.446 62.3508 165.446 62.4117V63.6389C165.441 63.6947 165.396 63.7455 165.34 63.7455Z" fill="#1A1A1A"/>
<path d="M170.335 63.6388C170.335 63.9634 170.071 64.2272 169.746 64.2272C169.422 64.2272 169.158 63.9634 169.158 63.6388C169.158 63.3143 169.422 63.0506 169.746 63.0506C170.071 63.0506 170.335 63.3143 170.335 63.6388Z" fill="#1A1A1A"/>
<path d="M169.746 63.7455C169.69 63.7455 169.64 63.6998 169.64 63.6389V62.4117C169.64 62.3559 169.685 62.3051 169.746 62.3051C169.807 62.3051 169.853 62.3508 169.853 62.4117V63.6389C169.853 63.6947 169.807 63.7455 169.746 63.7455Z" fill="#1A1A1A"/>
<path d="M174.159 64.2272C174.484 64.2272 174.747 63.9638 174.747 63.6388C174.747 63.3139 174.484 63.0506 174.159 63.0506C173.834 63.0506 173.57 63.3139 173.57 63.6388C173.57 63.9638 173.834 64.2272 174.159 64.2272Z" fill="#1A1A1A"/>
<path d="M174.158 63.7455C174.102 63.7455 174.052 63.6998 174.052 63.6389V62.4117C174.052 62.3559 174.097 62.3051 174.158 62.3051C174.219 62.3051 174.265 62.3508 174.265 62.4117V63.6389C174.26 63.6947 174.214 63.7455 174.158 63.7455Z" fill="#1A1A1A"/>
<path d="M178.748 64.2272C179.073 64.2272 179.337 63.9638 179.337 63.6388C179.337 63.3139 179.073 63.0506 178.748 63.0506C178.423 63.0506 178.16 63.3139 178.16 63.6388C178.16 63.9638 178.423 64.2272 178.748 64.2272Z" fill="#1A1A1A"/>
<path d="M178.748 63.7455C178.692 63.7455 178.642 63.6998 178.642 63.6389V62.4117C178.642 62.3559 178.687 62.3051 178.748 62.3051C178.809 62.3051 178.855 62.3508 178.855 62.4117V63.6389C178.855 63.6947 178.809 63.7455 178.748 63.7455Z" fill="#1A1A1A"/>
<path d="M183.343 64.2272C183.668 64.2272 183.932 63.9638 183.932 63.6388C183.932 63.3139 183.668 63.0506 183.343 63.0506C183.018 63.0506 182.755 63.3139 182.755 63.6388C182.755 63.9638 183.018 64.2272 183.343 64.2272Z" fill="#1A1A1A"/>
<path d="M183.344 63.7455C183.288 63.7455 183.237 63.6998 183.237 63.6389V62.4117C183.237 62.3559 183.283 62.3051 183.344 62.3051C183.405 62.3051 183.45 62.3508 183.45 62.4117V63.6389C183.45 63.6947 183.405 63.7455 183.344 63.7455Z" fill="#1A1A1A"/>
<path d="M188.526 63.6388C188.526 63.9634 188.263 64.2272 187.938 64.2272C187.613 64.2272 187.35 63.9634 187.35 63.6388C187.35 63.3143 187.613 63.0506 187.938 63.0506C188.263 63.0506 188.526 63.3143 188.526 63.6388Z" fill="#1A1A1A"/>
<path d="M187.938 63.7455C187.882 63.7455 187.831 63.6998 187.831 63.6389V62.4117C187.831 62.3559 187.877 62.3051 187.938 62.3051C187.998 62.3051 188.044 62.3508 188.044 62.4117V63.6389C188.044 63.6947 187.993 63.7455 187.938 63.7455Z" fill="#1A1A1A"/>
<path d="M192.533 64.2272C192.858 64.2272 193.121 63.9638 193.121 63.6388C193.121 63.3139 192.858 63.0506 192.533 63.0506C192.208 63.0506 191.944 63.3139 191.944 63.6388C191.944 63.9638 192.208 64.2272 192.533 64.2272Z" fill="#1A1A1A"/>
<path d="M192.533 63.7455C192.477 63.7455 192.427 63.6998 192.427 63.6389V62.4117C192.427 62.3559 192.472 62.3051 192.533 62.3051C192.594 62.3051 192.64 62.3508 192.64 62.4117V63.6389C192.635 63.6947 192.589 63.7455 192.533 63.7455Z" fill="#1A1A1A"/>
<path d="M197.127 64.2272C197.452 64.2272 197.716 63.9638 197.716 63.6388C197.716 63.3139 197.452 63.0506 197.127 63.0506C196.803 63.0506 196.539 63.3139 196.539 63.6388C196.539 63.9638 196.803 64.2272 197.127 64.2272Z" fill="#1A1A1A"/>
<path d="M197.127 63.7455C197.071 63.7455 197.021 63.6998 197.021 63.6389V62.4117C197.021 62.3559 197.066 62.3051 197.127 62.3051C197.188 62.3051 197.233 62.3508 197.233 62.4117V63.6389C197.228 63.6947 197.183 63.7455 197.127 63.7455Z" fill="#1A1A1A"/>
<g opacity="0.4">
<path d="M64.729 81.587C64.7239 81.587 64.7239 81.587 64.7188 81.587C64.3993 81.6123 64.1253 81.3588 64.0797 81.0393C64.0645 80.9328 64.0544 80.8415 64.0443 80.7451L64.0089 80.4256C63.9886 80.2126 63.9732 79.9996 63.9631 79.7866C63.9377 79.3606 63.9327 78.9346 63.9378 78.5086C63.9479 77.6515 64.0291 76.7843 64.2117 75.9221C64.3841 75.0549 64.6681 74.1876 65.1093 73.3559C65.1702 73.2443 65.2361 73.1328 65.302 73.0212C65.0231 73.3711 64.7746 73.7363 64.5717 74.1166C64.1305 74.9433 63.8465 75.8156 63.6741 76.6829C63.4915 77.545 63.4103 78.4122 63.4002 79.2693C63.3951 79.7004 63.4003 80.1264 63.4257 80.5473C63.4358 80.7603 63.451 80.9734 63.4713 81.1864L63.5067 81.5059C63.5168 81.6022 63.5322 81.6935 63.5423 81.8C63.588 82.1195 63.8617 82.368 64.1812 82.3477C64.5159 82.3223 64.7594 82.0333 64.7391 81.7087V81.6834C64.729 81.6631 64.729 81.6275 64.729 81.587Z" fill="#333333"/>
<path d="M82.8038 79.9335H81.4597H81.0793V79.6597C81.0742 78.2143 80.638 76.9717 80.0447 75.9371C78.7869 73.7462 76.4288 72.4124 73.9032 72.3922C72.6961 72.382 71.5146 72.382 71.3421 72.4023C70.9719 72.448 70.6118 72.4936 70.2568 72.5494C70.0793 72.5748 69.9017 72.6102 69.7293 72.6407C69.6431 72.6559 69.557 72.6762 69.4708 72.6965C69.3846 72.7168 69.2984 72.732 69.2172 72.7574C68.8774 72.8385 68.5577 72.95 68.2636 73.092C68.1926 73.1275 68.1116 73.1631 68.0457 73.2036L67.8429 73.3304C67.7211 73.4217 67.5944 73.5028 67.4726 73.6246C67.2292 73.8528 67.001 74.1064 66.7981 74.3904C66.6967 74.5374 66.5952 74.6896 66.5039 74.8468C66.6408 74.6845 66.7829 74.5273 66.935 74.3853C67.0568 74.2636 67.1835 74.1824 67.3052 74.0912L67.5081 73.9644C67.574 73.9238 67.6552 73.8933 67.7262 73.8528C68.0204 73.7108 68.3398 73.6043 68.6796 73.5181C68.7658 73.4927 68.847 73.4724 68.9332 73.4572C69.0194 73.442 69.1055 73.4166 69.1917 73.4014C69.3692 73.371 69.5417 73.3355 69.7192 73.3101C70.0792 73.2543 70.4394 73.2087 70.8045 73.163C70.977 73.1377 72.1585 73.1427 73.3655 73.1529C75.8912 73.1732 78.2496 74.5019 79.5073 76.6979C80.1007 77.7324 80.5318 78.975 80.5419 80.4204V80.6942H80.9223H82.2662H118.568V79.9284H82.8038V79.9335Z" fill="#333333"/>
</g>
<path d="M200.5 68.8828H84.0635V69.8971H200.5V68.8828Z" fill="black"/>
<g opacity="0.5">
<path d="M194.616 68.8827V75.5517H151.483V80.1921H195.367V68.8827H194.616Z" fill="#333333"/>
</g>
<path d="M157.752 82.2513L157.671 81.0645L157.889 80.9935C157.894 80.7602 157.909 80.532 157.935 80.3038L157.727 80.2074L157.97 79.041L158.198 79.0359C158.264 78.8128 158.345 78.5947 158.432 78.3817L158.259 78.2346L158.807 77.1798L159.03 77.2355C159.157 77.0428 159.289 76.8501 159.431 76.6675L159.304 76.4748L160.116 75.6076L160.313 75.7192C160.486 75.567 160.663 75.4199 160.851 75.283L160.78 75.0649L161.794 74.4462L161.956 74.6085C162.164 74.507 162.377 74.4158 162.595 74.3296L162.585 74.1013L163.731 73.7818L163.843 73.9796C164.066 73.939 164.299 73.9086 164.528 73.8833L164.584 73.6601H165.77L165.826 73.8833C166.059 73.9036 166.287 73.934 166.511 73.9796L166.622 73.7818L167.768 74.1013L167.758 74.3296C167.976 74.4107 168.189 74.502 168.397 74.6085L168.56 74.4462L169.574 75.0649L169.503 75.283C169.69 75.4199 169.868 75.567 170.04 75.7192L170.238 75.6076L171.05 76.4748L170.923 76.6675C171.065 76.8501 171.197 77.0377 171.324 77.2355L171.547 77.1798L172.094 78.2346L171.922 78.3817C172.008 78.5947 172.089 78.8128 172.155 79.0359L172.383 79.041L172.627 80.2074L172.419 80.3038C172.444 80.532 172.46 80.7602 172.465 80.9935L172.683 81.0645L172.601 82.2513L172.378 82.2918C172.343 82.52 172.297 82.7482 172.236 82.9714L172.424 83.0931L172.023 84.2139L171.795 84.1885C171.699 84.4016 171.592 84.6045 171.476 84.8022L171.628 84.9747L170.943 85.9483L170.73 85.8622C170.583 86.0397 170.421 86.207 170.259 86.3693L170.355 86.5773L169.432 87.3278L169.249 87.1909C169.056 87.3228 168.859 87.4394 168.656 87.551L168.696 87.7741L167.606 88.2458L167.469 88.0632C167.251 88.1342 167.028 88.2001 166.8 88.2508L166.774 88.4791L165.598 88.6413L165.517 88.4283C165.4 88.4334 165.288 88.4385 165.172 88.4385C165.055 88.4385 164.939 88.4334 164.827 88.4283L164.746 88.6413L163.569 88.4791L163.549 88.2508C163.321 88.2001 163.097 88.1342 162.879 88.0632L162.742 88.2458L161.652 87.7741L161.693 87.551C161.49 87.4394 161.292 87.3177 161.099 87.1909L160.917 87.3278L159.994 86.5773L160.09 86.3693C159.923 86.207 159.766 86.0397 159.619 85.8622L159.406 85.9483L158.721 84.9747L158.873 84.8022C158.756 84.6045 158.65 84.3965 158.553 84.1885L158.325 84.2139L157.924 83.0931L158.112 82.9714C158.056 82.7482 158.011 82.52 157.97 82.2918L157.752 82.2513Z" fill="#232C33"/>
<g opacity="0.4">
<path d="M167.759 83.7713C169.197 82.3334 169.197 80.0021 167.759 78.5642C166.321 77.1264 163.99 77.1265 162.552 78.5643C161.114 80.0022 161.114 82.3333 162.552 83.7712C163.99 85.2091 166.321 85.2092 167.759 83.7713Z" fill="#14191E"/>
</g>
<path d="M165.172 84.5131C167.026 84.5131 168.529 83.0099 168.529 81.1557C168.529 79.3015 167.026 77.7984 165.172 77.7984C163.317 77.7984 161.814 79.3015 161.814 81.1557C161.814 83.0099 163.317 84.5131 165.172 84.5131Z" fill="#686A6B"/>
<path d="M165.172 83.0069C166.195 83.0069 167.023 82.1781 167.023 81.1557C167.023 80.1334 166.195 79.3046 165.172 79.3046C164.15 79.3046 163.321 80.1334 163.321 81.1557C163.321 82.1781 164.15 83.0069 165.172 83.0069Z" fill="#31393F"/>
<g opacity="0.2">
<path d="M162.692 78.8939C162.606 79.1931 162.56 79.5075 162.56 79.8321C162.56 81.6832 164.061 83.1894 165.917 83.1894C166.901 83.1894 167.784 82.7685 168.397 82.0939C167.991 83.4886 166.703 84.508 165.177 84.508C163.326 84.508 161.819 83.0068 161.819 81.1507C161.819 80.2834 162.149 79.4923 162.692 78.8939Z" fill="#14191E"/>
</g>
<g opacity="0.2">
<path d="M172.369 83.0575L172.425 83.093L172.324 83.3821L172.298 83.3668C172.324 83.2654 172.344 83.1589 172.369 83.0575Z" fill="#14191E"/>
<path d="M172.504 81.0085L172.682 81.0643L172.657 81.4295L172.525 81.3888C172.52 81.2621 172.509 81.1353 172.504 81.0085Z" fill="#14191E"/>
<path d="M158.494 78.7773C158.407 78.9903 158.326 79.2084 158.26 79.4315L158.032 79.4366L157.86 80.2683L157.728 80.2075L157.971 79.041L158.2 79.036C158.24 78.8991 158.286 78.7672 158.336 78.6353L158.494 78.7773Z" fill="#14191E"/>
<path d="M170.929 76.6775L170.295 75.9979L170.097 76.1095C169.925 75.9573 169.747 75.8103 169.56 75.6733L169.631 75.4552L168.616 74.8365L168.454 74.9988C168.246 74.8974 168.033 74.8061 167.815 74.7199L167.825 74.4916L166.679 74.1721L166.567 74.3699C166.344 74.3294 166.111 74.299 165.883 74.2736L165.827 74.0504H164.64L164.585 74.2736C164.351 74.2939 164.123 74.3243 163.9 74.3699L163.788 74.1721L162.642 74.4916L162.652 74.7199C162.434 74.801 162.221 74.8923 162.013 74.9988L161.851 74.8365L160.837 75.4552L160.908 75.6733C160.72 75.8103 160.543 75.9573 160.37 76.1095L160.172 75.9979L159.361 76.8651L159.488 77.0578C159.346 77.2404 159.214 77.4281 159.087 77.6259L158.864 77.5701L158.377 78.5134C158.392 78.4677 158.407 78.4271 158.428 78.3815L158.255 78.2344L158.803 77.1796L159.026 77.2353C159.153 77.0426 159.285 76.8499 159.427 76.6673L159.3 76.4746L160.111 75.6074L160.309 75.719C160.482 75.5668 160.659 75.4198 160.847 75.2828L160.776 75.0647L161.79 74.446L161.952 74.6083C162.16 74.5068 162.373 74.4156 162.591 74.3294L162.581 74.1011L163.727 73.7816L163.839 73.9794C164.062 73.9388 164.295 73.9084 164.524 73.8882L164.579 73.665H165.766L165.822 73.8882C166.055 73.9084 166.284 73.9388 166.507 73.9794L166.618 73.7816L167.764 74.1011L167.754 74.3294C167.972 74.4105 168.185 74.5018 168.393 74.6083L168.555 74.446L169.57 75.0647L169.499 75.2828C169.687 75.4198 169.864 75.5668 170.036 75.719L170.234 75.6074L171.046 76.4746L170.919 76.6673C170.924 76.6724 170.929 76.6724 170.929 76.6775Z" fill="#14191E"/>
<path d="M158.929 85.1977L158.899 85.2332L158.716 84.9746L158.772 84.9137C158.823 85.0101 158.878 85.1064 158.929 85.1977Z" fill="#14191E"/>
<path d="M157.889 80.9986C157.889 80.8819 157.894 80.7703 157.904 80.6588L157.996 80.7044C157.97 80.9326 157.955 81.1608 157.95 81.3941L157.732 81.4651L157.788 82.2614L157.752 82.2563L157.671 81.0695L157.889 80.9986Z" fill="#14191E"/>
<path d="M158.172 83.367L158.045 83.4482L157.918 83.0932L158.086 82.9866C158.116 83.1134 158.142 83.2402 158.172 83.367Z" fill="#14191E"/>
<path d="M171.602 77.5702L171.379 77.626C171.252 77.4333 171.121 77.2405 170.979 77.058L171.085 76.8906C171.166 77.0021 171.242 77.1137 171.313 77.2253L171.536 77.1695L172.084 78.2244L171.988 78.3106L171.602 77.5702Z" fill="#14191E"/>
<path d="M172.439 79.4365L172.211 79.4314C172.145 79.2083 172.064 78.9902 171.978 78.7772L172.044 78.7214C172.079 78.8279 172.115 78.9344 172.15 79.0409L172.378 79.046L172.622 80.2124L172.601 80.2226L172.439 79.4365Z" fill="#14191E"/>
</g>
<g opacity="0.4">
<path d="M171.03 85.8266L170.943 85.9483L170.786 85.8875C170.867 85.8672 170.948 85.8469 171.03 85.8266Z" fill="#14191E"/>
<path d="M157.752 82.2512L157.671 81.0645L157.889 80.9935C157.894 80.7602 157.909 80.532 157.935 80.3038L157.727 80.2074L157.97 79.0409L158.198 79.0359C158.264 78.8128 158.345 78.5947 158.432 78.3817L158.259 78.2346L158.807 77.1797L159.03 77.2355C159.157 77.0428 159.289 76.8501 159.431 76.6675L159.304 76.4748L160.116 75.6076L160.313 75.7191C160.486 75.567 160.663 75.4199 160.851 75.283L160.78 75.0649L161.165 74.8316C160.334 75.9626 159.852 77.3014 159.852 78.7316C159.852 82.8141 163.767 86.1208 168.595 86.1208C169.32 86.1208 170.025 86.0447 170.7 85.9027C170.563 86.065 170.416 86.2171 170.263 86.3693L170.36 86.5772L169.437 87.3278L169.254 87.1909C169.062 87.3227 168.864 87.4394 168.661 87.5509L168.701 87.7741L167.611 88.2457L167.474 88.0632C167.256 88.1342 167.033 88.2001 166.805 88.2508L166.779 88.479L165.603 88.6413L165.522 88.4283C165.405 88.4334 165.294 88.4384 165.177 88.4384C165.06 88.4384 164.944 88.4334 164.832 88.4283L164.751 88.6413L163.574 88.479L163.554 88.2508C163.326 88.2001 163.103 88.1342 162.885 88.0632L162.748 88.2457L161.657 87.7741L161.698 87.5509C161.495 87.4394 161.297 87.3177 161.104 87.1909L160.922 87.3278L159.999 86.5772L160.095 86.3693C159.928 86.207 159.771 86.0396 159.623 85.8621L159.411 85.9483L158.726 84.9746L158.878 84.8022C158.761 84.6044 158.655 84.3964 158.558 84.1885L158.33 84.2139L157.93 83.0931L158.117 82.9713C158.062 82.7482 158.016 82.52 157.975 82.2918L157.752 82.2512Z" fill="#14191E"/>
</g>
<path d="M165.04 79.6698C165.04 79.7459 165.101 79.8067 165.177 79.8067C165.253 79.8067 165.314 79.7459 165.314 79.6698C165.314 79.5938 165.253 79.5329 165.177 79.5329C165.101 79.538 165.04 79.5988 165.04 79.6698Z" fill="#22272B"/>
<g opacity="0.5">
<path d="M165.066 79.5938C165.066 79.5989 165.066 79.6039 165.066 79.609C165.066 79.6851 165.127 79.7459 165.203 79.7459C165.249 79.7459 165.289 79.7206 165.315 79.6901C165.305 79.7561 165.249 79.8119 165.183 79.8119C165.107 79.8119 165.046 79.751 165.046 79.6749C165.041 79.6445 165.046 79.6141 165.066 79.5938Z" fill="#22272B"/>
</g>
<path d="M165.653 79.746C165.622 79.817 165.653 79.8931 165.724 79.9235C165.79 79.9539 165.871 79.9235 165.901 79.8525C165.932 79.7815 165.901 79.7054 165.83 79.675C165.759 79.6445 165.683 79.675 165.653 79.746Z" fill="#22272B"/>
<g opacity="0.5">
<path d="M165.709 79.6851C165.703 79.6901 165.703 79.6952 165.698 79.7003C165.668 79.7662 165.698 79.8473 165.769 79.8778C165.81 79.8981 165.856 79.893 165.896 79.8676C165.861 79.9234 165.79 79.9488 165.724 79.9235C165.653 79.893 165.622 79.8118 165.653 79.7459C165.663 79.7206 165.683 79.6952 165.709 79.6851Z" fill="#22272B"/>
</g>
<path d="M166.186 80.0603C166.13 80.111 166.125 80.1972 166.176 80.253C166.226 80.3088 166.313 80.3139 166.369 80.2631C166.424 80.2124 166.429 80.1262 166.379 80.0704C166.328 80.0146 166.242 80.0096 166.186 80.0603Z" fill="#22272B"/>
<g opacity="0.5">
<path d="M166.257 80.0298C166.252 80.0349 166.247 80.0349 166.242 80.04C166.186 80.0907 166.181 80.1769 166.232 80.2327C166.262 80.2682 166.308 80.2834 166.348 80.2783C166.293 80.3189 166.216 80.3088 166.171 80.258C166.12 80.2023 166.125 80.116 166.181 80.0653C166.206 80.04 166.232 80.0298 166.257 80.0298Z" fill="#22272B"/>
</g>
<path d="M166.541 80.5674C166.47 80.5928 166.43 80.6689 166.455 80.7399C166.48 80.8109 166.556 80.8514 166.627 80.8261C166.698 80.8007 166.739 80.7246 166.713 80.6536C166.688 80.5826 166.612 80.542 166.541 80.5674Z" fill="#22272B"/>
<g opacity="0.5">
<path d="M166.622 80.5674C166.617 80.5674 166.612 80.5674 166.607 80.5725C166.536 80.5979 166.495 80.674 166.521 80.745C166.536 80.7906 166.572 80.821 166.612 80.8312C166.546 80.8464 166.48 80.8058 166.455 80.7399C166.43 80.6689 166.47 80.5928 166.541 80.5674C166.566 80.5573 166.597 80.5573 166.622 80.5674Z" fill="#22272B"/>
</g>
<path d="M166.662 81.1761C166.586 81.1659 166.52 81.2217 166.515 81.2978C166.509 81.3738 166.56 81.4398 166.636 81.4449C166.712 81.455 166.778 81.3992 166.783 81.3231C166.789 81.247 166.733 81.1811 166.662 81.1761Z" fill="#22272B"/>
<g opacity="0.5">
<path d="M166.738 81.2064C166.733 81.2064 166.728 81.2013 166.723 81.2013C166.646 81.1912 166.581 81.247 166.575 81.3231C166.57 81.3687 166.591 81.4093 166.621 81.4397C166.555 81.4245 166.509 81.3637 166.515 81.2927C166.525 81.2166 166.591 81.1659 166.662 81.1709C166.687 81.176 166.718 81.1912 166.738 81.2064Z" fill="#22272B"/>
</g>
<path d="M166.526 81.7795C166.46 81.744 166.379 81.7643 166.339 81.8302C166.303 81.8961 166.323 81.9773 166.389 82.0178C166.455 82.0533 166.536 82.0331 166.577 81.9671C166.612 81.8961 166.592 81.815 166.526 81.7795Z" fill="#22272B"/>
<g opacity="0.5">
<path d="M166.582 81.8353C166.577 81.8303 166.572 81.8303 166.567 81.8252C166.501 81.7897 166.42 81.81 166.379 81.8759C166.354 81.9165 166.354 81.9622 166.374 82.0027C166.318 81.9622 166.303 81.8861 166.338 81.8252C166.374 81.7593 166.46 81.739 166.526 81.7745C166.551 81.7897 166.567 81.815 166.582 81.8353Z" fill="#22272B"/>
</g>
<path d="M166.156 82.2715C166.11 82.2106 166.029 82.1954 165.968 82.2411C165.907 82.2867 165.892 82.3679 165.938 82.4287C165.983 82.4896 166.065 82.5048 166.125 82.4592C166.186 82.4186 166.196 82.3323 166.156 82.2715Z" fill="#22272B"/>
<g opacity="0.5">
<path d="M166.181 82.3526C166.176 82.3476 166.176 82.3425 166.171 82.3374C166.125 82.2766 166.044 82.2614 165.983 82.307C165.948 82.3324 165.928 82.378 165.928 82.4186C165.897 82.3577 165.912 82.2817 165.968 82.2411C166.029 82.1954 166.115 82.2106 166.156 82.2715C166.171 82.2968 166.181 82.3222 166.181 82.3526Z" fill="#22272B"/>
</g>
<path d="M165.613 82.5758C165.598 82.5048 165.527 82.454 165.451 82.4693C165.38 82.4845 165.329 82.5555 165.345 82.6316C165.36 82.7026 165.431 82.7533 165.507 82.7381C165.583 82.7178 165.628 82.6468 165.613 82.5758Z" fill="#22272B"/>
<g opacity="0.5">
<path d="M165.608 82.657C165.608 82.652 165.608 82.6469 165.608 82.6419C165.593 82.5709 165.521 82.5201 165.445 82.5353C165.4 82.5455 165.364 82.5759 165.349 82.6165C165.344 82.5506 165.39 82.4846 165.455 82.4745C165.527 82.4593 165.603 82.5049 165.618 82.581C165.623 82.6013 165.618 82.6317 165.608 82.657Z" fill="#22272B"/>
</g>
<path d="M164.999 82.6315C165.014 82.5605 164.969 82.4844 164.893 82.4692C164.822 82.454 164.746 82.4997 164.73 82.5758C164.715 82.6468 164.761 82.7228 164.837 82.738C164.913 82.7532 164.984 82.7025 164.999 82.6315Z" fill="#22272B"/>
<g opacity="0.5">
<path d="M164.958 82.7026C164.958 82.6975 164.964 82.6924 164.964 82.6873C164.979 82.6163 164.933 82.5402 164.857 82.525C164.812 82.5149 164.766 82.5301 164.735 82.5606C164.756 82.4946 164.822 82.4591 164.893 82.4692C164.964 82.4845 165.014 82.5555 164.999 82.6316C164.994 82.662 164.979 82.6823 164.958 82.7026Z" fill="#22272B"/>
</g>
<path d="M164.411 82.4338C164.457 82.3729 164.442 82.2867 164.381 82.2462C164.32 82.2056 164.234 82.2157 164.193 82.2766C164.153 82.3374 164.163 82.4236 164.224 82.4642C164.285 82.5048 164.371 82.4947 164.411 82.4338Z" fill="#22272B"/>
<g opacity="0.5">
<path d="M164.346 82.4794C164.351 82.4743 164.356 82.4692 164.356 82.4692C164.402 82.4084 164.387 82.3222 164.326 82.2816C164.29 82.2562 164.245 82.2512 164.204 82.2614C164.25 82.2106 164.326 82.2005 164.381 82.2461C164.442 82.2918 164.458 82.3729 164.412 82.4338C164.397 82.4541 164.371 82.4743 164.346 82.4794Z" fill="#22272B"/>
</g>
<path d="M163.96 82.0129C164.026 81.9774 164.046 81.8912 164.01 81.8252C163.975 81.7593 163.889 81.739 163.823 81.7745C163.757 81.81 163.737 81.8962 163.772 81.9621C163.813 82.028 163.894 82.0484 163.96 82.0129Z" fill="#22272B"/>
<g opacity="0.5">
<path d="M163.879 82.028C163.885 82.028 163.89 82.0229 163.895 82.0229C163.961 81.9874 163.981 81.9012 163.945 81.8353C163.925 81.7947 163.885 81.7744 163.839 81.7693C163.9 81.744 163.976 81.7643 164.011 81.8252C164.047 81.8911 164.027 81.9722 163.961 82.0128C163.935 82.028 163.905 82.0331 163.879 82.028Z" fill="#22272B"/>
</g>
<path d="M163.717 81.4448C163.793 81.4346 163.844 81.3687 163.839 81.2977C163.829 81.2216 163.763 81.1709 163.692 81.1759C163.616 81.1861 163.565 81.252 163.57 81.323C163.575 81.3991 163.641 81.4498 163.717 81.4448Z" fill="#22272B"/>
<g opacity="0.5">
<path d="M163.635 81.4245C163.64 81.4245 163.645 81.4245 163.65 81.4245C163.726 81.4144 163.777 81.3484 163.772 81.2774C163.767 81.2318 163.742 81.1963 163.701 81.171C163.767 81.171 163.828 81.2217 163.833 81.2927C163.843 81.3687 163.787 81.4347 163.711 81.4398C163.686 81.4448 163.656 81.4397 163.635 81.4245Z" fill="#22272B"/>
</g>
<path d="M163.722 80.8262C163.793 80.8515 163.869 80.811 163.895 80.74C163.92 80.669 163.879 80.5929 163.808 80.5675C163.737 80.5422 163.661 80.5828 163.636 80.6538C163.616 80.7248 163.651 80.8008 163.722 80.8262Z" fill="#22272B"/>
<g opacity="0.5">
<path d="M163.656 80.7754C163.661 80.7754 163.666 80.7805 163.671 80.7805C163.742 80.8059 163.818 80.7653 163.843 80.6943C163.859 80.6486 163.849 80.603 163.823 80.5726C163.884 80.603 163.914 80.669 163.894 80.7349C163.869 80.8059 163.793 80.8464 163.722 80.8211C163.696 80.816 163.671 80.8008 163.656 80.7754Z" fill="#22272B"/>
</g>
<path d="M163.979 80.2631C164.035 80.3138 164.121 80.3087 164.172 80.2529C164.223 80.1971 164.218 80.1109 164.162 80.0602C164.106 80.0095 164.02 80.0146 163.969 80.0704C163.924 80.1262 163.923 80.2124 163.979 80.2631Z" fill="#22272B"/>
<g opacity="0.5">
<path d="M163.94 80.192C163.945 80.1971 163.945 80.2022 163.95 80.2022C164.006 80.2529 164.092 80.2478 164.143 80.192C164.173 80.1565 164.183 80.1109 164.173 80.0703C164.219 80.121 164.219 80.1971 164.173 80.2478C164.122 80.3036 164.036 80.3087 163.98 80.258C163.96 80.2427 163.945 80.2174 163.94 80.192Z" fill="#22272B"/>
</g>
<path d="M164.447 79.8575C164.477 79.9234 164.558 79.9589 164.624 79.9285C164.695 79.898 164.726 79.8169 164.695 79.751C164.665 79.685 164.584 79.6495 164.518 79.68C164.447 79.7053 164.416 79.7865 164.447 79.8575Z" fill="#22272B"/>
<g opacity="0.5">
<path d="M164.437 79.7713C164.437 79.7763 164.442 79.7814 164.442 79.7865C164.473 79.8524 164.554 79.8879 164.62 79.8575C164.66 79.8372 164.691 79.8017 164.696 79.7611C164.716 79.827 164.686 79.8981 164.62 79.9234C164.554 79.9539 164.473 79.9234 164.442 79.8524C164.437 79.8271 164.432 79.8017 164.437 79.7713Z" fill="#22272B"/>
</g>
<path d="M174.056 82.2511L173.975 81.0644L174.193 80.9934C174.198 80.7601 174.213 80.5319 174.239 80.3037L174.031 80.2073L174.274 79.0408L174.502 79.0358C174.568 78.8127 174.65 78.5946 174.736 78.3816L174.563 78.2345L175.111 77.1796L175.334 77.2354C175.461 77.0427 175.593 76.85 175.735 76.6674L175.608 76.4747L176.419 75.6075L176.617 75.719C176.79 75.5669 176.967 75.4198 177.155 75.2829L177.084 75.0648L178.098 74.4461L178.26 74.6083C178.468 74.5069 178.681 74.4157 178.9 74.3294L178.889 74.1012L180.035 73.7817L180.147 73.9795C180.37 73.9389 180.604 73.9085 180.832 73.8832L180.888 73.66H182.074L182.13 73.8832C182.363 73.9034 182.591 73.9338 182.815 73.9795L182.926 73.7817L184.072 74.1012L184.062 74.3294C184.28 74.4106 184.493 74.5018 184.701 74.6083L184.863 74.4461L185.878 75.0648L185.807 75.2829C185.994 75.4198 186.172 75.5669 186.344 75.719L186.542 75.6075L187.354 76.4747L187.227 76.6674C187.369 76.85 187.501 77.0376 187.628 77.2354L187.851 77.1796L188.398 78.2345L188.226 78.3816C188.312 78.5946 188.393 78.8127 188.459 79.0358L188.687 79.0408L188.931 80.2073L188.723 80.3037C188.748 80.5319 188.764 80.7601 188.769 80.9934L188.987 81.0644L188.906 82.2511L188.682 82.2917C188.647 82.5199 188.601 82.7481 188.54 82.9713L188.728 83.093L188.327 84.2138L188.099 84.1884C188.003 84.4014 187.896 84.6043 187.78 84.8021L187.932 84.9745L187.247 85.9482L187.034 85.8621C186.887 86.0396 186.725 86.2069 186.562 86.3692L186.659 86.5772L185.736 87.3277L185.553 87.1908C185.36 87.3226 185.163 87.4393 184.96 87.5508L185 87.774L183.91 88.2456L183.773 88.0631C183.555 88.1341 183.332 88.2 183.104 88.2507L183.078 88.479L181.902 88.6412L181.821 88.4282C181.704 88.4333 181.592 88.4384 181.476 88.4384C181.359 88.4384 181.242 88.4333 181.131 88.4282L181.05 88.6412L179.873 88.479L179.853 88.2507C179.625 88.2 179.402 88.1341 179.184 88.0631L179.047 88.2456L177.956 87.774L177.997 87.5508C177.794 87.4393 177.596 87.3176 177.403 87.1908L177.221 87.3277L176.298 86.5772L176.394 86.3692C176.227 86.2069 176.07 86.0396 175.922 85.8621L175.71 85.9482L175.025 84.9745L175.177 84.8021C175.06 84.6043 174.954 84.3964 174.857 84.1884L174.629 84.2138L174.234 83.093L174.421 82.9713C174.366 82.7481 174.32 82.5199 174.279 82.2917L174.056 82.2511Z" fill="#232C33"/>
<g opacity="0.4">
<path d="M184.068 83.7709C185.506 82.333 185.506 80.0019 184.068 78.564C182.63 77.1261 180.299 77.126 178.861 78.5639C177.423 80.0018 177.423 82.3331 178.861 83.771C180.299 85.2088 182.63 85.2087 184.068 83.7709Z" fill="#14191E"/>
</g>
<path d="M181.481 84.5131C183.335 84.5131 184.838 83.0099 184.838 81.1557C184.838 79.3015 183.335 77.7984 181.481 77.7984C179.627 77.7984 178.124 79.3015 178.124 81.1557C178.124 83.0099 179.627 84.5131 181.481 84.5131Z" fill="#686A6B"/>
<path d="M181.481 83.0069C182.504 83.0069 183.332 82.1781 183.332 81.1557C183.332 80.1334 182.504 79.3046 181.481 79.3046C180.459 79.3046 179.63 80.1334 179.63 81.1557C179.63 82.1781 180.459 83.0069 181.481 83.0069Z" fill="#31393F"/>
<g opacity="0.2">
<path d="M179.002 78.8939C178.915 79.1931 178.87 79.5075 178.87 79.8321C178.87 81.6832 180.371 83.1894 182.227 83.1894C183.211 83.1894 184.093 82.7685 184.707 82.0939C184.301 83.4886 183.013 84.508 181.487 84.508C179.635 84.508 178.129 83.0068 178.129 81.1507C178.129 80.2834 178.459 79.4923 179.002 78.8939Z" fill="#14191E"/>
</g>
<g opacity="0.2">
<path d="M188.677 83.0575L188.733 83.093L188.631 83.3821L188.606 83.3668C188.631 83.2654 188.652 83.1589 188.677 83.0575Z" fill="#14191E"/>
<path d="M188.809 81.0085L188.986 81.0643L188.961 81.4295L188.829 81.3888C188.829 81.2621 188.819 81.1353 188.809 81.0085Z" fill="#14191E"/>
<path d="M174.798 78.7773C174.712 78.9903 174.631 79.2084 174.565 79.4315L174.337 79.4366L174.164 80.2683L174.033 80.2075L174.276 79.041L174.504 79.036C174.545 78.8991 174.59 78.7672 174.641 78.6353L174.798 78.7773Z" fill="#14191E"/>
<path d="M187.237 76.6775L186.603 75.9979L186.405 76.1095C186.233 75.9573 186.055 75.8103 185.867 75.6733L185.938 75.4552L184.924 74.8365L184.762 74.9988C184.554 74.8974 184.341 74.8061 184.123 74.7199L184.133 74.4916L182.987 74.1721L182.875 74.3699C182.652 74.3294 182.419 74.299 182.191 74.2736L182.135 74.0504H180.948L180.892 74.2736C180.659 74.2939 180.431 74.3243 180.208 74.3699L180.096 74.1721L178.95 74.4916L178.96 74.7199C178.742 74.801 178.529 74.8923 178.321 74.9988L178.159 74.8365L177.145 75.4552L177.215 75.6733C177.028 75.8103 176.85 75.9573 176.678 76.1095L176.48 75.9979L175.669 76.8651L175.795 77.0578C175.653 77.2404 175.522 77.4281 175.395 77.6259L175.172 77.5701L174.685 78.5134C174.7 78.4677 174.715 78.4271 174.736 78.3815L174.563 78.2344L175.111 77.1796L175.334 77.2353C175.461 77.0426 175.593 76.8499 175.735 76.6673L175.608 76.4746L176.419 75.6074L176.617 75.719C176.79 75.5668 176.967 75.4198 177.155 75.2828L177.084 75.0647L178.098 74.446L178.26 74.6083C178.468 74.5068 178.681 74.4156 178.899 74.3294L178.889 74.1011L180.035 73.7816L180.147 73.9794C180.37 73.9388 180.603 73.9084 180.832 73.8882L180.887 73.665H182.074L182.13 73.8882C182.363 73.9084 182.591 73.9388 182.814 73.9794L182.926 73.7816L184.072 74.1011L184.062 74.3294C184.28 74.4105 184.493 74.5018 184.701 74.6083L184.863 74.446L185.878 75.0647L185.806 75.2828C185.994 75.4198 186.172 75.5668 186.344 75.719L186.542 75.6074L187.353 76.4746L187.227 76.6673C187.232 76.6724 187.237 76.6724 187.237 76.6775Z" fill="#14191E"/>
<path d="M175.24 85.1977L175.209 85.2332L175.027 84.9746L175.083 84.9137C175.133 85.0101 175.184 85.1064 175.24 85.1977Z" fill="#14191E"/>
<path d="M174.2 80.9984C174.2 80.8818 174.205 80.7702 174.215 80.6586L174.307 80.7043C174.281 80.9325 174.266 81.1607 174.261 81.394L174.043 81.465L174.099 82.2612L174.063 82.2562L173.982 81.0694L174.2 80.9984Z" fill="#14191E"/>
<path d="M174.483 83.3669L174.356 83.448L174.229 83.0931L174.397 82.9865C174.422 83.1133 174.453 83.2401 174.483 83.3669Z" fill="#14191E"/>
<path d="M187.911 77.5703L187.688 77.6261C187.561 77.4334 187.43 77.2407 187.288 77.0581L187.394 76.8907C187.475 77.0023 187.551 77.1138 187.622 77.2254L187.845 77.1696L188.393 78.2245L188.297 78.3107L187.911 77.5703Z" fill="#14191E"/>
<path d="M188.75 79.4366L188.522 79.4315C188.456 79.2084 188.375 78.9903 188.289 78.7773L188.354 78.7215C188.39 78.828 188.425 78.9345 188.461 79.041L188.689 79.0461L188.933 80.2126L188.912 80.2227L188.75 79.4366Z" fill="#14191E"/>
</g>
<g opacity="0.4">
<path d="M187.333 85.8266L187.247 85.9483L187.09 85.8875C187.176 85.8672 187.257 85.8469 187.333 85.8266Z" fill="#14191E"/>
<path d="M174.055 82.2512L173.974 81.0645L174.192 80.9935C174.197 80.7602 174.212 80.532 174.238 80.3038L174.03 80.2074L174.273 79.0409L174.501 79.0359C174.567 78.8128 174.649 78.5947 174.735 78.3817L174.562 78.2346L175.11 77.1797L175.333 77.2355C175.46 77.0428 175.592 76.8501 175.734 76.6675L175.607 76.4748L176.418 75.6076L176.616 75.7191C176.789 75.567 176.966 75.4199 177.154 75.283L177.083 75.0649L177.468 74.8316C176.636 75.9626 176.155 77.3014 176.155 78.7316C176.155 82.8141 180.07 86.1208 184.898 86.1208C185.623 86.1208 186.328 86.0447 187.003 85.9027C186.866 86.065 186.719 86.2171 186.566 86.3693L186.663 86.5772L185.74 87.3278L185.557 87.1909C185.365 87.3227 185.167 87.4394 184.964 87.5509L185.005 87.7741L183.914 88.2457L183.777 88.0632C183.559 88.1342 183.336 88.2001 183.108 88.2508L183.083 88.479L181.906 88.6413L181.825 88.4283C181.708 88.4334 181.596 88.4384 181.48 88.4384C181.363 88.4384 181.246 88.4334 181.135 88.4283L181.054 88.6413L179.877 88.479L179.857 88.2508C179.629 88.2001 179.406 88.1342 179.188 88.0632L179.051 88.2457L177.96 87.7741L178.001 87.5509C177.798 87.4394 177.6 87.3177 177.408 87.1909L177.225 87.3278L176.302 86.5772L176.398 86.3693C176.231 86.207 176.074 86.0396 175.926 85.8621L175.713 85.9483L175.029 84.9746L175.181 84.8022C175.064 84.6044 174.958 84.3964 174.862 84.1885L174.633 84.2139L174.238 83.0931L174.425 82.9713C174.37 82.7482 174.324 82.52 174.283 82.2918L174.055 82.2512Z" fill="#14191E"/>
</g>
<path d="M181.344 79.6698C181.344 79.7459 181.405 79.8067 181.481 79.8067C181.557 79.8067 181.618 79.7459 181.618 79.6698C181.618 79.5938 181.557 79.5329 181.481 79.5329C181.41 79.538 181.344 79.5988 181.344 79.6698Z" fill="#22272B"/>
<g opacity="0.5">
<path d="M181.37 79.5938C181.37 79.5989 181.37 79.6039 181.37 79.609C181.37 79.6851 181.431 79.7459 181.507 79.7459C181.552 79.7459 181.593 79.7206 181.618 79.6901C181.608 79.7561 181.552 79.8119 181.486 79.8119C181.41 79.8119 181.349 79.751 181.349 79.6749C181.344 79.6445 181.355 79.6141 181.37 79.5938Z" fill="#22272B"/>
</g>
<path d="M181.963 79.746C181.933 79.817 181.963 79.8931 182.034 79.9235C182.1 79.9539 182.181 79.9235 182.211 79.8525C182.242 79.7866 182.211 79.7054 182.14 79.675C182.069 79.6445 181.993 79.675 181.963 79.746Z" fill="#22272B"/>
<g opacity="0.5">
<path d="M182.013 79.6851C182.008 79.6901 182.008 79.6952 182.003 79.7003C181.972 79.7662 182.003 79.8473 182.074 79.8778C182.114 79.8981 182.16 79.893 182.2 79.8676C182.165 79.9234 182.094 79.9488 182.028 79.9235C181.957 79.893 181.927 79.8118 181.957 79.7459C181.972 79.7206 181.992 79.6952 182.013 79.6851Z" fill="#22272B"/>
</g>
<path d="M182.495 80.0602C182.44 80.1109 182.435 80.1971 182.485 80.2529C182.536 80.3087 182.622 80.3138 182.678 80.2631C182.734 80.2124 182.739 80.1262 182.688 80.0704C182.632 80.0146 182.546 80.0095 182.495 80.0602Z" fill="#22272B"/>
<g opacity="0.5">
<path d="M182.568 80.0298C182.563 80.0349 182.557 80.0349 182.552 80.0399C182.497 80.0907 182.491 80.1769 182.542 80.2327C182.573 80.2682 182.618 80.2834 182.659 80.2783C182.603 80.3189 182.527 80.3087 182.481 80.258C182.431 80.2022 182.436 80.116 182.491 80.0653C182.517 80.0399 182.542 80.0298 182.568 80.0298Z" fill="#22272B"/>
</g>
<path d="M182.85 80.5675C182.779 80.5929 182.738 80.669 182.763 80.74C182.789 80.811 182.865 80.8515 182.936 80.8262C183.007 80.8008 183.048 80.7248 183.022 80.6538C182.997 80.5828 182.921 80.5422 182.85 80.5675Z" fill="#22272B"/>
<g opacity="0.5">
<path d="M182.931 80.5675C182.926 80.5675 182.921 80.5675 182.916 80.5726C182.845 80.598 182.804 80.6741 182.83 80.7451C182.845 80.7907 182.88 80.8211 182.921 80.8313C182.855 80.8465 182.789 80.8059 182.763 80.74C182.738 80.669 182.779 80.5929 182.85 80.5675C182.875 80.5574 182.905 80.5574 182.931 80.5675Z" fill="#22272B"/>
</g>
<path d="M182.972 81.1761C182.896 81.1659 182.83 81.2217 182.825 81.2978C182.82 81.3738 182.871 81.4398 182.947 81.4449C183.023 81.455 183.089 81.3992 183.094 81.3231C183.099 81.247 183.043 81.1811 182.972 81.1761Z" fill="#22272B"/>
<g opacity="0.5">
<path d="M183.043 81.2064C183.038 81.2064 183.033 81.2013 183.028 81.2013C182.952 81.1912 182.886 81.247 182.881 81.3231C182.876 81.3687 182.896 81.4093 182.927 81.4397C182.861 81.4245 182.815 81.3637 182.82 81.2927C182.83 81.2166 182.896 81.1659 182.967 81.1709C182.998 81.176 183.023 81.1912 183.043 81.2064Z" fill="#22272B"/>
</g>
<path d="M182.834 81.7795C182.768 81.744 182.687 81.7643 182.647 81.8302C182.611 81.8961 182.632 81.9773 182.697 82.0178C182.763 82.0533 182.845 82.0331 182.885 81.9671C182.921 81.8961 182.895 81.815 182.834 81.7795Z" fill="#22272B"/>
<g opacity="0.5">
<path d="M182.891 81.8353C182.886 81.8303 182.881 81.8303 182.876 81.8252C182.81 81.7897 182.729 81.81 182.688 81.8759C182.663 81.9165 182.663 81.9622 182.683 82.0027C182.627 81.9622 182.612 81.8861 182.647 81.8252C182.683 81.7593 182.769 81.739 182.835 81.7745C182.861 81.7897 182.876 81.815 182.891 81.8353Z" fill="#22272B"/>
</g>
<path d="M182.466 82.2715C182.42 82.2106 182.339 82.1954 182.278 82.2411C182.217 82.2867 182.202 82.3679 182.248 82.4287C182.293 82.4896 182.375 82.5048 182.435 82.4592C182.496 82.4186 182.506 82.3323 182.466 82.2715Z" fill="#22272B"/>
<g opacity="0.5">
<path d="M182.49 82.3526C182.49 82.3476 182.486 82.3425 182.48 82.3374C182.435 82.2766 182.354 82.2614 182.293 82.307C182.257 82.3324 182.237 82.378 182.237 82.4186C182.206 82.3577 182.217 82.2817 182.277 82.2411C182.338 82.1954 182.425 82.2106 182.465 82.2715C182.48 82.2968 182.49 82.3222 182.49 82.3526Z" fill="#22272B"/>
</g>
<path d="M181.923 82.5758C181.907 82.5048 181.836 82.454 181.76 82.4693C181.689 82.4845 181.638 82.5555 181.654 82.6316C181.669 82.7026 181.74 82.7533 181.816 82.7381C181.892 82.7178 181.938 82.6468 181.923 82.5758Z" fill="#22272B"/>
<g opacity="0.5">
<path d="M181.918 82.657C181.918 82.652 181.918 82.6469 181.918 82.6419C181.902 82.5709 181.831 82.5201 181.755 82.5353C181.71 82.5455 181.674 82.5759 181.659 82.6165C181.654 82.5506 181.7 82.4846 181.766 82.4745C181.837 82.4593 181.913 82.5049 181.928 82.581C181.928 82.6013 181.928 82.6317 181.918 82.657Z" fill="#22272B"/>
</g>
<path d="M181.31 82.6317C181.325 82.5607 181.28 82.4846 181.203 82.4693C181.132 82.4541 181.056 82.4998 181.041 82.5759C181.026 82.6469 181.071 82.7229 181.147 82.7381C181.218 82.7534 181.295 82.7027 181.31 82.6317Z" fill="#22272B"/>
<g opacity="0.5">
<path d="M181.269 82.7026C181.269 82.6975 181.274 82.6924 181.274 82.6873C181.289 82.6163 181.244 82.5402 181.167 82.525C181.122 82.5149 181.076 82.5301 181.046 82.5606C181.066 82.4946 181.132 82.4591 181.203 82.4692C181.274 82.4845 181.325 82.5555 181.31 82.6316C181.299 82.662 181.289 82.6823 181.269 82.7026Z" fill="#22272B"/>
</g>
<path d="M180.721 82.4338C180.766 82.3729 180.751 82.2867 180.69 82.2462C180.629 82.2005 180.543 82.2157 180.503 82.2766C180.457 82.3374 180.472 82.4236 180.533 82.4642C180.594 82.5048 180.675 82.4947 180.721 82.4338Z" fill="#22272B"/>
<g opacity="0.5">
<path d="M180.654 82.4794C180.659 82.4743 180.665 82.4692 180.665 82.4692C180.71 82.4084 180.695 82.3222 180.634 82.2816C180.599 82.2562 180.553 82.2512 180.512 82.2614C180.558 82.2106 180.634 82.2005 180.69 82.2461C180.751 82.2918 180.766 82.3729 180.72 82.4338C180.705 82.4541 180.68 82.4743 180.654 82.4794Z" fill="#22272B"/>
</g>
<path d="M180.269 82.0129C180.335 81.9774 180.355 81.8912 180.32 81.8252C180.284 81.7593 180.198 81.739 180.132 81.7745C180.066 81.81 180.046 81.8962 180.081 81.9621C180.117 82.028 180.203 82.0484 180.269 82.0129Z" fill="#22272B"/>
<g opacity="0.5">
<path d="M180.188 82.028C180.193 82.028 180.198 82.0229 180.203 82.0229C180.269 81.9874 180.289 81.9012 180.253 81.8353C180.228 81.7947 180.193 81.7744 180.147 81.7693C180.208 81.744 180.284 81.7643 180.319 81.8252C180.355 81.8911 180.334 81.9722 180.269 82.0128C180.243 82.028 180.213 82.0331 180.188 82.028Z" fill="#22272B"/>
</g>
<path d="M180.021 81.4448C180.097 81.4347 180.148 81.3687 180.143 81.2977C180.132 81.2216 180.066 81.1709 179.995 81.176C179.919 81.1862 179.869 81.252 179.874 81.323C179.884 81.3991 179.95 81.4499 180.021 81.4448Z" fill="#22272B"/>
<g opacity="0.5">
<path d="M179.945 81.4245C179.95 81.4245 179.955 81.4245 179.96 81.4245C180.036 81.4144 180.087 81.3484 180.082 81.2774C180.076 81.2318 180.051 81.1963 180.011 81.171C180.077 81.171 180.137 81.2217 180.142 81.2927C180.153 81.3687 180.097 81.4347 180.021 81.4398C179.995 81.4448 179.965 81.4397 179.945 81.4245Z" fill="#22272B"/>
</g>
<path d="M180.031 80.8261C180.102 80.8514 180.178 80.8109 180.203 80.7399C180.228 80.6689 180.188 80.5928 180.117 80.5674C180.046 80.542 179.97 80.5826 179.945 80.6536C179.919 80.7246 179.96 80.8007 180.031 80.8261Z" fill="#22272B"/>
<g opacity="0.5">
<path d="M179.965 80.7755C179.97 80.7755 179.976 80.7806 179.981 80.7806C180.052 80.8059 180.128 80.7653 180.153 80.6943C180.168 80.6487 180.158 80.6031 180.133 80.5726C180.194 80.6031 180.224 80.669 180.204 80.735C180.178 80.806 180.102 80.8465 180.031 80.8211C180.006 80.8161 179.981 80.8009 179.965 80.7755Z" fill="#22272B"/>
</g>
<path d="M180.29 80.2631C180.346 80.3138 180.432 80.3087 180.483 80.2529C180.534 80.1971 180.529 80.1109 180.473 80.0602C180.417 80.0095 180.331 80.0146 180.28 80.0704C180.229 80.1262 180.235 80.2124 180.29 80.2631Z" fill="#22272B"/>
<g opacity="0.5">
<path d="M180.249 80.192C180.254 80.1971 180.254 80.2022 180.259 80.2022C180.315 80.2529 180.401 80.2478 180.452 80.192C180.483 80.1565 180.492 80.1109 180.482 80.0703C180.528 80.121 180.528 80.1971 180.482 80.2478C180.432 80.3036 180.345 80.3087 180.29 80.258C180.269 80.2427 180.254 80.2174 180.249 80.192Z" fill="#22272B"/>
</g>
<path d="M180.757 79.8575C180.787 79.9234 180.868 79.9589 180.934 79.9285C181 79.898 181.036 79.8169 181.005 79.751C180.975 79.685 180.894 79.6495 180.828 79.68C180.757 79.7053 180.726 79.7865 180.757 79.8575Z" fill="#22272B"/>
<g opacity="0.5">
<path d="M180.747 79.7713C180.747 79.7763 180.752 79.7814 180.752 79.7865C180.783 79.8524 180.864 79.8879 180.93 79.8575C180.971 79.8372 181.001 79.8017 181.006 79.7611C181.026 79.827 180.996 79.8981 180.93 79.9234C180.864 79.9539 180.783 79.9234 180.752 79.8524C180.747 79.8271 180.742 79.8017 180.747 79.7713Z" fill="#22272B"/>
</g>
<g opacity="0.26">
<path d="M118.57 76.0336V80.6943H101.307C101.621 75.7648 105.719 71.8597 110.729 71.8597C113.995 71.8597 116.871 73.5181 118.57 76.0336Z" fill="#333333"/>
</g>
<path d="M103.539 76.3481C105.111 74.5781 107.708 73.4168 110.644 73.4168C113.581 73.4168 116.177 74.5731 117.749 76.3481H119.032C118.15 73.2798 114.691 70.9875 110.558 70.9875C106.425 70.9875 102.966 73.2798 102.083 76.3481H103.539Z" fill="#666666"/>
<g opacity="0.3">
<path d="M111.334 72.7726C108.418 72.4784 105.659 73.366 103.818 74.9635L102.753 74.857C102.464 75.3286 102.236 75.8257 102.083 76.3531H103.539C105.111 74.5832 107.708 73.4218 110.644 73.4218C113.581 73.4218 116.177 74.5781 117.749 76.3531H117.881C116.598 74.4564 114.22 73.0667 111.334 72.7726Z" fill="#666666"/>
</g>
<path d="M103 82.2513L102.919 81.0645L103.137 80.9935C103.142 80.7602 103.157 80.532 103.183 80.3038L102.975 80.2074L103.218 79.041L103.446 79.0359C103.512 78.8128 103.593 78.5947 103.68 78.3817L103.507 78.2346L104.055 77.1798L104.278 77.2355C104.405 77.0428 104.537 76.8501 104.679 76.6675L104.552 76.4748L105.364 75.6076L105.561 75.7192C105.734 75.567 105.911 75.4199 106.099 75.283L106.028 75.0649L107.042 74.4462L107.204 74.6085C107.412 74.507 107.625 74.4158 107.843 74.3296L107.833 74.1013L108.979 73.7818L109.091 73.9796C109.314 73.939 109.547 73.9086 109.776 73.8833L109.832 73.6601H111.018L111.074 73.8833C111.307 73.9036 111.536 73.934 111.759 73.9796L111.87 73.7818L113.016 74.1013L113.006 74.3296C113.224 74.4107 113.437 74.502 113.645 74.6085L113.808 74.4462L114.822 75.0649L114.751 75.283C114.938 75.4199 115.116 75.567 115.288 75.7192L115.486 75.6076L116.298 76.4748L116.171 76.6675C116.313 76.8501 116.445 77.0377 116.571 77.2355L116.795 77.1798L117.342 78.2346L117.17 78.3817C117.256 78.5947 117.337 78.8128 117.403 79.0359L117.632 79.041L117.875 80.2074L117.667 80.3038C117.692 80.532 117.707 80.7602 117.712 80.9935L117.931 81.0645L117.849 82.2513L117.626 82.2918C117.591 82.52 117.545 82.7482 117.484 82.9714L117.672 83.0931L117.271 84.2139L117.043 84.1885C116.947 84.4016 116.84 84.6045 116.724 84.8022L116.876 84.9747L116.191 85.9483L115.978 85.8622C115.831 86.0397 115.669 86.207 115.507 86.3693L115.603 86.5773L114.68 87.3278L114.497 87.1909C114.305 87.3228 114.107 87.4394 113.904 87.551L113.945 87.7741L112.854 88.2458L112.717 88.0632C112.499 88.1342 112.276 88.2001 112.048 88.2508L112.022 88.4791L110.846 88.6413L110.765 88.4283C110.648 88.4334 110.536 88.4385 110.42 88.4385C110.303 88.4385 110.187 88.4334 110.075 88.4283L109.994 88.6413L108.817 88.4791L108.797 88.2508C108.569 88.2001 108.345 88.1342 108.127 88.0632L107.99 88.2458L106.9 87.7741L106.941 87.551C106.738 87.4394 106.54 87.3177 106.347 87.1909L106.165 87.3278L105.242 86.5773L105.338 86.3693C105.171 86.207 105.014 86.0397 104.867 85.8622L104.653 85.9483L103.969 84.9747L104.121 84.8022C104.004 84.6045 103.898 84.3965 103.802 84.1885L103.573 84.2139L103.178 83.0931L103.365 82.9714C103.31 82.7482 103.264 82.52 103.223 82.2918L103 82.2513Z" fill="#232C33"/>
<g opacity="0.4">
<path d="M111.186 84.6065C113.165 84.1393 114.391 82.1561 113.923 80.1772C113.456 78.1982 111.473 76.9728 109.494 77.4401C107.515 77.9073 106.289 79.8904 106.757 81.8694C107.224 83.8483 109.207 85.0738 111.186 84.6065Z" fill="#14191E"/>
</g>
<path d="M110.42 84.5131C112.274 84.5131 113.777 83.0099 113.777 81.1557C113.777 79.3015 112.274 77.7984 110.42 77.7984C108.566 77.7984 107.062 79.3015 107.062 81.1557C107.062 83.0099 108.566 84.5131 110.42 84.5131Z" fill="#686A6B"/>
<path d="M110.42 83.0069C111.443 83.0069 112.271 82.1781 112.271 81.1557C112.271 80.1334 111.443 79.3046 110.42 79.3046C109.398 79.3046 108.569 80.1334 108.569 81.1557C108.569 82.1781 109.398 83.0069 110.42 83.0069Z" fill="#31393F"/>
<g opacity="0.2">
<path d="M107.94 78.8939C107.853 79.1931 107.808 79.5075 107.808 79.8321C107.808 81.6832 109.309 83.1894 111.165 83.1894C112.149 83.1894 113.031 82.7685 113.645 82.0939C113.239 83.4886 111.951 84.508 110.425 84.508C108.574 84.508 107.067 83.0068 107.067 81.1507C107.067 80.2834 107.397 79.4923 107.94 78.8939Z" fill="#14191E"/>
</g>
<g opacity="0.2">
<path d="M117.617 83.0575L117.673 83.093L117.572 83.3821L117.546 83.3668C117.572 83.2654 117.592 83.1589 117.617 83.0575Z" fill="#14191E"/>
<path d="M117.752 81.0085L117.93 81.0643L117.905 81.4295L117.773 81.3888C117.768 81.2621 117.763 81.1353 117.752 81.0085Z" fill="#14191E"/>
<path d="M103.742 78.7773C103.656 78.9903 103.574 79.2084 103.508 79.4315L103.28 79.4366L103.108 80.2683L102.976 80.2075L103.219 79.041L103.448 79.036C103.488 78.8991 103.534 78.7672 103.585 78.6353L103.742 78.7773Z" fill="#14191E"/>
<path d="M116.18 76.6775L115.546 75.9979L115.348 76.1095C115.176 75.9573 114.998 75.8103 114.811 75.6733L114.882 75.4552L113.868 74.8365L113.705 74.9988C113.497 74.8974 113.284 74.8061 113.066 74.7199L113.076 74.4916L111.93 74.1721L111.819 74.3699C111.595 74.3294 111.362 74.299 111.134 74.2736L111.078 74.0504H109.891L109.836 74.2736C109.602 74.2939 109.374 74.3243 109.151 74.3699L109.039 74.1721L107.893 74.4916L107.903 74.7199C107.685 74.801 107.472 74.8923 107.264 74.9988L107.102 74.8365L106.088 75.4552L106.159 75.6733C105.971 75.8103 105.794 75.9573 105.621 76.1095L105.423 75.9979L104.612 76.8651L104.739 77.0578C104.597 77.2404 104.465 77.4281 104.338 77.6259L104.115 77.5701L103.628 78.5134C103.643 78.4677 103.658 78.4271 103.679 78.3815L103.506 78.2344L104.054 77.1796L104.277 77.2353C104.404 77.0426 104.536 76.8499 104.678 76.6673L104.551 76.4746L105.363 75.6074L105.56 75.719C105.733 75.5668 105.91 75.4198 106.098 75.2828L106.027 75.0647L107.041 74.446L107.203 74.6083C107.411 74.5068 107.624 74.4156 107.842 74.3294L107.832 74.1011L108.979 73.7816L109.09 73.9794C109.313 73.9388 109.546 73.9084 109.775 73.8882L109.831 73.665H111.017L111.073 73.8882C111.306 73.9084 111.535 73.9388 111.758 73.9794L111.869 73.7816L113.015 74.1011L113.005 74.3294C113.223 74.4105 113.436 74.5018 113.644 74.6083L113.807 74.446L114.821 75.0647L114.75 75.2828C114.937 75.4198 115.115 75.5668 115.287 75.719L115.485 75.6074L116.297 76.4746L116.17 76.6673C116.17 76.6724 116.175 76.6724 116.18 76.6775Z" fill="#14191E"/>
<path d="M104.177 85.1977L104.146 85.2332L103.964 84.9746L104.02 84.9137C104.07 85.0101 104.126 85.1064 104.177 85.1977Z" fill="#14191E"/>
<path d="M103.137 80.9986C103.137 80.8819 103.142 80.7703 103.152 80.6588L103.244 80.7044C103.218 80.9326 103.203 81.1608 103.198 81.3941L102.98 81.4651L103.036 82.2614L103 82.2563L102.919 81.0695L103.137 80.9986Z" fill="#14191E"/>
<path d="M103.42 83.367L103.293 83.4482L103.167 83.0932L103.334 82.9866C103.364 83.1134 103.39 83.2402 103.42 83.367Z" fill="#14191E"/>
<path d="M116.855 77.5702L116.632 77.626C116.505 77.4333 116.373 77.2405 116.231 77.058L116.338 76.8906C116.419 77.0021 116.495 77.1137 116.566 77.2253L116.789 77.1695L117.337 78.2244L117.241 78.3106L116.855 77.5702Z" fill="#14191E"/>
<path d="M117.687 79.4365L117.459 79.4314C117.393 79.2083 117.312 78.9902 117.226 78.7772L117.292 78.7214C117.327 78.8279 117.363 78.9344 117.398 79.0409L117.626 79.046L117.87 80.2124L117.849 80.2226L117.687 79.4365Z" fill="#14191E"/>
</g>
<g opacity="0.4">
<path d="M116.278 85.8266L116.191 85.9483L116.034 85.8875C116.115 85.8672 116.196 85.8469 116.278 85.8266Z" fill="#14191E"/>
<path d="M103 82.2512L102.919 81.0645L103.137 80.9935C103.142 80.7602 103.157 80.532 103.183 80.3038L102.975 80.2074L103.218 79.0409L103.446 79.0359C103.512 78.8128 103.593 78.5947 103.68 78.3817L103.507 78.2346L104.055 77.1797L104.278 77.2355C104.405 77.0428 104.537 76.8501 104.679 76.6675L104.552 76.4748L105.364 75.6076L105.561 75.7191C105.734 75.567 105.911 75.4199 106.099 75.283L106.028 75.0649L106.413 74.8316C105.582 75.9626 105.1 77.3014 105.1 78.7316C105.1 82.8141 109.015 86.1208 113.843 86.1208C114.568 86.1208 115.273 86.0447 115.948 85.9027C115.811 86.065 115.664 86.2171 115.512 86.3693L115.608 86.5772L114.685 87.3278L114.502 87.1909C114.31 87.3227 114.112 87.4394 113.909 87.5509L113.949 87.7741L112.859 88.2457L112.722 88.0632C112.504 88.1342 112.281 88.2001 112.053 88.2508L112.027 88.479L110.851 88.6413L110.77 88.4283C110.653 88.4334 110.542 88.4384 110.425 88.4384C110.308 88.4384 110.192 88.4334 110.08 88.4283L109.999 88.6413L108.822 88.479L108.802 88.2508C108.574 88.2001 108.351 88.1342 108.133 88.0632L107.996 88.2457L106.905 87.7741L106.946 87.5509C106.743 87.4394 106.545 87.3177 106.352 87.1909L106.17 87.3278L105.247 86.5772L105.343 86.3693C105.176 86.207 105.019 86.0396 104.872 85.8621L104.659 85.9483L103.974 84.9746L104.126 84.8022C104.01 84.6044 103.903 84.3964 103.806 84.1885L103.578 84.2139L103.183 83.0931L103.37 82.9713C103.315 82.7482 103.269 82.52 103.228 82.2918L103 82.2512Z" fill="#14191E"/>
</g>
<path d="M110.288 79.6698C110.288 79.7459 110.349 79.8067 110.425 79.8067C110.501 79.8067 110.562 79.7459 110.562 79.6698C110.562 79.5938 110.501 79.5329 110.425 79.5329C110.349 79.538 110.288 79.5988 110.288 79.6698Z" fill="#22272B"/>
<g opacity="0.5">
<path d="M110.314 79.5938C110.314 79.5988 110.314 79.6038 110.314 79.6089C110.314 79.685 110.374 79.7459 110.451 79.7459C110.496 79.7459 110.537 79.7205 110.562 79.6901C110.552 79.756 110.496 79.8118 110.43 79.8118C110.354 79.8118 110.293 79.7509 110.293 79.6748C110.288 79.6444 110.298 79.614 110.314 79.5938Z" fill="#22272B"/>
</g>
<path d="M110.901 79.746C110.87 79.817 110.901 79.8931 110.972 79.9235C111.043 79.9539 111.119 79.9235 111.149 79.8525C111.18 79.7866 111.149 79.7054 111.078 79.675C111.007 79.6445 110.931 79.675 110.901 79.746Z" fill="#22272B"/>
<g opacity="0.5">
<path d="M110.957 79.6851C110.952 79.6901 110.952 79.6952 110.947 79.7003C110.916 79.7662 110.947 79.8473 111.018 79.8778C111.058 79.8981 111.104 79.893 111.145 79.8676C111.109 79.9234 111.038 79.9488 110.972 79.9235C110.906 79.893 110.871 79.8118 110.901 79.7459C110.911 79.7206 110.932 79.6952 110.957 79.6851Z" fill="#22272B"/>
</g>
<path d="M111.434 80.0603C111.378 80.111 111.373 80.1972 111.424 80.253C111.474 80.3088 111.561 80.3139 111.616 80.2631C111.672 80.2124 111.677 80.1262 111.627 80.0704C111.576 80.0146 111.49 80.0096 111.434 80.0603Z" fill="#22272B"/>
<g opacity="0.5">
<path d="M111.505 80.0298C111.5 80.0349 111.495 80.0349 111.49 80.04C111.434 80.0907 111.429 80.1769 111.48 80.2327C111.51 80.2682 111.556 80.2834 111.596 80.2783C111.541 80.3189 111.464 80.3088 111.419 80.258C111.368 80.2023 111.373 80.116 111.429 80.0653C111.454 80.04 111.48 80.0298 111.505 80.0298Z" fill="#22272B"/>
</g>
<path d="M111.789 80.5674C111.718 80.5928 111.678 80.6689 111.703 80.7399C111.728 80.8109 111.804 80.8514 111.875 80.8261C111.946 80.8007 111.987 80.7246 111.961 80.6536C111.936 80.5826 111.86 80.542 111.789 80.5674Z" fill="#22272B"/>
<g opacity="0.5">
<path d="M111.87 80.5674C111.865 80.5674 111.86 80.5674 111.855 80.5725C111.784 80.5979 111.743 80.674 111.769 80.745C111.784 80.7906 111.82 80.821 111.86 80.8312C111.794 80.8464 111.728 80.8058 111.703 80.7399C111.678 80.6689 111.718 80.5928 111.789 80.5674C111.82 80.5573 111.845 80.5573 111.87 80.5674Z" fill="#22272B"/>
</g>
<path d="M111.911 81.1761C111.835 81.1659 111.769 81.2217 111.764 81.2978C111.754 81.3738 111.81 81.4398 111.886 81.4449C111.962 81.455 112.028 81.3992 112.033 81.3231C112.038 81.247 111.988 81.1811 111.911 81.1761Z" fill="#22272B"/>
<g opacity="0.5">
<path d="M111.987 81.2064C111.982 81.2064 111.977 81.2013 111.972 81.2013C111.896 81.1912 111.83 81.247 111.824 81.3231C111.819 81.3687 111.84 81.4093 111.87 81.4397C111.804 81.4245 111.758 81.3637 111.764 81.2927C111.774 81.2166 111.84 81.1659 111.911 81.1709C111.941 81.176 111.967 81.1912 111.987 81.2064Z" fill="#22272B"/>
</g>
<path d="M111.774 81.7795C111.708 81.744 111.627 81.7643 111.587 81.8302C111.551 81.8961 111.571 81.9773 111.637 82.0178C111.703 82.0533 111.784 82.0331 111.825 81.9671C111.86 81.8961 111.84 81.815 111.774 81.7795Z" fill="#22272B"/>
<g opacity="0.5">
<path d="M111.83 81.8353C111.825 81.8303 111.82 81.8303 111.815 81.8252C111.749 81.7897 111.667 81.81 111.627 81.8759C111.602 81.9165 111.602 81.9622 111.622 82.0027C111.566 81.9622 111.551 81.8861 111.587 81.8252C111.622 81.7593 111.708 81.739 111.774 81.7745C111.799 81.7897 111.82 81.815 111.83 81.8353Z" fill="#22272B"/>
</g>
<path d="M111.404 82.2715C111.358 82.2106 111.278 82.1954 111.217 82.2411C111.156 82.2867 111.141 82.3679 111.186 82.4287C111.232 82.4896 111.313 82.5048 111.374 82.4592C111.435 82.4186 111.45 82.3323 111.404 82.2715Z" fill="#22272B"/>
<g opacity="0.5">
<path d="M111.43 82.3526C111.43 82.3476 111.425 82.3425 111.42 82.3374C111.374 82.2766 111.293 82.2614 111.232 82.307C111.196 82.3324 111.176 82.378 111.176 82.4186C111.146 82.3577 111.156 82.2817 111.217 82.2411C111.278 82.1954 111.364 82.2106 111.404 82.2715C111.42 82.2968 111.43 82.3222 111.43 82.3526Z" fill="#22272B"/>
</g>
<path d="M110.861 82.5758C110.846 82.5048 110.775 82.454 110.699 82.4693C110.628 82.4845 110.577 82.5555 110.593 82.6316C110.608 82.7026 110.679 82.7533 110.755 82.7381C110.831 82.7178 110.876 82.6468 110.861 82.5758Z" fill="#22272B"/>
<g opacity="0.5">
<path d="M110.856 82.657C110.856 82.652 110.856 82.6469 110.856 82.6419C110.84 82.5709 110.769 82.5201 110.693 82.5353C110.648 82.5455 110.612 82.5759 110.597 82.6165C110.592 82.5506 110.638 82.4846 110.704 82.4745C110.775 82.4593 110.851 82.5049 110.866 82.581C110.871 82.6013 110.866 82.6317 110.856 82.657Z" fill="#22272B"/>
</g>
<path d="M110.247 82.6315C110.263 82.5605 110.217 82.4844 110.141 82.4692C110.07 82.454 109.994 82.4997 109.978 82.5758C109.963 82.6468 110.009 82.7228 110.085 82.738C110.161 82.7532 110.232 82.7025 110.247 82.6315Z" fill="#22272B"/>
<g opacity="0.5">
<path d="M110.207 82.7026C110.207 82.6975 110.212 82.6924 110.212 82.6873C110.227 82.6163 110.181 82.5402 110.105 82.525C110.059 82.5149 110.014 82.5301 109.983 82.5606C110.004 82.4946 110.07 82.4591 110.141 82.4692C110.212 82.4845 110.262 82.5555 110.247 82.6316C110.242 82.662 110.227 82.6823 110.207 82.7026Z" fill="#22272B"/>
</g>
<path d="M109.66 82.4337C109.706 82.3729 109.69 82.2867 109.63 82.2461C109.569 82.2005 109.483 82.2156 109.442 82.2765C109.396 82.3373 109.411 82.4236 109.472 82.4641C109.533 82.5047 109.619 82.4946 109.66 82.4337Z" fill="#22272B"/>
<g opacity="0.5">
<path d="M109.594 82.4794C109.599 82.4743 109.604 82.4692 109.604 82.4692C109.649 82.4084 109.634 82.3222 109.573 82.2816C109.538 82.2562 109.492 82.2512 109.452 82.2614C109.497 82.2106 109.573 82.2005 109.629 82.2461C109.69 82.2918 109.705 82.3729 109.659 82.4338C109.644 82.4541 109.619 82.4743 109.594 82.4794Z" fill="#22272B"/>
</g>
<path d="M109.208 82.0129C109.274 81.9774 109.294 81.8912 109.258 81.8252C109.223 81.7593 109.137 81.739 109.071 81.7745C109.005 81.81 108.985 81.8962 109.02 81.9621C109.061 82.028 109.142 82.0484 109.208 82.0129Z" fill="#22272B"/>
<g opacity="0.5">
<path d="M109.127 82.028C109.132 82.028 109.137 82.0229 109.142 82.0229C109.208 81.9874 109.228 81.9012 109.192 81.8353C109.167 81.7947 109.132 81.7744 109.086 81.7693C109.147 81.744 109.223 81.7643 109.258 81.8252C109.294 81.8911 109.273 81.9722 109.208 82.0128C109.182 82.028 109.152 82.0331 109.127 82.028Z" fill="#22272B"/>
</g>
<path d="M108.965 81.4448C109.041 81.4346 109.092 81.3687 109.087 81.2977C109.077 81.2216 109.011 81.1709 108.94 81.1759C108.864 81.1861 108.813 81.252 108.818 81.323C108.823 81.3991 108.889 81.4498 108.965 81.4448Z" fill="#22272B"/>
<g opacity="0.5">
<path d="M108.883 81.4245C108.888 81.4245 108.893 81.4245 108.898 81.4245C108.974 81.4144 109.025 81.3484 109.02 81.2774C109.015 81.2318 108.99 81.1963 108.949 81.171C109.015 81.171 109.076 81.2217 109.081 81.2927C109.091 81.3687 109.035 81.4347 108.959 81.4398C108.934 81.4448 108.909 81.4397 108.883 81.4245Z" fill="#22272B"/>
</g>
<path d="M108.97 80.8262C109.041 80.8515 109.117 80.811 109.143 80.74C109.168 80.669 109.127 80.5929 109.056 80.5675C108.985 80.5422 108.909 80.5828 108.884 80.6538C108.864 80.7248 108.899 80.8008 108.97 80.8262Z" fill="#22272B"/>
<g opacity="0.5">
<path d="M108.904 80.7754C108.909 80.7754 108.914 80.7805 108.919 80.7805C108.99 80.8059 109.066 80.7653 109.091 80.6943C109.106 80.6486 109.097 80.603 109.071 80.5726C109.132 80.603 109.162 80.669 109.142 80.7349C109.117 80.8059 109.041 80.8464 108.97 80.8211C108.944 80.816 108.919 80.8008 108.904 80.7754Z" fill="#22272B"/>
</g>
<path d="M109.228 80.2632C109.284 80.3139 109.37 80.3088 109.421 80.2531C109.471 80.1973 109.466 80.111 109.411 80.0603C109.355 80.0096 109.268 80.0147 109.218 80.0705C109.167 80.1263 109.172 80.2125 109.228 80.2632Z" fill="#22272B"/>
<g opacity="0.5">
<path d="M109.188 80.1921C109.193 80.1972 109.193 80.2022 109.198 80.2022C109.253 80.253 109.34 80.2479 109.39 80.1921C109.421 80.1566 109.431 80.1109 109.421 80.0704C109.466 80.1211 109.466 80.1971 109.421 80.2479C109.37 80.3037 109.284 80.3087 109.228 80.258C109.208 80.2428 109.193 80.2174 109.188 80.1921Z" fill="#22272B"/>
</g>
<path d="M109.695 79.8575C109.725 79.9234 109.806 79.9589 109.872 79.9285C109.938 79.898 109.974 79.8169 109.943 79.751C109.913 79.685 109.832 79.6495 109.766 79.68C109.695 79.7053 109.664 79.7865 109.695 79.8575Z" fill="#22272B"/>
<g opacity="0.5">
<path d="M109.685 79.7713C109.685 79.7763 109.69 79.7814 109.69 79.7865C109.721 79.8524 109.802 79.8879 109.868 79.8575C109.908 79.8372 109.939 79.8017 109.944 79.7611C109.964 79.827 109.934 79.8981 109.868 79.9234C109.802 79.9539 109.721 79.9234 109.69 79.8524C109.685 79.8271 109.68 79.8017 109.685 79.7713Z" fill="#22272B"/>
</g>
</svg>
