<svg width="251" height="120" viewBox="0 0 251 120" fill="none" xmlns="http://www.w3.org/2000/svg">
<path d="M217.316 69.7314L217.31 70.9787L217.304 71.5928L217.292 72.4348L217.286 73.049L217.279 73.8911L217.273 74.5052L217.267 75.3474L217.261 75.6703H214.571L214.565 74.7712L214.558 74.1507L214.546 73.3023V72.6818L214.534 71.8334L214.528 71.2193L214.522 70.3709L214.516 69.7503V69.7314H217.316Z" fill="#F9AE3B"/>
<path d="M217.31 70.9786L217.304 71.5928L214.522 70.3709L214.516 69.7503L217.31 70.9786Z" fill="black"/>
<path d="M217.292 72.4348L217.286 73.049L214.534 71.8334L214.528 71.2192L217.292 72.4348Z" fill="black"/>
<path d="M217.279 73.8911L217.273 74.5053L214.546 73.3024V72.6818L217.279 73.8911Z" fill="black"/>
<path d="M217.267 75.3473L217.261 75.6703H216.601L214.565 74.7712L214.559 74.1507L217.267 75.3473Z" fill="black"/>
<g opacity="0.6">
<path d="M216.925 69.7314L216.919 70.2759L216.913 70.8837L216.906 71.7257L216.9 72.3399L216.894 73.182L216.888 73.7961L216.882 74.6382L216.876 74.9612H214.564L214.571 75.6703H217.261L217.267 75.3474L217.273 74.5052L217.279 73.8911L217.285 73.049L217.292 72.4348L217.304 71.5928L217.31 70.9787L217.316 69.7314H216.925Z" fill="#F9AE3B"/>
</g>
<path d="M30.5283 76.1832V78.1016C30.5283 78.7537 31.0419 79.2856 31.6717 79.2856H51.7275V76.1768H30.5283V76.1832Z" fill="#27292B"/>
<path d="M161.239 70.8268H67.4844V77.0886H161.239V70.8268Z" fill="#27292B"/>
<path d="M202.983 67.7433V73.6759H68.8906V67.9839H189.146L202.983 67.7433Z" fill="#27292B"/>
<path d="M189.146 67.9839L220.465 67.7433V73.6759H68.8906L189.146 67.9839Z" fill="#27292B"/>
<path d="M33.6832 69.2249L31.0539 72.3779C30.7176 72.7831 30.5342 73.2897 30.5342 73.8088V76.1831H74.4735V63.9951H32.7048L33.6832 69.2249Z" fill="#27292B"/>
<path d="M50.5397 78.6714L50.4419 77.1645L50.7109 77.0759C50.7171 76.7783 50.7354 76.487 50.766 76.1958L50.5153 76.0692L50.8149 74.5876L51.09 74.5812C51.1756 74.2963 51.2674 74.0178 51.3774 73.7519L51.1695 73.5619L51.8421 72.2196L52.1173 72.2893C52.2701 72.0423 52.4352 71.8017 52.6064 71.5675L52.4536 71.3269L53.4503 70.2189L53.6948 70.3646C53.9089 70.1683 54.129 69.9847 54.3552 69.8074L54.2696 69.5288L55.517 68.7437L55.7126 68.9463C55.9695 68.8134 56.2263 68.6994 56.4953 68.5917L56.4831 68.3005L57.8894 67.8953L58.024 68.1486C58.2991 68.0979 58.5804 68.0536 58.8678 68.0282L58.935 67.7433H60.3964L60.4637 68.0282C60.7511 68.0536 61.0323 68.0916 61.3075 68.1486L61.442 67.8953L62.8483 68.3005L62.8361 68.5917C63.1052 68.6994 63.362 68.8134 63.6188 68.9463L63.8145 68.7437L65.0618 69.5288L64.9762 69.8074C65.2025 69.9847 65.4226 70.1683 65.6366 70.3646L65.8812 70.2189L66.8779 71.3269L66.725 71.5675C66.9023 71.8017 67.0613 72.036 67.2142 72.2893L67.4893 72.2196L68.1619 73.5619L67.954 73.7519C68.0641 74.0241 68.1558 74.3027 68.2414 74.5812L68.5166 74.5876L68.8162 76.0692L68.5655 76.1958C68.5961 76.487 68.6144 76.7783 68.6205 77.0759L68.8895 77.1645L68.7917 78.6714L68.5166 78.722C68.4738 79.0133 68.4126 79.3045 68.3454 79.5894L68.5777 79.7477L68.0885 81.1723L67.8134 81.1406C67.6972 81.4065 67.5627 81.6725 67.4221 81.9258L67.6055 82.141L66.7617 83.3756L66.4988 83.268C66.3153 83.4896 66.1196 83.7048 65.9179 83.9138L66.0402 84.1797L64.9089 85.1358L64.6888 84.9585C64.4565 85.1231 64.2119 85.275 63.9612 85.4207L64.0101 85.7056L62.671 86.3071L62.4998 86.0792C62.2308 86.1741 61.9556 86.2501 61.6805 86.3197L61.6499 86.611L60.2008 86.82L60.0968 86.5477C59.9562 86.554 59.8155 86.5603 59.6688 86.5603C59.5282 86.5603 59.3814 86.554 59.2408 86.5477L59.1368 86.82L57.6876 86.611L57.6571 86.3197C57.3758 86.2564 57.1068 86.1741 56.8377 86.0792L56.6665 86.3071L55.3274 85.7056L55.3764 85.4207C55.1257 85.2814 54.8811 85.1231 54.6487 84.9585L54.4286 85.1358L53.2974 84.1797L53.4197 83.9138C53.2179 83.7112 53.0222 83.496 52.8388 83.268L52.5759 83.3756L51.7321 82.141L51.9155 81.9258C51.7749 81.6725 51.6404 81.4129 51.5242 81.1406L51.249 81.1723L50.7599 79.7477L50.9922 79.5894C50.9188 79.3045 50.8638 79.0196 50.821 78.722L50.5397 78.6714Z" fill="#232C33"/>
<g opacity="0.4">
<path d="M59.663 81.9573C62.1619 81.9573 64.1877 79.8596 64.1877 77.2721C64.1877 74.6845 62.1619 72.5869 59.663 72.5869C57.164 72.5869 55.1382 74.6845 55.1382 77.2721C55.1382 79.8596 57.164 81.9573 59.663 81.9573Z" fill="#14191E"/>
</g>
<path d="M59.6627 81.5396C61.9388 81.5396 63.7839 79.629 63.7839 77.2722C63.7839 74.9154 61.9388 73.0048 59.6627 73.0048C57.3866 73.0048 55.5415 74.9154 55.5415 77.2722C55.5415 79.629 57.3866 81.5396 59.6627 81.5396Z" fill="black"/>
<path d="M59.6628 79.6274C60.9191 79.6274 61.9374 78.5729 61.9374 77.2721C61.9374 75.9713 60.9191 74.9168 59.6628 74.9168C58.4066 74.9168 57.3882 75.9713 57.3882 77.2721C57.3882 78.5729 58.4066 79.6274 59.6628 79.6274Z" fill="#31393F"/>
<g opacity="0.2">
<path d="M56.6111 74.3976C56.5071 74.7775 56.446 75.1764 56.446 75.5943C56.446 77.9496 58.2926 79.8617 60.5672 79.8617C61.7779 79.8617 62.8601 79.3235 63.6183 78.4687C63.1169 80.2478 61.5394 81.5458 59.6622 81.5458C57.3876 81.5458 55.541 79.6337 55.541 77.2784C55.541 76.1641 55.9446 75.1574 56.6111 74.3976Z" fill="#14191E"/>
</g>
<g opacity="0.2">
<path d="M68.5053 79.6907L68.5726 79.735L68.4441 80.1023L68.4136 80.0833C68.4503 79.9567 68.4747 79.8237 68.5053 79.6907Z" fill="#14191E"/>
<path d="M68.6704 77.0885L68.8844 77.1581L68.8538 77.6267L68.6888 77.576C68.6888 77.4114 68.6826 77.2468 68.6704 77.0885Z" fill="#14191E"/>
<path d="M51.4517 74.2457C51.3416 74.518 51.2499 74.7965 51.1643 75.0751L50.8891 75.0814L50.6751 76.1388L50.5161 76.0628L50.8157 74.5812L51.0909 74.5749C51.1398 74.4039 51.1948 74.233 51.256 74.0684L51.4517 74.2457Z" fill="#14191E"/>
<path d="M66.7374 71.5801L65.9608 70.7191L65.7162 70.8647C65.5022 70.6684 65.2821 70.4848 65.0559 70.3075L65.1414 70.029L63.8941 69.2439L63.6984 69.4465C63.4416 69.3198 63.1848 69.1996 62.9158 69.0919L62.928 68.8006L61.5216 68.3955L61.3871 68.6487C61.112 68.598 60.8307 68.5538 60.5433 68.5284L60.476 68.2435H59.0147L58.9474 68.5284C58.66 68.5538 58.3788 68.5917 58.1036 68.6487L57.9691 68.3955L56.5627 68.8006L56.575 69.0919C56.3059 69.1996 56.0491 69.3135 55.7923 69.4465L55.5966 69.2439L54.3492 70.029L54.4349 70.3075C54.2086 70.4848 53.9885 70.6684 53.7745 70.8647L53.5299 70.7191L52.5332 71.8271L52.6861 72.0677C52.5087 72.3019 52.3498 72.5362 52.1969 72.7895L51.9217 72.7198L51.3225 73.9165C51.3409 73.8595 51.3653 73.8025 51.3837 73.7455L51.1758 73.5555L51.8484 72.2133L52.1235 72.2829C52.2764 72.036 52.4415 71.7955 52.6127 71.5612L52.4598 71.3206L53.4565 70.2126L53.7011 70.3582C53.9151 70.1619 54.1352 69.9783 54.3614 69.8011L54.2759 69.5224L55.5232 68.7373L55.7189 68.94C55.9757 68.807 56.2325 68.693 56.5015 68.5854L56.4893 68.2942L57.8957 67.8889L58.0302 68.1422C58.3053 68.0916 58.5866 68.0472 58.874 68.0219L58.9413 67.737H60.4026L60.4699 68.0219C60.7573 68.0472 61.0386 68.0852 61.3137 68.1422L61.4482 67.8889L62.8546 68.2942L62.8424 68.5854C63.1114 68.693 63.3682 68.807 63.625 68.94L63.8207 68.7373L65.0681 69.5224L64.9825 69.8011C65.2087 69.9783 65.4288 70.1619 65.6428 70.3582L65.8874 70.2126L66.8841 71.3206L66.7312 71.5612C66.7312 71.5675 66.7313 71.5738 66.7374 71.5801Z" fill="#14191E"/>
<path d="M51.99 82.4196L51.9533 82.4639L51.7271 82.1347L51.7943 82.0524C51.8616 82.179 51.9227 82.2993 51.99 82.4196Z" fill="#14191E"/>
<path d="M50.7117 77.0695C50.7117 76.9239 50.7178 76.7783 50.73 76.639L50.8462 76.696C50.8156 76.9873 50.7973 77.2785 50.7911 77.5761L50.5221 77.6647L50.5894 78.6778L50.5465 78.6714L50.4487 77.1645L50.7117 77.0695Z" fill="#14191E"/>
<path d="M51.067 80.0833L50.9141 80.1846L50.7612 79.735L50.963 79.5958C50.9874 79.7667 51.0242 79.925 51.067 80.0833Z" fill="#14191E"/>
<path d="M67.5695 72.7135L67.2943 72.7831C67.1415 72.5362 66.9764 72.2956 66.8052 72.0613L66.9397 71.8524C67.0375 71.9917 67.1292 72.1373 67.221 72.2829L67.4961 72.2133L68.1687 73.5555L68.0464 73.6632L67.5695 72.7135Z" fill="#14191E"/>
<path d="M68.5899 75.0877L68.3147 75.0813C68.2291 74.7964 68.1374 74.5179 68.0273 74.252L68.1068 74.1759C68.1496 74.3089 68.1924 74.4418 68.2352 74.5811L68.5104 74.5875L68.81 76.0691L68.7855 76.0817L68.5899 75.0877Z" fill="#14191E"/>
</g>
<g opacity="0.4">
<path d="M66.8577 83.2236L66.7538 83.3756L66.5581 83.2933C66.6559 83.2679 66.7538 83.249 66.8577 83.2236Z" fill="#14191E"/>
<path d="M50.5387 78.6712L50.4409 77.1643L50.71 77.0757C50.7161 76.7781 50.7344 76.4868 50.765 76.1956L50.5143 76.069L50.8139 74.5874L51.0891 74.581C51.1747 74.2961 51.2664 74.0176 51.3765 73.7517L51.1686 73.5617L51.8411 72.2194L52.1163 72.2891C52.2692 72.0421 52.4343 71.8015 52.6055 71.5673L52.4526 71.3267L53.4493 70.2187L53.6939 70.3644C53.9079 70.1681 54.128 69.9845 54.3543 69.8072L54.2686 69.5286L54.7395 69.231C53.7122 70.6746 53.1252 72.3714 53.1252 74.1948C53.1252 79.3866 57.9374 83.597 63.8685 83.597C64.7613 83.597 65.6295 83.5021 66.455 83.3185C66.2838 83.5211 66.1064 83.7236 65.9169 83.9136L66.0392 84.1795L64.908 85.1356L64.6879 84.9583C64.4555 85.1229 64.2109 85.2748 63.9602 85.4205L64.0091 85.7054L62.6701 86.3069L62.4989 86.079C62.2298 86.1739 61.9547 86.2499 61.6795 86.3195L61.6489 86.6108L60.1998 86.8198L60.0958 86.5475C59.9552 86.5538 59.8146 86.5601 59.6678 86.5601C59.5211 86.5601 59.3804 86.5538 59.2398 86.5475L59.1359 86.8198L57.6867 86.6108L57.6561 86.3195C57.3748 86.2562 57.1058 86.1739 56.8368 86.079L56.6655 86.3069L55.3265 85.7054L55.3754 85.4205C55.1247 85.2812 54.8801 85.1229 54.6477 84.9583L54.4276 85.1356L53.2964 84.1795L53.4187 83.9136C53.2169 83.711 53.0213 83.4958 52.8378 83.2678L52.5749 83.3754L51.7311 82.1408L51.9145 81.9256C51.7739 81.6723 51.6394 81.4127 51.5232 81.1404L51.248 81.1721L50.7589 79.7475L50.9912 79.5892C50.9179 79.3043 50.8628 79.0194 50.82 78.7218L50.5387 78.6712Z" fill="#14191E"/>
</g>
<path d="M59.4985 75.3854C59.4985 75.4803 59.5719 75.5563 59.6636 75.5563C59.7554 75.5563 59.8287 75.4803 59.8287 75.3854C59.8287 75.2904 59.7554 75.2144 59.6636 75.2144C59.5719 75.2144 59.4985 75.2904 59.4985 75.3854Z" fill="#22272B"/>
<g opacity="0.5">
<path d="M59.5291 75.2841C59.5291 75.2904 59.5291 75.2967 59.5291 75.3031C59.5291 75.398 59.6025 75.474 59.6942 75.474C59.7492 75.474 59.7981 75.4424 59.8287 75.3981C59.8165 75.4804 59.7492 75.55 59.6636 75.55C59.5719 75.55 59.4985 75.474 59.4985 75.379C59.4985 75.3474 59.5108 75.3157 59.5291 75.2841Z" fill="#22272B"/>
</g>
<path d="M60.25 75.4803C60.2133 75.569 60.25 75.6703 60.3356 75.7083C60.4212 75.7462 60.519 75.7082 60.5557 75.6196C60.5924 75.531 60.5558 75.4297 60.4702 75.3917C60.3846 75.3537 60.2867 75.3917 60.25 75.4803Z" fill="#22272B"/>
<g opacity="0.5">
<path d="M60.3173 75.4044C60.3112 75.4107 60.3112 75.417 60.3051 75.4234C60.2684 75.512 60.3051 75.6133 60.3907 75.6513C60.4396 75.6766 60.5007 75.6703 60.5435 75.6386C60.5007 75.7146 60.409 75.7462 60.3356 75.7083C60.25 75.6703 60.2133 75.569 60.25 75.4803C60.2683 75.4423 60.2928 75.417 60.3173 75.4044Z" fill="#22272B"/>
</g>
<path d="M60.9046 75.8793C60.8373 75.9426 60.8312 76.0502 60.8924 76.1199C60.9535 76.1895 61.0575 76.1959 61.1308 76.1326C61.1981 76.0692 61.2042 75.9616 61.1431 75.892C61.0819 75.8223 60.9719 75.816 60.9046 75.8793Z" fill="#22272B"/>
<g opacity="0.5">
<path d="M60.9963 75.8412C60.9902 75.8475 60.9841 75.8475 60.978 75.8539C60.9107 75.9172 60.9046 76.0248 60.9658 76.0945C61.0025 76.1388 61.0575 76.1578 61.1125 76.1515C61.0452 76.2021 60.9474 76.1895 60.8924 76.1261C60.8312 76.0565 60.8373 75.9489 60.9046 75.8855C60.9352 75.8539 60.9658 75.8412 60.9963 75.8412Z" fill="#22272B"/>
</g>
<path d="M61.3451 76.525C61.2595 76.5567 61.2105 76.6517 61.2411 76.7403C61.2717 76.8289 61.3634 76.8796 61.449 76.848C61.5346 76.8163 61.5835 76.7213 61.5529 76.6326C61.5285 76.544 61.4307 76.4934 61.3451 76.525Z" fill="#22272B"/>
<g opacity="0.5">
<path d="M61.4431 76.5251C61.437 76.5251 61.4309 76.5251 61.4248 76.5314C61.3392 76.5631 61.2903 76.658 61.3147 76.7466C61.3331 76.8036 61.3759 76.8416 61.4248 76.8606C61.3453 76.8796 61.2597 76.829 61.2352 76.7466C61.2047 76.658 61.2536 76.5567 61.3392 76.5314C61.3758 76.5124 61.4125 76.5124 61.4431 76.5251Z" fill="#22272B"/>
</g>
<path d="M61.491 77.2975C61.3993 77.2848 61.3198 77.3545 61.3076 77.4495C61.2954 77.5444 61.3626 77.6268 61.4543 77.6394C61.5461 77.6521 61.6255 77.5825 61.6378 77.4875C61.65 77.3925 61.5827 77.3102 61.491 77.2975Z" fill="#22272B"/>
<g opacity="0.5">
<path d="M61.5828 77.3419C61.5766 77.3419 61.5705 77.3356 61.5644 77.3356C61.4727 77.3229 61.3932 77.3926 61.381 77.4875C61.3748 77.5445 61.3993 77.6015 61.436 77.6332C61.3565 77.6142 61.3015 77.5382 61.3076 77.4495C61.3198 77.3545 61.3993 77.2849 61.491 77.2976C61.5277 77.3039 61.5583 77.3165 61.5828 77.3419Z" fill="#22272B"/>
</g>
<path d="M61.3257 78.0637C61.2462 78.013 61.1422 78.0448 61.0994 78.1271C61.0566 78.2094 61.0811 78.317 61.1606 78.3613C61.2401 78.412 61.3441 78.3803 61.3869 78.2979C61.4297 78.2156 61.4052 78.1143 61.3257 78.0637Z" fill="#22272B"/>
<g opacity="0.5">
<path d="M61.3932 78.1395C61.3871 78.1332 61.381 78.1333 61.3748 78.1269C61.2954 78.0763 61.1914 78.1079 61.1486 78.1902C61.118 78.2409 61.118 78.2979 61.1425 78.3485C61.0752 78.2979 61.0569 78.2029 61.0997 78.1269C61.1486 78.0446 61.2464 78.0129 61.3259 78.0636C61.3565 78.0826 61.3748 78.1142 61.3932 78.1395Z" fill="#22272B"/>
</g>
<path d="M60.8665 78.6966C60.8114 78.6207 60.7075 78.6017 60.6341 78.6587C60.5607 78.7157 60.5424 78.8233 60.5974 78.8993C60.6525 78.9753 60.7564 78.9942 60.8298 78.9372C60.9032 78.8803 60.9215 78.7726 60.8665 78.6966Z" fill="#22272B"/>
<g opacity="0.5">
<path d="M60.8971 78.7916C60.8909 78.7853 60.891 78.7789 60.8849 78.7726C60.8298 78.6966 60.7259 78.6777 60.6525 78.7347C60.6097 78.7663 60.5852 78.8233 60.5852 78.8739C60.5424 78.798 60.5608 78.703 60.6341 78.6523C60.7075 78.5954 60.8115 78.6143 60.8665 78.6903C60.891 78.7283 60.8971 78.76 60.8971 78.7916Z" fill="#22272B"/>
</g>
<path d="M60.207 79.0829C60.1887 78.988 60.0969 78.931 60.0113 78.95C59.9196 78.969 59.8646 79.064 59.8829 79.1526C59.9013 79.2476 59.993 79.3046 60.0786 79.2856C60.1642 79.2666 60.2253 79.1716 60.207 79.0829Z" fill="#22272B"/>
<g opacity="0.5">
<path d="M60.1937 79.1843C60.1937 79.1779 60.1937 79.1716 60.1937 79.1652C60.1753 79.0703 60.0836 79.0133 59.998 79.0323C59.943 79.045 59.9002 79.083 59.8818 79.1336C59.8757 79.045 59.9307 78.969 60.0102 78.95C60.1019 78.931 60.1876 78.988 60.2059 79.0829C60.212 79.1146 60.2059 79.1526 60.1937 79.1843Z" fill="#22272B"/>
</g>
<path d="M59.4496 79.1526C59.468 79.0576 59.413 78.9689 59.3213 78.9499C59.2295 78.9309 59.1439 78.9879 59.1256 79.0829C59.1072 79.1778 59.1622 79.2665 59.254 79.2855C59.3396 79.3045 59.4313 79.2476 59.4496 79.1526Z" fill="#22272B"/>
<g opacity="0.5">
<path d="M59.4009 79.2413C59.4009 79.2349 59.407 79.2286 59.407 79.2223C59.4253 79.1273 59.3703 79.0387 59.2786 79.0197C59.2235 79.007 59.1685 79.026 59.1318 79.064C59.1563 78.9817 59.2419 78.931 59.3214 78.95C59.4131 78.969 59.4681 79.064 59.4498 79.1527C59.4437 79.1907 59.4253 79.2223 59.4009 79.2413Z" fill="#22272B"/>
</g>
<path d="M58.7278 78.8995C58.7828 78.8235 58.7645 78.7159 58.6911 78.6589C58.6177 78.6019 58.5138 78.6208 58.4588 78.6968C58.4037 78.7728 58.4221 78.8804 58.4954 78.9374C58.5688 78.9944 58.6728 78.9755 58.7278 78.8995Z" fill="#22272B"/>
<g opacity="0.5">
<path d="M58.648 78.9627C58.6541 78.9564 58.6603 78.95 58.6603 78.95C58.7153 78.8741 58.6969 78.7664 58.6236 78.7094C58.5808 78.6778 58.5196 78.6715 58.4707 78.6842C58.5257 78.6208 58.6236 78.6082 58.6908 78.6588C58.7642 78.7158 58.7825 78.8234 58.7275 78.8994C58.7092 78.9311 58.6786 78.95 58.648 78.9627Z" fill="#22272B"/>
</g>
<path d="M58.1714 78.3612C58.2509 78.3105 58.2753 78.2092 58.2325 78.1269C58.1836 78.0446 58.0858 78.0129 58.0063 78.0636C57.9268 78.1142 57.9024 78.2155 57.9452 78.2978C57.988 78.3865 58.0919 78.4118 58.1714 78.3612Z" fill="#22272B"/>
<g opacity="0.5">
<path d="M58.0728 78.3865C58.0789 78.3865 58.0851 78.3802 58.0912 78.3802C58.1707 78.3295 58.1951 78.2282 58.1523 78.1459C58.1217 78.0953 58.0728 78.0636 58.0239 78.0636C58.0973 78.032 58.189 78.0573 58.2318 78.1333C58.2807 78.2156 58.2502 78.3233 58.1707 78.3676C58.1401 78.3803 58.1034 78.3865 58.0728 78.3865Z" fill="#22272B"/>
</g>
<path d="M57.8705 77.6394C57.9622 77.6267 58.0294 77.5444 58.0172 77.4494C58.005 77.3544 57.9255 77.2848 57.8338 77.2974C57.742 77.3101 57.6748 77.3925 57.687 77.4874C57.6931 77.5824 57.7787 77.652 57.8705 77.6394Z" fill="#22272B"/>
<g opacity="0.5">
<path d="M57.7734 77.6205C57.7796 77.6205 57.7857 77.6205 57.7918 77.6205C57.8835 77.6078 57.9508 77.5255 57.9385 77.4305C57.9324 77.3735 57.9018 77.3229 57.8529 77.2975C57.9385 77.2975 58.0058 77.3609 58.018 77.4495C58.0303 77.5445 57.963 77.6268 57.8713 77.6395C57.8346 77.6458 57.7979 77.6394 57.7734 77.6205Z" fill="#22272B"/>
</g>
<path d="M57.8764 76.8542C57.962 76.8859 58.0598 76.8352 58.0843 76.7402C58.1149 76.6516 58.066 76.5503 57.9804 76.525C57.8948 76.4996 57.7969 76.5439 57.7725 76.6325C57.748 76.7212 57.7908 76.8225 57.8764 76.8542Z" fill="#22272B"/>
<g opacity="0.5">
<path d="M57.7969 76.791C57.803 76.791 57.8091 76.7973 57.8152 76.7973C57.9008 76.829 57.9987 76.7783 58.0231 76.6834C58.0415 76.6264 58.0292 76.5694 57.9986 76.5251C58.072 76.5631 58.1148 76.6517 58.0842 76.734C58.0537 76.8226 57.9619 76.8733 57.8763 76.8417C57.8458 76.8417 57.8152 76.8226 57.7969 76.791Z" fill="#22272B"/>
</g>
<path d="M58.1956 76.1388C58.2629 76.2022 58.3668 76.1958 58.4341 76.1262C58.4953 76.0565 58.4891 75.9489 58.4219 75.8856C58.3546 75.8223 58.2507 75.8286 58.1834 75.8982C58.1222 75.9679 58.1284 76.0755 58.1956 76.1388Z" fill="#22272B"/>
<g opacity="0.5">
<path d="M58.147 76.05C58.1531 76.0564 58.1531 76.0627 58.1592 76.0627C58.2265 76.126 58.3304 76.1197 58.3916 76.05C58.4283 76.0057 58.4405 75.9487 58.4283 75.8981C58.4833 75.9614 58.4833 76.0627 58.4283 76.126C58.3671 76.1956 58.2632 76.202 58.1959 76.1387C58.1714 76.1133 58.1531 76.0817 58.147 76.05Z" fill="#22272B"/>
</g>
<path d="M58.771 75.6195C58.8077 75.7082 58.9055 75.7462 58.9911 75.7082C59.0767 75.6702 59.1134 75.5689 59.0767 75.4803C59.04 75.3916 58.9422 75.3536 58.8566 75.3916C58.771 75.4296 58.7343 75.5309 58.771 75.6195Z" fill="#22272B"/>
<g opacity="0.5">
<path d="M58.7592 75.5183C58.7592 75.5246 58.7654 75.5309 58.7654 75.5372C58.802 75.6259 58.8999 75.6639 58.9855 75.6259C59.0344 75.6005 59.0711 75.5563 59.0833 75.4993C59.1078 75.5816 59.0711 75.6702 58.9916 75.7082C58.906 75.7462 58.8082 75.7082 58.7715 75.6195C58.7592 75.5879 58.7531 75.5499 58.7592 75.5183Z" fill="#22272B"/>
</g>
<path d="M157.992 78.6714L157.894 77.1645L158.163 77.0759C158.169 76.7783 158.187 76.487 158.218 76.1958L157.967 76.0692L158.267 74.5876L158.542 74.5812C158.628 74.2963 158.719 74.0178 158.83 73.7519L158.622 73.5619L159.294 72.2196L159.569 72.2893C159.722 72.0423 159.887 71.8017 160.059 71.5675L159.906 71.3269L160.902 70.2189L161.147 70.3646C161.361 70.1683 161.581 69.9847 161.807 69.8074L161.722 69.5288L162.969 68.7437L163.165 68.9463C163.422 68.8134 163.678 68.6994 163.947 68.5917L163.935 68.3005L165.342 67.8953L165.476 68.1486C165.751 68.0979 166.032 68.0536 166.32 68.0282L166.387 67.7433H167.849L167.916 68.0282C168.203 68.0536 168.484 68.0916 168.76 68.1486L168.894 67.8953L170.3 68.3005L170.288 68.5917C170.557 68.6994 170.814 68.8134 171.071 68.9463L171.267 68.7437L172.514 69.5288L172.428 69.8074C172.655 69.9847 172.875 70.1683 173.089 70.3646L173.333 70.2189L174.33 71.3269L174.177 71.5675C174.354 71.8017 174.513 72.036 174.666 72.2893L174.941 72.2196L175.614 73.5619L175.406 73.7519C175.516 74.0241 175.608 74.3027 175.694 74.5812L175.969 74.5876L176.268 76.0692L176.018 76.1958C176.048 76.487 176.067 76.7783 176.073 77.0759L176.342 77.1645L176.244 78.6714L175.969 78.722C175.926 79.0133 175.865 79.3045 175.797 79.5894L176.03 79.7477L175.541 81.1723L175.265 81.1406C175.149 81.4065 175.015 81.6725 174.874 81.9258L175.058 82.141L174.214 83.3756L173.951 83.268C173.767 83.4896 173.572 83.7048 173.37 83.9138L173.492 84.1797L172.361 85.1358L172.141 84.9585C171.909 85.1231 171.664 85.275 171.413 85.4207L171.462 85.7056L170.123 86.3071L169.952 86.0792C169.683 86.1741 169.408 86.2501 169.133 86.3197L169.102 86.611L167.653 86.82L167.549 86.5477C167.408 86.554 167.268 86.5603 167.121 86.5603C166.98 86.5603 166.834 86.554 166.693 86.5477L166.589 86.82L165.14 86.611L165.109 86.3197C164.828 86.2564 164.559 86.1741 164.29 86.0792L164.119 86.3071L162.78 85.7056L162.828 85.4207C162.578 85.2814 162.333 85.1231 162.101 84.9585L161.881 85.1358L160.749 84.1797L160.872 83.9138C160.67 83.7112 160.474 83.496 160.291 83.268L160.028 83.3756L159.184 82.141L159.368 81.9258C159.227 81.6725 159.093 81.4129 158.976 81.1406L158.701 81.1723L158.212 79.7477L158.444 79.5894C158.371 79.3045 158.316 79.0196 158.273 78.722L157.992 78.6714Z" fill="#232C33"/>
<g opacity="0.4">
<path d="M167.115 81.9574C169.614 81.9574 171.64 79.8597 171.64 77.2721C171.64 74.6845 169.614 72.5869 167.115 72.5869C164.616 72.5869 162.59 74.6845 162.59 77.2721C162.59 79.8597 164.616 81.9574 167.115 81.9574Z" fill="#14191E"/>
</g>
<path d="M167.115 81.5395C169.391 81.5395 171.236 79.6289 171.236 77.2721C171.236 74.9153 169.391 73.0047 167.115 73.0047C164.839 73.0047 162.994 74.9153 162.994 77.2721C162.994 79.6289 164.839 81.5395 167.115 81.5395Z" fill="black"/>
<path d="M167.115 79.6274C168.371 79.6274 169.39 78.5729 169.39 77.2721C169.39 75.9713 168.371 74.9168 167.115 74.9168C165.859 74.9168 164.84 75.9713 164.84 77.2721C164.84 78.5729 165.859 79.6274 167.115 79.6274Z" fill="#31393F"/>
<g opacity="0.2">
<path d="M164.07 74.3977C163.966 74.7776 163.905 75.1765 163.905 75.5944C163.905 77.9496 165.751 79.8617 168.026 79.8617C169.236 79.8617 170.319 79.3235 171.077 78.4688C170.576 80.2479 168.998 81.5458 167.121 81.5458C164.846 81.5458 163 79.6338 163 77.2785C162.993 76.1641 163.397 75.1575 164.07 74.3977Z" fill="#14191E"/>
</g>
<g opacity="0.2">
<path d="M175.956 79.6907L176.024 79.735L175.895 80.1023L175.865 80.0833C175.901 79.9567 175.932 79.8237 175.956 79.6907Z" fill="#14191E"/>
<path d="M176.121 77.0886L176.335 77.1582L176.305 77.6267L176.139 77.5761C176.139 77.4115 176.133 77.2468 176.121 77.0886Z" fill="#14191E"/>
<path d="M158.903 74.2457C158.793 74.518 158.701 74.7965 158.615 75.0751L158.34 75.0814L158.126 76.1388L157.967 76.0628L158.267 74.5812L158.542 74.5749C158.591 74.4039 158.646 74.233 158.707 74.0684L158.903 74.2457Z" fill="#14191E"/>
<path d="M174.189 71.5801L173.413 70.7191L173.168 70.8647C172.954 70.6684 172.734 70.4848 172.508 70.3075L172.594 70.029L171.346 69.2439L171.151 69.4465C170.894 69.3198 170.637 69.1996 170.368 69.0919L170.38 68.8006L168.974 68.3955L168.839 68.6487C168.564 68.598 168.283 68.5538 167.995 68.5284L167.928 68.2435H166.467L166.4 68.5284C166.112 68.5538 165.831 68.5917 165.556 68.6487L165.421 68.3955L164.015 68.8006L164.027 69.0919C163.758 69.1996 163.501 69.3135 163.244 69.4465L163.049 69.2439L161.801 70.029L161.887 70.3075C161.661 70.4848 161.441 70.6684 161.227 70.8647L160.982 70.7191L159.985 71.8271L160.138 72.0677C159.961 72.3019 159.802 72.5362 159.649 72.7895L159.374 72.7198L158.775 73.9165C158.793 73.8595 158.817 73.8025 158.836 73.7455L158.628 73.5555L159.301 72.2133L159.576 72.2829C159.729 72.036 159.894 71.7955 160.065 71.5612L159.912 71.3206L160.909 70.2126L161.153 70.3582C161.367 70.1619 161.587 69.9783 161.814 69.8011L161.728 69.5224L162.975 68.7373L163.171 68.94C163.428 68.807 163.685 68.693 163.954 68.5854L163.942 68.2942L165.348 67.8889L165.482 68.1422C165.757 68.0916 166.039 68.0472 166.326 68.0219L166.393 67.737H167.855L167.922 68.0219C168.209 68.0472 168.491 68.0852 168.766 68.1422L168.9 67.8889L170.307 68.2942L170.295 68.5854C170.564 68.693 170.82 68.807 171.077 68.94L171.273 68.7373L172.52 69.5224L172.435 69.8011C172.661 69.9783 172.881 70.1619 173.095 70.3582L173.34 70.2126L174.336 71.3206L174.183 71.5612C174.183 71.5675 174.189 71.5738 174.189 71.5801Z" fill="#14191E"/>
<path d="M159.441 82.4196L159.404 82.4639L159.178 82.1347L159.245 82.0524C159.313 82.179 159.374 82.2993 159.441 82.4196Z" fill="#14191E"/>
<path d="M158.163 77.0695C158.163 76.9239 158.169 76.7783 158.182 76.639L158.298 76.696C158.267 76.9873 158.249 77.2785 158.243 77.5761L157.974 77.6647L158.041 78.6778L157.998 78.6714L157.9 77.1645L158.163 77.0695Z" fill="#14191E"/>
<path d="M158.518 80.0833L158.365 80.1846L158.212 79.735L158.414 79.5958C158.445 79.7667 158.475 79.925 158.518 80.0833Z" fill="#14191E"/>
<path d="M175.022 72.7136L174.747 72.7832C174.594 72.5363 174.429 72.2957 174.258 72.0614L174.392 71.8525C174.49 71.9918 174.582 72.1374 174.674 72.283L174.949 72.2134L175.621 73.5557L175.499 73.6633L175.022 72.7136Z" fill="#14191E"/>
<path d="M176.049 75.0877L175.774 75.0813C175.688 74.7964 175.596 74.5179 175.486 74.252L175.566 74.1759C175.609 74.3089 175.658 74.4418 175.694 74.5811L175.969 74.5875L176.269 76.0691L176.245 76.0817L176.049 75.0877Z" fill="#14191E"/>
</g>
<g opacity="0.4">
<path d="M174.312 83.2234L174.208 83.3754L174.013 83.2931C174.111 83.2678 174.214 83.2488 174.312 83.2234Z" fill="#14191E"/>
<path d="M157.991 78.6714L157.894 77.1645L158.163 77.0759C158.169 76.7783 158.187 76.487 158.218 76.1958L157.967 76.0692L158.267 74.5876L158.542 74.5812C158.627 74.2963 158.719 74.0178 158.829 73.7519L158.621 73.5619L159.294 72.2196L159.569 72.2893C159.722 72.0423 159.887 71.8017 160.058 71.5675L159.905 71.3269L160.902 70.2189L161.146 70.3646C161.36 70.1683 161.581 69.9847 161.807 69.8074L161.721 69.5288L162.192 69.2312C161.165 70.6748 160.578 72.3716 160.578 74.195C160.578 79.3868 165.39 83.5972 171.321 83.5972C172.214 83.5972 173.082 83.5022 173.908 83.3186C173.736 83.5212 173.559 83.7238 173.369 83.9138L173.492 84.1797L172.361 85.1358L172.14 84.9585C171.908 85.1231 171.664 85.275 171.413 85.4206L171.462 85.7056L170.123 86.3071L169.951 86.0791C169.682 86.1741 169.407 86.2501 169.132 86.3197L169.102 86.611L167.652 86.8199L167.548 86.5477C167.408 86.554 167.267 86.5603 167.12 86.5603C166.98 86.5603 166.833 86.554 166.692 86.5477L166.588 86.8199L165.139 86.611L165.109 86.3197C164.827 86.2564 164.558 86.1741 164.289 86.0791L164.118 86.3071L162.779 85.7056L162.828 85.4206C162.577 85.2813 162.333 85.1231 162.1 84.9585L161.88 85.1358L160.749 84.1797L160.871 83.9138C160.67 83.7112 160.474 83.4959 160.29 83.268L160.028 83.3756L159.184 82.141L159.367 81.9258C159.226 81.6725 159.092 81.4128 158.976 81.1406L158.701 81.1723L158.212 79.7477L158.444 79.5894C158.37 79.3045 158.315 79.0196 158.273 78.722L157.991 78.6714Z" fill="#14191E"/>
</g>
<path d="M166.949 75.3852C166.949 75.4802 167.023 75.5562 167.114 75.5562C167.206 75.5562 167.279 75.4802 167.279 75.3852C167.279 75.2902 167.206 75.2142 167.114 75.2142C167.023 75.2142 166.949 75.2902 166.949 75.3852Z" fill="#22272B"/>
<g opacity="0.5">
<path d="M166.98 75.2839C166.98 75.2903 166.98 75.2966 166.98 75.3029C166.98 75.3979 167.053 75.4739 167.145 75.4739C167.2 75.4739 167.249 75.4423 167.279 75.3979C167.267 75.4802 167.2 75.5499 167.114 75.5499C167.023 75.5499 166.949 75.4739 166.949 75.3789C166.949 75.3473 166.961 75.3156 166.98 75.2839Z" fill="#22272B"/>
</g>
<path d="M167.702 75.4803C167.665 75.569 167.702 75.6703 167.787 75.7083C167.873 75.7462 167.971 75.7082 168.007 75.6196C168.044 75.531 168.007 75.4297 167.922 75.3917C167.842 75.3537 167.744 75.3917 167.702 75.4803Z" fill="#22272B"/>
<g opacity="0.5">
<path d="M167.769 75.4044C167.763 75.4107 167.763 75.417 167.757 75.4234C167.72 75.512 167.757 75.6133 167.842 75.6513C167.891 75.6766 167.952 75.6703 167.995 75.6386C167.952 75.7146 167.861 75.7462 167.787 75.7083C167.702 75.6703 167.665 75.569 167.702 75.4803C167.72 75.4423 167.744 75.417 167.769 75.4044Z" fill="#22272B"/>
</g>
<path d="M168.357 75.8791C168.29 75.9424 168.284 76.0501 168.345 76.1197C168.406 76.1893 168.51 76.1957 168.577 76.1324C168.645 76.0691 168.651 75.9614 168.59 75.8918C168.535 75.8221 168.431 75.8158 168.357 75.8791Z" fill="#22272B"/>
<g opacity="0.5">
<path d="M168.449 75.8412C168.443 75.8475 168.437 75.8475 168.431 75.8539C168.363 75.9172 168.357 76.0248 168.418 76.0945C168.455 76.1388 168.51 76.1578 168.565 76.1515C168.498 76.2021 168.4 76.1895 168.345 76.1261C168.284 76.0565 168.29 75.9489 168.357 75.8855C168.388 75.8539 168.418 75.8412 168.449 75.8412Z" fill="#22272B"/>
</g>
<path d="M168.797 76.525C168.711 76.5566 168.662 76.6516 168.693 76.7402C168.723 76.8289 168.815 76.8795 168.901 76.8479C168.986 76.8162 169.035 76.7212 169.005 76.6326C168.98 76.5439 168.882 76.4933 168.797 76.525Z" fill="#22272B"/>
<g opacity="0.5">
<path d="M168.901 76.5251C168.895 76.5251 168.888 76.5251 168.882 76.5314C168.797 76.5631 168.748 76.658 168.772 76.7466C168.791 76.8036 168.833 76.8416 168.882 76.8606C168.803 76.8796 168.717 76.829 168.693 76.7466C168.662 76.658 168.711 76.5567 168.797 76.5314C168.833 76.5124 168.864 76.5124 168.901 76.5251Z" fill="#22272B"/>
</g>
<path d="M168.943 77.2974C168.851 77.2848 168.771 77.3544 168.759 77.4494C168.747 77.5444 168.814 77.6267 168.906 77.6394C168.998 77.652 169.077 77.5824 169.089 77.4874C169.102 77.3925 169.034 77.3101 168.943 77.2974Z" fill="#22272B"/>
<g opacity="0.5">
<path d="M169.035 77.3418C169.029 77.3418 169.023 77.3355 169.017 77.3355C168.925 77.3229 168.845 77.3925 168.833 77.4875C168.827 77.5445 168.851 77.6014 168.888 77.6331C168.809 77.6141 168.754 77.5381 168.76 77.4495C168.772 77.3545 168.851 77.2848 168.943 77.2975C168.98 77.3038 169.01 77.3165 169.035 77.3418Z" fill="#22272B"/>
</g>
<path d="M168.778 78.0636C168.699 78.0129 168.595 78.0446 168.552 78.1269C168.503 78.2092 168.534 78.3169 168.613 78.3612C168.693 78.4118 168.796 78.3801 168.839 78.2978C168.882 78.2155 168.858 78.1142 168.778 78.0636Z" fill="#22272B"/>
<g opacity="0.5">
<path d="M168.845 78.1396C168.839 78.1333 168.833 78.1333 168.827 78.127C168.748 78.0763 168.644 78.108 168.601 78.1903C168.57 78.2409 168.57 78.2979 168.595 78.3486C168.527 78.2979 168.509 78.203 168.552 78.127C168.601 78.0447 168.699 78.013 168.778 78.0636C168.809 78.0826 168.833 78.1143 168.845 78.1396Z" fill="#22272B"/>
</g>
<path d="M168.319 78.6966C168.264 78.6207 168.16 78.6017 168.086 78.6587C168.013 78.7157 167.995 78.8233 168.05 78.8993C168.105 78.9753 168.209 78.9942 168.282 78.9372C168.361 78.8803 168.374 78.7726 168.319 78.6966Z" fill="#22272B"/>
<g opacity="0.5">
<path d="M168.356 78.7916C168.349 78.7853 168.349 78.7789 168.343 78.7726C168.288 78.6966 168.184 78.6777 168.111 78.7347C168.068 78.7663 168.044 78.8233 168.044 78.8739C168.001 78.798 168.019 78.703 168.093 78.6523C168.166 78.5954 168.27 78.6143 168.325 78.6903C168.343 78.7283 168.349 78.76 168.356 78.7916Z" fill="#22272B"/>
</g>
<path d="M167.659 79.0829C167.641 78.9879 167.549 78.9309 167.464 78.9499C167.378 78.9689 167.317 79.0639 167.335 79.1526C167.354 79.2412 167.445 79.3045 167.531 79.2855C167.623 79.2665 167.678 79.1715 167.659 79.0829Z" fill="#22272B"/>
<g opacity="0.5">
<path d="M167.647 79.1842C167.647 79.1779 167.647 79.1715 167.647 79.1652C167.628 79.0702 167.537 79.0132 167.451 79.0322C167.396 79.0449 167.353 79.0829 167.335 79.1336C167.329 79.0449 167.384 78.9689 167.463 78.9499C167.555 78.9309 167.641 78.9879 167.659 79.0829C167.665 79.1145 167.659 79.1525 167.647 79.1842Z" fill="#22272B"/>
</g>
<path d="M166.901 79.1526C166.919 79.0576 166.864 78.9689 166.772 78.9499C166.681 78.9309 166.595 78.9879 166.577 79.0829C166.558 79.1778 166.613 79.2665 166.705 79.2855C166.791 79.3045 166.883 79.2476 166.901 79.1526Z" fill="#22272B"/>
<g opacity="0.5">
<path d="M166.852 79.2413C166.852 79.2349 166.858 79.2286 166.858 79.2223C166.876 79.1273 166.821 79.0387 166.73 79.0197C166.675 79.007 166.62 79.026 166.583 79.064C166.607 78.9817 166.693 78.931 166.773 78.95C166.864 78.969 166.919 79.064 166.901 79.1527C166.895 79.1907 166.876 79.2223 166.852 79.2413Z" fill="#22272B"/>
</g>
<path d="M166.179 78.8993C166.234 78.8233 166.216 78.7157 166.143 78.6587C166.069 78.6017 165.965 78.6207 165.91 78.6966C165.855 78.7726 165.874 78.8803 165.947 78.9372C166.02 78.9942 166.124 78.9753 166.179 78.8993Z" fill="#22272B"/>
<g opacity="0.5">
<path d="M166.1 78.9626C166.106 78.9563 166.112 78.95 166.112 78.95C166.167 78.874 166.149 78.7664 166.075 78.7094C166.032 78.6777 165.971 78.6714 165.922 78.6841C165.977 78.6208 166.075 78.6081 166.142 78.6587C166.216 78.7157 166.234 78.8234 166.179 78.8993C166.161 78.931 166.13 78.95 166.1 78.9626Z" fill="#22272B"/>
</g>
<path d="M165.624 78.3613C165.703 78.3107 165.734 78.2094 165.685 78.1271C165.636 78.0448 165.538 78.013 165.459 78.0637C165.379 78.1143 165.349 78.2156 165.398 78.2979C165.44 78.3866 165.544 78.412 165.624 78.3613Z" fill="#22272B"/>
<g opacity="0.5">
<path d="M165.526 78.3865C165.532 78.3865 165.538 78.3802 165.544 78.3802C165.623 78.3295 165.654 78.2282 165.605 78.1459C165.574 78.0953 165.525 78.0636 165.477 78.0636C165.55 78.032 165.642 78.0573 165.685 78.1333C165.733 78.2156 165.703 78.3233 165.623 78.3676C165.593 78.3803 165.556 78.3865 165.526 78.3865Z" fill="#22272B"/>
</g>
<path d="M165.323 77.6394C165.415 77.6267 165.482 77.5444 165.47 77.4494C165.458 77.3544 165.378 77.2848 165.286 77.2974C165.195 77.3101 165.127 77.3925 165.14 77.4874C165.152 77.5824 165.231 77.652 165.323 77.6394Z" fill="#22272B"/>
<g opacity="0.5">
<path d="M165.225 77.6203C165.231 77.6203 165.237 77.6203 165.243 77.6203C165.335 77.6077 165.402 77.5253 165.39 77.4304C165.384 77.3734 165.354 77.3228 165.305 77.2974C165.39 77.2974 165.457 77.3607 165.47 77.4494C165.482 77.5443 165.415 77.6267 165.323 77.6393C165.286 77.6457 165.256 77.6393 165.225 77.6203Z" fill="#22272B"/>
</g>
<path d="M165.336 76.8543C165.422 76.8859 165.52 76.8352 165.544 76.7403C165.575 76.6516 165.526 76.5503 165.434 76.525C165.342 76.4997 165.25 76.544 165.226 76.6326C165.202 76.7212 165.244 76.8226 165.336 76.8543Z" fill="#22272B"/>
<g opacity="0.5">
<path d="M165.25 76.791C165.256 76.791 165.262 76.7973 165.268 76.7973C165.354 76.829 165.452 76.7783 165.476 76.6834C165.495 76.6264 165.482 76.5694 165.452 76.5251C165.525 76.5631 165.568 76.6517 165.537 76.734C165.507 76.8226 165.415 76.8733 165.329 76.8417C165.299 76.8417 165.268 76.8226 165.25 76.791Z" fill="#22272B"/>
</g>
<path d="M165.653 76.1388C165.721 76.2022 165.825 76.1958 165.886 76.1262C165.947 76.0565 165.941 75.9489 165.873 75.8856C165.806 75.8223 165.702 75.8286 165.635 75.8982C165.568 75.9679 165.58 76.0755 165.653 76.1388Z" fill="#22272B"/>
<g opacity="0.5">
<path d="M165.598 76.0501C165.604 76.0565 165.604 76.0628 165.61 76.0628C165.678 76.1261 165.782 76.1198 165.849 76.0501C165.886 76.0058 165.898 75.9488 165.886 75.8982C165.941 75.9615 165.941 76.0628 165.886 76.1261C165.824 76.1958 165.72 76.2021 165.653 76.1388C165.623 76.1135 165.61 76.0818 165.598 76.0501Z" fill="#22272B"/>
</g>
<path d="M166.223 75.6196C166.259 75.7082 166.357 75.7462 166.443 75.7083C166.528 75.6703 166.565 75.569 166.528 75.4803C166.492 75.3917 166.394 75.3537 166.308 75.3917C166.223 75.4297 166.186 75.531 166.223 75.6196Z" fill="#22272B"/>
<g opacity="0.5">
<path d="M166.21 75.5183C166.21 75.5247 166.217 75.5309 166.217 75.5373C166.253 75.6259 166.351 75.6639 166.437 75.6259C166.486 75.6006 166.522 75.5563 166.534 75.4993C166.559 75.5816 166.522 75.6702 166.443 75.7082C166.357 75.7462 166.259 75.7082 166.223 75.6196C166.21 75.5879 166.204 75.55 166.21 75.5183Z" fill="#22272B"/>
</g>
<path d="M177.492 78.6714L177.395 77.1645L177.664 77.0759C177.67 76.7783 177.688 76.487 177.719 76.1958L177.468 76.0692L177.768 74.5876L178.043 74.5812C178.128 74.2963 178.22 74.0178 178.33 73.7519L178.122 73.5619L178.795 72.2196L179.07 72.2893C179.223 72.0423 179.388 71.8017 179.559 71.5675L179.406 71.3269L180.403 70.2189L180.647 70.3646C180.861 70.1683 181.082 69.9847 181.308 69.8074L181.222 69.5288L182.47 68.7437L182.665 68.9463C182.922 68.8134 183.179 68.6994 183.448 68.5917L183.436 68.3005L184.842 67.8953L184.977 68.1486C185.252 68.0979 185.533 68.0536 185.82 68.0282L185.888 67.7433H187.349L187.416 68.0282C187.704 68.0536 187.985 68.0916 188.26 68.1486L188.395 67.8953L189.801 68.3005L189.789 68.5917C190.058 68.6994 190.315 68.8134 190.571 68.9463L190.767 68.7437L192.014 69.5288L191.929 69.8074C192.155 69.9847 192.375 70.1683 192.589 70.3646L192.834 70.2189L193.83 71.3269L193.678 71.5675C193.855 71.8017 194.014 72.036 194.167 72.2893L194.442 72.2196L195.115 73.5619L194.907 73.7519C195.017 74.0241 195.108 74.3027 195.194 74.5812L195.469 74.5876L195.769 76.0692L195.518 76.1958C195.549 76.487 195.567 76.7783 195.573 77.0759L195.842 77.1645L195.744 78.6714L195.469 78.722C195.426 79.0133 195.365 79.3045 195.298 79.5894L195.53 79.7477L195.041 81.1723L194.766 81.1406C194.65 81.4065 194.515 81.6725 194.375 81.9258L194.558 82.141L193.714 83.3756L193.451 83.268C193.268 83.4896 193.072 83.7048 192.87 83.9138L192.993 84.1797L191.862 85.1358L191.641 84.9585C191.409 85.1231 191.165 85.275 190.914 85.4207L190.963 85.7056L189.624 86.3071L189.452 86.0792C189.183 86.1741 188.908 86.2501 188.633 86.3197L188.603 86.611L187.153 86.82L187.049 86.5477C186.909 86.554 186.768 86.5603 186.621 86.5603C186.481 86.5603 186.334 86.554 186.193 86.5477L186.089 86.82L184.64 86.611L184.61 86.3197C184.328 86.2564 184.059 86.1741 183.79 86.0792L183.619 86.3071L182.28 85.7056L182.329 85.4207C182.078 85.2814 181.834 85.1231 181.601 84.9585L181.381 85.1358L180.25 84.1797L180.372 83.9138C180.171 83.7112 179.975 83.496 179.791 83.268L179.529 83.3756L178.685 82.141L178.868 81.9258C178.727 81.6725 178.593 81.4129 178.477 81.1406L178.202 81.1723L177.712 79.7477L177.945 79.5894C177.871 79.3045 177.816 79.0196 177.774 78.722L177.492 78.6714Z" fill="#232C33"/>
<g opacity="0.4">
<path d="M186.615 81.9574C189.114 81.9574 191.14 79.8597 191.14 77.2721C191.14 74.6845 189.114 72.5869 186.615 72.5869C184.116 72.5869 182.09 74.6845 182.09 77.2721C182.09 79.8597 184.116 81.9574 186.615 81.9574Z" fill="#14191E"/>
</g>
<path d="M186.614 81.5395C188.89 81.5395 190.736 79.6289 190.736 77.2721C190.736 74.9153 188.89 73.0047 186.614 73.0047C184.338 73.0047 182.493 74.9153 182.493 77.2721C182.493 79.6289 184.338 81.5395 186.614 81.5395Z" fill="black"/>
<path d="M186.615 79.6274C187.871 79.6274 188.89 78.5729 188.89 77.2721C188.89 75.9713 187.871 74.9168 186.615 74.9168C185.359 74.9168 184.34 75.9713 184.34 77.2721C184.34 78.5729 185.359 79.6274 186.615 79.6274Z" fill="#31393F"/>
<g opacity="0.2">
<path d="M183.57 74.3977C183.466 74.7776 183.405 75.1765 183.405 75.5944C183.405 77.9496 185.251 79.8617 187.526 79.8617C188.736 79.8617 189.819 79.3235 190.577 78.4688C190.076 80.2479 188.498 81.5458 186.621 81.5458C184.346 81.5458 182.5 79.6338 182.5 77.2785C182.493 76.1641 182.903 75.1575 183.57 74.3977Z" fill="#14191E"/>
</g>
<g opacity="0.2">
<path d="M195.456 79.6907L195.524 79.735L195.395 80.1023L195.365 80.0833C195.401 79.9567 195.432 79.8237 195.456 79.6907Z" fill="#14191E"/>
<path d="M195.622 77.0886L195.836 77.1582L195.806 77.6267L195.64 77.5761C195.647 77.4115 195.634 77.2468 195.622 77.0886Z" fill="#14191E"/>
<path d="M178.403 74.2457C178.293 74.518 178.201 74.7965 178.116 75.0751L177.841 75.0814L177.627 76.1388L177.468 76.0628L177.767 74.5812L178.043 74.5749C178.091 74.4039 178.146 74.233 178.208 74.0684L178.403 74.2457Z" fill="#14191E"/>
<path d="M193.689 71.5801L192.913 70.7191L192.668 70.8647C192.454 70.6684 192.234 70.4848 192.007 70.3075L192.093 70.029L190.846 69.2439L190.65 69.4465C190.393 69.3198 190.136 69.1996 189.867 69.0919L189.88 68.8006L188.473 68.3955L188.339 68.6487C188.064 68.598 187.782 68.5538 187.495 68.5284L187.428 68.2435H185.966L185.899 68.5284C185.612 68.5538 185.33 68.5917 185.055 68.6487L184.921 68.3955L183.514 68.8006L183.527 69.0919C183.258 69.1996 183.001 69.3135 182.744 69.4465L182.548 69.2439L181.301 70.029L181.386 70.3075C181.16 70.4848 180.94 70.6684 180.726 70.8647L180.482 70.7191L179.485 71.8271L179.638 72.0677C179.46 72.3019 179.301 72.5362 179.149 72.7895L178.873 72.7198L178.274 73.9165C178.293 73.8595 178.317 73.8025 178.335 73.7455L178.127 73.5555L178.8 72.2133L179.075 72.2829C179.228 72.036 179.393 71.7955 179.564 71.5612L179.411 71.3206L180.408 70.2126L180.653 70.3582C180.867 70.1619 181.087 69.9783 181.313 69.8011L181.227 69.5224L182.475 68.7373L182.671 68.94C182.927 68.807 183.184 68.693 183.453 68.5854L183.441 68.2942L184.847 67.8889L184.982 68.1422C185.257 68.0916 185.538 68.0472 185.826 68.0219L185.893 67.737H187.354L187.422 68.0219C187.709 68.0472 187.99 68.0852 188.265 68.1422L188.4 67.8889L189.806 68.2942L189.794 68.5854C190.063 68.693 190.32 68.807 190.577 68.94L190.772 68.7373L192.02 69.5224L191.934 69.8011C192.16 69.9783 192.381 70.1619 192.595 70.3582L192.839 70.2126L193.836 71.3206L193.683 71.5612C193.683 71.5675 193.689 71.5738 193.689 71.5801Z" fill="#14191E"/>
<path d="M178.947 82.4196L178.91 82.4639L178.684 82.1347L178.751 82.0524C178.812 82.179 178.88 82.2993 178.947 82.4196Z" fill="#14191E"/>
<path d="M177.663 77.0695C177.663 76.9239 177.669 76.7783 177.682 76.639L177.798 76.696C177.767 76.9873 177.749 77.2785 177.743 77.5761L177.474 77.6647L177.541 78.6778L177.498 78.6714L177.4 77.1645L177.663 77.0695Z" fill="#14191E"/>
<path d="M178.019 80.0833L177.866 80.1846L177.713 79.735L177.915 79.5958C177.945 79.7667 177.976 79.925 178.019 80.0833Z" fill="#14191E"/>
<path d="M194.521 72.7136L194.246 72.7832C194.093 72.5363 193.928 72.2957 193.757 72.0614L193.891 71.8525C193.989 71.9918 194.081 72.1374 194.173 72.283L194.448 72.2134L195.12 73.5557L194.998 73.6633L194.521 72.7136Z" fill="#14191E"/>
<path d="M195.549 75.0878L195.274 75.0815C195.188 74.7965 195.096 74.518 194.986 74.2521L195.066 74.176C195.109 74.309 195.158 74.442 195.194 74.5812L195.469 74.5876L195.769 76.0692L195.745 76.0818L195.549 75.0878Z" fill="#14191E"/>
</g>
<g opacity="0.4">
<path d="M193.812 83.2234L193.708 83.3754L193.512 83.2931C193.616 83.2678 193.714 83.2488 193.812 83.2234Z" fill="#14191E"/>
<path d="M177.493 78.6712L177.395 77.1643L177.664 77.0757C177.67 76.7781 177.688 76.4868 177.719 76.1956L177.468 76.069L177.768 74.5874L178.043 74.581C178.129 74.2961 178.22 74.0176 178.33 73.7517L178.123 73.5617L178.795 72.2194L179.07 72.2891C179.223 72.0421 179.388 71.8015 179.56 71.5673L179.407 71.3267L180.403 70.2187L180.648 70.3644C180.862 70.1681 181.082 69.9845 181.308 69.8072L181.223 69.5286L181.694 69.231C180.666 70.6746 180.079 72.3714 180.079 74.1948C180.079 79.3866 184.891 83.597 190.823 83.597C191.715 83.597 192.584 83.5021 193.409 83.3185C193.238 83.5211 193.061 83.7236 192.871 83.9136L192.993 84.1795L191.862 85.1356L191.642 84.9583C191.41 85.1229 191.165 85.2748 190.914 85.4205L190.963 85.7054L189.624 86.3069L189.453 86.079C189.184 86.1739 188.909 86.2499 188.634 86.3195L188.603 86.6108L187.154 86.8198L187.05 86.5475C186.909 86.5538 186.769 86.5601 186.622 86.5601C186.481 86.5601 186.334 86.5538 186.194 86.5475L186.09 86.8198L184.641 86.6108L184.61 86.3195C184.329 86.2562 184.06 86.1739 183.791 86.079L183.62 86.3069L182.281 85.7054L182.329 85.4205C182.079 85.2812 181.834 85.1229 181.602 84.9583L181.382 85.1356L180.25 84.1795L180.373 83.9136C180.171 83.711 179.975 83.4958 179.792 83.2678L179.529 83.3754L178.685 82.1408L178.869 81.9256C178.728 81.6723 178.593 81.4127 178.477 81.1404L178.202 81.1721L177.713 79.7475L177.945 79.5892C177.872 79.3043 177.817 79.0194 177.774 78.7218L177.493 78.6712Z" fill="#14191E"/>
</g>
<path d="M186.45 75.3852C186.45 75.4802 186.524 75.5562 186.615 75.5562C186.707 75.5562 186.78 75.4802 186.78 75.3852C186.78 75.2902 186.707 75.2142 186.615 75.2142C186.524 75.2142 186.45 75.2902 186.45 75.3852Z" fill="#22272B"/>
<g opacity="0.5">
<path d="M186.481 75.2839C186.481 75.2903 186.481 75.2966 186.481 75.3029C186.481 75.3979 186.554 75.4739 186.646 75.4739C186.701 75.4739 186.75 75.4423 186.78 75.3979C186.768 75.4802 186.701 75.5499 186.615 75.5499C186.524 75.5499 186.45 75.4739 186.45 75.3789C186.45 75.3473 186.462 75.3156 186.481 75.2839Z" fill="#22272B"/>
</g>
<path d="M187.208 75.4803C187.171 75.569 187.208 75.6703 187.294 75.7083C187.379 75.7462 187.477 75.7082 187.514 75.6196C187.55 75.531 187.514 75.4297 187.428 75.3917C187.343 75.3537 187.245 75.3917 187.208 75.4803Z" fill="#22272B"/>
<g opacity="0.5">
<path d="M187.275 75.4044C187.269 75.4107 187.269 75.417 187.263 75.4234C187.226 75.512 187.263 75.6133 187.349 75.6513C187.398 75.6766 187.459 75.6703 187.501 75.6386C187.459 75.7146 187.367 75.7462 187.294 75.7083C187.208 75.6703 187.171 75.569 187.208 75.4803C187.22 75.4423 187.245 75.417 187.275 75.4044Z" fill="#22272B"/>
</g>
<path d="M187.856 75.8791C187.789 75.9424 187.783 76.0501 187.844 76.1197C187.905 76.1893 188.009 76.1957 188.076 76.1324C188.144 76.0691 188.15 75.9614 188.089 75.8918C188.027 75.8221 187.93 75.8158 187.856 75.8791Z" fill="#22272B"/>
<g opacity="0.5">
<path d="M187.948 75.8412C187.942 75.8475 187.936 75.8475 187.93 75.8539C187.862 75.9172 187.856 76.0248 187.917 76.0945C187.954 76.1388 188.009 76.1578 188.064 76.1515C187.997 76.2021 187.899 76.1895 187.844 76.1261C187.783 76.0565 187.789 75.9489 187.856 75.8855C187.887 75.8539 187.917 75.8412 187.948 75.8412Z" fill="#22272B"/>
</g>
<path d="M188.296 76.5251C188.21 76.5568 188.162 76.6517 188.186 76.7404C188.217 76.829 188.308 76.8797 188.394 76.848C188.48 76.8164 188.528 76.7213 188.504 76.6327C188.479 76.544 188.388 76.4934 188.296 76.5251Z" fill="#22272B"/>
<g opacity="0.5">
<path d="M188.4 76.5251C188.394 76.5251 188.388 76.5251 188.382 76.5314C188.296 76.5631 188.247 76.658 188.272 76.7466C188.29 76.8036 188.333 76.8416 188.382 76.8606C188.302 76.8796 188.217 76.829 188.192 76.7466C188.162 76.658 188.211 76.5567 188.302 76.5314C188.333 76.5124 188.363 76.5124 188.4 76.5251Z" fill="#22272B"/>
</g>
<path d="M188.443 77.2974C188.351 77.2848 188.271 77.3544 188.259 77.4494C188.247 77.5444 188.314 77.6267 188.406 77.6394C188.498 77.652 188.577 77.5824 188.589 77.4874C188.602 77.3925 188.534 77.3101 188.443 77.2974Z" fill="#22272B"/>
<g opacity="0.5">
<path d="M188.541 77.3417C188.535 77.3417 188.529 77.3355 188.523 77.3355C188.431 77.3228 188.352 77.3925 188.339 77.4874C188.333 77.5444 188.358 77.6014 188.395 77.633C188.315 77.614 188.26 77.538 188.266 77.4494C188.278 77.3544 188.358 77.2848 188.45 77.2974C188.48 77.3038 188.511 77.3164 188.541 77.3417Z" fill="#22272B"/>
</g>
<path d="M188.278 78.0636C188.198 78.0129 188.094 78.0446 188.051 78.1269C188.002 78.2092 188.033 78.3169 188.113 78.3612C188.192 78.4118 188.296 78.3801 188.339 78.2978C188.382 78.2155 188.357 78.1142 188.278 78.0636Z" fill="#22272B"/>
<g opacity="0.5">
<path d="M188.346 78.1397C188.34 78.1333 188.334 78.1334 188.328 78.1271C188.248 78.0764 188.144 78.1081 188.101 78.1904C188.071 78.241 188.071 78.298 188.095 78.3486C188.028 78.298 188.01 78.203 188.052 78.1271C188.101 78.0448 188.199 78.013 188.279 78.0637C188.309 78.0827 188.334 78.1143 188.346 78.1397Z" fill="#22272B"/>
</g>
<path d="M187.825 78.6966C187.77 78.6207 187.666 78.6017 187.593 78.6587C187.52 78.7157 187.501 78.8233 187.556 78.8993C187.611 78.9753 187.715 78.9942 187.789 78.9372C187.862 78.8803 187.874 78.7726 187.825 78.6966Z" fill="#22272B"/>
<g opacity="0.5">
<path d="M187.856 78.7916C187.85 78.7853 187.85 78.7789 187.844 78.7726C187.789 78.6966 187.685 78.6777 187.611 78.7347C187.569 78.7663 187.544 78.8233 187.544 78.8739C187.501 78.798 187.52 78.703 187.593 78.6523C187.666 78.5954 187.77 78.6143 187.825 78.6903C187.844 78.7283 187.856 78.76 187.856 78.7916Z" fill="#22272B"/>
</g>
<path d="M187.159 79.0829C187.141 78.9879 187.049 78.9309 186.964 78.9499C186.878 78.9689 186.817 79.0639 186.835 79.1526C186.854 79.2476 186.945 79.3045 187.031 79.2855C187.123 79.2665 187.178 79.1715 187.159 79.0829Z" fill="#22272B"/>
<g opacity="0.5">
<path d="M187.147 79.1841C187.147 79.1778 187.147 79.1714 187.147 79.1651C187.128 79.0701 187.037 79.0132 186.951 79.0322C186.896 79.0448 186.853 79.0829 186.835 79.1335C186.829 79.0449 186.884 78.9689 186.963 78.9499C187.055 78.9309 187.141 78.9878 187.159 79.0828C187.165 79.1145 187.159 79.1525 187.147 79.1841Z" fill="#22272B"/>
</g>
<path d="M186.401 79.1526C186.419 79.0576 186.364 78.9689 186.272 78.9499C186.181 78.9309 186.095 78.9879 186.077 79.0829C186.058 79.1778 186.113 79.2665 186.205 79.2855C186.297 79.3045 186.383 79.2476 186.401 79.1526Z" fill="#22272B"/>
<g opacity="0.5">
<path d="M186.352 79.2413C186.352 79.2349 186.358 79.2286 186.358 79.2223C186.376 79.1273 186.321 79.0387 186.23 79.0197C186.175 79.007 186.12 79.026 186.083 79.064C186.107 78.9817 186.193 78.931 186.273 78.95C186.364 78.969 186.419 79.064 186.401 79.1527C186.395 79.1907 186.376 79.2223 186.352 79.2413Z" fill="#22272B"/>
</g>
<path d="M185.679 78.8993C185.734 78.8233 185.716 78.7157 185.643 78.6587C185.569 78.6017 185.465 78.6207 185.41 78.6966C185.355 78.7726 185.374 78.8803 185.447 78.9372C185.52 78.9942 185.631 78.9753 185.679 78.8993Z" fill="#22272B"/>
<g opacity="0.5">
<path d="M185.6 78.9626C185.606 78.9563 185.612 78.95 185.612 78.95C185.667 78.874 185.649 78.7664 185.575 78.7094C185.532 78.6777 185.471 78.6714 185.422 78.6841C185.477 78.6208 185.575 78.6081 185.642 78.6587C185.716 78.7157 185.734 78.8234 185.679 78.8993C185.661 78.931 185.63 78.95 185.6 78.9626Z" fill="#22272B"/>
</g>
<path d="M185.123 78.3613C185.202 78.3107 185.233 78.2094 185.184 78.1271C185.135 78.0448 185.037 78.013 184.958 78.0637C184.878 78.1143 184.848 78.2156 184.897 78.2979C184.939 78.3866 185.043 78.412 185.123 78.3613Z" fill="#22272B"/>
<g opacity="0.5">
<path d="M185.025 78.3865C185.031 78.3865 185.037 78.3802 185.043 78.3802C185.122 78.3295 185.153 78.2282 185.104 78.1459C185.073 78.0953 185.025 78.0636 184.976 78.0636C185.049 78.032 185.141 78.0573 185.184 78.1333C185.232 78.2156 185.202 78.3233 185.122 78.3676C185.092 78.3803 185.055 78.3865 185.025 78.3865Z" fill="#22272B"/>
</g>
<path d="M184.823 77.6394C184.915 77.6267 184.982 77.5444 184.97 77.4494C184.958 77.3544 184.878 77.2848 184.786 77.2974C184.695 77.3101 184.627 77.3925 184.64 77.4874C184.652 77.5824 184.731 77.652 184.823 77.6394Z" fill="#22272B"/>
<g opacity="0.5">
<path d="M184.726 77.6203C184.732 77.6203 184.738 77.6203 184.744 77.6203C184.836 77.6077 184.903 77.5253 184.891 77.4304C184.885 77.3734 184.854 77.3228 184.805 77.2974C184.891 77.2974 184.958 77.3607 184.97 77.4494C184.982 77.5443 184.915 77.6267 184.823 77.6393C184.787 77.6457 184.756 77.6393 184.726 77.6203Z" fill="#22272B"/>
</g>
<path d="M184.835 76.8543C184.921 76.8859 185.019 76.8352 185.043 76.7403C185.074 76.6516 185.025 76.5503 184.939 76.525C184.854 76.4997 184.756 76.544 184.731 76.6326C184.701 76.7276 184.744 76.8226 184.835 76.8543Z" fill="#22272B"/>
<g opacity="0.5">
<path d="M184.75 76.791C184.756 76.791 184.762 76.7974 184.768 76.7974C184.854 76.829 184.952 76.7784 184.976 76.6834C184.995 76.6264 184.982 76.5695 184.952 76.5251C185.025 76.5631 185.068 76.6517 185.037 76.7341C185.007 76.8227 184.915 76.8734 184.829 76.8417C184.799 76.8417 184.774 76.8227 184.75 76.791Z" fill="#22272B"/>
</g>
<path d="M185.153 76.1388C185.22 76.2022 185.324 76.1958 185.392 76.1262C185.459 76.0565 185.447 75.9489 185.379 75.8856C185.312 75.8223 185.208 75.8286 185.147 75.8982C185.08 75.9679 185.086 76.0755 185.153 76.1388Z" fill="#22272B"/>
<g opacity="0.5">
<path d="M185.104 76.0501C185.111 76.0565 185.111 76.0628 185.117 76.0628C185.184 76.1261 185.288 76.1198 185.349 76.0501C185.386 76.0058 185.398 75.9488 185.386 75.8982C185.441 75.9615 185.441 76.0628 185.386 76.1261C185.325 76.1958 185.221 76.2021 185.147 76.1388C185.123 76.1135 185.111 76.0818 185.104 76.0501Z" fill="#22272B"/>
</g>
<path d="M185.722 75.6196C185.759 75.7082 185.857 75.7462 185.942 75.7083C186.028 75.6703 186.065 75.569 186.028 75.4803C185.991 75.3917 185.893 75.3537 185.808 75.3917C185.722 75.4297 185.685 75.531 185.722 75.6196Z" fill="#22272B"/>
<g opacity="0.5">
<path d="M185.716 75.5183C185.716 75.5247 185.722 75.5309 185.722 75.5373C185.759 75.6259 185.857 75.6639 185.942 75.6259C185.991 75.6006 186.028 75.5563 186.04 75.4993C186.065 75.5816 186.028 75.6702 185.948 75.7082C185.863 75.7462 185.765 75.7082 185.728 75.6196C185.71 75.5879 185.71 75.55 185.716 75.5183Z" fill="#22272B"/>
</g>
<path d="M67.6806 65.0208H67.5583C67.1853 65.0208 66.8857 64.7105 66.8857 64.3243V37.0675C66.8857 36.6813 67.1853 36.371 67.5583 36.371H67.6806C68.0536 36.371 68.3532 36.6813 68.3532 37.0675V64.3243C68.3593 64.7042 68.0536 65.0208 67.6806 65.0208Z" fill="#1A1A31"/>
<path d="M68.2542 53.2063V65.0208H55.1873C55.0712 65.0208 54.9611 65.0271 54.851 65.0335C54.796 65.0335 54.741 65.0398 54.6859 65.0525C54.478 65.0778 54.2763 65.1158 54.0745 65.1727C54.0072 65.1917 53.9461 65.2108 53.8788 65.2298C53.1879 65.4514 52.5703 65.8502 52.0689 66.3694C51.8182 66.629 51.5981 66.9202 51.4147 67.2305C51.2312 67.547 51.0844 67.8826 50.9744 68.2372C50.956 68.3069 50.9377 68.3701 50.9194 68.4398C50.8643 68.6424 50.8277 68.8577 50.8032 69.0729C50.7971 69.1299 50.7909 69.1869 50.7848 69.2439C50.7787 69.3578 50.7726 69.4781 50.7726 69.5921V69.6111C50.7726 70.0606 50.6197 70.4785 50.3507 70.8014C50.3262 70.8267 50.3018 70.8584 50.2712 70.8837C50.2529 70.909 50.2345 70.928 50.2162 70.947C50.1978 70.9723 50.1734 70.9913 50.1489 71.0103C50.1245 71.0293 50.1 71.0483 50.0816 71.0673C50.0572 71.0927 50.0389 71.1053 50.0144 71.118C49.9899 71.137 49.9655 71.1559 49.941 71.1686C49.7392 71.3015 49.5191 71.3966 49.2746 71.4472C49.2134 71.4599 49.1522 71.4662 49.0911 71.4726C49.0361 71.4789 48.9811 71.4789 48.926 71.4789H36.0243C36.012 71.4789 35.9998 71.4789 35.9815 71.4789H33.9086C33.1627 71.4789 32.5512 70.852 32.5512 70.0733L32.3494 57.5181C32.3433 57.2585 32.3739 56.9989 32.4411 56.752L34.4222 49.2999C34.4956 49.015 34.5751 48.7301 34.6668 48.4451L34.6852 48.3818V48.3881C34.7035 48.3248 34.728 48.2552 34.7463 48.1919L35.3027 46.571L35.4067 46.2608L38.8125 36.3457L38.9287 36.0102C39.5096 34.3134 41.0566 33.18 42.7992 33.18H62.7633C62.8061 33.18 62.8489 33.18 62.8917 33.18C62.8917 33.18 62.8917 33.18 62.8978 33.18C63.87 33.2116 64.7566 33.5979 65.4476 34.2184C65.5515 34.3133 65.6555 34.4147 65.7533 34.5223C65.7777 34.554 65.8083 34.5856 65.8328 34.6172C65.8511 34.6426 65.8695 34.6616 65.8878 34.6806C65.9673 34.7693 66.0346 34.8642 66.0957 34.9592C66.1324 35.0098 66.1691 35.0605 66.1997 35.1174C66.5604 35.6809 66.7867 36.3395 66.8478 37.0549L68.2542 53.2063Z" fill="white"/>
<g opacity="0.4">
<path d="M37.1014 41.3348C37.1014 41.3348 37.0831 71.1179 37.1014 71.4978V41.3348Z" fill="#4D4D4D"/>
<path d="M36.8998 71.5042C36.8814 71.1243 36.8998 42.5506 36.8998 41.3286H37.3033C37.3033 41.6262 37.285 71.0736 37.3033 71.4852L36.8998 71.5042Z" fill="#4D4D4D"/>
</g>
<g opacity="0.4">
<path d="M62.9105 33.5536V61.9944C62.8982 61.6905 62.9044 48.2172 62.9044 36.3584V33.199L62.9105 33.5536Z" fill="#4D4D4D"/>
<path d="M62.6727 62.007C62.6605 61.7094 62.6666 49.7114 62.6666 36.3647V33.2053H63.1496C63.1496 33.2053 63.1496 33.256 63.1496 33.313H63.1557V62.0007L62.6727 62.007Z" fill="#4D4D4D"/>
</g>
<g opacity="0.3">
<path d="M32.7714 69.839H34.8442V69.8327C34.8565 69.839 34.8687 69.839 34.887 69.839H47.7888C48.8038 69.839 49.6293 68.9842 49.6293 67.9332C49.6293 65.4197 51.6165 63.362 54.044 63.362H67.1108V51.5475L65.7289 35.415C65.6922 35.0035 65.6005 34.6046 65.4599 34.2374C66.2425 34.9338 66.7684 35.9342 66.8662 37.0738L68.2481 53.2063V65.0208H55.1813C52.7538 65.0208 50.7666 67.0785 50.7666 69.5921C50.7666 70.6431 49.9411 71.4978 48.9261 71.4978H36.0243C36.0121 71.4978 35.9999 71.4978 35.9815 71.4915V71.4978H33.9087C33.1566 71.4978 32.5513 70.871 32.5513 70.0923V69.8201C32.6246 69.8264 32.698 69.839 32.7714 69.839Z" fill="#4D4D4D"/>
</g>
<path d="M66.2562 62.1843L66.0238 62.14L65.8098 62.102C65.6692 62.0766 65.5286 62.0577 65.3879 62.0387C65.1067 61.9943 64.8254 61.969 64.5441 61.9373C64.2628 61.9057 63.9816 61.8867 63.7003 61.8677C63.419 61.8487 63.1378 61.836 62.8565 61.8297C61.7253 61.8043 60.588 61.855 59.4446 62.0006C58.3012 62.1526 57.1455 62.3805 56.0204 62.8237C55.4518 63.0327 54.8953 63.2986 54.345 63.5962C53.7947 63.8937 53.2627 64.2547 52.743 64.6599C52.4862 64.8625 52.2355 65.0904 51.9909 65.312C51.7525 65.5589 51.514 65.8122 51.3183 66.0591C50.9147 66.5656 50.5601 67.1038 50.2727 67.661C49.6919 68.7816 49.3249 69.9593 49.0987 71.1306C48.8602 72.3019 48.7563 73.4732 48.738 74.6319C48.7319 75.2144 48.738 75.7905 48.7685 76.3667C48.7808 76.6516 48.8052 76.9428 48.8297 77.2278L48.8725 77.6583C48.8908 77.8039 48.9031 77.9432 48.9275 78.1078C48.9887 78.551 49.3861 78.8549 49.8141 78.7916C50.2177 78.7283 50.5051 78.3547 50.4806 77.9369V77.9052C50.4745 77.7976 50.4623 77.6583 50.4623 77.5253C50.4562 77.3924 50.45 77.2657 50.45 77.1328C50.45 76.8669 50.45 76.6009 50.4562 76.335C50.4745 75.8032 50.5051 75.2777 50.5662 74.7521C50.6885 73.7011 50.8964 72.6755 51.196 71.7068C51.5017 70.7381 51.9298 69.8326 52.4617 69.0602C52.7246 68.674 53.0243 68.3321 53.3483 68.0218C53.5073 67.8572 53.6724 67.7496 53.8314 67.6229L54.0943 67.452C54.1799 67.395 54.2839 67.3507 54.3756 67.3064C54.7608 67.1164 55.1766 66.9645 55.623 66.8505C55.733 66.8189 55.8431 66.7935 55.9532 66.7682C56.0693 66.7429 56.1733 66.7112 56.2895 66.6922C56.5218 66.6479 56.748 66.6036 56.9804 66.572C57.4451 66.496 57.922 66.4327 58.399 66.3757C58.8759 66.3124 59.3651 66.2617 59.8543 66.2174C60.8387 66.1351 61.8354 66.0781 62.8443 66.0464L63.6025 66.0212L64.3607 66.0021L65.1189 65.9895L65.4919 65.9831L65.6753 65.9768C65.7364 65.9768 65.8037 65.9768 65.8404 65.9705L68.4269 65.9514C68.4269 65.9514 67.6687 63.5582 67.6198 63.4063C67.418 62.7795 66.8921 62.3109 66.2562 62.1843Z" fill="#333333"/>
<path d="M48.7443 74.6319C48.7565 73.4732 48.8666 72.3019 49.1051 71.1306C49.3313 69.9593 49.6982 68.7816 50.279 67.661C50.5664 67.1038 50.9211 66.5656 51.3246 66.0591C51.5203 65.8058 51.7588 65.5526 51.9972 65.312C52.2418 65.084 52.4925 64.8562 52.7494 64.6599C53.263 64.261 53.8011 63.8937 54.3514 63.5962C54.9017 63.2986 55.4581 63.0264 56.0268 62.8237C57.1579 62.3805 58.3136 62.1526 59.4509 62.0006C60.5943 61.855 61.7316 61.8043 62.8628 61.8297C63.1441 61.8297 63.4254 61.8487 63.7066 61.8677C63.9879 61.8867 64.2692 61.9057 64.5505 61.9373C64.8317 61.969 65.113 61.9943 65.3943 62.0387C65.5349 62.0577 65.6755 62.0766 65.8162 62.102L66.0302 62.14L66.2625 62.1843C66.8801 62.3046 67.3998 62.7541 67.6261 63.3619C67.4059 63.1973 67.1553 63.077 66.8862 63.0263L66.6539 62.982L66.4398 62.944C66.2992 62.9187 66.1586 62.8997 66.018 62.8807C65.7367 62.8364 65.4554 62.811 65.1742 62.7794C64.8929 62.7477 64.6116 62.7287 64.3303 62.7097C64.0491 62.6908 63.7678 62.6781 63.4865 62.6718C62.3553 62.6465 61.218 62.6971 60.0746 62.8428C58.9312 62.9947 57.7755 63.2226 56.6505 63.6658C56.0818 63.8747 55.5253 64.1407 54.975 64.4383C54.4247 64.7359 53.8928 65.0967 53.373 65.5019C53.1162 65.7045 52.8655 65.9325 52.6209 66.1541C52.3825 66.401 52.144 66.6542 51.9483 66.9012C51.5448 67.4077 51.1901 67.9459 50.9027 68.503C50.3219 69.6237 49.955 70.8013 49.7288 71.9726C49.4903 73.144 49.3863 74.3153 49.368 75.4739C49.3619 76.0564 49.368 76.6326 49.3985 77.2087C49.4108 77.4937 49.4353 77.7849 49.4597 78.0698L49.5025 78.5004C49.5147 78.5954 49.5209 78.684 49.5392 78.7789C49.2335 78.7093 48.9828 78.4497 48.9339 78.1078C48.9094 77.9432 48.8911 77.8039 48.8788 77.6583L48.836 77.2278C48.8116 76.9428 48.7871 76.6516 48.7749 76.3667C48.7443 75.7842 48.7382 75.208 48.7443 74.6319Z" fill="#333333"/>
<g opacity="0.7">
<path d="M49.6296 77.4114C50.0332 77.3481 50.3206 76.9745 50.2961 76.5566V76.525C50.29 76.4173 50.2778 76.2781 50.2778 76.1451C50.2716 76.0121 50.2656 75.8855 50.2656 75.7526C50.2656 75.4866 50.2656 75.2207 50.2717 74.9548C50.29 74.423 50.3206 73.8974 50.3817 73.3719C50.504 72.3209 50.7119 71.2952 51.0115 70.3265C51.3172 69.3578 51.7453 68.4524 52.2772 67.68C52.5402 67.2938 52.8398 66.9519 53.1639 66.6416C53.3228 66.477 53.4879 66.3694 53.6469 66.2427L53.9098 66.0718C53.9954 66.0148 54.0994 65.9705 54.1911 65.9262C54.5763 65.7362 54.9921 65.5842 55.4385 65.4702C55.5485 65.4386 55.6586 65.4133 55.7687 65.388C55.8848 65.3627 55.9888 65.331 56.105 65.312C56.3373 65.2676 56.5636 65.2234 56.7959 65.1917C57.2606 65.1157 57.7376 65.0524 58.2145 64.9954C58.6914 64.9321 59.1806 64.8814 59.6698 64.8371C60.6542 64.7548 61.6509 64.6979 62.6598 64.6662L63.418 64.6409L64.1762 64.6219L64.9344 64.6092L65.3074 64.6028L65.4908 64.5966C65.552 64.5966 65.6192 64.5966 65.6559 64.5902L68.0039 64.5712C68.2179 65.2424 68.438 65.9451 68.438 65.9451L65.8516 65.9641C65.8088 65.9704 65.7415 65.9704 65.6865 65.9704L65.5031 65.9768L65.1301 65.9831L64.3719 65.9958L63.6136 66.0148L62.8554 66.0401C61.8465 66.0717 60.8498 66.1224 59.8654 66.211C59.3762 66.2554 58.8871 66.306 58.4102 66.3693C57.9332 66.4263 57.4563 66.496 56.9916 66.5656C56.7592 66.6036 56.533 66.6479 56.3006 66.6859C56.1845 66.7049 56.0744 66.7366 55.9643 66.7619C55.8482 66.7872 55.7381 66.8125 55.6341 66.8442C55.1939 66.9582 54.772 67.1038 54.3868 67.3C54.2951 67.3507 54.1911 67.3951 54.1055 67.4457L53.8426 67.6166C53.6836 67.7432 53.5185 67.8509 53.3595 68.0155C53.0416 68.3257 52.7419 68.6676 52.4729 69.0539C51.9409 69.8263 51.5129 70.7254 51.2072 71.7004C50.9015 72.6691 50.6936 73.7011 50.5774 74.7458C50.5163 75.2713 50.4857 75.7968 50.4673 76.3287C50.4612 76.5946 50.4551 76.8605 50.4612 77.1264C50.4612 77.2594 50.4673 77.3923 50.4734 77.519C50.4795 77.6456 50.4857 77.7849 50.4918 77.8988V77.9305C50.5224 78.3484 50.235 78.7219 49.8253 78.7853C49.3973 78.8486 48.9998 78.5447 48.9387 78.1015C48.9142 77.9369 48.8959 77.7976 48.8837 77.652L48.8409 77.2214C48.8347 77.1328 48.8286 77.0504 48.8164 76.9618C48.9632 77.272 49.2872 77.462 49.6296 77.4114Z" fill="#333333"/>
</g>
<path d="M30.5283 74.1127V75.7209H31.9713C32.6378 75.7209 33.1882 75.512 33.2982 75.2397C33.3105 75.2081 33.3166 75.1764 33.3166 75.1384V74.7016C33.3166 74.3787 32.7173 74.1191 31.9713 74.1191H30.5283V74.1127Z" fill="#BF272D"/>
<path d="M39.6749 51.7311L54.4844 49.1859C55.0225 49.0909 55.5728 49.0655 56.117 49.0909C57.0281 49.1352 58.4528 49.1099 59.6635 49.0719C60.8925 49.0339 61.8708 47.9893 61.8708 46.7103V37.8969C61.8708 37.1878 61.1493 36.618 60.2566 36.618H43.1725C41.3625 36.618 38.1769 47.2991 38.1769 47.2991C37.5837 48.4957 38.2197 51.7311 39.6749 51.7311Z" fill="#333333"/>
<path d="M39.3662 52.8672H41.6958V51.7338H39.3662V52.8672Z" fill="#1A1A1A"/>
<path d="M61.0946 56.9292H57.059C56.8816 56.9292 56.7349 56.7773 56.7349 56.5937V56.0429C57.1873 55.5743 57.438 55.3147 57.8844 54.8525H61.0273C61.2597 54.8525 61.4492 55.0488 61.4492 55.2894V56.562C61.4492 56.7646 61.2902 56.9292 61.0946 56.9292Z" fill="black"/>
<path d="M61.0945 57.0686H57.0589C56.8082 57.0686 56.6064 56.8596 56.6064 56.6V55.9922L57.8355 54.7195H61.0334C61.3391 54.7195 61.5898 54.9792 61.5898 55.2957V56.5683C61.5776 56.8406 61.3636 57.0686 61.0945 57.0686ZM56.8694 56.0998V56.5937C56.8694 56.7013 56.955 56.7899 57.0589 56.7899H61.0945C61.2168 56.7899 61.3147 56.6886 61.3147 56.562V55.2894C61.3147 55.1248 61.1862 54.9918 61.0273 54.9918H57.9394L56.8694 56.0998Z" fill="#666666"/>
<path d="M35.4923 64.7233L32.5206 64.7929L32.3127 60.1266C32.276 59.3479 33.1076 58.6894 34.1715 58.664L35.3333 58.6388C35.9386 58.6261 36.4462 58.9743 36.4645 59.4175L36.6602 63.7989C36.6846 64.2927 36.1588 64.7043 35.4923 64.7233Z" fill="#979797"/>
<g opacity="0.7">
<path d="M36.4713 59.4238C36.4591 59.0946 36.1778 58.8223 35.7926 58.702L35.9699 62.6718C35.9944 63.1657 35.4685 63.5772 34.802 63.5899L32.4785 63.6469L32.5274 64.7929L35.4991 64.7232C36.1656 64.7042 36.6915 64.2927 36.667 63.8052L36.4713 59.4238Z" fill="#979797"/>
</g>
<path d="M40.6966 50.6927L54.2954 48.4958C54.7907 48.4135 55.2921 48.3945 55.7935 48.4134C56.6312 48.4514 57.9397 48.4261 59.0465 48.3944C60.1777 48.3628 61.0765 47.4574 61.0765 46.3557V38.7517C61.0765 38.1439 60.41 37.6437 59.5907 37.6437H43.9007C42.2375 37.6437 39.3147 46.8559 39.3147 46.8559C38.7767 47.9006 39.3637 50.6927 40.6966 50.6927Z" fill="#424756"/>
<path d="M41.6207 52.5985C40.5506 52.5985 39.6763 51.6361 39.6763 50.4585V37.3208C39.6763 36.1431 40.5506 35.1807 41.6207 35.1807H42.7764C42.9353 35.1807 43.0637 35.3137 43.0637 35.4783C43.0637 35.6429 42.9353 35.7759 42.7764 35.7759H41.6207C40.8625 35.7759 40.2449 36.466 40.2449 37.3208V50.4585C40.2449 51.3132 40.8625 52.0034 41.6207 52.0034C41.7797 52.0034 41.9081 52.1363 41.9081 52.3009C41.9081 52.4656 41.7797 52.5985 41.6207 52.5985Z" fill="#1A1A1A"/>
<path d="M39.42 43.8422H40.808C41.1259 43.8422 41.3827 43.5762 41.3827 43.247V37.3461C41.3827 37.0169 41.1259 36.7509 40.808 36.7509H39.42C39.102 36.7509 38.8452 37.0169 38.8452 37.3461V43.247C38.8513 43.5762 39.1081 43.8422 39.42 43.8422Z" fill="#666666"/>
<path d="M39.4144 49.9204H40.8146C41.0592 49.9204 41.2549 49.7178 41.2549 49.4645V45.7163C41.2549 45.463 41.0592 45.2604 40.8146 45.2604H39.4144C39.1698 45.2604 38.9741 45.463 38.9741 45.7163V49.4645C38.9741 49.7178 39.1698 49.9204 39.4144 49.9204Z" fill="#666666"/>
<g opacity="0.4">
<path d="M39.1448 36.8268V42.5062C39.1448 42.8418 39.3955 43.1203 39.7012 43.1203H41.1259C41.2177 43.1203 41.3094 43.0887 41.3827 43.0444V43.228C41.3827 43.5636 41.1321 43.8421 40.8263 43.8421H39.4016C39.0959 43.8421 38.8452 43.5636 38.8452 43.228V37.3651C38.8513 37.1308 38.9675 36.9345 39.1448 36.8268Z" fill="#323E47"/>
</g>
<g opacity="0.3">
<path d="M39.1253 45.3743V49.0212C39.1253 49.2808 39.3149 49.4961 39.5533 49.4961H40.9841C41.0881 49.4961 41.1798 49.4518 41.2532 49.3822V49.4518C41.2532 49.7114 41.0636 49.9267 40.8252 49.9267H39.3943C39.162 49.9267 38.9663 49.7114 38.9663 49.4518V45.7353C38.9724 45.5896 39.0336 45.4566 39.1253 45.3743Z" fill="#323E47"/>
</g>
<path d="M141.635 79.2411H87.2463C85.4731 79.2411 84.0361 77.7533 84.0361 75.9171C84.0361 74.081 85.4731 72.5931 87.2463 72.5931H141.635C143.409 72.5931 144.845 74.081 144.845 75.9171C144.845 77.7533 143.409 79.2411 141.635 79.2411Z" fill="black"/>
<path d="M220.471 46.9953H83.0342V68.2183H220.471V46.9953Z" fill="#A46200"/>
<path d="M87.5834 45.4186H83.0342V68.2181H87.5834V45.4186Z" fill="#FAA701"/>
<path d="M125.01 45.4187H120.461V68.2182H125.01V45.4187Z" fill="#FAA701"/>
<path d="M177.755 45.4187H173.206V68.2182H177.755V45.4187Z" fill="#FAA701"/>
<path d="M215.916 50.2939H87.583V51.003H215.916V50.2939Z" fill="#FAA701"/>
<path d="M215.916 52.9468H87.583V53.6559H215.916V52.9468Z" fill="#FAA701"/>
<path d="M215.916 55.5996H87.583V56.3087H215.916V55.5996Z" fill="#FAA701"/>
<path d="M215.916 58.2526H87.583V58.9617H215.916V58.2526Z" fill="#FAA701"/>
<path d="M215.916 60.899H87.583V61.6081H215.916V60.899Z" fill="#FAA701"/>
<path d="M215.916 63.5519H87.583V64.2611H215.916V63.5519Z" fill="#FAA701"/>
<path d="M215.916 66.2048H87.583V66.9139H215.916V66.2048Z" fill="#FAA701"/>
<path d="M73.6478 63.5519H70.6455V65.6349H73.6478V63.5519Z" fill="#123870"/>
<g opacity="0.29">
<path d="M216.277 46.9954V52.1175C216.277 58.8224 211.025 64.2612 204.549 64.2612H83.0347V68.212H220.472V46.989H216.277V46.9954Z" fill="#FAA701"/>
</g>
<path d="M220.465 45.4187H215.916V68.2182H220.465V45.4187Z" fill="#FAA701"/>
<path d="M73.5495 69.7314L73.5373 70.9787L73.5311 71.5928L73.525 72.4348L73.5189 73.049L73.5128 73.8911L73.5067 74.5052L73.5006 75.3474L73.4945 75.6703H70.804L70.7918 74.7712V74.1507L70.7796 73.3023L70.7735 72.6818L70.7673 71.8334L70.7612 71.2193L70.7551 70.3709L70.749 69.7503V69.7314H73.5495Z" fill="#F9AE3B"/>
<path d="M73.5373 70.9786L73.5311 71.5928L70.7551 70.3709L70.749 69.7503L73.5373 70.9786Z" fill="black"/>
<path d="M73.5255 72.4348L73.5194 73.049L70.7678 71.8334L70.7617 71.2192L73.5255 72.4348Z" fill="black"/>
<path d="M73.5137 73.8911L73.5076 74.5053L70.7805 73.3024L70.7744 72.6818L73.5137 73.8911Z" fill="black"/>
<path d="M73.5007 75.3473L73.4946 75.6703H72.8342L70.792 74.7712V74.1507L73.5007 75.3473Z" fill="black"/>
<g opacity="0.6">
<path d="M73.1581 69.7314L73.152 70.2759L73.1459 70.8837L73.1397 71.7257L73.1336 72.3399L73.1275 73.182L73.1214 73.7961L73.1092 74.6382V74.9612H70.7979L70.804 75.6703H73.4944L73.5005 75.3474L73.5066 74.5052L73.5127 73.8911L73.5188 73.049L73.525 72.4348L73.5311 71.5928L73.5372 70.9787L73.5494 69.7314H73.1581Z" fill="#F9AE3B"/>
</g>
</svg>
