<svg width="251" height="120" viewBox="0 0 251 120" fill="none" xmlns="http://www.w3.org/2000/svg">
<path d="M89.6654 35.7571V44.4114C89.6654 45.313 88.9303 46.048 88.0287 46.048H56.7998L57.1788 43.4064L57.2707 42.7632L57.4487 41.4998C58.2239 37.2387 62.0716 34.1261 66.5797 34.1261H88.0344C88.9303 34.1204 89.6654 34.8555 89.6654 35.7571Z" fill="white"/>
<path d="M183.222 80.1409L184.333 81.0498L190.481 73.5335L189.37 72.6246L183.222 80.1409Z" fill="#333333"/>
<path d="M183.305 80.1626L184.16 81.3157L193.399 74.4636L192.544 73.3104L183.305 80.1626Z" fill="#333333"/>
<path d="M185.46 74.6813H88.0518V81.383H185.46V74.6813Z" fill="#333333"/>
<g opacity="0.7">
<path d="M185.46 78.4371H88.0518V81.3888H185.46V78.4371Z" fill="#333333"/>
</g>
<path d="M67.0675 77.0071H52.6304V79.1606H67.0675V77.0071Z" fill="#F9AE3B"/>
<path d="M67.0675 77.0071H52.6304V79.1606H67.0675V77.0071Z" fill="#A0A6AA"/>
<path d="M87.8562 70.558L67.8716 73.4926V81.6702H87.8562V70.558Z" fill="#1A1A1A"/>
<path d="M84.8186 60.7208V71.4941H72.4833C72.3741 71.4941 72.2707 71.4999 72.1616 71.5056C72.1099 71.5056 72.0582 71.5114 72.0066 71.5229C71.8113 71.5458 71.6218 71.5803 71.4323 71.632C71.3691 71.6492 71.3059 71.6664 71.2485 71.6837C70.5996 71.8846 70.0138 72.2464 69.5429 72.7231C69.3075 72.9585 69.1007 73.2227 68.9227 73.5098C68.7446 73.797 68.6068 74.1071 68.5034 74.4287C68.4862 74.4918 68.4691 74.555 68.4518 74.6124C68.4002 74.7962 68.3656 74.9915 68.3426 75.1867C68.3369 75.2384 68.3313 75.2901 68.3255 75.3418C68.3198 75.4451 68.314 75.5542 68.314 75.6634V75.6806C68.314 76.0941 68.1646 76.4673 67.9177 76.766C67.8947 76.7889 67.8143 76.8808 67.7914 76.898C67.7741 76.921 66.7865 77.3804 66.729 77.3862C66.6773 77.3919 66.6257 77.3919 66.574 77.3919H52.3951C51.6887 77.3919 51.1145 76.8176 51.1145 76.1113L50.925 64.6603C50.9193 64.4248 50.948 64.1894 51.0111 63.9597L52.8833 57.166C52.9522 56.9076 53.0325 56.6434 53.1129 56.385L53.1302 56.3276V56.3333C53.1474 56.2759 53.1704 56.2127 53.1876 56.1553L53.7159 54.6794L53.8194 54.398L57.0352 45.359L57.1443 45.0546C57.6956 43.5098 59.1543 42.4761 60.7967 42.4761H79.6444C79.6846 42.4761 79.7248 42.4761 79.7707 42.4761C79.7707 42.4761 79.7707 42.4761 79.7765 42.4761C80.6896 42.5048 81.5337 42.8552 82.1827 43.4237C82.286 43.5098 82.3837 43.6017 82.4755 43.6993C82.4985 43.7281 82.5272 43.7568 82.5501 43.7855C82.5674 43.8084 82.5846 43.8257 82.6019 43.8429C82.6765 43.9233 82.7397 44.0094 82.8029 44.0956C82.8374 44.1415 82.8718 44.1875 82.9005 44.2392C83.2393 44.756 83.4576 45.3532 83.515 46.0079L84.8186 60.7208Z" fill="white"/>
<path d="M68.2563 83.927L68.1587 82.4626L68.4286 82.3765C68.4343 82.0893 68.4515 81.8022 68.4859 81.5265L68.2333 81.4059L68.5319 79.9703L68.8133 79.9588C68.8937 79.6831 68.9913 79.4132 69.1004 79.1548L68.888 78.971L69.5599 77.6674L69.8355 77.7363C69.9906 77.4951 70.1514 77.2654 70.3295 77.0415L70.1744 76.806L71.1736 75.7321L71.4205 75.8699C71.633 75.6804 71.8512 75.5024 72.0809 75.3301L71.9948 75.0602L73.2467 74.2964L73.442 74.4974C73.6947 74.3711 73.9587 74.2563 74.2287 74.1586L74.2172 73.8772L75.63 73.481L75.7678 73.7279C76.0435 73.6762 76.3306 73.636 76.612 73.6131L76.6808 73.3374H78.1452L78.2142 73.6131C78.5013 73.636 78.7827 73.6762 79.0584 73.7279L79.1962 73.481L80.6089 73.8772L80.5974 74.1586C80.8673 74.262 81.1258 74.3711 81.3842 74.4974L81.5794 74.2964L82.8312 75.0602L82.7452 75.3301C82.9749 75.5024 83.193 75.6804 83.4055 75.8699L83.6526 75.7321L84.6518 76.806L84.4967 77.0415C84.669 77.2654 84.8355 77.5009 84.9905 77.7363L85.2663 77.6674L85.9382 78.971L85.7256 79.1548C85.8347 79.419 85.9323 79.6889 86.0127 79.9588L86.2941 79.9703L86.5928 81.4059L86.3401 81.5265C86.3746 81.8079 86.3919 82.0893 86.3976 82.3765L86.6675 82.4626L86.5698 83.927L86.2941 83.9729C86.2482 84.2543 86.1909 84.5357 86.122 84.8114L86.3516 84.9607L85.8634 86.3389L85.582 86.3102C85.4614 86.5687 85.3294 86.8213 85.1858 87.0683L85.3696 87.2807L84.5255 88.481L84.2613 88.3776C84.0776 88.5958 83.8823 88.8026 83.6813 89.0036L83.8019 89.2562L82.6648 90.1808L82.4408 90.0143C82.2053 90.1751 81.9584 90.3244 81.7114 90.4622L81.7574 90.7379L80.4136 91.3236L80.247 91.0997C79.9771 91.1916 79.7015 91.2662 79.4258 91.3294L79.3971 91.6108L77.9443 91.8118L77.8408 91.5476C77.6973 91.5533 77.5595 91.5591 77.4159 91.5591C77.2723 91.5591 77.1288 91.5533 76.9909 91.5476L76.8876 91.8118L75.4347 91.6108L75.4059 91.3294C75.1245 91.2662 74.8489 91.1858 74.5848 91.0997L74.4182 91.3236L73.0744 90.7379L73.1203 90.4622C72.8677 90.3244 72.6265 90.1751 72.391 90.0143L72.1671 90.1808L71.0301 89.2562L71.1506 89.0036C70.9439 88.8026 70.7544 88.5958 70.5649 88.3776L70.3007 88.481L69.4566 87.2807L69.6402 87.0683C69.4967 86.8213 69.3646 86.5687 69.244 86.3102L68.9626 86.3389L68.4744 84.9607L68.71 84.8114C68.6411 84.5357 68.5836 84.2543 68.5377 83.9729L68.2563 83.927Z" fill="#232C33"/>
<g opacity="0.4">
<path d="M77.4102 87.1085C79.9158 87.1085 81.9471 85.0774 81.9471 82.5718C81.9471 80.0662 79.9158 78.035 77.4102 78.035C74.9047 78.035 72.8735 80.0662 72.8735 82.5718C72.8735 85.0774 74.9047 87.1085 77.4102 87.1085Z" fill="#14191E"/>
</g>
<path d="M73.2759 82.5718C73.2759 84.8574 75.125 86.7065 77.4106 86.7065C79.6962 86.7065 81.5453 84.8574 81.5453 82.5718C81.5453 80.2862 79.6962 78.437 77.4106 78.437C75.125 78.437 73.2759 80.2862 73.2759 82.5718Z" fill="#686A6B"/>
<path d="M75.1245 82.5717C75.1245 83.8294 76.1467 84.8516 77.4044 84.8516C78.662 84.8516 79.6842 83.8294 79.6842 82.5717C79.6842 81.3141 78.662 80.2919 77.4044 80.2919C76.1467 80.2919 75.1245 81.3141 75.1245 82.5717Z" fill="#31393F"/>
<g opacity="0.2">
<path d="M74.3497 79.7865C74.2406 80.154 74.1832 80.5445 74.1832 80.9465C74.1832 83.2321 76.0323 85.0813 78.3179 85.0813C79.5296 85.0813 80.6208 84.5587 81.3788 83.7317C80.8792 85.4546 79.2884 86.7122 77.4048 86.7122C75.1191 86.7122 73.27 84.8631 73.27 82.5775C73.2758 81.4978 73.6836 80.5216 74.3497 79.7865Z" fill="#14191E"/>
</g>
<g opacity="0.2">
<path d="M86.2765 84.9205L86.3455 84.9664L86.2192 85.3225L86.1904 85.3052C86.2191 85.1732 86.2478 85.0468 86.2765 84.9205Z" fill="#14191E"/>
<path d="M86.4438 82.3938L86.6621 82.4627L86.6334 82.9164L86.4726 82.8647C86.4668 82.7097 86.4553 82.5489 86.4438 82.3938Z" fill="#14191E"/>
<path d="M69.1694 79.6429C69.0603 79.9071 68.9627 80.177 68.8823 80.4469L68.6009 80.4584L68.3884 81.4806L68.2275 81.4059L68.5262 79.9703L68.8076 79.9588C68.8592 79.7922 68.9167 79.6314 68.9741 79.4706L69.1694 79.6429Z" fill="#14191E"/>
<path d="M84.5078 77.0528L83.7267 76.2201L83.4798 76.358C83.2673 76.1685 83.0492 75.9847 82.8194 75.8181L82.9055 75.5482L81.6537 74.7845L81.4584 74.9855C81.2057 74.8591 80.9416 74.7442 80.6717 74.6466L80.683 74.3652L79.2703 73.969L79.1325 74.2159C78.8569 74.1642 78.5697 74.124 78.2884 74.1011L78.2195 73.8254H76.7551L76.6861 74.1011C76.399 74.124 76.1176 74.1642 75.8419 74.2159L75.7041 73.969L74.2914 74.3652L74.3029 74.6466C74.033 74.75 73.7745 74.8591 73.5161 74.9855L73.321 74.7845L72.0689 75.5482L72.1552 75.8181C71.9255 75.9904 71.7071 76.1685 71.4947 76.358L71.2478 76.2201L70.2485 77.294L70.4036 77.5295C70.2313 77.7534 70.0647 77.9889 69.9097 78.2243L69.634 78.1554L69.0312 79.3155C69.0541 79.2638 69.0713 79.2063 69.0942 79.1547L68.8818 78.9709L69.5537 77.6673L69.8293 77.7362C69.9844 77.495 70.1452 77.2653 70.3233 77.0413L70.1682 76.8059L71.1674 75.732L71.4143 75.8698C71.6268 75.6803 71.845 75.5023 72.0747 75.33L71.9886 75.0601L73.2405 74.2963L73.4358 74.4973C73.6885 74.371 73.9526 74.2561 74.2225 74.1585L74.2111 73.8771L75.6238 73.4808L75.7616 73.7278C76.0373 73.6761 76.3244 73.6359 76.6058 73.6129L76.6746 73.3373H78.139L78.208 73.6129C78.4952 73.6359 78.7765 73.6761 79.0522 73.7278L79.19 73.4808L80.6027 73.8771L80.5912 74.1585C80.8611 74.2619 81.1196 74.371 81.378 74.4973L81.5732 74.2963L82.8252 75.0601L82.739 75.33C82.9687 75.5023 83.187 75.6803 83.3995 75.8698L83.6464 75.732L84.6456 76.8059L84.4905 77.0413C84.4963 77.0471 84.502 77.0528 84.5078 77.0528Z" fill="#14191E"/>
<path d="M69.7144 87.5622L69.68 87.6024L69.4561 87.2865L69.5249 87.2119C69.5823 87.3267 69.6455 87.4473 69.7144 87.5622Z" fill="#14191E"/>
<path d="M68.4281 82.3764C68.4281 82.2329 68.4396 82.095 68.4453 81.9572L68.5602 82.0089C68.5257 82.2903 68.5084 82.5717 68.5027 82.8588L68.2328 82.945L68.3018 83.927L68.2558 83.9212L68.1582 82.4568L68.4281 82.3764Z" fill="#14191E"/>
<path d="M68.7792 85.2994L68.6242 85.4028L68.4692 84.9664L68.6701 84.8343C68.7046 84.9893 68.739 85.1444 68.7792 85.2994Z" fill="#14191E"/>
<path d="M85.335 78.1555L85.0594 78.2244C84.9043 77.9832 84.7435 77.7535 84.5654 77.5296L84.6975 77.3286C84.7951 77.4664 84.8929 77.6042 84.979 77.742L85.2547 77.6731L85.9265 78.9767L85.8059 79.0801L85.335 78.1555Z" fill="#14191E"/>
<path d="M86.3683 80.4582L86.0869 80.4467C86.0065 80.1711 85.9089 79.9012 85.7998 79.6428L85.8801 79.5739C85.9261 79.7002 85.972 79.8323 86.0065 79.9644L86.2879 79.9759L86.5865 81.4115L86.5635 81.423L86.3683 80.4582Z" fill="#14191E"/>
</g>
<g opacity="0.4">
<path d="M84.6292 88.3374L84.5259 88.4867L84.3306 88.412C84.4282 88.3833 84.5258 88.3604 84.6292 88.3374Z" fill="#14191E"/>
<path d="M68.2558 83.9272L68.1582 82.4628L68.4281 82.3767C68.4338 82.0896 68.451 81.8024 68.4854 81.5268L68.2328 81.4062L68.5314 79.9705L68.8128 79.959C68.8932 79.6833 68.9908 79.4134 69.0999 79.155L68.8875 78.9713L69.5594 77.6677L69.835 77.7366C69.9901 77.4954 70.1509 77.2657 70.329 77.0417L70.1739 76.8062L71.1731 75.7324L71.42 75.8702C71.6325 75.6807 71.8507 75.5026 72.0804 75.3304L71.9943 75.0605L72.4652 74.7733C71.4373 76.1688 70.8458 77.817 70.8458 79.58C70.8458 84.6106 75.6697 88.6879 81.6249 88.6879C82.5207 88.6879 83.3879 88.5961 84.2206 88.418C84.0483 88.619 83.8703 88.8085 83.6808 88.9923L83.8014 89.245L82.6643 90.1696L82.4403 90.003C82.2048 90.1638 81.9579 90.3131 81.711 90.451L81.7569 90.7266L80.4131 91.3124L80.2465 91.0884C79.9766 91.1803 79.701 91.255 79.4254 91.3181L79.3966 91.5995L77.9438 91.8005L77.8404 91.5363C77.6968 91.5421 77.559 91.5478 77.4154 91.5478C77.2718 91.5478 77.1283 91.5421 76.9905 91.5363L76.8871 91.8005L75.4342 91.5995L75.4055 91.3181C75.1241 91.255 74.8484 91.1803 74.5843 91.0884L74.4177 91.3124L73.0739 90.7266L73.1199 90.451C72.8672 90.3131 72.626 90.1638 72.3905 90.003L72.1666 90.1696L71.0296 89.245L71.1501 88.9923C70.9434 88.7913 70.7539 88.5846 70.5644 88.3664L70.3002 88.4697L69.4561 87.2695L69.6397 87.057C69.4962 86.8101 69.3641 86.5574 69.2435 86.299L68.9621 86.3277L68.4739 84.9494L68.7095 84.8001C68.6406 84.5245 68.5831 84.2431 68.5372 83.9617L68.2558 83.9272Z" fill="#14191E"/>
</g>
<path d="M77.2437 80.7455C77.2437 80.8374 77.3183 80.912 77.4102 80.912C77.5021 80.912 77.5768 80.8374 77.5768 80.7455C77.5768 80.6536 77.5021 80.579 77.4102 80.579C77.3183 80.579 77.2437 80.6536 77.2437 80.7455Z" fill="#22272B"/>
<g opacity="0.5">
<path d="M77.2724 80.6478C77.2724 80.6536 77.2724 80.6593 77.2724 80.6708C77.2724 80.7627 77.3471 80.8373 77.439 80.8373C77.4964 80.8373 77.5481 80.8086 77.5768 80.7684C77.5653 80.8488 77.4964 80.9177 77.4102 80.9177C77.3183 80.9177 77.2437 80.8431 77.2437 80.7512C77.2437 80.711 77.2552 80.6765 77.2724 80.6478Z" fill="#22272B"/>
</g>
<path d="M78.0015 80.8374C77.9613 80.9236 78.0016 81.0212 78.0877 81.0556C78.1739 81.0958 78.2714 81.0556 78.3059 80.9695C78.3461 80.8833 78.3059 80.7857 78.2198 80.7513C78.1336 80.7111 78.0359 80.7513 78.0015 80.8374Z" fill="#22272B"/>
<g opacity="0.5">
<path d="M78.0651 80.757C78.0593 80.7628 78.0593 80.7685 78.0536 80.7742C78.0134 80.8604 78.0535 80.958 78.1397 80.9925C78.1914 81.0154 78.2488 81.0097 78.2947 80.981C78.2545 81.0499 78.1627 81.0844 78.0823 81.0499C77.9962 81.0097 77.9616 80.9121 77.9961 80.8317C78.0133 80.803 78.0364 80.7742 78.0651 80.757Z" fill="#22272B"/>
</g>
<path d="M78.6566 81.228C78.5877 81.2911 78.5819 81.3945 78.6451 81.4634C78.7082 81.5323 78.8116 81.5381 78.8805 81.4749C78.9494 81.4117 78.9551 81.3084 78.892 81.2394C78.8288 81.1705 78.7255 81.1648 78.6566 81.228Z" fill="#22272B"/>
<g opacity="0.5">
<path d="M78.7484 81.182C78.7427 81.1877 78.7369 81.1878 78.7312 81.1935C78.6622 81.2567 78.6565 81.36 78.7197 81.429C78.7599 81.4692 78.8115 81.4864 78.8632 81.4806C78.7943 81.5266 78.7025 81.5208 78.6451 81.4577C78.5819 81.3888 78.5877 81.2854 78.6566 81.2222C78.6795 81.1992 78.7139 81.1877 78.7484 81.182Z" fill="#22272B"/>
</g>
<path d="M79.0937 81.8481C79.0076 81.8768 78.9558 81.9687 78.9845 82.0606C79.0132 82.1467 79.1052 82.1984 79.1971 82.1697C79.2832 82.141 79.3349 82.0491 79.3062 81.9572C79.2774 81.8653 79.1856 81.8194 79.0937 81.8481Z" fill="#22272B"/>
<g opacity="0.5">
<path d="M79.1967 81.8481C79.191 81.8481 79.1852 81.8481 79.1795 81.8538C79.0934 81.8826 79.0417 81.9744 79.0704 82.0663C79.0877 82.118 79.1278 82.1582 79.1795 82.1754C79.0991 82.1927 79.0129 82.1467 78.9899 82.0663C78.9612 81.9802 79.0071 81.8826 79.099 81.8538C79.1277 81.8366 79.1623 81.8366 79.1967 81.8481Z" fill="#22272B"/>
</g>
<path d="M79.2416 82.5948C79.1497 82.5833 79.0694 82.6522 79.0579 82.7441C79.0464 82.8359 79.1153 82.9163 79.2072 82.9278C79.2991 82.9393 79.3794 82.8704 79.3909 82.7785C79.4024 82.6866 79.3334 82.6062 79.2416 82.5948Z" fill="#22272B"/>
<g opacity="0.5">
<path d="M79.3339 82.6349C79.3281 82.6349 79.3224 82.6292 79.3166 82.6292C79.2247 82.6177 79.1443 82.6866 79.1328 82.7785C79.1271 82.8359 79.1501 82.8876 79.1903 82.9221C79.1099 82.9049 79.0525 82.8302 79.064 82.7441C79.0754 82.6522 79.1557 82.5833 79.2476 82.5948C79.2763 82.6005 79.3109 82.6177 79.3339 82.6349Z" fill="#22272B"/>
</g>
<path d="M79.0749 83.3413C78.9945 83.2953 78.8911 83.324 78.8452 83.4044C78.7992 83.4848 78.828 83.5882 78.9084 83.6341C78.9888 83.6801 79.0921 83.6514 79.138 83.571C79.184 83.4906 79.1553 83.3872 79.0749 83.3413Z" fill="#22272B"/>
<g opacity="0.5">
<path d="M79.1442 83.4159C79.1385 83.4102 79.1327 83.4102 79.127 83.4044C79.0466 83.3585 78.9432 83.3872 78.8973 83.4676C78.8686 83.5193 78.8686 83.571 78.8915 83.6227C78.8226 83.571 78.8054 83.4791 78.8456 83.4044C78.8915 83.324 78.995 83.2953 79.0754 83.3413C79.1041 83.3585 79.127 83.3872 79.1442 83.4159Z" fill="#22272B"/>
</g>
<path d="M78.6156 83.95C78.564 83.8753 78.4547 83.8581 78.3801 83.9155C78.3054 83.9672 78.2883 84.0763 78.3457 84.151C78.4032 84.2256 78.5065 84.2429 78.5811 84.1854C78.6558 84.128 78.6731 84.0246 78.6156 83.95Z" fill="#22272B"/>
<g opacity="0.5">
<path d="M78.6503 84.0476C78.6445 84.0419 78.6445 84.0361 78.6388 84.0304C78.5871 83.9557 78.4779 83.9385 78.4032 83.9959C78.3573 84.0304 78.3344 84.082 78.3344 84.1337C78.2942 84.0591 78.3113 83.9672 78.3802 83.9155C78.4549 83.8638 78.5583 83.8753 78.6158 83.95C78.6387 83.9787 78.6503 84.0131 78.6503 84.0476Z" fill="#22272B"/>
</g>
<path d="M77.9495 84.3233C77.9323 84.2314 77.8405 84.174 77.7486 84.197C77.6567 84.2142 77.5993 84.3061 77.6223 84.398C77.6452 84.4898 77.7313 84.5473 77.8232 84.5243C77.915 84.5013 77.9725 84.4152 77.9495 84.3233Z" fill="#22272B"/>
<g opacity="0.5">
<path d="M77.9441 84.4267C77.9441 84.4209 77.9441 84.4152 77.9441 84.4037C77.9269 84.3118 77.835 84.2544 77.7431 84.2774C77.6857 84.2889 77.6455 84.329 77.6225 84.375C77.6168 84.2946 77.6684 84.2142 77.7546 84.197C77.8465 84.1797 77.9325 84.2372 77.9555 84.3233C77.9612 84.3578 77.9556 84.3922 77.9441 84.4267Z" fill="#22272B"/>
</g>
<path d="M77.1922 84.3922C77.2095 84.3003 77.1521 84.2142 77.0659 84.1912C76.974 84.174 76.8878 84.2314 76.8649 84.3176C76.8476 84.4095 76.9051 84.4956 76.9912 84.5185C77.0831 84.5415 77.175 84.4841 77.1922 84.3922Z" fill="#22272B"/>
<g opacity="0.5">
<path d="M77.1405 84.4784C77.1405 84.4726 77.1462 84.4669 77.1462 84.4611C77.1635 84.3692 77.1061 84.2831 77.0199 84.2601C76.9625 84.2486 76.9108 84.2659 76.8706 84.3003C76.8993 84.2199 76.9798 84.174 77.0602 84.1912C77.152 84.2085 77.2095 84.3003 77.1865 84.3922C77.1865 84.4267 77.1692 84.4611 77.1405 84.4784Z" fill="#22272B"/>
</g>
<path d="M76.4686 84.1452C76.5203 84.0705 76.5088 83.9671 76.4341 83.9097C76.3595 83.858 76.2562 83.8695 76.1987 83.9442C76.1471 84.0188 76.1584 84.1222 76.2331 84.1796C76.3135 84.237 76.417 84.2256 76.4686 84.1452Z" fill="#22272B"/>
<g opacity="0.5">
<path d="M76.3879 84.2084C76.3936 84.2026 76.3994 84.1969 76.3994 84.1912C76.4511 84.1165 76.4397 84.0131 76.365 83.9557C76.3191 83.9212 76.2616 83.9155 76.21 83.9327C76.2674 83.8696 76.3592 83.8581 76.4281 83.9097C76.5028 83.9614 76.52 84.0705 76.4626 84.1452C76.4511 84.1797 76.4223 84.1969 76.3879 84.2084Z" fill="#22272B"/>
</g>
<path d="M75.9109 83.6284C75.9913 83.5825 76.0199 83.4791 75.974 83.3987C75.928 83.3183 75.8247 83.2896 75.7443 83.3355C75.6639 83.3815 75.6351 83.4848 75.6811 83.5652C75.727 83.6514 75.8305 83.6743 75.9109 83.6284Z" fill="#22272B"/>
<g opacity="0.5">
<path d="M75.8133 83.6514C75.8191 83.6514 75.8248 83.6457 75.8306 83.6457C75.911 83.5997 75.9397 83.4964 75.8938 83.416C75.8651 83.3643 75.8134 83.3356 75.7617 83.3356C75.8364 83.3011 75.9282 83.3298 75.9741 83.4045C76.0201 83.4849 75.9914 83.5883 75.911 83.6342C75.8766 83.6457 75.8478 83.6572 75.8133 83.6514Z" fill="#22272B"/>
</g>
<path d="M75.6079 82.9278C75.6998 82.9163 75.7687 82.8359 75.7572 82.7441C75.7457 82.6522 75.6653 82.5833 75.5734 82.5948C75.4815 82.6062 75.4126 82.6866 75.4241 82.7785C75.4356 82.8704 75.5218 82.9393 75.6079 82.9278Z" fill="#22272B"/>
<g opacity="0.5">
<path d="M75.5098 82.9106C75.5155 82.9106 75.5213 82.9106 75.5328 82.9106C75.6246 82.8991 75.6936 82.8187 75.6821 82.7268C75.6763 82.6694 75.6419 82.6234 75.596 82.6005C75.6821 82.6005 75.7511 82.6636 75.7568 82.7498C75.7683 82.8417 75.6994 82.9221 75.6075 82.9336C75.573 82.9336 75.5385 82.9221 75.5098 82.9106Z" fill="#22272B"/>
</g>
<path d="M75.618 82.1641C75.7042 82.1929 75.8017 82.1469 75.8304 82.055C75.8591 81.9689 75.8132 81.8713 75.7214 81.8425C75.6352 81.8138 75.5375 81.8598 75.5088 81.9516C75.4858 82.0435 75.5319 82.1354 75.618 82.1641Z" fill="#22272B"/>
<g opacity="0.5">
<path d="M75.5381 82.1066C75.5438 82.1124 75.5496 82.1124 75.5553 82.1124C75.6415 82.1411 75.7392 82.0951 75.7679 82.0033C75.7851 81.9516 75.7736 81.8941 75.7449 81.8539C75.8195 81.8884 75.8597 81.9745 75.831 82.0549C75.8023 82.1411 75.7104 82.1928 75.6186 82.1641C75.5841 82.1526 75.5553 82.1353 75.5381 82.1066Z" fill="#22272B"/>
</g>
<path d="M75.9402 81.4749C76.0091 81.5381 76.1126 81.5323 76.1757 81.4634C76.2389 81.3945 76.2331 81.2911 76.1642 81.228C76.0953 81.1648 75.992 81.1705 75.9288 81.2394C75.8657 81.3084 75.8713 81.4117 75.9402 81.4749Z" fill="#22272B"/>
<g opacity="0.5">
<path d="M75.8882 81.3887C75.8939 81.3944 75.8939 81.4002 75.8997 81.4059C75.9686 81.4691 76.0719 81.4633 76.1351 81.3944C76.1753 81.3542 76.1868 81.2968 76.1753 81.2451C76.2327 81.3083 76.2327 81.4002 76.1753 81.4691C76.1121 81.538 76.0087 81.5437 75.9398 81.4806C75.9111 81.4519 75.8939 81.4174 75.8882 81.3887Z" fill="#22272B"/>
</g>
<path d="M76.5138 80.9694C76.554 81.0555 76.6517 81.09 76.7321 81.0555C76.8183 81.0153 76.8527 80.9177 76.8182 80.8373C76.778 80.7512 76.6804 80.7167 76.6 80.7512C76.5196 80.7856 76.4736 80.889 76.5138 80.9694Z" fill="#22272B"/>
<g opacity="0.5">
<path d="M76.5025 80.8719C76.5025 80.8776 76.5082 80.8834 76.5082 80.8891C76.5484 80.9753 76.646 81.0097 76.7264 80.9753C76.7781 80.9523 76.8125 80.9064 76.824 80.8547C76.847 80.9351 76.8125 81.0212 76.7322 81.0557C76.646 81.0959 76.5483 81.0557 76.5139 80.9695C76.4966 80.9408 76.4968 80.9006 76.5025 80.8719Z" fill="#22272B"/>
</g>
<path d="M139.082 83.9271L138.984 82.4627L139.254 82.3766C139.26 82.0895 139.277 81.8023 139.311 81.5267L139.059 81.4061L139.357 79.9704L139.639 79.9589C139.719 79.6832 139.817 79.4133 139.926 79.1549L139.713 78.9712L140.385 77.6675L140.661 77.7365C140.816 77.4953 140.977 77.2656 141.155 77.0416L141 76.8061L141.999 75.7322L142.246 75.8701C142.458 75.6806 142.677 75.5025 142.906 75.3303L142.82 75.0603L144.072 74.2966L144.267 74.4976C144.52 74.3712 144.784 74.2564 145.054 74.1587L145.042 73.8773L146.455 73.4811L146.593 73.728C146.869 73.6764 147.156 73.6362 147.437 73.6132L147.506 73.3375H148.971L149.039 73.6132C149.327 73.6362 149.608 73.6764 149.884 73.728L150.021 73.4811L151.434 73.8773L151.423 74.1587C151.693 74.2621 151.951 74.3712 152.209 74.4976L152.405 74.2966L153.657 75.0603L153.57 75.3303C153.8 75.5025 154.018 75.6806 154.231 75.8701L154.478 75.7322L155.477 76.8061L155.322 77.0416C155.494 77.2656 155.661 77.501 155.816 77.7365L156.091 77.6675L156.763 78.9712L156.551 79.1549C156.66 79.4191 156.758 79.689 156.838 79.9589L157.119 79.9704L157.418 81.4061L157.165 81.5267C157.2 81.8081 157.217 82.0895 157.223 82.3766L157.493 82.4627L157.395 83.9271L157.119 83.9731C157.074 84.2545 157.016 84.5358 156.947 84.8115L157.183 84.9608L156.695 86.3391L156.413 86.3104C156.293 86.5688 156.16 86.8214 156.017 87.0684L156.201 87.2809L155.356 88.4811L155.092 88.3777C154.908 88.596 154.713 88.8027 154.506 89.0037L154.627 89.2564L153.49 90.181L153.266 90.0144C153.031 90.1752 152.784 90.3245 152.537 90.4623L152.583 90.738L151.239 91.3237L151.072 91.0998C150.802 91.1917 150.527 91.2663 150.251 91.3295L150.222 91.6109L148.77 91.8119L148.666 91.5477C148.523 91.5535 148.385 91.5592 148.241 91.5592C148.098 91.5592 147.954 91.5535 147.816 91.5477L147.713 91.8119L146.26 91.6109L146.231 91.3295C145.95 91.2663 145.674 91.1859 145.41 91.0998L145.244 91.3237L143.9 90.738L143.946 90.4623C143.693 90.3245 143.452 90.1752 143.216 90.0144L142.992 90.181L141.855 89.2564L141.976 89.0037C141.769 88.8027 141.58 88.596 141.396 88.3777L141.132 88.4811L140.287 87.2809L140.471 87.0684C140.328 86.8214 140.196 86.5688 140.075 86.3104L139.794 86.3391L139.306 84.9608L139.541 84.8115C139.472 84.5358 139.415 84.2545 139.369 83.9731L139.082 83.9271Z" fill="#232C33"/>
<g opacity="0.4">
<path d="M148.235 87.1085C150.741 87.1085 152.772 85.0774 152.772 82.5718C152.772 80.0662 150.741 78.035 148.235 78.035C145.73 78.035 143.699 80.0662 143.699 82.5718C143.699 85.0774 145.73 87.1085 148.235 87.1085Z" fill="#14191E"/>
</g>
<path d="M144.101 82.5718C144.101 84.8574 145.95 86.7065 148.236 86.7065C150.521 86.7065 152.371 84.8574 152.371 82.5718C152.371 80.2862 150.521 78.437 148.236 78.437C145.95 78.437 144.101 80.2862 144.101 82.5718Z" fill="#686A6B"/>
<path d="M145.95 82.5717C145.95 83.8294 146.972 84.8516 148.23 84.8516C149.487 84.8516 150.509 83.8294 150.509 82.5717C150.509 81.3141 149.487 80.2919 148.23 80.2919C146.972 80.2919 145.95 81.3141 145.95 82.5717Z" fill="#31393F"/>
<g opacity="0.2">
<path d="M145.175 79.7865C145.066 80.154 145.009 80.5445 145.009 80.9465C145.009 83.2321 146.864 85.0813 149.144 85.0813C150.355 85.0813 151.446 84.5587 152.204 83.7317C151.705 85.4546 150.114 86.7122 148.236 86.7122C145.951 86.7122 144.102 84.8631 144.102 82.5775C144.102 81.4978 144.509 80.5216 145.175 79.7865Z" fill="#14191E"/>
</g>
<g opacity="0.2">
<path d="M157.102 84.9205L157.171 84.9665L157.045 85.3225L157.016 85.3053C157.045 85.1732 157.073 85.0469 157.102 84.9205Z" fill="#14191E"/>
<path d="M157.27 82.3939L157.488 82.4628L157.459 82.9165L157.298 82.8648C157.293 82.7097 157.281 82.5489 157.27 82.3939Z" fill="#14191E"/>
<path d="M139.994 79.643C139.885 79.9071 139.788 80.177 139.707 80.447L139.426 80.4585L139.214 81.4807L139.053 81.406L139.351 79.9703L139.633 79.9588C139.684 79.7923 139.742 79.6315 139.799 79.4707L139.994 79.643Z" fill="#14191E"/>
<path d="M155.333 77.053L154.553 76.2203L154.306 76.3581C154.093 76.1686 153.875 75.9849 153.645 75.8183L153.731 75.5484L152.479 74.7846L152.284 74.9856C152.031 74.8593 151.767 74.7444 151.497 74.6468L151.509 74.3654L150.096 73.9692L149.958 74.2161C149.683 74.1644 149.396 74.1242 149.114 74.1013L149.045 73.8256H147.581L147.512 74.1013C147.225 74.1242 146.943 74.1644 146.668 74.2161L146.53 73.9692L145.117 74.3654L145.129 74.6468C144.859 74.7502 144.6 74.8593 144.342 74.9856L144.147 74.7846L142.895 75.5484L142.981 75.8183C142.751 75.9906 142.533 76.1686 142.32 76.3581L142.074 76.2203L141.074 77.2942L141.229 77.5297C141.057 77.7536 140.891 77.9891 140.735 78.2245L140.46 78.1556L139.857 79.3156C139.88 79.264 139.897 79.2065 139.92 79.1548L139.708 78.9711L140.38 77.6675L140.655 77.7364C140.81 77.4952 140.971 77.2655 141.149 77.0415L140.994 76.8061L141.993 75.7322L142.24 75.87C142.453 75.6805 142.671 75.5025 142.901 75.3302L142.814 75.0603L144.066 74.2965L144.262 74.4975C144.514 74.3712 144.778 74.2563 145.048 74.1587L145.037 73.8773L146.449 73.481L146.587 73.728C146.863 73.6763 147.15 73.6361 147.432 73.6131L147.5 73.3375H148.965L149.034 73.6131C149.321 73.6361 149.602 73.6763 149.878 73.728L150.016 73.481L151.429 73.8773L151.417 74.1587C151.687 74.2621 151.945 74.3712 152.204 74.4975L152.399 74.2965L153.651 75.0603L153.565 75.3302C153.795 75.5025 154.013 75.6805 154.225 75.87L154.472 75.7322L155.471 76.8061L155.316 77.0415C155.322 77.0473 155.328 77.053 155.333 77.053Z" fill="#14191E"/>
<path d="M140.54 87.5622L140.506 87.6024L140.282 87.2866L140.351 87.2119C140.408 87.3268 140.471 87.4474 140.54 87.5622Z" fill="#14191E"/>
<path d="M139.254 82.3765C139.254 82.2329 139.265 82.0951 139.271 81.9573L139.386 82.009C139.352 82.2904 139.334 82.5718 139.329 82.8589L139.059 82.945L139.127 83.927L139.082 83.9213L138.984 82.4569L139.254 82.3765Z" fill="#14191E"/>
<path d="M139.604 85.2995L139.449 85.4029L139.294 84.9664L139.495 84.8344C139.535 84.9894 139.57 85.1445 139.604 85.2995Z" fill="#14191E"/>
<path d="M156.166 78.1556L155.89 78.2245C155.735 77.9833 155.575 77.7536 155.396 77.5296L155.529 77.3286C155.626 77.4664 155.724 77.6043 155.81 77.7421L156.086 77.6732L156.758 78.9768L156.637 79.0801L156.166 78.1556Z" fill="#14191E"/>
<path d="M157.194 80.4584L156.913 80.4469C156.832 80.1713 156.735 79.9014 156.625 79.6429L156.706 79.574C156.752 79.7004 156.792 79.8325 156.832 79.9645L157.114 79.976L157.412 81.4117L157.389 81.4232L157.194 80.4584Z" fill="#14191E"/>
</g>
<g opacity="0.4">
<path d="M155.455 88.3374L155.351 88.4867L155.156 88.412C155.254 88.3833 155.352 88.3604 155.455 88.3374Z" fill="#14191E"/>
<path d="M139.082 83.927L138.984 82.4627L139.254 82.3765C139.26 82.0894 139.277 81.8022 139.311 81.5266L139.059 81.406L139.357 79.9703L139.639 79.9588C139.719 79.6832 139.817 79.4133 139.926 79.1548L139.713 78.9711L140.385 77.6675L140.661 77.7364C140.816 77.4952 140.977 77.2655 141.155 77.0415L141 76.8061L141.999 75.7322L142.246 75.87C142.458 75.6805 142.677 75.5025 142.906 75.3302L142.82 75.0603L143.291 74.7731C142.263 76.1686 141.672 77.8168 141.672 79.5798C141.672 84.6104 146.495 88.6878 152.451 88.6878C153.347 88.6878 154.214 88.5959 155.046 88.4179C154.874 88.6189 154.696 88.8084 154.506 88.9921L154.627 89.2448L153.49 90.1694L153.266 90.0029C153.031 90.1637 152.784 90.313 152.537 90.4508L152.583 90.7264L151.239 91.3122L151.072 91.0882C150.802 91.1801 150.527 91.2548 150.251 91.3179L150.222 91.5993L148.77 91.8003L148.666 91.5362C148.523 91.5419 148.385 91.5476 148.241 91.5476C148.098 91.5476 147.954 91.5419 147.816 91.5362L147.713 91.8003L146.26 91.5993L146.231 91.3179C145.95 91.2548 145.674 91.1801 145.41 91.0882L145.244 91.3122L143.9 90.7264L143.946 90.4508C143.693 90.313 143.452 90.1637 143.216 90.0029L142.992 90.1694L141.855 89.2448L141.976 88.9921C141.769 88.7911 141.58 88.5844 141.39 88.3662L141.126 88.4695L140.282 87.2693L140.466 87.0568C140.322 86.8099 140.19 86.5572 140.069 86.2988L139.788 86.3275L139.3 84.9492L139.535 84.7999C139.466 84.5243 139.409 84.2429 139.363 83.9615L139.082 83.927Z" fill="#14191E"/>
</g>
<path d="M148.069 80.7455C148.069 80.8374 148.144 80.912 148.235 80.912C148.327 80.912 148.402 80.8374 148.402 80.7455C148.402 80.6536 148.327 80.579 148.235 80.579C148.144 80.579 148.069 80.6536 148.069 80.7455Z" fill="#22272B"/>
<g opacity="0.5">
<path d="M148.098 80.6478C148.098 80.6536 148.098 80.6593 148.098 80.6708C148.098 80.7627 148.172 80.8373 148.264 80.8373C148.322 80.8373 148.373 80.8086 148.402 80.7684C148.39 80.8488 148.322 80.9177 148.235 80.9177C148.144 80.9177 148.069 80.8431 148.069 80.7512C148.069 80.711 148.08 80.6765 148.098 80.6478Z" fill="#22272B"/>
</g>
<path d="M148.827 80.8374C148.787 80.9236 148.827 81.0212 148.913 81.0556C148.999 81.0958 149.097 81.0556 149.131 80.9695C149.171 80.8833 149.131 80.7857 149.045 80.7513C148.959 80.7111 148.861 80.7513 148.827 80.8374Z" fill="#22272B"/>
<g opacity="0.5">
<path d="M148.89 80.757C148.884 80.7628 148.884 80.7685 148.879 80.7742C148.838 80.8604 148.879 80.958 148.965 80.9925C149.017 81.0154 149.074 81.0097 149.12 80.981C149.08 81.0499 148.988 81.0844 148.907 81.0499C148.821 81.0097 148.787 80.9121 148.821 80.8317C148.839 80.803 148.861 80.7742 148.89 80.757Z" fill="#22272B"/>
</g>
<path d="M149.482 81.228C149.413 81.2911 149.408 81.3945 149.471 81.4634C149.534 81.5323 149.637 81.5381 149.706 81.4749C149.775 81.4117 149.781 81.3084 149.718 81.2394C149.655 81.1705 149.551 81.1648 149.482 81.228Z" fill="#22272B"/>
<g opacity="0.5">
<path d="M149.574 81.182C149.568 81.1877 149.563 81.1878 149.557 81.1935C149.488 81.2567 149.482 81.36 149.545 81.429C149.586 81.4692 149.637 81.4864 149.689 81.4806C149.62 81.5266 149.528 81.5208 149.471 81.4577C149.408 81.3888 149.413 81.2854 149.482 81.2222C149.505 81.1992 149.54 81.1877 149.574 81.182Z" fill="#22272B"/>
</g>
<path d="M149.918 81.8481C149.832 81.8768 149.78 81.9687 149.809 82.0606C149.837 82.1467 149.929 82.1984 150.021 82.1697C150.107 82.141 150.159 82.0491 150.13 81.9572C150.102 81.8653 150.01 81.8194 149.918 81.8481Z" fill="#22272B"/>
<g opacity="0.5">
<path d="M150.021 81.8481C150.016 81.8481 150.01 81.8481 150.004 81.8538C149.918 81.8826 149.866 81.9744 149.895 82.0663C149.912 82.118 149.953 82.1582 150.004 82.1754C149.924 82.1927 149.838 82.1467 149.815 82.0663C149.786 81.9802 149.832 81.8826 149.924 81.8538C149.952 81.8366 149.987 81.8366 150.021 81.8481Z" fill="#22272B"/>
</g>
<path d="M150.067 82.5948C149.975 82.5833 149.895 82.6522 149.884 82.7441C149.872 82.8359 149.941 82.9163 150.033 82.9278C150.125 82.9393 150.205 82.8704 150.217 82.7785C150.228 82.6866 150.159 82.6062 150.067 82.5948Z" fill="#22272B"/>
<g opacity="0.5">
<path d="M150.16 82.6349C150.154 82.6349 150.148 82.6292 150.142 82.6292C150.051 82.6177 149.97 82.6866 149.959 82.7785C149.953 82.8359 149.976 82.8876 150.016 82.9221C149.936 82.9049 149.878 82.8302 149.89 82.7441C149.901 82.6522 149.982 82.5833 150.073 82.5948C150.108 82.6005 150.137 82.6177 150.16 82.6349Z" fill="#22272B"/>
</g>
<path d="M149.901 83.3413C149.82 83.2953 149.717 83.324 149.671 83.4044C149.625 83.4848 149.654 83.5882 149.734 83.6341C149.814 83.6801 149.918 83.6514 149.964 83.571C150.01 83.4906 149.981 83.3872 149.901 83.3413Z" fill="#22272B"/>
<g opacity="0.5">
<path d="M149.97 83.4159C149.964 83.4102 149.958 83.4102 149.953 83.4044C149.872 83.3585 149.769 83.3872 149.723 83.4676C149.694 83.5193 149.694 83.571 149.717 83.6227C149.648 83.571 149.631 83.4791 149.671 83.4044C149.717 83.324 149.821 83.2953 149.901 83.3413C149.93 83.3585 149.953 83.3872 149.97 83.4159Z" fill="#22272B"/>
</g>
<path d="M149.441 83.95C149.39 83.8753 149.281 83.8581 149.206 83.9155C149.131 83.9672 149.114 84.0763 149.171 84.151C149.223 84.2256 149.332 84.2429 149.407 84.1854C149.482 84.128 149.499 84.0246 149.441 83.95Z" fill="#22272B"/>
<g opacity="0.5">
<path d="M149.476 84.0476C149.47 84.0419 149.47 84.0361 149.464 84.0304C149.413 83.9557 149.304 83.9385 149.229 83.9959C149.183 84.0304 149.16 84.082 149.16 84.1337C149.12 84.0591 149.137 83.9672 149.206 83.9155C149.281 83.8638 149.384 83.8753 149.442 83.95C149.465 83.9787 149.476 84.0131 149.476 84.0476Z" fill="#22272B"/>
</g>
<path d="M148.782 84.3233C148.764 84.2314 148.673 84.174 148.581 84.197C148.489 84.2142 148.431 84.3061 148.454 84.398C148.477 84.4898 148.563 84.5473 148.655 84.5243C148.741 84.5013 148.799 84.4152 148.782 84.3233Z" fill="#22272B"/>
<g opacity="0.5">
<path d="M148.77 84.4266C148.77 84.4209 148.77 84.4151 148.77 84.4037C148.753 84.3118 148.661 84.2543 148.569 84.2773C148.512 84.2888 148.472 84.329 148.449 84.3749C148.443 84.2945 148.495 84.2141 148.581 84.1969C148.673 84.1797 148.759 84.2371 148.782 84.3232C148.788 84.3577 148.782 84.3922 148.77 84.4266Z" fill="#22272B"/>
</g>
<path d="M148.018 84.3923C148.035 84.3004 147.978 84.2143 147.891 84.1913C147.8 84.1741 147.714 84.2315 147.691 84.3176C147.673 84.4095 147.731 84.4956 147.817 84.5186C147.909 84.5416 148.001 84.4842 148.018 84.3923Z" fill="#22272B"/>
<g opacity="0.5">
<path d="M147.972 84.4784C147.972 84.4726 147.978 84.4669 147.978 84.4611C147.995 84.3692 147.938 84.2831 147.851 84.2601C147.794 84.2486 147.742 84.2659 147.702 84.3003C147.731 84.2199 147.811 84.174 147.892 84.1912C147.983 84.2085 148.041 84.3003 148.018 84.3922C148.012 84.4267 147.995 84.4611 147.972 84.4784Z" fill="#22272B"/>
</g>
<path d="M147.293 84.1452C147.344 84.0705 147.333 83.9671 147.258 83.9097C147.184 83.858 147.08 83.8695 147.023 83.9442C146.971 84.0188 146.983 84.1222 147.057 84.1796C147.138 84.237 147.241 84.2256 147.293 84.1452Z" fill="#22272B"/>
<g opacity="0.5">
<path d="M147.212 84.2083C147.218 84.2026 147.224 84.1968 147.224 84.1911C147.275 84.1164 147.264 84.0131 147.189 83.9556C147.143 83.9212 147.086 83.9154 147.034 83.9327C147.092 83.8695 147.184 83.858 147.252 83.9097C147.327 83.9614 147.344 84.0705 147.287 84.1451C147.275 84.1796 147.247 84.1968 147.212 84.2083Z" fill="#22272B"/>
</g>
<path d="M146.736 83.6284C146.817 83.5825 146.846 83.4791 146.8 83.3987C146.754 83.3183 146.65 83.2896 146.57 83.3355C146.49 83.3815 146.461 83.4848 146.507 83.5652C146.553 83.6514 146.656 83.6743 146.736 83.6284Z" fill="#22272B"/>
<g opacity="0.5">
<path d="M146.639 83.6514C146.645 83.6514 146.651 83.6456 146.656 83.6456C146.737 83.5997 146.765 83.4963 146.719 83.4159C146.691 83.3642 146.639 83.3355 146.587 83.3355C146.662 83.3011 146.754 83.3298 146.8 83.4044C146.846 83.4848 146.817 83.5882 146.737 83.6341C146.708 83.6456 146.674 83.6571 146.639 83.6514Z" fill="#22272B"/>
</g>
<path d="M146.438 82.9278C146.53 82.9163 146.599 82.8359 146.587 82.7441C146.576 82.6522 146.495 82.5833 146.403 82.5948C146.312 82.6062 146.243 82.6866 146.254 82.7785C146.26 82.8704 146.346 82.9393 146.438 82.9278Z" fill="#22272B"/>
<g opacity="0.5">
<path d="M146.334 82.9106C146.34 82.9106 146.346 82.9106 146.357 82.9106C146.449 82.8991 146.518 82.8187 146.507 82.7268C146.501 82.6694 146.467 82.6234 146.421 82.6005C146.507 82.6005 146.576 82.6636 146.581 82.7498C146.593 82.8417 146.524 82.9221 146.432 82.9336C146.398 82.9336 146.363 82.9221 146.334 82.9106Z" fill="#22272B"/>
</g>
<path d="M146.444 82.164C146.53 82.1927 146.628 82.1468 146.656 82.0549C146.685 81.9688 146.639 81.8711 146.547 81.8424C146.461 81.8137 146.363 81.8596 146.335 81.9515C146.306 82.0434 146.358 82.1353 146.444 82.164Z" fill="#22272B"/>
<g opacity="0.5">
<path d="M146.363 82.1066C146.369 82.1124 146.375 82.1124 146.381 82.1124C146.467 82.1411 146.564 82.0951 146.593 82.0033C146.61 81.9516 146.599 81.8941 146.57 81.8539C146.645 81.8884 146.685 81.9745 146.656 82.0549C146.627 82.1411 146.536 82.1928 146.444 82.1641C146.409 82.1526 146.386 82.1353 146.363 82.1066Z" fill="#22272B"/>
</g>
<path d="M146.764 81.4749C146.833 81.5381 146.937 81.5323 147 81.4634C147.063 81.3945 147.057 81.2911 146.989 81.228C146.92 81.1648 146.816 81.1705 146.753 81.2394C146.69 81.3084 146.696 81.4117 146.764 81.4749Z" fill="#22272B"/>
<g opacity="0.5">
<path d="M146.713 81.3887C146.719 81.3945 146.719 81.4002 146.725 81.406C146.794 81.4691 146.897 81.4634 146.96 81.3945C147 81.3543 147.012 81.2969 147.001 81.2452C147.058 81.3083 147.058 81.4002 147.001 81.4691C146.937 81.538 146.834 81.5438 146.765 81.4806C146.736 81.4519 146.719 81.4175 146.713 81.3887Z" fill="#22272B"/>
</g>
<path d="M147.339 80.9695C147.38 81.0557 147.477 81.0901 147.558 81.0557C147.638 81.0212 147.678 80.9179 147.644 80.8375C147.604 80.7513 147.506 80.7168 147.426 80.7513C147.339 80.7858 147.299 80.8891 147.339 80.9695Z" fill="#22272B"/>
<g opacity="0.5">
<path d="M147.328 80.8719C147.328 80.8776 147.334 80.8834 147.334 80.8891C147.374 80.9753 147.472 81.0097 147.552 80.9753C147.604 80.9523 147.638 80.9064 147.65 80.8547C147.673 80.9351 147.638 81.0212 147.558 81.0557C147.472 81.0959 147.374 81.0557 147.34 80.9695C147.322 80.9408 147.322 80.9006 147.328 80.8719Z" fill="#22272B"/>
</g>
<path d="M159.188 83.927L159.09 82.4626L159.36 82.3765C159.365 82.0893 159.383 81.8022 159.417 81.5265L159.165 81.4059L159.463 79.9703L159.745 79.9588C159.825 79.6831 159.923 79.4132 160.032 79.1548L159.819 78.971L160.491 77.6674L160.767 77.7363C160.922 77.4951 161.083 77.2654 161.261 77.0415L161.106 76.806L162.105 75.7321L162.352 75.8699C162.564 75.6804 162.782 75.5024 163.012 75.3301L162.926 75.0602L164.178 74.2964L164.373 74.4974C164.626 74.3711 164.89 74.2563 165.16 74.1586L165.148 73.8772L166.561 73.481L166.699 73.7279C166.975 73.6762 167.262 73.636 167.543 73.6131L167.612 73.3374H169.077L169.145 73.6131C169.432 73.636 169.714 73.6762 169.99 73.7279L170.127 73.481L171.54 73.8772L171.529 74.1586C171.799 74.262 172.057 74.3711 172.315 74.4974L172.511 74.2964L173.763 75.0602L173.676 75.3301C173.906 75.5024 174.124 75.6804 174.337 75.8699L174.584 75.7321L175.583 76.806L175.428 77.0415C175.6 77.2654 175.767 77.5009 175.922 77.7363L176.197 77.6674L176.869 78.971L176.657 79.1548C176.766 79.419 176.864 79.6889 176.944 79.9588L177.225 79.9703L177.524 81.4059L177.271 81.5265C177.306 81.8079 177.323 82.0893 177.329 82.3765L177.599 82.4626L177.501 83.927L177.225 83.9729C177.179 84.2543 177.122 84.5357 177.053 84.8114L177.283 84.9607L176.795 86.3389L176.513 86.3102C176.393 86.5687 176.261 86.8213 176.117 87.0683L176.301 87.2807L175.457 88.481L175.192 88.3776C175.009 88.5958 174.813 88.8026 174.612 89.0036L174.733 89.2562L173.596 90.1808L173.372 90.0143C173.137 90.1751 172.89 90.3244 172.643 90.4622L172.689 90.7379L171.345 91.3236L171.178 91.0997C170.908 91.1916 170.633 91.2662 170.357 91.3294L170.328 91.6108L168.875 91.8118L168.772 91.5476C168.629 91.5533 168.491 91.5591 168.347 91.5591C168.204 91.5591 168.06 91.5533 167.922 91.5476L167.819 91.8118L166.366 91.6108L166.337 91.3294C166.056 91.2662 165.78 91.1858 165.516 91.0997L165.349 91.3236L164.006 90.7379L164.052 90.4622C163.799 90.3244 163.558 90.1751 163.322 90.0143L163.098 90.1808L161.961 89.2562L162.082 89.0036C161.875 88.8026 161.686 88.5958 161.496 88.3776L161.232 88.481L160.388 87.2807L160.572 87.0683C160.428 86.8213 160.296 86.5687 160.175 86.3102L159.894 86.3389L159.406 84.9607L159.641 84.8114C159.572 84.5357 159.515 84.2543 159.469 83.9729L159.188 83.927Z" fill="#232C33"/>
<g opacity="0.4">
<path d="M168.342 87.1085C170.847 87.1085 172.878 85.0774 172.878 82.5718C172.878 80.0662 170.847 78.035 168.342 78.035C165.836 78.035 163.805 80.0662 163.805 82.5718C163.805 85.0774 165.836 87.1085 168.342 87.1085Z" fill="#14191E"/>
</g>
<path d="M164.206 82.5718C164.206 84.8574 166.055 86.7065 168.341 86.7065C170.626 86.7065 172.476 84.8574 172.476 82.5718C172.476 80.2862 170.626 78.437 168.341 78.437C166.055 78.437 164.206 80.2862 164.206 82.5718Z" fill="#686A6B"/>
<path d="M166.062 82.5717C166.062 83.8294 167.084 84.8516 168.341 84.8516C169.599 84.8516 170.621 83.8294 170.621 82.5717C170.621 81.3141 169.599 80.2919 168.341 80.2919C167.084 80.2919 166.062 81.3141 166.062 82.5717Z" fill="#31393F"/>
<g opacity="0.2">
<path d="M165.286 79.7865C165.177 80.154 165.119 80.5445 165.119 80.9465C165.119 83.2321 166.968 85.0813 169.254 85.0813C170.466 85.0813 171.557 84.5587 172.315 83.7317C171.815 85.4546 170.224 86.7122 168.341 86.7122C166.055 86.7122 164.206 84.8631 164.206 82.5775C164.206 81.4978 164.614 80.5216 165.286 79.7865Z" fill="#14191E"/>
</g>
<g opacity="0.2">
<path d="M177.209 84.9205L177.278 84.9664L177.151 85.3225L177.123 85.3052C177.157 85.1732 177.186 85.0468 177.209 84.9205Z" fill="#14191E"/>
<path d="M177.381 82.3937L177.599 82.4626L177.57 82.9163L177.409 82.8646C177.398 82.7095 177.392 82.5487 177.381 82.3937Z" fill="#14191E"/>
<path d="M160.1 79.6429C159.991 79.9071 159.899 80.177 159.813 80.4469L159.531 80.4584L159.319 81.4806L159.158 81.4059L159.457 79.9703L159.738 79.9588C159.79 79.7922 159.847 79.6314 159.905 79.4706L160.1 79.6429Z" fill="#14191E"/>
<path d="M175.44 77.0528L174.659 76.2201L174.412 76.358C174.2 76.1685 173.981 75.9847 173.752 75.8181L173.838 75.5482L172.586 74.7845L172.391 74.9855C172.138 74.8591 171.874 74.7442 171.604 74.6466L171.615 74.3652L170.203 73.969L170.065 74.2159C169.789 74.1642 169.502 74.124 169.221 74.1011L169.152 73.8254H167.687L167.618 74.1011C167.331 74.124 167.05 74.1642 166.774 74.2159L166.636 73.969L165.224 74.3652L165.235 74.6466C164.965 74.75 164.707 74.8591 164.448 74.9855L164.253 74.7845L163.001 75.5482L163.087 75.8181C162.858 75.9904 162.639 76.1685 162.427 76.358L162.18 76.2201L161.181 77.294L161.336 77.5295C161.164 77.7534 160.997 77.9889 160.842 78.2243L160.566 78.1554L159.963 79.3155C159.986 79.2638 160.004 79.2063 160.027 79.1547L159.814 78.9709L160.486 77.6673L160.762 77.7362C160.917 77.495 161.077 77.2653 161.255 77.0413L161.1 76.8059L162.1 75.732L162.347 75.8698C162.559 75.6803 162.777 75.5023 163.007 75.33L162.921 75.0601L164.173 74.2963L164.368 74.4973C164.621 74.371 164.885 74.2561 165.155 74.1585L165.143 73.8771L166.556 73.4808L166.694 73.7278C166.969 73.6761 167.257 73.6359 167.538 73.6129L167.607 73.3373H169.071L169.14 73.6129C169.427 73.6359 169.709 73.6761 169.984 73.7278L170.122 73.4808L171.535 73.8771L171.523 74.1585C171.793 74.2619 172.052 74.371 172.31 74.4973L172.505 74.2963L173.757 75.0601L173.671 75.33C173.901 75.5023 174.119 75.6803 174.332 75.8698L174.578 75.732L175.578 76.8059L175.423 77.0413C175.434 77.0471 175.434 77.0528 175.44 77.0528Z" fill="#14191E"/>
<path d="M160.647 87.5622L160.612 87.6024L160.388 87.2865L160.457 87.2119C160.515 87.3267 160.578 87.4473 160.647 87.5622Z" fill="#14191E"/>
<path d="M159.36 82.3764C159.36 82.2329 159.372 82.095 159.377 81.9572L159.492 82.0089C159.458 82.2903 159.441 82.5717 159.435 82.8588L159.165 82.945L159.234 83.927L159.188 83.9212L159.09 82.4568L159.36 82.3764Z" fill="#14191E"/>
<path d="M159.715 85.2994L159.56 85.4028L159.405 84.9664L159.606 84.8343C159.641 84.9893 159.675 85.1444 159.715 85.2994Z" fill="#14191E"/>
<path d="M176.272 78.1555L175.996 78.2244C175.841 77.9832 175.68 77.7535 175.502 77.5296L175.634 77.3286C175.732 77.4664 175.829 77.6042 175.915 77.742L176.191 77.6731L176.863 78.9767L176.742 79.0801L176.272 78.1555Z" fill="#14191E"/>
<path d="M177.3 80.4582L177.019 80.4467C176.939 80.1711 176.841 79.9012 176.732 79.6428L176.812 79.5739C176.858 79.7002 176.904 79.8323 176.939 79.9644L177.22 79.9759L177.519 81.4115L177.496 81.423L177.3 80.4582Z" fill="#14191E"/>
</g>
<g opacity="0.4">
<path d="M175.56 88.3375L175.457 88.4868L175.261 88.4122C175.359 88.3835 175.462 88.3605 175.56 88.3375Z" fill="#14191E"/>
<path d="M159.188 83.9272L159.09 82.4628L159.36 82.3767C159.366 82.0896 159.383 81.8024 159.418 81.5268L159.165 81.4062L159.464 79.9705L159.745 79.959C159.825 79.6833 159.923 79.4134 160.032 79.155L159.82 78.9713L160.492 77.6677L160.767 77.7366C160.922 77.4954 161.083 77.2657 161.261 77.0417L161.106 76.8062L162.105 75.7324L162.352 75.8702C162.565 75.6807 162.783 75.5026 163.013 75.3304L162.927 75.0605L163.397 74.7733C162.369 76.1688 161.778 77.817 161.778 79.58C161.778 84.6106 166.602 88.6879 172.557 88.6879C173.453 88.6879 174.32 88.5961 175.153 88.418C174.98 88.619 174.802 88.8085 174.613 88.9923L174.734 89.245L173.596 90.1696L173.373 90.003C173.137 90.1638 172.89 90.3131 172.643 90.451L172.689 90.7266L171.345 91.3124L171.179 91.0884C170.909 91.1803 170.633 91.255 170.358 91.3181L170.329 91.5995L168.876 91.8005L168.773 91.5363C168.629 91.5421 168.491 91.5478 168.348 91.5478C168.204 91.5478 168.061 91.5421 167.923 91.5363L167.819 91.8005L166.366 91.5995L166.338 91.3181C166.056 91.255 165.781 91.1803 165.517 91.0884L165.35 91.3124L164.006 90.7266L164.052 90.451C163.799 90.3131 163.558 90.1638 163.323 90.003L163.099 90.1696L161.962 89.245L162.082 88.9923C161.876 88.7913 161.686 88.5846 161.497 88.3664L161.232 88.4697L160.388 87.2695L160.572 87.057C160.428 86.8101 160.296 86.5574 160.176 86.299L159.894 86.3277L159.406 84.9494L159.642 84.8001C159.573 84.5245 159.515 84.2431 159.469 83.9617L159.188 83.9272Z" fill="#14191E"/>
</g>
<path d="M168.175 80.7455C168.175 80.8374 168.249 80.912 168.341 80.912C168.433 80.912 168.508 80.8374 168.508 80.7455C168.508 80.6536 168.433 80.579 168.341 80.579C168.249 80.579 168.175 80.6536 168.175 80.7455Z" fill="#22272B"/>
<g opacity="0.5">
<path d="M168.204 80.6478C168.204 80.6536 168.204 80.6593 168.204 80.6708C168.204 80.7627 168.278 80.8373 168.37 80.8373C168.428 80.8373 168.479 80.8086 168.508 80.7684C168.496 80.8488 168.428 80.9177 168.341 80.9177C168.249 80.9177 168.175 80.8431 168.175 80.7512C168.175 80.711 168.186 80.6765 168.204 80.6478Z" fill="#22272B"/>
</g>
<path d="M168.933 80.8374C168.892 80.9236 168.933 81.0212 169.019 81.0556C169.105 81.0958 169.203 81.0556 169.237 80.9695C169.277 80.8833 169.237 80.7857 169.151 80.7513C169.07 80.7111 168.973 80.7513 168.933 80.8374Z" fill="#22272B"/>
<g opacity="0.5">
<path d="M169.001 80.757C168.996 80.7628 168.996 80.7685 168.99 80.7742C168.95 80.8604 168.99 80.958 169.076 80.9925C169.128 81.0154 169.185 81.0097 169.231 80.981C169.191 81.0499 169.099 81.0844 169.019 81.0499C168.933 81.0097 168.898 80.9121 168.933 80.8317C168.95 80.803 168.973 80.7742 169.001 80.757Z" fill="#22272B"/>
</g>
<path d="M169.587 81.228C169.518 81.2911 169.513 81.3945 169.576 81.4634C169.639 81.5323 169.742 81.5381 169.811 81.4749C169.88 81.4117 169.886 81.3084 169.823 81.2394C169.76 81.1705 169.656 81.1648 169.587 81.228Z" fill="#22272B"/>
<g opacity="0.5">
<path d="M169.679 81.182C169.673 81.1877 169.668 81.1878 169.662 81.1935C169.593 81.2567 169.587 81.36 169.65 81.429C169.691 81.4692 169.742 81.4864 169.794 81.4806C169.725 81.5266 169.633 81.5208 169.576 81.4577C169.513 81.3888 169.518 81.2854 169.587 81.2222C169.616 81.1992 169.645 81.1877 169.679 81.182Z" fill="#22272B"/>
</g>
<path d="M170.029 81.8481C169.943 81.8768 169.891 81.9687 169.92 82.0606C169.949 82.1467 170.041 82.1984 170.132 82.1697C170.219 82.141 170.27 82.0491 170.242 81.9572C170.207 81.8653 170.115 81.8194 170.029 81.8481Z" fill="#22272B"/>
<g opacity="0.5">
<path d="M170.127 81.8481C170.122 81.8481 170.116 81.8481 170.11 81.8538C170.024 81.8826 169.972 81.9744 170.001 82.0663C170.018 82.118 170.058 82.1582 170.11 82.1754C170.03 82.1927 169.944 82.1467 169.921 82.0663C169.892 81.9802 169.938 81.8826 170.03 81.8538C170.064 81.8366 170.099 81.8366 170.127 81.8481Z" fill="#22272B"/>
</g>
<path d="M170.179 82.5948C170.087 82.5833 170.007 82.6522 169.995 82.7441C169.984 82.8359 170.053 82.9163 170.145 82.9278C170.237 82.9393 170.317 82.8704 170.329 82.7785C170.334 82.6866 170.271 82.6062 170.179 82.5948Z" fill="#22272B"/>
<g opacity="0.5">
<path d="M170.271 82.6349C170.265 82.6349 170.26 82.6292 170.254 82.6292C170.162 82.6177 170.081 82.6866 170.07 82.7785C170.064 82.8359 170.087 82.8876 170.127 82.9221C170.047 82.9049 169.989 82.8302 170.001 82.7441C170.012 82.6522 170.093 82.5833 170.185 82.5948C170.213 82.6005 170.242 82.6177 170.271 82.6349Z" fill="#22272B"/>
</g>
<path d="M170.006 83.3413C169.926 83.2953 169.823 83.324 169.777 83.4044C169.731 83.4848 169.76 83.5882 169.84 83.6341C169.92 83.6801 170.024 83.6514 170.07 83.571C170.116 83.4906 170.087 83.3872 170.006 83.3413Z" fill="#22272B"/>
<g opacity="0.5">
<path d="M170.076 83.4159C170.07 83.4102 170.064 83.4102 170.059 83.4044C169.978 83.3585 169.875 83.3872 169.829 83.4676C169.8 83.5193 169.8 83.571 169.823 83.6227C169.754 83.571 169.737 83.4791 169.777 83.4044C169.823 83.324 169.926 83.2953 170.007 83.3413C170.041 83.3585 170.064 83.3872 170.076 83.4159Z" fill="#22272B"/>
</g>
<path d="M169.553 83.95C169.501 83.8753 169.392 83.8581 169.318 83.9155C169.243 83.9672 169.226 84.0763 169.283 84.151C169.341 84.2256 169.444 84.2429 169.519 84.1854C169.588 84.128 169.605 84.0246 169.553 83.95Z" fill="#22272B"/>
<g opacity="0.5">
<path d="M169.581 84.0476C169.576 84.0419 169.576 84.0361 169.57 84.0304C169.518 83.9557 169.409 83.9385 169.334 83.9959C169.289 84.0304 169.265 84.082 169.265 84.1337C169.225 84.0591 169.243 83.9672 169.311 83.9155C169.386 83.8638 169.489 83.8753 169.547 83.95C169.57 83.9787 169.581 84.0131 169.581 84.0476Z" fill="#22272B"/>
</g>
<path d="M168.887 84.3233C168.87 84.2314 168.778 84.174 168.686 84.197C168.594 84.2142 168.537 84.3061 168.56 84.398C168.583 84.4898 168.669 84.5473 168.761 84.5243C168.847 84.5013 168.904 84.4152 168.887 84.3233Z" fill="#22272B"/>
<g opacity="0.5">
<path d="M168.875 84.4267C168.875 84.4209 168.875 84.4152 168.875 84.4037C168.858 84.3118 168.766 84.2544 168.674 84.2774C168.617 84.2889 168.577 84.329 168.554 84.375C168.548 84.2946 168.6 84.2142 168.686 84.197C168.778 84.1797 168.864 84.2372 168.887 84.3233C168.893 84.3578 168.887 84.3922 168.875 84.4267Z" fill="#22272B"/>
</g>
<path d="M168.129 84.3922C168.146 84.3003 168.088 84.2142 168.002 84.1912C167.91 84.174 167.824 84.2314 167.801 84.3176C167.784 84.4095 167.842 84.4956 167.928 84.5185C168.02 84.5415 168.106 84.4841 168.129 84.3922Z" fill="#22272B"/>
<g opacity="0.5">
<path d="M168.077 84.4784C168.077 84.4726 168.083 84.4669 168.083 84.4611C168.1 84.3692 168.043 84.2831 167.956 84.2601C167.899 84.2486 167.847 84.2659 167.807 84.3003C167.836 84.2199 167.916 84.174 167.997 84.1912C168.088 84.2085 168.146 84.3003 168.123 84.3922C168.117 84.4267 168.1 84.4611 168.077 84.4784Z" fill="#22272B"/>
</g>
<path d="M167.405 84.1452C167.457 84.0705 167.445 83.9671 167.371 83.9097C167.296 83.858 167.193 83.8695 167.135 83.9442C167.084 84.0188 167.095 84.1222 167.17 84.1796C167.244 84.237 167.348 84.2256 167.405 84.1452Z" fill="#22272B"/>
<g opacity="0.5">
<path d="M167.325 84.2083C167.33 84.2026 167.336 84.1968 167.336 84.1911C167.388 84.1164 167.376 84.0131 167.302 83.9556C167.256 83.9212 167.198 83.9154 167.146 83.9327C167.204 83.8695 167.296 83.858 167.365 83.9097C167.439 83.9614 167.457 84.0705 167.399 84.1451C167.382 84.1796 167.353 84.1968 167.325 84.2083Z" fill="#22272B"/>
</g>
<path d="M166.842 83.6284C166.923 83.5825 166.952 83.4791 166.906 83.3987C166.86 83.3183 166.756 83.2896 166.676 83.3355C166.595 83.3815 166.567 83.4848 166.613 83.5652C166.659 83.6514 166.762 83.6743 166.842 83.6284Z" fill="#22272B"/>
<g opacity="0.5">
<path d="M166.745 83.6514C166.75 83.6514 166.756 83.6457 166.762 83.6457C166.842 83.5997 166.871 83.4964 166.825 83.416C166.796 83.3643 166.745 83.3356 166.693 83.3356C166.768 83.3011 166.859 83.3298 166.905 83.4045C166.951 83.4849 166.923 83.5883 166.842 83.6342C166.813 83.6457 166.779 83.6572 166.745 83.6514Z" fill="#22272B"/>
</g>
<path d="M166.543 82.9278C166.635 82.9163 166.704 82.8359 166.693 82.7441C166.681 82.6522 166.601 82.5833 166.509 82.5948C166.417 82.6062 166.348 82.6866 166.36 82.7785C166.371 82.8704 166.451 82.9393 166.543 82.9278Z" fill="#22272B"/>
<g opacity="0.5">
<path d="M166.446 82.9106C166.452 82.9106 166.458 82.9106 166.469 82.9106C166.561 82.8991 166.63 82.8187 166.619 82.7268C166.613 82.6694 166.578 82.6234 166.532 82.6005C166.619 82.6005 166.687 82.6636 166.693 82.7498C166.705 82.8417 166.636 82.9221 166.544 82.9336C166.509 82.9336 166.475 82.9221 166.446 82.9106Z" fill="#22272B"/>
</g>
<path d="M166.555 82.164C166.641 82.1927 166.739 82.1468 166.768 82.0549C166.796 81.9688 166.75 81.8711 166.659 81.8424C166.572 81.8137 166.475 81.8596 166.446 81.9515C166.417 82.0434 166.463 82.1353 166.555 82.164Z" fill="#22272B"/>
<g opacity="0.5">
<path d="M166.469 82.1066C166.475 82.1124 166.481 82.1124 166.486 82.1124C166.573 82.1411 166.67 82.0951 166.699 82.0033C166.716 81.9516 166.705 81.8941 166.676 81.8539C166.751 81.8884 166.791 81.9745 166.762 82.0549C166.733 82.1411 166.641 82.1928 166.55 82.1641C166.521 82.1526 166.492 82.1353 166.469 82.1066Z" fill="#22272B"/>
</g>
<path d="M166.871 81.4749C166.94 81.5381 167.043 81.5323 167.106 81.4634C167.169 81.3945 167.164 81.2911 167.095 81.228C167.026 81.1648 166.923 81.1705 166.859 81.2394C166.796 81.3084 166.802 81.4117 166.871 81.4749Z" fill="#22272B"/>
<g opacity="0.5">
<path d="M166.819 81.3887C166.825 81.3944 166.825 81.4002 166.831 81.4059C166.9 81.4691 167.003 81.4633 167.066 81.3944C167.107 81.3542 167.118 81.2968 167.106 81.2451C167.164 81.3083 167.164 81.4002 167.106 81.4691C167.043 81.538 166.94 81.5437 166.871 81.4806C166.848 81.4519 166.831 81.4174 166.819 81.3887Z" fill="#22272B"/>
</g>
<path d="M167.445 80.9694C167.485 81.0555 167.583 81.09 167.663 81.0555C167.749 81.0153 167.784 80.9177 167.749 80.8373C167.709 80.7512 167.612 80.7167 167.531 80.7512C167.451 80.7856 167.411 80.889 167.445 80.9694Z" fill="#22272B"/>
<g opacity="0.5">
<path d="M167.434 80.8718C167.434 80.8776 167.44 80.8833 167.44 80.8891C167.48 80.9752 167.578 81.0097 167.658 80.9752C167.71 80.9522 167.744 80.9063 167.756 80.8546C167.778 80.935 167.744 81.0211 167.664 81.0556C167.578 81.0958 167.48 81.0556 167.445 80.9695C167.434 80.9407 167.428 80.9006 167.434 80.8718Z" fill="#22272B"/>
</g>
<path d="M52.3664 78.4371C52.0046 78.4371 51.6829 78.6553 51.5566 78.9941C51.1948 79.9474 50.5 81.8196 50.5 82.1297V85.5868C50.5 86.3161 51.1661 86.9076 51.993 86.9076H67.0677V84.0477H67.8775V78.506L52.3664 78.4371Z" fill="white"/>
<g opacity="0.4">
<path d="M55.41 49.8957C55.41 49.8957 55.3928 77.0473 55.41 77.3976V49.8957Z" fill="#4D4D4D"/>
<path d="M55.2201 77.4092C55.2028 77.0646 55.2201 51.0098 55.2201 49.9015H55.599C55.599 50.1714 55.5818 77.0244 55.599 77.3919L55.2201 77.4092Z" fill="#4D4D4D"/>
</g>
<path d="M57.8388 59.377L71.8165 57.0569C72.3276 56.9708 72.8444 56.9478 73.3613 56.9708C74.2227 57.011 75.5665 56.988 76.7093 56.9478C77.8694 56.9133 78.794 55.96 78.794 54.7943V46.7545C78.794 46.1113 78.1106 45.5887 77.2664 45.5887H61.1351C59.4296 45.5887 56.4202 55.3283 56.4202 55.3283C55.8689 56.4309 56.4663 59.377 57.8388 59.377Z" fill="#333333"/>
<path d="M57.5516 60.4138H59.751V59.3801H57.5516V60.4138Z" fill="#1A1A1A"/>
<path d="M78.0595 64.1146H74.2463C74.0797 64.1146 73.9419 63.9768 73.9419 63.8103V63.3106C74.3669 62.8857 74.6024 62.6502 75.0273 62.2253H77.9905C78.2088 62.2253 78.3868 62.4033 78.3868 62.6215V63.7816C78.3925 63.9653 78.2433 64.1146 78.0595 64.1146Z" fill="black"/>
<path d="M78.0594 64.241H74.2461C74.0107 64.241 73.8154 64.0515 73.8154 63.8103V63.259L74.9755 62.099H77.9904C78.2775 62.099 78.5131 62.3345 78.5131 62.6216V63.7816C78.5188 64.0343 78.3121 64.241 78.0594 64.241ZM74.0738 63.3624V63.8103C74.0738 63.9079 74.1543 63.9883 74.2519 63.9883H78.0651C78.18 63.9883 78.2718 63.8965 78.2718 63.7816V62.6216C78.2718 62.4723 78.1512 62.3517 78.0019 62.3517H75.0903L74.0738 63.3624Z" fill="#666666"/>
<path d="M53.8938 71.2242L51.0914 71.2874L50.8961 67.032C50.8617 66.3199 51.6484 65.7226 52.6534 65.6997L53.7502 65.6767C54.3245 65.6652 54.8012 65.9811 54.8184 66.3888L55.0021 70.38C55.0193 70.8337 54.5255 71.2069 53.8938 71.2242Z" fill="#979797"/>
<g opacity="0.7">
<path d="M54.8184 66.3888C54.8069 66.0902 54.5427 65.8432 54.1752 65.7341L54.3417 69.3521C54.3647 69.8 53.8651 70.1733 53.2392 70.1905L51.0454 70.2422L51.0914 71.2874L53.8938 71.2242C54.5255 71.2069 55.0193 70.8337 54.9963 70.3857L54.8184 66.3888Z" fill="#979797"/>
</g>
<path d="M58.8096 58.4294L71.6503 56.4309C72.1155 56.3563 72.5921 56.3333 73.0687 56.3563C73.8555 56.3907 75.096 56.3677 76.1412 56.339C77.2093 56.3103 78.0593 55.4834 78.0593 54.4841V47.5526C78.0593 46.9956 77.4332 46.5477 76.6579 46.5477H61.8418C60.2741 46.5477 57.5118 54.9493 57.5118 54.9493C56.9949 55.8853 57.5462 58.4294 58.8096 58.4294Z" fill="#424756"/>
<path d="M59.6775 60.1693C58.6668 60.1693 57.8398 59.2964 57.8398 58.2168V46.2375C57.8398 45.1636 58.6668 44.2849 59.6775 44.2849H60.7686C60.9179 44.2849 61.0384 44.4055 61.0384 44.5548C61.0384 44.7041 60.9179 44.8247 60.7686 44.8247H59.6775C58.9596 44.8247 58.3796 45.4564 58.3796 46.2317V58.2168C58.3796 58.992 58.9596 59.6237 59.6775 59.6237C59.8268 59.6237 59.9474 59.7443 59.9474 59.8937C59.9474 60.0487 59.8268 60.1693 59.6775 60.1693Z" fill="#1A1A1A"/>
<path d="M57.6042 52.187H58.9136C59.2122 52.187 59.4534 51.9458 59.4534 51.6472V46.2663C59.4534 45.9676 59.2122 45.7264 58.9136 45.7264H57.6042C57.3056 45.7264 57.0645 45.9676 57.0645 46.2663V51.6472C57.0645 51.9401 57.3056 52.187 57.6042 52.187Z" fill="#666666"/>
<path d="M57.5925 57.7288H58.9134C59.1431 57.7288 59.3326 57.5393 59.3326 57.3095V53.8926C59.3326 53.6629 59.1431 53.4734 58.9134 53.4734H57.5925C57.3628 53.4734 57.1733 53.6629 57.1733 53.8926V57.3095C57.1791 57.5393 57.3686 57.7288 57.5925 57.7288Z" fill="#666666"/>
<g opacity="0.4">
<path d="M57.3401 45.7896V50.9695C57.3401 51.2796 57.5755 51.5323 57.8626 51.5323H59.2065C59.2926 51.5323 59.3787 51.5036 59.4534 51.4634V51.6299C59.4534 51.94 59.218 52.1927 58.9308 52.1927H57.587C57.2999 52.1927 57.0645 51.94 57.0645 51.6299V46.2892C57.0645 46.071 57.1736 45.8872 57.3401 45.7896Z" fill="#323E47"/>
</g>
<g opacity="0.3">
<path d="M57.3285 53.5825V56.9075C57.3285 57.143 57.5123 57.3382 57.7305 57.3382H59.0801C59.1777 57.3382 59.2638 57.298 59.3327 57.2348V57.298C59.3327 57.5335 59.149 57.7287 58.9308 57.7287H57.5812C57.3572 57.7287 57.1792 57.5335 57.1792 57.298V53.9098C57.1792 53.7777 57.2366 53.6571 57.3285 53.5825Z" fill="#323E47"/>
</g>
<path d="M65.057 85.805H55.4092V74.0611H66.4008V84.4669C66.4008 85.202 65.7978 85.805 65.057 85.805Z" fill="white"/>
<g opacity="0.7">
<path d="M66.4008 79.1663H55.4092V80.0392H66.4008V79.1663Z" fill="#676D70"/>
</g>
<g opacity="0.7">
<path d="M66.4008 83.8468H55.4092V84.7197H66.4008V83.8468Z" fill="#676D70"/>
</g>
<path d="M66.4013 79.6776H55.4097V80.5505H66.4013V79.6776Z" fill="#676D70"/>
<path d="M66.4013 76.5706H55.4097V77.4435H66.4013V76.5706Z" fill="#676D70"/>
<path d="M66.4013 84.3348H55.4097V85.2077H66.4013V84.3348Z" fill="#676D70"/>
<g opacity="0.2">
<path d="M51.2351 79.844C51.1604 80.1139 51.1144 80.3149 51.1144 80.401V84.3118C51.1144 85.133 51.7806 85.8049 52.6075 85.8049H67.0619V86.9018H51.9873C51.9356 86.9018 51.8839 86.9018 51.838 86.8961C51.0857 86.8214 50.5 86.184 50.5 85.4144V82.1296L51.2351 79.844Z" fill="#4D4D4D"/>
<path d="M67.8717 82.5718H67.6821V83.6687H67.8717V82.5718Z" fill="#4D4D4D"/>
</g>
<path d="M89.6657 71.092H80.0581V42.4818H86.6852C88.3334 42.4818 89.6657 43.8141 89.6657 45.4622V71.092Z" fill="white"/>
<g opacity="0.6">
<path d="M89.6661 71.0922V67.5949C89.6661 67.5949 77.4572 67.3594 76.366 67.4915C75.2749 67.6293 74.1779 67.8361 73.0983 68.2381C72.5585 68.4276 72.0244 68.6688 71.5018 68.9444C70.9792 69.2143 70.4682 69.5474 69.9743 69.915C69.7274 70.0987 69.4919 70.3055 69.2565 70.5122C69.0325 70.7362 68.8027 70.9659 68.619 71.1956C68.2342 71.655 67.8954 72.1489 67.6197 72.66C67.0684 73.6822 66.7182 74.7561 66.4999 75.8185C66.276 76.8866 66.1727 77.949 66.1612 79.0057C66.1555 79.534 66.1611 80.0624 66.1898 80.585C66.207 80.8491 66.2243 81.1075 66.253 81.3717L66.2933 81.768C66.3048 81.8885 66.3219 82.0034 66.3391 82.1355C66.3965 82.526 66.7354 82.8361 67.1317 82.8074C67.5509 82.7787 67.8552 82.4226 67.8265 82.0206V81.9919C67.8208 81.8943 67.8093 81.7622 67.8093 81.6473C67.8035 81.5267 67.7978 81.4062 67.7978 81.2856C67.7978 81.0444 67.7978 80.8032 67.8035 80.562C67.8208 80.0796 67.8494 79.5972 67.9069 79.1205C68.0217 78.1673 68.217 77.2254 68.5099 76.3411C68.8028 75.4567 69.2105 74.6355 69.7159 73.9291C69.9686 73.5788 70.2557 73.263 70.5601 72.9816C70.7094 72.8323 70.8702 72.7289 71.0253 72.6198L71.2779 72.4647C71.3583 72.413 71.4617 72.3728 71.5478 72.3269C71.9153 72.1489 72.3116 72.0168 72.7366 71.9134C72.84 71.8847 72.9434 71.8617 73.0525 71.8388C73.1616 71.8158 73.2648 71.7871 73.374 71.7699C73.5922 71.7297 73.8105 71.6895 74.0345 71.655C74.4766 71.5861 74.9302 71.5287 75.3897 71.477C75.6021 71.4483 77.078 71.454 78.5769 71.4655C81.7239 71.4885 84.6585 73.1309 86.2262 75.8357C86.9671 77.1106 87.5069 78.6439 87.5126 80.4242C87.5298 85.07 87.5872 85.2193 87.5872 85.2193H89.6661C89.6661 85.2136 89.6661 71.0922 89.6661 71.0922Z" fill="#676D70"/>
</g>
<path d="M89.6657 72.344V68.8409C89.6657 68.8409 77.583 68.6055 76.5034 68.7376C75.4238 68.8754 74.3383 69.0821 73.2702 69.4841C72.7361 69.6736 72.2078 69.9148 71.6909 70.1905C71.1741 70.4604 70.6688 70.7935 70.1807 71.161C69.9395 71.3448 69.704 71.5515 69.4686 71.7582C69.2446 71.9822 69.0206 72.2119 68.8368 72.4416C68.452 72.901 68.119 73.3949 67.8491 73.906C67.3035 74.9282 66.9533 76.0021 66.7408 77.0645C66.5168 78.1327 66.4191 79.1951 66.4019 80.2517C66.3962 80.78 66.4019 81.3084 66.4306 81.831C66.4421 82.0951 66.465 82.3536 66.4937 82.6177L66.534 83.014C66.5455 83.1346 66.5627 83.2494 66.58 83.3815C66.6374 83.772 66.9761 84.0821 67.3666 84.0534C67.7801 84.0247 68.0787 83.6686 68.05 83.2666V83.2379C68.0442 83.1403 68.0329 83.0082 68.0329 82.8934C68.0271 82.7728 68.0214 82.6522 68.0214 82.5316C68.0214 82.2904 68.0214 82.0492 68.0271 81.808C68.0444 81.3256 68.073 80.8432 68.1305 80.3666C68.2453 79.4133 68.4406 78.4715 68.7277 77.5871C69.0206 76.7027 69.4225 75.8815 69.9221 75.1751C70.1691 74.8248 70.4563 74.509 70.7549 74.2276C70.9042 74.0783 71.0592 73.9749 71.2142 73.8658L71.4613 73.7108C71.5417 73.6591 71.6393 73.6189 71.7254 73.5729C72.0872 73.3949 72.4835 73.2628 72.9027 73.1594C73.0061 73.1307 73.1093 73.1078 73.2184 73.0848C73.3276 73.0618 73.431 73.0331 73.5343 73.0159C73.7525 72.9757 73.9651 72.9355 74.1891 72.901C74.6255 72.8321 75.0734 72.7747 75.527 72.723C75.7395 72.6943 77.1982 72.7 78.6855 72.7115C81.8038 72.7345 84.704 74.3769 86.2545 77.0817C86.9839 78.3566 87.5179 79.8899 87.5294 81.6702C87.5409 84.2199 87.5638 85.4202 87.5753 85.9772C87.581 86.2529 87.805 86.4654 88.0807 86.4654H89.1488C89.4302 86.4654 89.6542 86.2414 89.6542 85.96L89.6657 72.344Z" fill="white"/>
<g opacity="0.2">
<path d="M86.1565 56.4424H83.3369C82.2228 56.4424 81.3154 55.5351 81.3154 54.421V47.6848C81.3154 46.5707 82.2228 45.6633 83.3369 45.6633H86.1565C87.2706 45.6633 88.178 46.5707 88.178 47.6848V54.421C88.178 55.5351 87.2706 56.4424 86.1565 56.4424ZM83.3369 45.9217C82.3664 45.9217 81.5738 46.7142 81.5738 47.6848V54.421C81.5738 55.3915 82.3664 56.184 83.3369 56.184H86.1565C87.127 56.184 87.9196 55.3915 87.9196 54.421V47.6848C87.9196 46.7142 87.127 45.9217 86.1565 45.9217H83.3369Z" fill="black"/>
</g>
<g opacity="0.6">
<path d="M67.9357 83.4793C67.5451 83.508 67.2064 83.1979 67.149 82.8074C67.1317 82.6753 67.1145 82.5662 67.103 82.4399L67.0627 82.0436C67.0398 81.7794 67.0169 81.521 66.9997 81.2569C66.9709 80.7343 66.9594 80.2059 66.9709 79.6776C66.9824 78.621 67.0858 77.5528 67.3098 76.4904C67.5223 75.4223 67.8725 74.3484 68.4181 73.3319C68.688 72.8208 69.0211 72.3327 69.4058 71.8675C69.4633 71.7986 69.5265 71.7239 69.5896 71.6493C69.5494 71.6837 69.5093 71.7182 69.4691 71.7527C69.2451 71.9766 69.0211 72.2063 68.8373 72.436C68.4525 72.8955 68.1195 73.3893 67.8496 73.9004C67.304 74.9226 66.9537 75.9965 66.7413 77.0589C66.5173 78.1271 66.4196 79.1895 66.4024 80.2461C66.3966 80.7745 66.4024 81.3028 66.4311 81.8254C66.4426 82.0896 66.4655 82.348 66.4942 82.6122L66.5345 83.0084C66.5459 83.129 66.5632 83.2438 66.5804 83.3759C66.6379 83.7664 66.9766 84.0766 67.3671 84.0478C67.7117 84.0249 67.976 83.7722 68.0391 83.4563C68.0047 83.4678 67.9701 83.4793 67.9357 83.4793Z" fill="#676D70"/>
<path d="M88.6612 85.8912C88.3855 85.8912 88.1615 85.6729 88.1558 85.403C88.1385 84.846 88.1156 83.6515 88.1099 81.096C88.1042 79.3157 87.5701 77.7824 86.835 76.5076C85.2845 73.8027 82.3786 72.1603 79.266 72.1373C77.7787 72.1258 76.32 72.1201 76.1075 72.1488C75.6538 72.2005 75.206 72.2637 74.7696 72.3269C74.5456 72.3613 74.333 72.4015 74.1148 72.4417C74.0057 72.4589 73.9023 72.4877 73.7989 72.5106C73.6898 72.5336 73.5866 72.5566 73.4832 72.5853C73.064 72.6886 72.6677 72.8265 72.3059 72.9987C72.2198 73.0447 72.1222 73.0849 72.0418 73.1366L71.7947 73.2916C71.6397 73.4065 71.4847 73.5041 71.3354 73.6534C71.1746 73.8027 71.0253 73.9578 70.876 74.1243C70.9908 74.0267 71.1056 73.9463 71.2205 73.8602L71.4675 73.7051C71.5479 73.6534 71.6455 73.6132 71.7316 73.5673C72.0934 73.3893 72.4897 73.2572 72.9089 73.1538C73.0123 73.1251 73.1156 73.1021 73.2247 73.0792C73.3338 73.0562 73.4372 73.0275 73.5405 73.0102C73.7588 72.97 73.9713 72.9298 74.1953 72.8954C74.6317 72.8265 75.0796 72.769 75.5332 72.7174C75.7457 72.6886 77.2044 72.6944 78.6917 72.7059C81.8101 72.7288 84.7102 74.3713 86.2608 77.0761C86.9901 78.351 87.5241 79.8843 87.5356 81.6645C87.5471 84.2143 87.57 85.4145 87.5815 85.9716C87.5872 86.2472 87.8113 86.4597 88.0869 86.4597H89.155C89.4364 86.4597 89.6604 86.2357 89.6604 85.9543V85.8854H88.6612V85.8912Z" fill="#676D70"/>
</g>
<path d="M108.129 75.2097V80.8663C108.129 81.3027 107.405 81.653 106.515 81.653H91.274C90.3839 81.653 89.666 81.297 89.666 80.8663V75.2097C89.666 74.779 90.3839 74.4229 91.274 74.4229H106.515C107.405 74.4229 108.129 74.7732 108.129 75.2097Z" fill="#1A1A1A"/>
<path d="M106.193 74.4229H91.5952V81.653H106.193V74.4229Z" fill="#666666"/>
<path d="M93.496 74.4229H92.8184V81.653H93.496V74.4229Z" fill="#979797"/>
<path d="M105.142 74.4229H104.465V81.653H105.142V74.4229Z" fill="#979797"/>
<g opacity="0.4">
<path d="M106.515 74.4229H106.194V79.7464C106.194 80.1829 105.47 80.5332 104.58 80.5332H89.666V80.8605C89.666 81.297 90.3839 81.6473 91.274 81.6473H106.515C107.405 81.6473 108.129 81.2912 108.129 80.8605V75.2039C108.129 74.7732 107.405 74.4229 106.515 74.4229Z" fill="#1A1A1A"/>
</g>
<path d="M199.294 28.1939H91.1187V74.7789H199.294V28.1939Z" fill="#FAA701"/>
<g opacity="0.6">
<path d="M196.204 28.1882V61.3869C196.204 67.1698 192.271 71.8559 187.418 71.8559H91.124V74.7732H199.3V28.1882H196.204Z" fill="#FFD889"/>
</g>
<path d="M200.5 73.3432H91.1187V74.7789H200.5V73.3432Z" fill="#333333"/>
<g opacity="0.5">
<path d="M85.8009 42.7574H57.2653L57.1733 43.4006H79.547V45.6517C79.547 57.6655 79.5412 68.4733 79.5527 68.7432L80.0064 68.7375V43.4063H85.8009V42.7574Z" fill="#4D4D4D"/>
</g>
<g opacity="0.3">
<path d="M88.0288 34.1204H66.574C63.0135 34.1204 59.8665 36.0615 58.3159 38.9788C59.9813 36.5151 62.8699 34.9244 66.0916 34.9244H87.5465C88.4481 34.9244 89.1831 35.6595 89.1831 36.5611V45.2154C89.1831 45.3532 89.1659 45.491 89.1315 45.6174C89.4588 45.3187 89.6655 44.888 89.6655 44.4114V35.7571C89.6655 34.8555 88.9304 34.1204 88.0288 34.1204Z" fill="#676D70"/>
</g>
<path d="M199.294 28.1939H91.1187V32.7077H199.294V28.1939Z" fill="#FFD889"/>
<path d="M199.294 68.8294H91.1187V73.3432H199.294V68.8294Z" fill="#FFD889"/>
<path d="M128.808 71.5113H126.069C125.805 71.5113 125.586 71.2931 125.586 71.029C125.586 70.7648 125.805 70.5466 126.069 70.5466H128.808C129.072 70.5466 129.29 70.7648 129.29 71.029C129.296 71.2931 129.078 71.5113 128.808 71.5113Z" fill="#333333"/>
<path d="M164.349 71.5113H161.61C161.346 71.5113 161.127 71.2931 161.127 71.029C161.127 70.7648 161.346 70.5466 161.61 70.5466H164.349C164.613 70.5466 164.831 70.7648 164.831 71.029C164.837 71.2931 164.619 71.5113 164.349 71.5113Z" fill="#333333"/>
<path d="M195.039 71.5113H192.299C192.035 71.5113 191.817 71.2931 191.817 71.029C191.817 70.7648 192.035 70.5466 192.299 70.5466H195.039C195.303 70.5466 195.521 70.7648 195.521 71.029C195.521 71.2931 195.303 71.5113 195.039 71.5113Z" fill="#333333"/>
<path d="M128.808 30.0833H126.069C125.805 30.0833 125.586 30.3015 125.586 30.5657C125.586 30.8299 125.805 31.0481 126.069 31.0481H128.808C129.072 31.0481 129.29 30.8299 129.29 30.5657C129.296 30.3015 129.078 30.0833 128.808 30.0833Z" fill="#333333"/>
<path d="M164.349 30.0833H161.61C161.346 30.0833 161.127 30.3015 161.127 30.5657C161.127 30.8299 161.346 31.0481 161.61 31.0481H164.349C164.613 31.0481 164.831 30.8299 164.831 30.5657C164.837 30.3015 164.619 30.0833 164.349 30.0833Z" fill="#333333"/>
<path d="M195.039 30.0833H192.299C192.035 30.0833 191.817 30.3015 191.817 30.5657C191.817 30.8299 192.035 31.0481 192.299 31.0481H195.039C195.303 31.0481 195.521 30.8299 195.521 30.5657C195.521 30.3015 195.303 30.0833 195.039 30.0833Z" fill="#333333"/>
<path d="M199.208 28.1939H196.629V73.0618H199.208V28.1939Z" fill="#FFD889"/>
</svg>
