<svg width="251" height="120" viewBox="0 0 251 120" fill="none" xmlns="http://www.w3.org/2000/svg">
<path d="M183.066 76.3498L184.18 77.2604L190.33 69.7404L189.217 68.8298L183.066 76.3498Z" fill="#333333"/>
<path d="M183.283 76.4272L184.14 77.5826L193.378 70.7311L192.521 69.5757L183.283 76.4272Z" fill="#333333"/>
<path d="M185.463 70.9403H88.0562V77.6418H185.463V70.9403Z" fill="#333333"/>
<g opacity="0.7">
<path d="M185.463 74.6943H88.0562V77.6474H185.463V74.6943Z" fill="#333333"/>
</g>
<path d="M67.0686 73.2669H52.6357V75.4245H67.0686V73.2669Z" fill="white"/>
<g opacity="0.5">
<path d="M67.0686 73.2669H52.6357V75.4245H67.0686V73.2669Z" fill="white"/>
</g>
<path d="M87.8651 66.816L67.8804 69.7472V77.9253H87.8651V66.816Z" fill="#1A1A1A"/>
<path d="M84.8253 56.9762V67.7477H72.49C72.381 67.7477 72.2776 67.7532 72.1686 67.7586C72.1141 67.7586 72.0651 67.7641 72.0106 67.775C71.8145 67.7968 71.6237 67.8295 71.433 67.8839C71.3731 67.9003 71.3077 67.9166 71.2477 67.933C70.5994 68.1346 70.011 68.4996 69.5425 68.9682C69.3082 69.2024 69.1012 69.4694 68.9214 69.7527C68.7416 70.0361 68.6054 70.3466 68.5019 70.6735C68.4855 70.7335 68.4637 70.7988 68.4528 70.8588C68.4037 71.044 68.3656 71.2402 68.3438 71.4363C68.3384 71.4853 68.3329 71.5398 68.3275 71.5943C68.322 71.6978 68.3166 71.8068 68.3166 71.9158V71.9321C68.3166 72.3462 68.1695 72.7221 67.9188 73.0163C67.8971 73.0436 67.8153 73.1308 67.7935 73.1525C67.7772 73.1743 66.7911 73.6374 66.7311 73.6429C66.6821 73.6483 66.6276 73.6483 66.5786 73.6483H52.4018C51.6935 73.6483 51.1214 73.0763 51.1214 72.368L50.9308 60.9209C50.9253 60.6811 50.958 60.4469 51.0179 60.2235L52.8921 53.4293C52.9575 53.1678 53.0393 52.9063 53.121 52.6502L53.1373 52.5903V52.5957C53.1536 52.5358 53.1755 52.4758 53.1973 52.4159L53.7257 50.9394L53.8238 50.6561L57.0384 41.6172L57.1473 41.3121C57.6976 39.7647 59.1578 38.735 60.8032 38.735H79.6493C79.6929 38.735 79.731 38.735 79.7746 38.735C79.7746 38.735 79.7746 38.735 79.78 38.735C80.6954 38.7622 81.5344 39.1164 82.1882 39.683C82.2862 39.7702 82.3843 39.8628 82.477 39.9609C82.4988 39.9881 82.5259 40.0154 82.5532 40.048C82.5695 40.0698 82.5859 40.0862 82.6023 40.1025C82.6731 40.1843 82.744 40.2714 82.7985 40.3586C82.8312 40.4076 82.8638 40.4512 82.8965 40.5003C83.2343 41.0179 83.4522 41.6172 83.5121 42.271L84.8253 56.9762Z" fill="white"/>
<path d="M68.2616 80.1809L68.1636 78.7208L68.436 78.6336C68.4414 78.3448 68.4633 78.0615 68.4905 77.7836L68.2345 77.6638L68.534 76.2308L68.8119 76.2199C68.8936 75.9475 68.9917 75.6751 69.1007 75.4136L68.8883 75.2283L69.5639 73.9262L69.8363 73.9915C69.9888 73.7518 70.1522 73.5175 70.332 73.2941L70.174 73.0599L71.1766 71.9865L71.4217 72.1227C71.6342 71.9321 71.8521 71.7523 72.0864 71.5834L71.9993 71.3164L73.2524 70.5536L73.4485 70.7497C73.7046 70.6244 73.9662 70.51 74.2332 70.4065L74.2223 70.1286L75.6333 69.7309L75.7695 69.9761C76.0474 69.927 76.3307 69.8834 76.6141 69.8617L76.6795 69.5892H78.1451L78.2104 69.8617C78.4992 69.8889 78.7771 69.927 79.0549 69.9761L79.1911 69.7309L80.6023 70.1286L80.5914 70.4065C80.8584 70.51 81.1199 70.6244 81.3759 70.7497L81.5722 70.5536L82.8252 71.3164L82.7381 71.5834C82.9669 71.7523 83.1903 71.9321 83.4027 72.1227L83.6479 71.9865L84.6504 73.0599L84.4924 73.2941C84.6668 73.5175 84.8303 73.7518 84.9883 73.9915L85.2607 73.9262L85.9363 75.2283L85.7238 75.4136C85.8327 75.6751 85.9254 75.9475 86.0125 76.2199L86.2904 76.2308L86.5901 77.6638L86.334 77.7836C86.3667 78.0615 86.383 78.3503 86.3885 78.6336L86.6609 78.7208L86.5628 80.1809L86.285 80.23C86.2414 80.5133 86.1814 80.7966 86.1106 81.069L86.345 81.2216L85.8545 82.6L85.5766 82.5728C85.4568 82.8343 85.326 83.0849 85.1844 83.3301L85.3697 83.5426L84.5251 84.7412L84.2636 84.6377C84.0784 84.8557 83.8822 85.0627 83.6806 85.2643L83.8005 85.5204L82.6618 86.4466L82.4384 86.2777C82.2041 86.4357 81.959 86.5882 81.7084 86.7245L81.7573 86.9969L80.4116 87.5799L80.2426 87.3565C79.9757 87.4436 79.6978 87.5199 79.4199 87.5853L79.3928 87.8632L77.9434 88.0648L77.8399 87.8032C77.6983 87.8087 77.5566 87.8141 77.415 87.8141C77.2733 87.8141 77.1316 87.8087 76.99 87.8032L76.8865 88.0648L75.4318 87.8632L75.4045 87.5853C75.1267 87.5199 74.8488 87.4436 74.5818 87.3565L74.4129 87.5799L73.0671 86.9969L73.1162 86.7245C72.8656 86.5882 72.6204 86.4411 72.3861 86.2777L72.1627 86.4466L71.024 85.5204L71.1438 85.2643C70.9422 85.0681 70.7461 84.8557 70.5608 84.6377L70.2993 84.7412L69.4549 83.5426L69.6401 83.3301C69.4984 83.0849 69.3677 82.8289 69.2478 82.5728L68.9699 82.6L68.4796 81.2216L68.7139 81.069C68.643 80.7966 68.5885 80.5133 68.5395 80.23L68.2616 80.1809Z" fill="#232C33"/>
<g opacity="0.4">
<path d="M77.415 83.3682C79.9216 83.3682 81.9536 81.3362 81.9536 78.8297C81.9536 76.3231 79.9216 74.2911 77.415 74.2911C74.9085 74.2911 72.8765 76.3231 72.8765 78.8297C72.8765 81.3362 74.9085 83.3682 77.415 83.3682Z" fill="#14191E"/>
</g>
<path d="M77.415 82.965C79.6989 82.965 81.5504 81.1136 81.5504 78.8297C81.5504 76.5458 79.6989 74.6943 77.415 74.6943C75.1312 74.6943 73.2798 76.5458 73.2798 78.8297C73.2798 81.1136 75.1312 82.965 77.415 82.965Z" fill="#686A6B"/>
<path d="M77.4152 81.1126C78.676 81.1126 79.698 80.0906 79.698 78.8298C79.698 77.569 78.676 76.5469 77.4152 76.5469C76.1544 76.5469 75.1323 77.569 75.1323 78.8298C75.1323 80.0906 76.1544 81.1126 77.4152 81.1126Z" fill="#31393F"/>
<g opacity="0.2">
<path d="M74.3586 76.0456C74.2496 76.4106 74.1951 76.8029 74.1951 77.2061C74.1951 79.489 76.0475 81.3414 78.3303 81.3414C79.5399 81.3414 80.6351 80.8184 81.3869 79.9902C80.8857 81.7119 79.3002 82.9705 77.415 82.9705C75.1322 82.9705 73.2798 81.1181 73.2798 78.8352C73.2798 77.7564 73.6884 76.7811 74.3586 76.0456Z" fill="#14191E"/>
</g>
<g opacity="0.2">
<path d="M86.2846 81.178L86.3555 81.2216L86.2301 81.5757L86.1975 81.5539C86.2248 81.4286 86.2574 81.3033 86.2846 81.178Z" fill="#14191E"/>
<path d="M86.449 78.6499L86.6669 78.7207L86.6341 79.1729L86.4708 79.1239C86.4708 78.9659 86.4599 78.8079 86.449 78.6499Z" fill="#14191E"/>
<path d="M69.1777 75.8986C69.0687 76.1601 68.9761 76.4325 68.8889 76.7049L68.611 76.7158L68.3985 77.7401L68.2351 77.6639L68.5347 76.2309L68.8125 76.22C68.8616 76.0566 68.9215 75.8931 68.976 75.7297L69.1777 75.8986Z" fill="#14191E"/>
<path d="M84.5088 73.3105L83.7297 72.4769L83.4846 72.6131C83.2721 72.4224 83.054 72.2426 82.8197 72.0737L82.907 71.8067L81.6538 71.044L81.4576 71.2401C81.2016 71.1148 80.9401 71.0004 80.6731 70.8969L80.684 70.619L79.273 70.2213L79.1367 70.4664C78.8589 70.4174 78.5755 70.3738 78.2922 70.352L78.2268 70.0796H76.7557L76.6903 70.352C76.4015 70.3793 76.1238 70.4174 75.8459 70.4664L75.7097 70.2213L74.2985 70.619L74.3094 70.8969C74.0424 71.0004 73.7809 71.1148 73.5249 71.2401L73.3287 71.044L72.0755 71.8067L72.1628 72.0737C71.9339 72.2426 71.7106 72.4224 71.4981 72.6131L71.2528 72.4769L70.2504 73.5502L70.4029 73.7845C70.2286 74.0079 70.0651 74.2422 69.907 74.4819L69.6346 74.4165L69.0354 75.577C69.0572 75.5225 69.0734 75.4681 69.0952 75.4136L68.8828 75.2283L69.5584 73.9262L69.8308 73.9915C69.9834 73.7518 70.1468 73.5175 70.3266 73.2941L70.1686 73.0599L71.1711 71.9865L71.4163 72.1227C71.6288 71.9321 71.8521 71.7523 72.081 71.5834L71.9938 71.3164L73.247 70.5536L73.4431 70.7497C73.6991 70.6244 73.9608 70.51 74.2277 70.4065L74.2168 70.1286L75.6279 69.7309L75.7641 69.9761C76.0419 69.927 76.3253 69.8834 76.6086 69.8617L76.6741 69.5892H78.1396L78.205 69.8617C78.4937 69.8889 78.7716 69.927 79.0495 69.9761L79.1857 69.7309L80.5969 70.1286L80.586 70.4065C80.8529 70.51 81.1144 70.6244 81.3705 70.7497L81.5667 70.5536L82.8197 71.3164L82.7326 71.5834C82.9614 71.7523 83.1848 71.9321 83.3973 72.1227L83.6425 71.9865L84.645 73.0599L84.487 73.2941C84.5033 73.305 84.5088 73.305 84.5088 73.3105Z" fill="#14191E"/>
<path d="M69.7166 83.8149L69.6784 83.8585L69.4551 83.5425L69.5204 83.4662C69.5858 83.5861 69.6512 83.7005 69.7166 83.8149Z" fill="#14191E"/>
<path d="M68.4306 78.6336C68.4361 78.4919 68.4415 78.3503 68.447 78.2141L68.5614 78.2685C68.5287 78.5464 68.5124 78.8352 68.507 79.1185L68.2346 79.2057L68.2999 80.1864L68.2562 80.1809L68.1582 78.7208L68.4306 78.6336Z" fill="#14191E"/>
<path d="M68.7854 81.5539L68.6328 81.652L68.4802 81.2161L68.6817 81.0853C68.7144 81.2433 68.7472 81.4013 68.7854 81.5539Z" fill="#14191E"/>
<path d="M85.3431 74.4165L85.0707 74.4819C84.9182 74.2421 84.7547 74.0079 84.575 73.7845L84.7112 73.5829C84.8092 73.7191 84.9019 73.8553 84.9945 73.997L85.2669 73.9316L85.9425 75.2338L85.8225 75.3373L85.3431 74.4165Z" fill="#14191E"/>
<path d="M86.3722 76.7157L86.0943 76.7048C86.0126 76.4324 85.9146 76.16 85.8057 75.8985L85.8873 75.8276C85.9309 75.9584 85.9745 76.0892 86.0181 76.2199L86.296 76.2308L86.5957 77.6638L86.5738 77.6746L86.3722 76.7157Z" fill="#14191E"/>
</g>
<g opacity="0.4">
<path d="M84.6344 84.5941L84.5309 84.7412L84.3347 84.6649C84.4328 84.6431 84.5309 84.6158 84.6344 84.5941Z" fill="#14191E"/>
<path d="M68.2616 80.1809L68.1636 78.7207L68.436 78.6336C68.4414 78.3448 68.4633 78.0615 68.4905 77.7836L68.2345 77.6637L68.534 76.2308L68.8119 76.2199C68.8936 75.9475 68.9917 75.6751 69.1007 75.4136L68.8883 75.2283L69.5639 73.9261L69.8363 73.9915C69.9888 73.7518 70.1522 73.5175 70.332 73.2941L70.174 73.0598L71.1766 71.9865L71.4217 72.1227C71.6342 71.932 71.8576 71.7522 72.0864 71.5833L71.9993 71.3164L72.4732 71.0276C71.4435 72.4224 70.8496 74.0732 70.8496 75.8331C70.8496 80.8674 75.6769 84.9428 81.6266 84.9428C82.5201 84.9428 83.3918 84.8502 84.2255 84.6758C84.0566 84.872 83.8768 85.0681 83.6861 85.2479L83.8059 85.504L82.6673 86.4302L82.4438 86.2613C82.2095 86.4193 81.9644 86.5719 81.7138 86.7081L81.7628 86.9805L80.417 87.5635L80.2481 87.3401C79.9811 87.4273 79.7032 87.5036 79.4254 87.5689L79.3982 87.8468L77.9489 88.0484L77.8454 87.7869C77.7037 87.7923 77.5621 87.7978 77.4204 87.7978C77.2787 87.7978 77.1371 87.7923 76.9954 87.7869L76.8919 88.0484L75.4372 87.8468L75.41 87.5689C75.1321 87.5036 74.8542 87.4273 74.5873 87.3401L74.4183 87.5635L73.0726 86.9805L73.1217 86.7081C72.871 86.5719 72.6258 86.4248 72.3915 86.2613L72.1682 86.4302L71.0294 85.504L71.1493 85.2479C70.9477 85.0518 70.7515 84.8393 70.5663 84.6213L70.3048 84.7249L69.4604 83.5262L69.6455 83.3137C69.5039 83.0686 69.3731 82.8125 69.2533 82.5564L68.9754 82.5837L68.4851 81.2052L68.7193 81.0527C68.6485 80.7802 68.594 80.4969 68.5449 80.2136L68.2616 80.1809Z" fill="#14191E"/>
</g>
<path d="M77.2461 77.0045C77.2461 77.0971 77.3224 77.1734 77.415 77.1734C77.5076 77.1734 77.584 77.0971 77.584 77.0045C77.584 76.9118 77.5076 76.8356 77.415 76.8356C77.3224 76.8356 77.2461 76.9118 77.2461 77.0045Z" fill="#22272B"/>
<g opacity="0.5">
<path d="M77.2791 76.9064C77.2791 76.9118 77.2791 76.9173 77.2791 76.9282C77.2791 77.0208 77.3555 77.0971 77.4481 77.0971C77.5026 77.0971 77.557 77.0698 77.5843 77.0262C77.5734 77.108 77.5025 77.1733 77.4208 77.1733C77.3282 77.1733 77.2519 77.0971 77.2519 77.0044C77.2464 76.9663 77.2573 76.9336 77.2791 76.9064Z" fill="#22272B"/>
</g>
<path d="M78.0035 77.0916C77.9654 77.1734 78.0035 77.2769 78.0907 77.315C78.1778 77.3532 78.276 77.315 78.3141 77.2279C78.3523 77.1461 78.314 77.0426 78.2269 77.0045C78.1397 76.9718 78.0417 77.0099 78.0035 77.0916Z" fill="#22272B"/>
<g opacity="0.5">
<path d="M78.0741 77.0154C78.0687 77.0208 78.0687 77.0263 78.0632 77.0317C78.0251 77.1135 78.0633 77.217 78.1505 77.2551C78.1995 77.2769 78.2595 77.2715 78.3031 77.2442C78.2595 77.315 78.1722 77.3477 78.0905 77.3096C78.0088 77.2715 77.9707 77.1734 78.0034 77.0862C78.0197 77.059 78.0415 77.0317 78.0741 77.0154Z" fill="#22272B"/>
</g>
<path d="M78.6627 77.4839C78.5918 77.5439 78.5864 77.6528 78.6518 77.7182C78.7117 77.789 78.8206 77.7945 78.886 77.7291C78.9514 77.6637 78.9623 77.5602 78.8969 77.4948C78.837 77.424 78.7281 77.4185 78.6627 77.4839Z" fill="#22272B"/>
<g opacity="0.5">
<path d="M78.7551 77.4403C78.7496 77.4458 78.7442 77.4458 78.7387 77.4512C78.6679 77.5111 78.6626 77.6201 78.728 77.6855C78.7661 77.7291 78.8204 77.7454 78.8695 77.74C78.7987 77.789 78.7061 77.7781 78.6516 77.7182C78.5917 77.6473 78.5971 77.5438 78.6625 77.4839C78.6898 77.4567 78.717 77.4458 78.7551 77.4403Z" fill="#22272B"/>
</g>
<path d="M79.0982 78.1051C79.011 78.1324 78.962 78.2304 78.9892 78.3176C79.0165 78.4048 79.1145 78.4538 79.2017 78.4266C79.2888 78.3993 79.3378 78.3013 79.3106 78.2141C79.2834 78.1269 79.1908 78.0779 79.0982 78.1051Z" fill="#22272B"/>
<g opacity="0.5">
<path d="M79.2017 78.1052C79.1962 78.1052 79.1907 78.1052 79.1798 78.1106C79.0927 78.1379 79.0437 78.2359 79.0709 78.3231C79.0872 78.3776 79.1308 78.4157 79.1798 78.4321C79.0981 78.4484 79.0165 78.3994 78.9892 78.3231C78.962 78.2359 79.011 78.1433 79.0982 78.1106C79.1363 78.0943 79.169 78.0943 79.2017 78.1052Z" fill="#22272B"/>
</g>
<path d="M79.2509 78.8515C79.1583 78.8406 79.0765 78.906 79.0656 78.9986C79.0547 79.0912 79.1201 79.1729 79.2128 79.1838C79.3054 79.1947 79.3872 79.1293 79.3981 79.0367C79.4089 78.9441 79.3436 78.8624 79.2509 78.8515Z" fill="#22272B"/>
<g opacity="0.5">
<path d="M79.3438 78.8951C79.3383 78.8951 79.3328 78.8896 79.3219 78.8896C79.2293 78.8787 79.1477 78.9441 79.1368 79.0367C79.1313 79.0912 79.1531 79.1457 79.1912 79.1784C79.1095 79.162 79.055 79.0858 79.0604 78.9986C79.0713 78.906 79.1531 78.8406 79.2457 78.8515C79.2839 78.8569 79.3165 78.8733 79.3438 78.8951Z" fill="#22272B"/>
</g>
<path d="M79.0819 79.598C79.0002 79.5544 78.9021 79.5817 78.8531 79.6579C78.8095 79.7397 78.8367 79.8377 78.913 79.8868C78.9947 79.9304 79.0927 79.9031 79.1417 79.8268C79.1853 79.7451 79.1582 79.6416 79.0819 79.598Z" fill="#22272B"/>
<g opacity="0.5">
<path d="M79.1471 79.6744C79.1417 79.6689 79.1363 79.6635 79.1309 79.6635C79.0492 79.6199 78.951 79.6471 78.902 79.7234C78.8747 79.7724 78.8747 79.8269 78.8965 79.876C78.8311 79.8269 78.8094 79.7343 78.853 79.658C78.8966 79.5763 79.0001 79.5491 79.0818 79.5981C79.1091 79.6144 79.1362 79.6417 79.1471 79.6744Z" fill="#22272B"/>
</g>
<path d="M78.6241 80.2082C78.5696 80.1319 78.4661 80.1155 78.3898 80.17C78.3135 80.2245 78.2972 80.328 78.3516 80.4043C78.4061 80.4806 78.5097 80.4969 78.586 80.4424C78.6623 80.388 78.6786 80.2844 78.6241 80.2082Z" fill="#22272B"/>
<g opacity="0.5">
<path d="M78.6566 80.3062C78.6512 80.3008 78.6512 80.2953 78.6457 80.2899C78.5912 80.2136 78.4877 80.1973 78.4115 80.2518C78.3679 80.2844 78.3406 80.3389 78.3406 80.388C78.3024 80.3171 78.3188 80.2245 78.3896 80.17C78.4659 80.1155 78.5694 80.1319 78.6239 80.2082C78.6457 80.2354 78.6566 80.2735 78.6566 80.3062Z" fill="#22272B"/>
</g>
<path d="M77.9603 80.5786C77.9385 80.486 77.8514 80.4315 77.7643 80.4478C77.6716 80.4696 77.6172 80.5568 77.6335 80.644C77.6553 80.7366 77.7424 80.7911 77.8296 80.7747C77.9222 80.7584 77.9767 80.6712 77.9603 80.5786Z" fill="#22272B"/>
<g opacity="0.5">
<path d="M77.9489 80.6821C77.9489 80.6767 77.9489 80.6712 77.9489 80.6603C77.9271 80.5677 77.84 80.5132 77.7528 80.5296C77.6983 80.5405 77.6547 80.5786 77.6329 80.6276C77.6275 80.5459 77.682 80.4696 77.7637 80.4478C77.8563 80.426 77.9434 80.486 77.9598 80.5786C77.9652 80.6167 77.9598 80.6494 77.9489 80.6821Z" fill="#22272B"/>
</g>
<path d="M77.1972 80.6495C77.219 80.5569 77.159 80.4697 77.0664 80.4533C76.9738 80.4315 76.8866 80.4915 76.8702 80.5841C76.8484 80.6767 76.9083 80.7639 77.001 80.7802C77.0881 80.7966 77.1808 80.7421 77.1972 80.6495Z" fill="#22272B"/>
<g opacity="0.5">
<path d="M77.1479 80.7367C77.1479 80.7312 77.1534 80.7258 77.1534 80.7149C77.1752 80.6222 77.1152 80.5351 77.0226 80.5187C76.9681 80.5078 76.9136 80.5242 76.8755 80.5623C76.9027 80.486 76.9845 80.437 77.0662 80.4533C77.1589 80.4751 77.2133 80.5623 77.197 80.6495C77.1915 80.6876 77.1752 80.7149 77.1479 80.7367Z" fill="#22272B"/>
</g>
<path d="M76.4776 80.4043C76.5321 80.328 76.5157 80.2245 76.4394 80.17C76.3631 80.1155 76.2596 80.1319 76.2052 80.2082C76.1507 80.2844 76.1671 80.388 76.2433 80.4424C76.3196 80.4969 76.4231 80.4806 76.4776 80.4043Z" fill="#22272B"/>
<g opacity="0.5">
<path d="M76.3959 80.4642C76.4014 80.4587 76.4068 80.4533 76.4068 80.4479C76.4613 80.3716 76.4449 80.2681 76.3686 80.2136C76.325 80.1809 76.2651 80.1754 76.2161 80.1918C76.2705 80.1318 76.3686 80.1209 76.4339 80.17C76.5102 80.2245 76.5266 80.328 76.4721 80.4043C76.4558 80.437 76.4286 80.4533 76.3959 80.4642Z" fill="#22272B"/>
</g>
<path d="M75.917 79.8866C75.9988 79.843 76.0261 79.7395 75.977 79.6578C75.9335 79.576 75.8298 79.5488 75.7481 79.5978C75.6664 79.6414 75.6392 79.745 75.6883 79.8267C75.7373 79.9084 75.8353 79.9356 75.917 79.8866Z" fill="#22272B"/>
<g opacity="0.5">
<path d="M75.8189 79.9084C75.8244 79.9084 75.8299 79.903 75.8353 79.8975C75.917 79.8539 75.9442 79.7504 75.8952 79.6687C75.8679 79.6197 75.8189 79.5924 75.7644 79.587C75.8407 79.5543 75.9334 79.5815 75.977 79.6578C76.0206 79.7395 75.9933 79.8376 75.917 79.8866C75.8843 79.903 75.8516 79.9139 75.8189 79.9084Z" fill="#22272B"/>
</g>
<path d="M75.617 79.1838C75.7096 79.1729 75.775 79.0912 75.7641 78.9986C75.7532 78.906 75.6716 78.8406 75.579 78.8515C75.4863 78.8624 75.421 78.9441 75.4318 79.0367C75.4427 79.1293 75.5244 79.1947 75.617 79.1838Z" fill="#22272B"/>
<g opacity="0.5">
<path d="M75.519 79.1675C75.5245 79.1675 75.53 79.1675 75.5409 79.1675C75.6335 79.1566 75.6989 79.0749 75.688 78.9823C75.6825 78.9278 75.6498 78.8787 75.6007 78.8515C75.6824 78.8515 75.7533 78.9169 75.7642 78.9986C75.7751 79.0912 75.7097 79.173 75.6171 79.1839C75.5789 79.1893 75.5463 79.1839 75.519 79.1675Z" fill="#22272B"/>
</g>
<path d="M75.6282 78.4211C75.7154 78.4483 75.8081 78.3993 75.8408 78.3121C75.868 78.2249 75.819 78.1323 75.7318 78.0996C75.6446 78.0724 75.5519 78.1214 75.5193 78.2086C75.492 78.3012 75.5356 78.3938 75.6282 78.4211Z" fill="#22272B"/>
<g opacity="0.5">
<path d="M75.5464 78.3667C75.5518 78.3721 75.5573 78.3721 75.5627 78.3721C75.6499 78.3994 75.7425 78.3503 75.7752 78.2632C75.7915 78.2087 75.7806 78.1542 75.7479 78.1106C75.8242 78.1433 75.8624 78.2305 75.8352 78.3122C75.8079 78.3994 75.7098 78.4484 75.6226 78.4212C75.5899 78.4103 75.5627 78.3939 75.5464 78.3667Z" fill="#22272B"/>
</g>
<path d="M75.9435 77.7292C76.0143 77.7892 76.1178 77.7837 76.1778 77.7183C76.2377 77.6475 76.2322 77.544 76.1669 77.4841C76.1015 77.4241 75.9925 77.4296 75.9326 77.495C75.8727 77.5658 75.8781 77.6693 75.9435 77.7292Z" fill="#22272B"/>
<g opacity="0.5">
<path d="M75.8948 77.642C75.9002 77.6475 75.9057 77.6529 75.9111 77.6584C75.982 77.7183 76.0854 77.7129 76.1454 77.6475C76.1835 77.6039 76.1945 77.5494 76.1836 77.5004C76.238 77.5657 76.238 77.6584 76.1836 77.7238C76.1236 77.7946 76.0147 77.8 75.9493 77.7346C75.9166 77.7074 75.9002 77.6747 75.8948 77.642Z" fill="#22272B"/>
</g>
<path d="M76.5216 77.2279C76.5597 77.3096 76.6578 77.3477 76.7449 77.315C76.8321 77.2823 76.8648 77.1788 76.8321 77.0916C76.7939 77.0099 76.6959 76.9718 76.6087 77.0045C76.5216 77.0426 76.4835 77.1461 76.5216 77.2279Z" fill="#22272B"/>
<g opacity="0.5">
<path d="M76.5105 77.1297C76.5105 77.1352 76.516 77.1406 76.516 77.1515C76.5541 77.2333 76.6522 77.2714 76.7393 77.2387C76.7884 77.2169 76.8265 77.1679 76.8374 77.1188C76.8592 77.2006 76.8265 77.2877 76.7448 77.3204C76.6631 77.3586 76.5596 77.3204 76.5215 77.2332C76.5051 77.1951 76.4997 77.1624 76.5105 77.1297Z" fill="#22272B"/>
</g>
<path d="M139.086 80.1809L138.988 78.7208L139.26 78.6336C139.266 78.3448 139.288 78.0615 139.315 77.7836L139.059 77.6638L139.358 76.2308L139.636 76.2199C139.718 75.9475 139.816 75.6751 139.925 75.4136L139.712 75.2283L140.388 73.9262L140.66 73.9915C140.813 73.7518 140.976 73.5175 141.151 73.2941L140.998 73.0599L142.001 71.9865L142.246 72.1227C142.458 71.9321 142.676 71.7523 142.911 71.5834L142.823 71.3164L144.077 70.5536L144.273 70.7497C144.529 70.6244 144.79 70.51 145.057 70.4065L145.046 70.1286L146.458 69.7309L146.594 69.9761C146.872 69.927 147.155 69.8834 147.438 69.8617L147.504 69.5892H148.969L149.035 69.8617C149.323 69.8889 149.601 69.927 149.879 69.9761L150.015 69.7309L151.427 70.1286L151.416 70.4065C151.683 70.51 151.944 70.6244 152.2 70.7497L152.396 70.5536L153.649 71.3164L153.562 71.5834C153.791 71.7523 154.014 71.9321 154.227 72.1227L154.472 71.9865L155.475 73.0599L155.322 73.2941C155.496 73.5175 155.66 73.7518 155.818 73.9915L156.09 73.9262L156.766 75.2283L156.553 75.4136C156.662 75.6751 156.755 75.9475 156.842 76.2199L157.12 76.2308L157.42 77.6638L157.164 77.7836C157.196 78.0615 157.213 78.3503 157.218 78.6336L157.491 78.7208L157.393 80.1809L157.115 80.23C157.071 80.5133 157.011 80.7966 156.94 81.069L157.175 81.2216L156.684 82.6L156.406 82.5728C156.286 82.8343 156.156 83.0849 156.014 83.3301L156.199 83.5426L155.355 84.7412L155.093 84.6377C154.908 84.8557 154.712 85.0627 154.51 85.2643L154.63 85.5204L153.492 86.4466L153.268 86.2777C153.034 86.4357 152.789 86.5882 152.538 86.7245L152.587 86.9969L151.241 87.5799L151.072 87.3565C150.805 87.4436 150.527 87.5199 150.25 87.5853L150.222 87.8632L148.768 88.0648L148.664 87.8032C148.523 87.8087 148.381 87.8141 148.239 87.8141C148.098 87.8141 147.956 87.8087 147.814 87.8032L147.711 88.0648L146.261 87.8632L146.234 87.5853C145.956 87.5199 145.678 87.4436 145.411 87.3565L145.243 87.5799L143.897 86.9969L143.946 86.7245C143.695 86.5882 143.45 86.4411 143.216 86.2777L142.992 86.4466L141.854 85.5204L141.974 85.2643C141.772 85.0681 141.576 84.8557 141.39 84.6377L141.129 84.7412L140.285 83.5426L140.47 83.3301C140.328 83.0849 140.197 82.8289 140.077 82.5728L139.8 82.6L139.309 81.2216L139.544 81.069C139.473 80.7966 139.418 80.5133 139.369 80.23L139.086 80.1809Z" fill="#232C33"/>
<g opacity="0.4">
<path d="M148.239 83.3682C150.746 83.3682 152.778 81.3362 152.778 78.8297C152.778 76.3231 150.746 74.2911 148.239 74.2911C145.733 74.2911 143.701 76.3231 143.701 78.8297C143.701 81.3362 145.733 83.3682 148.239 83.3682Z" fill="#14191E"/>
</g>
<path d="M148.239 82.965C150.523 82.965 152.374 81.1136 152.374 78.8297C152.374 76.5458 150.523 74.6943 148.239 74.6943C145.955 74.6943 144.104 76.5458 144.104 78.8297C144.104 81.1136 145.955 82.965 148.239 82.965Z" fill="#686A6B"/>
<path d="M148.238 81.1126C149.499 81.1126 150.521 80.0906 150.521 78.8298C150.521 77.569 149.499 76.5469 148.238 76.5469C146.978 76.5469 145.956 77.569 145.956 78.8298C145.956 80.0906 146.978 81.1126 148.238 81.1126Z" fill="#31393F"/>
<g opacity="0.2">
<path d="M145.182 76.0456C145.073 76.4106 145.019 76.8029 145.019 77.2061C145.019 79.489 146.871 81.3414 149.154 81.3414C150.364 81.3414 151.459 80.8184 152.211 79.9902C151.709 81.7119 150.124 82.9705 148.239 82.9705C145.956 82.9705 144.104 81.1181 144.104 78.8352C144.104 77.7564 144.512 76.7811 145.182 76.0456Z" fill="#14191E"/>
</g>
<g opacity="0.2">
<path d="M157.109 81.178L157.18 81.2216L157.055 81.5757L157.022 81.5539C157.049 81.4286 157.082 81.3033 157.109 81.178Z" fill="#14191E"/>
<path d="M157.272 78.6499L157.49 78.7207L157.457 79.1729L157.294 79.1239C157.294 78.9659 157.288 78.8079 157.272 78.6499Z" fill="#14191E"/>
<path d="M140 75.8986C139.891 76.1601 139.799 76.4325 139.712 76.7049L139.434 76.7158L139.221 77.7401L139.058 77.6639L139.357 76.2309L139.635 76.22C139.684 76.0566 139.744 75.8931 139.799 75.7297L140 75.8986Z" fill="#14191E"/>
<path d="M155.338 73.3105L154.559 72.4769L154.314 72.6131C154.102 72.4224 153.878 72.2426 153.649 72.0737L153.737 71.8067L152.484 71.044L152.287 71.2401C152.031 71.1148 151.77 71.0004 151.503 70.8969L151.514 70.619L150.103 70.2213L149.966 70.4664C149.689 70.4174 149.405 70.3738 149.122 70.352L149.056 70.0796H147.591L147.525 70.352C147.237 70.3793 146.959 70.4174 146.681 70.4664L146.545 70.2213L145.134 70.619L145.145 70.8969C144.878 71.0004 144.616 71.1148 144.36 71.2401L144.164 71.044L142.911 71.8067L142.998 72.0737C142.769 72.2426 142.546 72.4224 142.333 72.6131L142.088 72.4769L141.085 73.5502L141.238 73.7845C141.064 74.0079 140.9 74.2422 140.748 74.4819L140.475 74.4165L139.876 75.577C139.898 75.5225 139.914 75.4681 139.936 75.4136L139.723 75.2283L140.399 73.9262L140.671 73.9915C140.824 73.7518 140.987 73.5175 141.162 73.2941L141.009 73.0599L142.012 71.9865L142.257 72.1227C142.469 71.9321 142.687 71.7523 142.922 71.5834L142.834 71.3164L144.088 70.5536L144.284 70.7497C144.54 70.6244 144.801 70.51 145.068 70.4065L145.057 70.1286L146.468 69.7309L146.605 69.9761C146.883 69.927 147.166 69.8834 147.449 69.8617L147.515 69.5892H148.98L149.046 69.8617C149.334 69.8889 149.612 69.927 149.89 69.9761L150.026 69.7309L151.437 70.1286L151.427 70.4065C151.694 70.51 151.955 70.6244 152.211 70.7497L152.407 70.5536L153.66 71.3164L153.573 71.5834C153.802 71.7523 154.025 71.9321 154.238 72.1227L154.483 71.9865L155.486 73.0599L155.333 73.2941C155.328 73.305 155.333 73.305 155.338 73.3105Z" fill="#14191E"/>
<path d="M140.54 83.8149L140.502 83.8585L140.279 83.5425L140.344 83.4662C140.41 83.5861 140.475 83.7005 140.54 83.8149Z" fill="#14191E"/>
<path d="M139.254 78.6336C139.26 78.4919 139.265 78.3503 139.271 78.2141L139.385 78.2685C139.352 78.5464 139.336 78.8352 139.331 79.1185L139.058 79.2057L139.124 80.1864L139.08 80.1809L138.982 78.7208L139.254 78.6336Z" fill="#14191E"/>
<path d="M139.608 81.5539L139.456 81.652L139.303 81.2161L139.505 81.0853C139.537 81.2433 139.57 81.4013 139.608 81.5539Z" fill="#14191E"/>
<path d="M156.166 74.4165L155.893 74.4819C155.741 74.2421 155.578 74.0079 155.398 73.7845L155.534 73.5829C155.632 73.7191 155.725 73.8553 155.817 73.997L156.09 73.9316L156.765 75.2338L156.645 75.3373L156.166 74.4165Z" fill="#14191E"/>
<path d="M157.196 76.7157L156.918 76.7048C156.836 76.4324 156.738 76.16 156.629 75.8985L156.711 75.8276C156.755 75.9584 156.798 76.0892 156.842 76.2199L157.12 76.2308L157.419 77.6638L157.398 77.6746L157.196 76.7157Z" fill="#14191E"/>
</g>
<g opacity="0.4">
<path d="M155.459 84.5941L155.355 84.7412L155.159 84.6649C155.257 84.6431 155.355 84.6158 155.459 84.5941Z" fill="#14191E"/>
<path d="M139.086 80.1809L138.988 78.7207L139.261 78.6336C139.266 78.3448 139.288 78.0615 139.315 77.7836L139.059 77.6637L139.359 76.2308L139.637 76.2199C139.718 75.9475 139.816 75.6751 139.925 75.4136L139.713 75.2283L140.389 73.9261L140.661 73.9915C140.814 73.7518 140.977 73.5175 141.151 73.2941L140.999 73.0598L142.001 71.9865L142.246 72.1227C142.459 71.932 142.677 71.7522 142.911 71.5833L142.824 71.3164L143.298 71.0276C142.268 72.4224 141.674 74.0732 141.674 75.8331C141.674 80.8674 146.502 84.9428 152.451 84.9428C153.345 84.9428 154.217 84.8502 155.05 84.6758C154.881 84.872 154.701 85.0681 154.511 85.2479L154.631 85.504L153.492 86.4302L153.269 86.2613C153.034 86.4193 152.789 86.5719 152.539 86.7081L152.587 86.9805L151.242 87.5635L151.073 87.3401C150.806 87.4273 150.528 87.5036 150.25 87.5689L150.223 87.8468L148.768 88.0484L148.665 87.7869C148.523 87.7923 148.381 87.7978 148.24 87.7978C148.098 87.7978 147.956 87.7923 147.815 87.7869L147.711 88.0484L146.262 87.8468L146.235 87.5689C145.957 87.5036 145.679 87.4273 145.412 87.3401L145.243 87.5635L143.897 86.9805L143.946 86.7081C143.696 86.5719 143.451 86.4248 143.216 86.2613L142.993 86.4302L141.854 85.504L141.974 85.2479C141.772 85.0518 141.576 84.8393 141.391 84.6213L141.129 84.7249L140.285 83.5262L140.47 83.3137C140.329 83.0686 140.198 82.8125 140.078 82.5564L139.8 82.5837L139.31 81.2052L139.544 81.0527C139.473 80.7802 139.419 80.4969 139.37 80.2136L139.086 80.1809Z" fill="#14191E"/>
</g>
<path d="M148.07 77.0045C148.07 77.0971 148.146 77.1734 148.239 77.1734C148.331 77.1734 148.408 77.0971 148.408 77.0045C148.408 76.9118 148.331 76.8356 148.239 76.8356C148.146 76.8356 148.07 76.9118 148.07 77.0045Z" fill="#22272B"/>
<g opacity="0.5">
<path d="M148.103 76.9064C148.103 76.9118 148.103 76.9173 148.103 76.9282C148.103 77.0208 148.179 77.0971 148.272 77.0971C148.326 77.0971 148.381 77.0698 148.408 77.0262C148.397 77.108 148.326 77.1733 148.245 77.1733C148.152 77.1733 148.076 77.0971 148.076 77.0044C148.07 76.9663 148.081 76.9336 148.103 76.9064Z" fill="#22272B"/>
</g>
<path d="M148.827 77.0916C148.789 77.1734 148.827 77.2769 148.914 77.315C148.996 77.3532 149.1 77.315 149.138 77.2279C149.176 77.1407 149.138 77.0426 149.051 77.0045C148.963 76.9718 148.865 77.0099 148.827 77.0916Z" fill="#22272B"/>
<g opacity="0.5">
<path d="M148.898 77.0154C148.893 77.0208 148.893 77.0263 148.887 77.0317C148.849 77.1135 148.887 77.217 148.975 77.2551C149.024 77.2769 149.083 77.2715 149.127 77.2442C149.083 77.315 148.996 77.3477 148.915 77.3096C148.827 77.2715 148.795 77.1734 148.827 77.0862C148.844 77.059 148.865 77.0317 148.898 77.0154Z" fill="#22272B"/>
</g>
<path d="M149.487 77.4839C149.416 77.5439 149.411 77.6528 149.476 77.7182C149.536 77.789 149.645 77.7945 149.71 77.7291C149.781 77.6692 149.787 77.5602 149.721 77.4948C149.661 77.424 149.553 77.4185 149.487 77.4839Z" fill="#22272B"/>
<g opacity="0.5">
<path d="M149.58 77.4403C149.574 77.4458 149.569 77.4458 149.563 77.4512C149.492 77.5111 149.487 77.6201 149.552 77.6855C149.591 77.7291 149.645 77.7454 149.694 77.74C149.629 77.789 149.531 77.7781 149.476 77.7182C149.416 77.6473 149.422 77.5438 149.487 77.4839C149.514 77.4567 149.541 77.4458 149.58 77.4403Z" fill="#22272B"/>
</g>
<path d="M149.923 78.1051C149.836 78.1324 149.787 78.2304 149.814 78.3176C149.841 78.4048 149.939 78.4538 150.026 78.4266C150.114 78.3993 150.163 78.3013 150.135 78.2141C150.108 78.1269 150.015 78.0779 149.923 78.1051Z" fill="#22272B"/>
<g opacity="0.5">
<path d="M150.026 78.1052C150.021 78.1052 150.015 78.1052 150.005 78.1106C149.917 78.1379 149.868 78.2359 149.896 78.3231C149.912 78.3776 149.956 78.4157 150.005 78.4321C149.923 78.4484 149.841 78.3994 149.814 78.3231C149.787 78.2359 149.836 78.1433 149.923 78.1106C149.961 78.0943 149.994 78.0943 150.026 78.1052Z" fill="#22272B"/>
</g>
<path d="M150.075 78.8515C149.983 78.8406 149.901 78.906 149.89 78.9986C149.879 79.0912 149.944 79.1729 150.037 79.1838C150.13 79.1947 150.211 79.1293 150.222 79.0367C150.233 78.9441 150.168 78.8624 150.075 78.8515Z" fill="#22272B"/>
<g opacity="0.5">
<path d="M150.167 78.8951C150.162 78.8951 150.157 78.8896 150.146 78.8896C150.053 78.8787 149.971 78.9441 149.961 79.0367C149.955 79.0912 149.977 79.1457 150.015 79.1784C149.933 79.162 149.879 79.0858 149.884 78.9986C149.895 78.906 149.977 78.8406 150.069 78.8515C150.108 78.8569 150.14 78.8733 150.167 78.8951Z" fill="#22272B"/>
</g>
<path d="M149.906 79.598C149.824 79.5544 149.726 79.5817 149.677 79.6579C149.634 79.7397 149.661 79.8377 149.737 79.8868C149.819 79.9304 149.917 79.9031 149.966 79.8268C150.01 79.7451 149.982 79.6416 149.906 79.598Z" fill="#22272B"/>
<g opacity="0.5">
<path d="M149.972 79.6744C149.966 79.6689 149.961 79.6635 149.956 79.6635C149.874 79.6199 149.776 79.6471 149.727 79.7234C149.699 79.7724 149.699 79.8269 149.721 79.876C149.656 79.8269 149.634 79.7343 149.678 79.658C149.721 79.5763 149.825 79.5491 149.907 79.5981C149.934 79.6144 149.961 79.6417 149.972 79.6744Z" fill="#22272B"/>
</g>
<path d="M149.449 80.2082C149.394 80.1319 149.291 80.1155 149.215 80.17C149.138 80.2245 149.122 80.328 149.176 80.4043C149.231 80.4806 149.334 80.4969 149.411 80.4424C149.487 80.388 149.503 80.2844 149.449 80.2082Z" fill="#22272B"/>
<g opacity="0.5">
<path d="M149.481 80.3062C149.476 80.3008 149.476 80.2953 149.47 80.2899C149.416 80.2136 149.312 80.1973 149.236 80.2518C149.193 80.2844 149.165 80.3389 149.165 80.388C149.127 80.3171 149.144 80.2245 149.214 80.17C149.291 80.1155 149.394 80.1319 149.449 80.2082C149.47 80.2354 149.481 80.2735 149.481 80.3062Z" fill="#22272B"/>
</g>
<path d="M148.783 80.5786C148.761 80.486 148.674 80.4315 148.587 80.4478C148.494 80.4696 148.44 80.5568 148.456 80.644C148.473 80.7311 148.565 80.7911 148.652 80.7747C148.745 80.7584 148.799 80.6712 148.783 80.5786Z" fill="#22272B"/>
<g opacity="0.5">
<path d="M148.773 80.6821C148.773 80.6767 148.773 80.6712 148.773 80.6603C148.751 80.5677 148.664 80.5132 148.577 80.5296C148.522 80.5405 148.478 80.5786 148.457 80.6276C148.451 80.5459 148.506 80.4696 148.587 80.4478C148.68 80.426 148.767 80.486 148.783 80.5786C148.789 80.6167 148.783 80.6494 148.773 80.6821Z" fill="#22272B"/>
</g>
<path d="M148.021 80.6495C148.043 80.5569 147.983 80.4697 147.89 80.4533C147.798 80.4315 147.71 80.4915 147.694 80.5841C147.672 80.6767 147.732 80.7639 147.825 80.7802C147.912 80.7966 148.005 80.7421 148.021 80.6495Z" fill="#22272B"/>
<g opacity="0.5">
<path d="M147.972 80.7367C147.972 80.7312 147.978 80.7258 147.978 80.7149C147.999 80.6222 147.939 80.5351 147.847 80.5187C147.792 80.5078 147.738 80.5242 147.7 80.5623C147.727 80.486 147.809 80.437 147.89 80.4533C147.983 80.4751 148.038 80.5623 148.021 80.6495C148.016 80.6876 147.999 80.7149 147.972 80.7367Z" fill="#22272B"/>
</g>
<path d="M147.302 80.4043C147.357 80.328 147.34 80.2245 147.264 80.17C147.188 80.1155 147.084 80.1319 147.03 80.2082C146.975 80.2844 146.992 80.388 147.068 80.4424C147.144 80.4969 147.248 80.4806 147.302 80.4043Z" fill="#22272B"/>
<g opacity="0.5">
<path d="M147.221 80.4642C147.226 80.4587 147.232 80.4533 147.232 80.4479C147.286 80.3716 147.27 80.2681 147.193 80.2136C147.15 80.1809 147.09 80.1754 147.041 80.1918C147.095 80.1318 147.193 80.1209 147.259 80.17C147.335 80.2245 147.351 80.328 147.297 80.4043C147.28 80.437 147.253 80.4533 147.221 80.4642Z" fill="#22272B"/>
</g>
<path d="M146.741 79.8867C146.822 79.8431 146.85 79.7396 146.801 79.6579C146.757 79.5762 146.653 79.5489 146.572 79.598C146.49 79.6416 146.463 79.7451 146.512 79.8268C146.561 79.9085 146.659 79.9358 146.741 79.8867Z" fill="#22272B"/>
<g opacity="0.5">
<path d="M146.642 79.9084C146.648 79.9084 146.653 79.903 146.659 79.8975C146.741 79.8539 146.768 79.7504 146.719 79.6687C146.691 79.6197 146.642 79.5924 146.588 79.587C146.664 79.5543 146.757 79.5815 146.8 79.6578C146.844 79.7395 146.817 79.8376 146.74 79.8866C146.708 79.903 146.675 79.9139 146.642 79.9084Z" fill="#22272B"/>
</g>
<path d="M146.441 79.1838C146.533 79.1729 146.599 79.0912 146.588 78.9986C146.577 78.906 146.495 78.8406 146.403 78.8515C146.31 78.8624 146.245 78.9441 146.256 79.0367C146.266 79.1293 146.348 79.1947 146.441 79.1838Z" fill="#22272B"/>
<g opacity="0.5">
<path d="M146.343 79.1675C146.348 79.1675 146.354 79.1675 146.365 79.1675C146.457 79.1566 146.523 79.0749 146.512 78.9823C146.506 78.9278 146.474 78.8787 146.425 78.8515C146.506 78.8515 146.577 78.9169 146.588 78.9986C146.599 79.0912 146.533 79.173 146.441 79.1839C146.403 79.1893 146.37 79.1839 146.343 79.1675Z" fill="#22272B"/>
</g>
<path d="M146.452 78.4212C146.539 78.4485 146.632 78.3994 146.665 78.3122C146.692 78.2251 146.643 78.1324 146.556 78.0998C146.469 78.0725 146.376 78.1215 146.343 78.2087C146.316 78.3013 146.365 78.394 146.452 78.4212Z" fill="#22272B"/>
<g opacity="0.5">
<path d="M146.37 78.3667C146.376 78.3721 146.381 78.3721 146.387 78.3721C146.474 78.3994 146.566 78.3503 146.599 78.2632C146.615 78.2087 146.605 78.1542 146.572 78.1106C146.648 78.1433 146.686 78.2305 146.659 78.3122C146.632 78.3994 146.534 78.4484 146.447 78.4212C146.414 78.4103 146.387 78.3939 146.37 78.3667Z" fill="#22272B"/>
</g>
<path d="M146.768 77.7292C146.839 77.7892 146.943 77.7837 147.002 77.7183C147.062 77.6475 147.057 77.544 146.992 77.4841C146.926 77.4241 146.817 77.4296 146.757 77.495C146.697 77.5658 146.703 77.6693 146.768 77.7292Z" fill="#22272B"/>
<g opacity="0.5">
<path d="M146.719 77.642C146.724 77.6475 146.73 77.6529 146.73 77.6584C146.801 77.7183 146.904 77.7129 146.964 77.6475C147.002 77.6039 147.013 77.5494 147.002 77.5004C147.057 77.5657 147.057 77.6584 147.002 77.7238C146.942 77.7946 146.833 77.8 146.768 77.7346C146.741 77.7074 146.724 77.6747 146.719 77.642Z" fill="#22272B"/>
</g>
<path d="M147.345 77.2279C147.383 77.3096 147.481 77.3477 147.568 77.315C147.656 77.2823 147.688 77.1788 147.656 77.0916C147.617 77.0099 147.519 76.9718 147.432 77.0045C147.345 77.0426 147.307 77.1461 147.345 77.2279Z" fill="#22272B"/>
<g opacity="0.5">
<path d="M147.334 77.1297C147.334 77.1351 147.339 77.1406 147.339 77.1515C147.378 77.2332 147.476 77.2713 147.563 77.2386C147.612 77.2168 147.65 77.1678 147.661 77.1188C147.683 77.2005 147.65 77.2877 147.568 77.3204C147.487 77.3585 147.383 77.3204 147.345 77.2332C147.329 77.195 147.323 77.1624 147.334 77.1297Z" fill="#22272B"/>
</g>
<path d="M159.196 80.1809L159.097 78.7208L159.37 78.6336C159.375 78.3448 159.397 78.0615 159.424 77.7836L159.168 77.6638L159.468 76.2308L159.746 76.2199C159.828 75.9475 159.926 75.6751 160.035 75.4136L159.822 75.2283L160.498 73.9262L160.77 73.9915C160.923 73.7518 161.086 73.5175 161.266 73.2941L161.108 73.0599L162.11 71.9865L162.356 72.1227C162.568 71.9321 162.786 71.7523 163.02 71.5834L162.933 71.3164L164.186 70.5536L164.382 70.7497C164.639 70.6244 164.9 70.51 165.167 70.4065L165.156 70.1286L166.567 69.7309L166.703 69.9761C166.981 69.927 167.265 69.8834 167.548 69.8617L167.613 69.5892H169.079L169.144 69.8617C169.433 69.8889 169.711 69.927 169.989 69.9761L170.125 69.7309L171.536 70.1286L171.525 70.4065C171.792 70.51 172.054 70.6244 172.31 70.7497L172.506 70.5536L173.759 71.3164L173.672 71.5834C173.901 71.7523 174.124 71.9321 174.337 72.1227L174.582 71.9865L175.584 73.0599L175.426 73.2941C175.601 73.5175 175.764 73.7518 175.922 73.9915L176.195 73.9262L176.87 75.2283L176.658 75.4136C176.767 75.6751 176.859 75.9475 176.946 76.2199L177.224 76.2308L177.524 77.6638L177.268 77.7836C177.301 78.0615 177.317 78.3503 177.322 78.6336L177.595 78.7208L177.497 80.1809L177.219 80.23C177.175 80.5133 177.115 80.7966 177.045 81.069L177.279 81.2216L176.788 82.6L176.511 82.5728C176.391 82.8343 176.26 83.0849 176.118 83.3301L176.304 83.5426L175.459 84.7412L175.197 84.6377C175.012 84.8557 174.816 85.0627 174.615 85.2643L174.734 85.5204L173.596 86.4466L173.372 86.2777C173.138 86.4357 172.893 86.5882 172.642 86.7245L172.691 86.9969L171.346 87.5799L171.177 87.3565C170.91 87.4436 170.632 87.5199 170.354 87.5853L170.327 87.8632L168.872 88.0648L168.768 87.8032C168.627 87.8087 168.485 87.8141 168.343 87.8141C168.202 87.8141 168.06 87.8087 167.918 87.8032L167.815 88.0648L166.36 87.8632L166.333 87.5853C166.055 87.5199 165.777 87.4436 165.51 87.3565L165.341 87.5799L163.996 86.9969L164.045 86.7245C163.794 86.5882 163.549 86.4411 163.315 86.2777L163.091 86.4466L161.953 85.5204L162.072 85.2643C161.871 85.0681 161.675 84.8557 161.489 84.6377L161.228 84.7412L160.383 83.5426L160.569 83.3301C160.427 83.0849 160.296 82.8289 160.176 82.5728L159.898 82.6L159.408 81.2216L159.642 81.069C159.571 80.7966 159.517 80.5133 159.468 80.23L159.196 80.1809Z" fill="#232C33"/>
<g opacity="0.4">
<path d="M168.344 83.3682C170.851 83.3682 172.883 81.3362 172.883 78.8297C172.883 76.3231 170.851 74.2911 168.344 74.2911C165.838 74.2911 163.806 76.3231 163.806 78.8297C163.806 81.3362 165.838 83.3682 168.344 83.3682Z" fill="#14191E"/>
</g>
<path d="M168.344 82.965C170.628 82.965 172.479 81.1136 172.479 78.8297C172.479 76.5458 170.628 74.6943 168.344 74.6943C166.06 74.6943 164.208 76.5458 164.208 78.8297C164.208 81.1136 166.06 82.965 168.344 82.965Z" fill="#686A6B"/>
<path d="M166.066 78.8298C166.066 80.0883 167.091 81.1126 168.349 81.1126C169.608 81.1126 170.632 80.0883 170.632 78.8298C170.632 77.5712 169.608 76.5469 168.349 76.5469C167.085 76.5469 166.066 77.5712 166.066 78.8298Z" fill="#31393F"/>
<g opacity="0.2">
<path d="M165.287 76.0456C165.178 76.4106 165.124 76.8029 165.124 77.2061C165.124 79.489 166.976 81.3414 169.259 81.3414C170.468 81.3414 171.564 80.8184 172.315 79.9902C171.814 81.7119 170.229 82.9705 168.344 82.9705C166.061 82.9705 164.208 81.1181 164.208 78.8352C164.208 77.7564 164.617 76.7811 165.287 76.0456Z" fill="#14191E"/>
</g>
<g opacity="0.2">
<path d="M177.214 81.178L177.285 81.2216L177.16 81.5757L177.127 81.5539C177.16 81.4286 177.187 81.3033 177.214 81.178Z" fill="#14191E"/>
<path d="M177.383 78.6499L177.601 78.7207L177.568 79.1729L177.405 79.1239C177.399 78.9659 177.394 78.8079 177.383 78.6499Z" fill="#14191E"/>
<path d="M160.106 75.8985C159.997 76.16 159.905 76.4324 159.817 76.7048L159.539 76.7157L159.327 77.74L159.164 77.6637L159.463 76.2308L159.741 76.2199C159.79 76.0565 159.85 75.893 159.905 75.7296L160.106 75.8985Z" fill="#14191E"/>
<path d="M175.443 73.3105L174.664 72.4769L174.419 72.6131C174.206 72.4224 173.989 72.2426 173.754 72.0737L173.841 71.8067L172.588 71.044L172.392 71.2401C172.136 71.1148 171.875 71.0004 171.608 70.8969L171.619 70.619L170.207 70.2213L170.071 70.4664C169.793 70.4174 169.51 70.3738 169.227 70.352L169.161 70.0796H167.696L167.63 70.352C167.342 70.3793 167.064 70.4174 166.786 70.4664L166.65 70.2213L165.238 70.619L165.249 70.8969C164.982 71.0004 164.721 71.1148 164.465 71.2401L164.269 71.044L163.015 71.8067L163.103 72.0737C162.874 72.2426 162.65 72.4224 162.438 72.6131L162.193 72.4769L161.19 73.5502L161.348 73.7845C161.174 74.0079 161.01 74.2422 160.852 74.4819L160.58 74.4165L159.981 75.577C160.002 75.5225 160.019 75.4681 160.041 75.4136L159.828 75.2283L160.504 73.9262L160.776 73.9915C160.929 73.7518 161.092 73.5175 161.272 73.2941L161.114 73.0599L162.116 71.9865L162.362 72.1227C162.574 71.9321 162.792 71.7523 163.026 71.5834L162.939 71.3164L164.192 70.5536L164.389 70.7497C164.645 70.6244 164.906 70.51 165.173 70.4065L165.162 70.1286L166.573 69.7309L166.71 69.9761C166.987 69.927 167.271 69.8834 167.554 69.8617L167.619 69.5892H169.085L169.15 69.8617C169.439 69.8889 169.717 69.927 169.995 69.9761L170.131 69.7309L171.542 70.1286L171.531 70.4065C171.798 70.51 172.06 70.6244 172.316 70.7497L172.512 70.5536L173.765 71.3164L173.678 71.5834C173.907 71.7523 174.13 71.9321 174.343 72.1227L174.588 71.9865L175.59 73.0599L175.432 73.2941C175.438 73.305 175.438 73.305 175.443 73.3105Z" fill="#14191E"/>
<path d="M160.651 83.8149L160.612 83.8585L160.389 83.5425L160.455 83.4662C160.52 83.5861 160.58 83.7005 160.651 83.8149Z" fill="#14191E"/>
<path d="M159.365 78.6335C159.371 78.4918 159.376 78.3501 159.382 78.2139L159.496 78.2684C159.464 78.5463 159.447 78.835 159.442 79.1184L159.169 79.2055L159.235 80.1862L159.191 80.1808L159.093 78.7206L159.365 78.6335Z" fill="#14191E"/>
<path d="M159.719 81.5539L159.567 81.652L159.414 81.2161L159.616 81.0853C159.643 81.2433 159.681 81.4013 159.719 81.5539Z" fill="#14191E"/>
<path d="M176.277 74.4165L176.005 74.4819C175.852 74.2421 175.689 74.0079 175.509 73.7845L175.645 73.5829C175.743 73.7191 175.836 73.8553 175.929 73.997L176.201 73.9316L176.877 75.2338L176.757 75.3373L176.277 74.4165Z" fill="#14191E"/>
<path d="M177.301 76.7157L177.023 76.7048C176.941 76.4324 176.843 76.16 176.734 75.8985L176.816 75.8276C176.86 75.9584 176.903 76.0892 176.947 76.2199L177.225 76.2308L177.524 77.6638L177.503 77.6746L177.301 76.7157Z" fill="#14191E"/>
</g>
<g opacity="0.4">
<path d="M175.562 84.5942L175.459 84.7413L175.263 84.665C175.361 84.6432 175.464 84.616 175.562 84.5942Z" fill="#14191E"/>
<path d="M159.195 80.1809L159.097 78.7207L159.369 78.6336C159.375 78.3448 159.397 78.0615 159.424 77.7836L159.168 77.6637L159.468 76.2308L159.745 76.2199C159.827 75.9475 159.925 75.6751 160.034 75.4136L159.822 75.2283L160.497 73.9261L160.77 73.9915C160.922 73.7518 161.086 73.5175 161.266 73.2941L161.107 73.0598L162.11 71.9865L162.355 72.1227C162.568 71.932 162.786 71.7522 163.02 71.5833L162.933 71.3164L163.407 71.0276C162.377 72.4224 161.783 74.0732 161.783 75.8331C161.783 80.8674 166.61 84.9428 172.56 84.9428C173.454 84.9428 174.325 84.8502 175.159 84.6758C174.99 84.872 174.81 85.0681 174.62 85.2479L174.739 85.504L173.601 86.4302L173.377 86.2613C173.143 86.4193 172.898 86.5719 172.647 86.7081L172.696 86.9805L171.351 87.5635L171.182 87.3401C170.915 87.4273 170.637 87.5036 170.359 87.5689L170.332 87.8468L168.877 88.0484L168.773 87.7869C168.632 87.7923 168.49 87.7978 168.348 87.7978C168.207 87.7978 168.065 87.7923 167.923 87.7869L167.82 88.0484L166.365 87.8468L166.338 87.5689C166.06 87.5036 165.782 87.4273 165.515 87.3401L165.346 87.5635L164 86.9805L164.05 86.7081C163.799 86.5719 163.554 86.4248 163.319 86.2613L163.096 86.4302L161.957 85.504L162.077 85.2479C161.876 85.0518 161.68 84.8393 161.494 84.6213L161.233 84.7249L160.388 83.5262L160.574 83.3137C160.432 83.0686 160.301 82.8125 160.181 82.5564L159.903 82.5837L159.413 81.2052L159.647 81.0527C159.576 80.7802 159.522 80.4969 159.473 80.2136L159.195 80.1809Z" fill="#14191E"/>
</g>
<path d="M168.181 77.0045C168.181 77.0971 168.257 77.1734 168.35 77.1734C168.442 77.1734 168.518 77.0971 168.518 77.0045C168.518 76.9118 168.442 76.8356 168.35 76.8356C168.257 76.8356 168.181 76.9118 168.181 77.0045Z" fill="#22272B"/>
<g opacity="0.5">
<path d="M168.208 76.9064C168.208 76.9118 168.208 76.9173 168.208 76.9282C168.208 77.0208 168.284 77.0971 168.377 77.0971C168.431 77.0971 168.486 77.0698 168.513 77.0262C168.502 77.108 168.431 77.1733 168.35 77.1733C168.257 77.1733 168.181 77.0971 168.181 77.0044C168.181 76.9663 168.192 76.9336 168.208 76.9064Z" fill="#22272B"/>
</g>
<path d="M168.938 77.0916C168.899 77.1734 168.938 77.2769 169.025 77.315C169.112 77.3532 169.21 77.315 169.248 77.2279C169.286 77.1461 169.248 77.0426 169.161 77.0045C169.074 76.9718 168.976 77.0099 168.938 77.0916Z" fill="#22272B"/>
<g opacity="0.5">
<path d="M169.003 77.0154C168.998 77.0208 168.998 77.0263 168.993 77.0317C168.954 77.1135 168.993 77.217 169.08 77.2551C169.129 77.2769 169.189 77.2715 169.232 77.2442C169.189 77.315 169.102 77.3477 169.02 77.3096C168.938 77.2715 168.9 77.1734 168.933 77.0862C168.949 77.059 168.976 77.0317 169.003 77.0154Z" fill="#22272B"/>
</g>
<path d="M169.592 77.4839C169.521 77.5439 169.516 77.6528 169.581 77.7182C169.641 77.789 169.75 77.7945 169.815 77.7291C169.881 77.6637 169.892 77.5602 169.826 77.4948C169.766 77.424 169.663 77.4185 169.592 77.4839Z" fill="#22272B"/>
<g opacity="0.5">
<path d="M169.684 77.4404C169.679 77.4458 169.673 77.4458 169.668 77.4513C169.597 77.5112 169.592 77.6202 169.657 77.6855C169.695 77.7291 169.75 77.7455 169.799 77.74C169.728 77.7891 169.635 77.7782 169.581 77.7182C169.521 77.6474 169.526 77.5439 169.592 77.484C169.619 77.4567 169.652 77.4458 169.684 77.4404Z" fill="#22272B"/>
</g>
<path d="M170.033 78.1051C169.946 78.1324 169.897 78.2304 169.924 78.3176C169.951 78.4048 170.049 78.4538 170.136 78.4266C170.224 78.3993 170.273 78.3013 170.246 78.2141C170.213 78.1269 170.12 78.0779 170.033 78.1051Z" fill="#22272B"/>
<g opacity="0.5">
<path d="M170.131 78.1052C170.126 78.1052 170.12 78.1052 170.109 78.1106C170.022 78.1379 169.973 78.2359 170 78.3231C170.017 78.3776 170.06 78.4157 170.109 78.4321C170.028 78.4484 169.946 78.3994 169.919 78.3231C169.891 78.2359 169.94 78.1433 170.028 78.1106C170.066 78.0943 170.098 78.0943 170.131 78.1052Z" fill="#22272B"/>
</g>
<path d="M170.18 78.8515C170.087 78.8406 170.005 78.906 169.994 78.9986C169.983 79.0912 170.049 79.1729 170.141 79.1838C170.234 79.1947 170.316 79.1293 170.327 79.0367C170.338 78.9441 170.272 78.8624 170.18 78.8515Z" fill="#22272B"/>
<g opacity="0.5">
<path d="M170.273 78.8949C170.267 78.8949 170.262 78.8895 170.251 78.8895C170.159 78.8786 170.077 78.944 170.066 79.0366C170.06 79.0911 170.082 79.1456 170.12 79.1783C170.039 79.1619 169.984 79.0856 169.99 78.9985C170.001 78.9058 170.082 78.8404 170.175 78.8513C170.218 78.8568 170.246 78.8731 170.273 78.8949Z" fill="#22272B"/>
</g>
<path d="M170.011 79.598C169.929 79.5544 169.831 79.5817 169.782 79.6579C169.739 79.7397 169.766 79.8377 169.842 79.8868C169.924 79.9304 170.022 79.9031 170.071 79.8268C170.12 79.7451 170.093 79.6416 170.011 79.598Z" fill="#22272B"/>
<g opacity="0.5">
<path d="M170.082 79.6744C170.077 79.6689 170.071 79.6635 170.066 79.6635C169.984 79.6199 169.886 79.6471 169.837 79.7234C169.81 79.7724 169.81 79.8269 169.832 79.876C169.766 79.8269 169.744 79.7343 169.788 79.658C169.832 79.5763 169.935 79.5491 170.017 79.5981C170.044 79.6144 170.066 79.6417 170.082 79.6744Z" fill="#22272B"/>
</g>
<path d="M169.553 80.2082C169.499 80.1319 169.395 80.1155 169.319 80.17C169.243 80.2245 169.226 80.328 169.281 80.4043C169.335 80.4806 169.439 80.4969 169.515 80.4424C169.591 80.388 169.608 80.2844 169.553 80.2082Z" fill="#22272B"/>
<g opacity="0.5">
<path d="M169.586 80.3062C169.58 80.3008 169.58 80.2953 169.575 80.2899C169.52 80.2136 169.417 80.1973 169.341 80.2518C169.297 80.2844 169.27 80.3389 169.27 80.388C169.232 80.3171 169.248 80.2245 169.319 80.17C169.395 80.1155 169.499 80.1319 169.553 80.2082C169.575 80.2354 169.586 80.2735 169.586 80.3062Z" fill="#22272B"/>
</g>
<path d="M168.888 80.5786C168.866 80.486 168.779 80.4315 168.692 80.4478C168.599 80.4696 168.545 80.5568 168.561 80.644C168.577 80.7311 168.67 80.7911 168.757 80.7747C168.85 80.7584 168.91 80.6712 168.888 80.5786Z" fill="#22272B"/>
<g opacity="0.5">
<path d="M168.877 80.6821C168.877 80.6767 168.877 80.6712 168.877 80.6603C168.856 80.5677 168.768 80.5132 168.681 80.5296C168.627 80.5405 168.583 80.5786 168.561 80.6276C168.556 80.5459 168.61 80.4696 168.692 80.4478C168.785 80.426 168.872 80.486 168.888 80.5786C168.894 80.6167 168.894 80.6494 168.877 80.6821Z" fill="#22272B"/>
</g>
<path d="M168.131 80.6495C168.152 80.5569 168.092 80.4697 168 80.4533C167.907 80.4315 167.82 80.4915 167.804 80.5841C167.782 80.6767 167.842 80.7639 167.935 80.7802C168.022 80.7966 168.109 80.7421 168.131 80.6495Z" fill="#22272B"/>
<g opacity="0.5">
<path d="M168.077 80.7367C168.077 80.7312 168.082 80.7258 168.082 80.7149C168.104 80.6222 168.044 80.5351 167.951 80.5187C167.897 80.5078 167.842 80.5242 167.804 80.5623C167.831 80.486 167.913 80.437 167.995 80.4533C168.087 80.4751 168.142 80.5623 168.126 80.6495C168.12 80.6876 168.104 80.7149 168.077 80.7367Z" fill="#22272B"/>
</g>
<path d="M167.407 80.4043C167.462 80.328 167.445 80.2245 167.369 80.17C167.293 80.1155 167.189 80.1319 167.135 80.2082C167.08 80.2844 167.097 80.388 167.173 80.4424C167.249 80.4969 167.353 80.4806 167.407 80.4043Z" fill="#22272B"/>
<g opacity="0.5">
<path d="M167.325 80.4641C167.331 80.4587 167.336 80.4532 167.336 80.4478C167.391 80.3715 167.374 80.268 167.298 80.2135C167.254 80.1808 167.195 80.1754 167.146 80.1917C167.2 80.1318 167.298 80.1209 167.364 80.1699C167.44 80.2244 167.456 80.3279 167.402 80.4042C167.385 80.4369 167.358 80.4532 167.325 80.4641Z" fill="#22272B"/>
</g>
<path d="M166.845 79.8867C166.927 79.8431 166.954 79.7396 166.905 79.6579C166.862 79.5762 166.758 79.5489 166.676 79.598C166.595 79.6416 166.567 79.7451 166.616 79.8268C166.665 79.9085 166.769 79.9358 166.845 79.8867Z" fill="#22272B"/>
<g opacity="0.5">
<path d="M166.748 79.9084C166.753 79.9084 166.758 79.9029 166.764 79.8975C166.846 79.8539 166.873 79.7504 166.824 79.6686C166.797 79.6196 166.748 79.5924 166.693 79.5869C166.769 79.5542 166.862 79.5815 166.906 79.6577C166.949 79.7395 166.922 79.8375 166.846 79.8866C166.818 79.9029 166.78 79.9138 166.748 79.9084Z" fill="#22272B"/>
</g>
<path d="M166.545 79.1837C166.638 79.1728 166.703 79.0911 166.692 78.9985C166.682 78.9058 166.6 78.8404 166.507 78.8513C166.415 78.8622 166.349 78.944 166.36 79.0366C166.371 79.1292 166.453 79.1946 166.545 79.1837Z" fill="#22272B"/>
<g opacity="0.5">
<path d="M166.448 79.1675C166.453 79.1675 166.459 79.1675 166.469 79.1675C166.562 79.1566 166.627 79.0749 166.617 78.9823C166.611 78.9278 166.578 78.8787 166.529 78.8515C166.611 78.8515 166.682 78.9169 166.693 78.9986C166.704 79.0912 166.638 79.173 166.546 79.1839C166.513 79.1893 166.475 79.1839 166.448 79.1675Z" fill="#22272B"/>
</g>
<path d="M166.557 78.4212C166.644 78.4485 166.737 78.3994 166.769 78.3122C166.797 78.2251 166.748 78.1324 166.66 78.0998C166.573 78.0725 166.481 78.1215 166.448 78.2087C166.421 78.3013 166.47 78.394 166.557 78.4212Z" fill="#22272B"/>
<g opacity="0.5">
<path d="M166.475 78.3667C166.481 78.3721 166.486 78.3721 166.491 78.3721C166.579 78.3994 166.671 78.3503 166.704 78.2632C166.72 78.2087 166.709 78.1542 166.677 78.1106C166.753 78.1433 166.791 78.2305 166.764 78.3122C166.737 78.3994 166.639 78.4484 166.551 78.4212C166.524 78.4103 166.497 78.3939 166.475 78.3667Z" fill="#22272B"/>
</g>
<path d="M166.878 77.7292C166.948 77.7892 167.052 77.7837 167.112 77.7183C167.172 77.6475 167.166 77.544 167.101 77.4841C167.03 77.4241 166.927 77.4296 166.867 77.495C166.801 77.5658 166.807 77.6693 166.878 77.7292Z" fill="#22272B"/>
<g opacity="0.5">
<path d="M166.824 77.6421C166.829 77.6475 166.835 77.653 166.835 77.6584C166.905 77.7184 167.009 77.7129 167.069 77.6475C167.107 77.6039 167.118 77.5495 167.107 77.5004C167.162 77.5658 167.162 77.6584 167.107 77.7238C167.047 77.7946 166.938 77.8001 166.873 77.7347C166.851 77.7075 166.835 77.6748 166.824 77.6421Z" fill="#22272B"/>
</g>
<path d="M167.45 77.2279C167.488 77.3096 167.586 77.3477 167.673 77.315C167.76 77.2823 167.793 77.1788 167.76 77.0916C167.722 77.0099 167.624 76.9718 167.537 77.0045C167.45 77.0426 167.412 77.1461 167.45 77.2279Z" fill="#22272B"/>
<g opacity="0.5">
<path d="M167.439 77.1297C167.439 77.1351 167.445 77.1406 167.445 77.1515C167.483 77.2332 167.581 77.2713 167.668 77.2386C167.717 77.2168 167.755 77.1678 167.766 77.1188C167.788 77.2005 167.755 77.2877 167.674 77.3204C167.592 77.3585 167.488 77.3204 167.45 77.2332C167.434 77.195 167.434 77.1624 167.439 77.1297Z" fill="#22272B"/>
</g>
<path d="M52.3741 74.6943C52.0145 74.6943 51.6931 74.9123 51.5623 75.2501C51.1973 76.2035 50.5054 78.0723 50.5054 78.3829V81.8372C50.5054 82.5673 51.1755 83.1557 51.9982 83.1557H67.0739V80.2953H67.8857V74.7488L52.3741 74.6943Z" fill="white"/>
<g opacity="0.4">
<path d="M55.4145 46.1556C55.4145 46.1556 55.3981 73.3105 55.4145 73.6537V46.1556Z" fill="#4D4D4D"/>
<path d="M55.2236 73.6646C55.2072 73.3159 55.2236 47.2671 55.2236 46.1556H55.6049C55.6049 46.428 55.5886 73.2723 55.6049 73.6482L55.2236 73.6646Z" fill="#4D4D4D"/>
</g>
<g opacity="0.4">
<path d="M79.7854 39.0618V64.9908C79.7745 64.7129 79.7799 52.4322 79.7799 41.6226V38.7404C79.7799 38.7404 79.7799 39.0618 79.7854 39.0618Z" fill="#4D4D4D"/>
<path d="M79.5564 65.0017C79.5455 64.7456 79.5455 55.4724 79.5509 41.6226V38.7404H80.0087C80.0087 38.7404 80.0087 38.7839 80.0087 38.8384H80.0141V64.9962L79.5564 65.0017Z" fill="#4D4D4D"/>
</g>
<path d="M57.8498 55.6358L71.8304 53.3148C72.3425 53.2276 72.8547 53.2059 73.3723 53.2276C74.2332 53.2658 75.5789 53.244 76.7176 53.2059C77.8781 53.1677 78.8044 52.2142 78.8044 51.0537V43.0173C78.8044 42.3744 78.1233 41.8514 77.2788 41.8514H61.1516C59.4462 41.8514 56.4386 51.5877 56.4386 51.5877C55.8775 52.6883 56.4714 55.6358 57.8498 55.6358Z" fill="#333333"/>
<path d="M57.5581 56.6703H59.7593V55.6351H57.5581V56.6703Z" fill="#1A1A1A"/>
<path d="M78.0636 60.3705H74.2552C74.0863 60.3705 73.9502 60.2342 73.9502 60.0653V59.5641C74.3752 59.1391 74.6149 58.8994 75.0344 58.4799H77.9983C78.2163 58.4799 78.396 58.6597 78.396 58.8776V60.0381C78.4015 60.2233 78.2489 60.3705 78.0636 60.3705Z" fill="black"/>
<path d="M78.0634 60.4958H74.255C74.0207 60.4958 73.8247 60.3051 73.8247 60.0654V59.5151L74.9852 58.3546H78.0036C78.2924 58.3546 78.5266 58.5889 78.5266 58.8777V60.0382C78.5266 60.2942 78.3195 60.4958 78.0634 60.4958ZM74.0753 59.6186V60.0654C74.0753 60.1635 74.1569 60.2452 74.255 60.2452H78.0634C78.1779 60.2452 78.2706 60.1526 78.2706 60.0382V58.8777C78.2706 58.7251 78.1507 58.6052 77.9981 58.6052H75.0832L74.0753 59.6186Z" fill="#666666"/>
<path d="M53.9 67.4806L51.094 67.546L50.898 63.2963C50.8653 62.5825 51.6498 61.9886 52.6523 61.9668L53.7529 61.9396C54.325 61.9287 54.8044 62.2447 54.8208 62.6533L55.0006 66.647C55.0224 67.0883 54.532 67.4643 53.9 67.4806Z" fill="#979797"/>
<g opacity="0.7">
<path d="M54.8207 62.648C54.8098 62.3483 54.5429 62.0977 54.1778 61.9941L54.3413 65.6119C54.3631 66.0586 53.8673 66.4346 53.2353 66.4509L51.0396 66.5L51.0885 67.5461L53.8945 67.4807C54.5265 67.4643 55.0223 67.0884 55.0005 66.6416L54.8207 62.648Z" fill="#979797"/>
</g>
<path d="M58.8144 54.6879L71.6507 52.6883C72.1193 52.6175 72.5933 52.5957 73.0673 52.612C73.8574 52.6447 75.0942 52.6229 76.1403 52.5957C77.2082 52.563 78.058 51.7403 78.058 50.7378V43.8074C78.058 43.2517 77.4316 42.7994 76.6579 42.7994H61.8436C60.2744 42.7994 57.5121 51.2009 57.5121 51.2009C57 52.1434 57.5503 54.6879 58.8144 54.6879Z" fill="#424756"/>
<path d="M59.68 56.4258C58.6666 56.4258 57.844 55.5487 57.844 54.4753V42.4997C57.844 41.4264 58.6666 40.5492 59.68 40.5492H60.7697C60.9168 40.5492 61.0421 40.6691 61.0421 40.8216C61.0421 40.9687 60.9223 41.094 60.7697 41.094H59.68C58.9663 41.094 58.3834 41.7261 58.3834 42.5052V54.4808C58.3834 55.2599 58.9663 55.8919 59.68 55.8919C59.8271 55.8919 59.9525 56.0118 59.9525 56.1643C59.9525 56.306 59.8326 56.4258 59.68 56.4258Z" fill="#1A1A1A"/>
<path d="M57.61 48.4439H58.9176C59.2173 48.4439 59.457 48.1987 59.457 47.9045V42.5215C59.457 42.2218 59.2118 41.9821 58.9176 41.9821H57.61C57.3104 41.9821 57.0706 42.2273 57.0706 42.5215V47.9045C57.0652 48.1987 57.3104 48.4439 57.61 48.4439Z" fill="#666666"/>
<path d="M57.5989 53.985H58.9228C59.1517 53.985 59.3369 53.7997 59.3369 53.5709V50.1547C59.3369 49.9259 59.1517 49.7407 58.9228 49.7407H57.5989C57.3701 49.7407 57.1848 49.9259 57.1848 50.1547V53.5709C57.1848 53.7997 57.3701 53.985 57.5989 53.985Z" fill="#666666"/>
<g opacity="0.4">
<path d="M57.3426 42.0474V47.2234C57.3426 47.534 57.5768 47.7846 57.8656 47.7846H59.2113C59.2985 47.7846 59.3802 47.7574 59.4565 47.7138V47.8772C59.4565 48.1878 59.2222 48.4384 58.9335 48.4384H57.5877C57.299 48.4384 57.0647 48.1878 57.0647 47.8772V42.5323C57.0647 42.3253 57.1791 42.1455 57.3426 42.0474Z" fill="#323E47"/>
</g>
<g opacity="0.3">
<path d="M57.3319 49.8387V53.1623C57.3319 53.402 57.5117 53.5927 57.7351 53.5927H59.0863C59.1844 53.5927 59.2715 53.5546 59.3424 53.4892V53.5491C59.3424 53.7888 59.1626 53.9795 58.9392 53.9795H57.588C57.3646 53.9795 57.1848 53.7834 57.1848 53.5491V50.1602C57.1848 50.0349 57.2393 49.915 57.3319 49.8387Z" fill="#323E47"/>
</g>
<g opacity="0.6">
<path d="M65.0637 82.0606H55.4146V70.3138H66.4039V80.7148C66.4039 81.4613 65.8046 82.0606 65.0637 82.0606Z" fill="white"/>
</g>
<g opacity="0.4">
<path d="M66.4039 75.4189H55.4146V76.2907H66.4039V75.4189Z" fill="white"/>
</g>
<g opacity="0.4">
<path d="M66.4039 80.1046H55.4146V80.9764H66.4039V80.1046Z" fill="white"/>
</g>
<path d="M66.4039 75.9366H55.4146V76.8084H66.4039V75.9366Z" fill="#B8B8B8"/>
<path d="M66.4039 72.831H55.4146V73.7027H66.4039V72.831Z" fill="#B8B8B8"/>
<path d="M66.4039 80.5895H55.4146V81.4613H66.4039V80.5895Z" fill="#B8B8B8"/>
<g opacity="0.2">
<path d="M51.2409 76.1055C51.1646 76.3779 51.1211 76.5795 51.1211 76.6667V80.5732C51.1211 81.3959 51.7858 82.0661 52.6139 82.0661H67.0685V83.1612H51.9929C51.9438 83.1612 51.8893 83.1612 51.8403 83.1558C51.0884 83.0795 50.5 82.442 50.5 81.6738V78.3939L51.2409 76.1055Z" fill="#4D4D4D"/>
<path d="M67.8806 78.8298H67.6899V79.9249H67.8806V78.8298Z" fill="#4D4D4D"/>
</g>
<path d="M89.6685 67.3445H80.063V38.735H86.6882C88.3336 38.735 89.6685 40.0698 89.6685 41.7153V67.3445Z" fill="white"/>
<g opacity="0.4">
<path d="M89.6683 67.3499V63.8521C89.6683 63.8521 77.4585 63.6123 76.3688 63.7485C75.2791 63.8847 74.1785 64.0972 73.0998 64.495C72.5604 64.6857 72.0265 64.9254 71.5034 65.2033C70.9804 65.4702 70.4682 65.8026 69.9778 66.1731C69.7326 66.3583 69.4929 66.5654 69.2586 66.7724C69.0352 66.9958 68.8064 67.2246 68.6212 67.4534C68.2343 67.9166 67.8965 68.4069 67.6241 68.9136C67.0738 69.9325 66.7196 71.0058 66.5071 72.0737C66.2837 73.1416 66.1803 74.2095 66.1639 75.261C66.1585 75.7895 66.164 76.318 66.1967 76.841C66.213 77.1026 66.2293 77.3641 66.2565 77.6256L66.3002 78.0179C66.3165 78.1378 66.3273 78.2522 66.3491 78.3829C66.4036 78.7752 66.747 79.0803 67.1447 79.0531C67.5642 79.0259 67.8638 78.6663 67.8365 78.2685V78.2413C67.8311 78.1432 67.8203 78.0125 67.8148 77.898C67.8094 77.7782 67.8039 77.6583 67.8039 77.5384C67.8039 77.2987 67.8039 77.0535 67.8148 76.8138C67.8312 76.3289 67.8638 75.8494 67.9183 75.37C68.0327 74.4165 68.2288 73.4739 68.523 72.5913C68.8172 71.7087 69.226 70.8859 69.7327 70.1831C69.9833 69.8289 70.272 69.5184 70.5771 69.2351C70.7296 69.0825 70.8877 68.9845 71.0402 68.87L71.2908 68.7175C71.3726 68.6684 71.4706 68.6303 71.5578 68.5813C71.9229 68.4069 72.3205 68.2707 72.7455 68.1672C72.849 68.1399 72.9526 68.1127 73.0616 68.0909C73.1705 68.0691 73.2741 68.0419 73.3831 68.0201C73.601 67.9819 73.8189 67.9384 74.0423 67.9057C74.4836 67.8403 74.9358 67.7804 75.3935 67.7259C75.606 67.6986 77.0826 67.7041 78.5809 67.715C81.7301 67.7368 84.6612 69.3822 86.2303 72.0846C86.9713 73.3595 87.5108 74.896 87.5162 76.6721C87.538 81.3196 87.587 81.4667 87.587 81.4667H89.6628L89.6683 67.3499Z" fill="white"/>
</g>
<path d="M89.6683 68.5976V65.0997C89.6683 65.0997 77.5838 64.86 76.505 64.9962C75.4262 65.1324 74.3365 65.3449 73.2687 65.7426C72.7347 65.9333 72.2061 66.1731 71.6885 66.4509C71.1709 66.7179 70.6642 67.0503 70.1793 67.4208C69.9341 67.606 69.6998 67.813 69.471 68.0201C69.2476 68.2435 69.0243 68.4723 68.839 68.7011C68.4576 69.1642 68.1253 69.6546 67.8528 70.1613C67.308 71.1801 66.9593 72.2535 66.7468 73.3214C66.5234 74.3893 66.4254 75.4571 66.4091 76.5087C66.4036 77.0372 66.4091 77.5657 66.4418 78.0887C66.4581 78.3502 66.4744 78.6118 66.5016 78.8733L66.5398 79.2656C66.5562 79.3854 66.5671 79.4999 66.5889 79.6306C66.6434 80.0229 66.9812 80.3335 67.3789 80.3008C67.793 80.2735 68.0926 79.9139 68.0654 79.5162V79.489C68.06 79.3909 68.049 79.2601 68.0436 79.1457C68.0381 79.0259 68.0327 78.906 68.0327 78.7861C68.0327 78.5464 68.0327 78.3012 68.0436 78.0615C68.0599 77.5766 68.0871 77.0971 68.1471 76.6177C68.2615 75.6642 68.4577 74.7216 68.7464 73.839C69.0352 72.9563 69.4438 72.1336 69.9396 71.4308C70.1902 71.0766 70.4736 70.7661 70.7732 70.4828C70.9258 70.3302 71.0784 70.2321 71.231 70.1177L71.4816 69.9652C71.5633 69.9161 71.6614 69.878 71.7485 69.8289C72.1136 69.6546 72.5058 69.5184 72.9253 69.4149C73.0289 69.3876 73.1324 69.3604 73.2414 69.3386C73.3503 69.3168 73.4538 69.2896 73.5573 69.2678C73.7752 69.2296 73.9878 69.186 74.2112 69.1533C74.6525 69.088 75.0993 69.028 75.5515 68.9735C75.764 68.9463 77.2242 68.9518 78.7061 68.9627C81.8226 68.9844 84.7266 70.6299 86.2794 73.3323C87.0095 74.6072 87.5434 76.1436 87.5543 77.9198C87.5652 80.4697 87.587 81.6683 87.6033 82.2241C87.6087 82.4965 87.8377 82.7144 88.1101 82.7144H89.178C89.4558 82.7144 89.6846 82.4856 89.6846 82.2077L89.6683 68.5976Z" fill="white"/>
<g opacity="0.2">
<path d="M86.1649 52.6992H83.3481C82.2312 52.6992 81.3267 51.7893 81.3267 50.6778V43.9436C81.3267 42.8267 82.2367 41.9222 83.3481 41.9222H86.1649C87.2818 41.9222 88.1862 42.8321 88.1862 43.9436V50.6778C88.1862 51.7948 87.2764 52.6992 86.1649 52.6992ZM83.3427 42.1783C82.3674 42.1783 81.5774 42.9683 81.5774 43.9436V50.6778C81.5774 51.6531 82.3674 52.4431 83.3427 52.4431H86.1595C87.1347 52.4431 87.9247 51.6531 87.9247 50.6778V43.9436C87.9247 42.9683 87.1347 42.1783 86.1595 42.1783H83.3427Z" fill="black"/>
</g>
<g opacity="0.8">
<path d="M67.9402 79.7342C67.5479 79.7614 67.2101 79.4508 67.1502 79.064C67.1338 78.9332 67.1174 78.8188 67.1011 78.6989L67.0629 78.3067C67.0357 78.0451 67.0194 77.7836 67.0031 77.5221C66.9704 76.999 66.9649 76.4706 66.9703 75.9421C66.9867 74.8851 67.0847 73.8172 67.3081 72.7547C67.5206 71.6869 67.8693 70.6135 68.4141 69.5947C68.6865 69.0825 69.0189 68.5922 69.4003 68.1345C69.4602 68.0637 69.5202 67.9928 69.5856 67.9166C69.5475 67.9547 69.5039 67.9874 69.4658 68.0201C69.2424 68.2435 69.0189 68.4723 68.8337 68.7011C68.4523 69.1643 68.1199 69.6546 67.8475 70.1613C67.3026 71.1802 66.954 72.2535 66.7416 73.3214C66.5182 74.3893 66.42 75.4571 66.4037 76.5087C66.3982 77.0372 66.4037 77.5657 66.4364 78.0887C66.4528 78.3503 66.469 78.6118 66.4963 78.8733L66.5344 79.2656C66.5508 79.3855 66.5617 79.4999 66.5835 79.6306C66.638 80.0229 66.9758 80.3335 67.3681 80.3008C67.7113 80.279 67.9728 80.0229 68.0382 79.7124C68.011 79.7287 67.9783 79.7342 67.9402 79.7342Z" fill="white"/>
<path d="M88.6662 82.1478C88.3937 82.1478 88.1702 81.9299 88.1594 81.6575C88.143 81.0963 88.1213 79.9031 88.1104 77.3532C88.105 75.5771 87.571 74.0406 86.8354 72.7657C85.2826 70.0633 82.3787 68.4179 79.2622 68.3961C77.7748 68.3852 76.32 68.3797 76.1076 68.407C75.6553 68.4615 75.2086 68.5214 74.7673 68.5868C74.5439 68.6195 74.3313 68.6631 74.1134 68.7012C74.0044 68.723 73.901 68.7502 73.7974 68.772C73.6885 68.7938 73.5849 68.8156 73.4814 68.8483C73.0619 68.9518 72.6696 69.088 72.3046 69.2624C72.2174 69.306 72.1193 69.3441 72.0376 69.3986L71.7869 69.5511C71.6343 69.6656 71.4819 69.7636 71.3293 69.9162C71.1713 70.0633 71.0187 70.2213 70.8716 70.3847C70.986 70.2867 71.1005 70.2104 71.2204 70.1232L71.471 69.9707C71.5527 69.9216 71.6508 69.8835 71.7379 69.8345C72.103 69.6601 72.4952 69.5239 72.9147 69.4204C73.0183 69.3931 73.1218 69.3659 73.2308 69.3441C73.3398 69.3223 73.4433 69.2951 73.5468 69.2733C73.7648 69.2351 73.9772 69.1915 74.2006 69.1589C74.6419 69.0935 75.0887 69.0335 75.5409 68.9791C75.7534 68.9518 77.2136 68.9573 78.6955 68.9682C81.812 68.99 84.716 70.6354 86.2688 73.3378C86.9989 74.6127 87.5329 76.1492 87.5437 77.9253C87.5546 80.4752 87.5764 81.6738 87.5927 82.2296C87.5981 82.502 87.8271 82.7199 88.0995 82.7199H89.1674C89.4452 82.7199 89.674 82.4911 89.674 82.2132V82.1478H88.6662Z" fill="white"/>
</g>
<path d="M100.151 71.4633V77.1188C100.151 77.5547 99.7971 77.9088 99.3613 77.9088H91.9133C91.4775 77.9088 91.1287 77.5547 91.1287 77.1188V71.4633C91.1287 71.0275 91.4775 70.6788 91.9133 70.6788H99.3613C99.7971 70.6788 100.151 71.0329 100.151 71.4633Z" fill="#1A1A1A"/>
<path d="M98.0542 70.6788H93.2214V77.9088H98.0542V70.6788Z" fill="#666666"/>
<g opacity="0.4">
<path d="M99.3617 70.6788H99.2037V76.0019C99.2037 76.4377 98.8496 76.7919 98.4137 76.7919H91.1238V77.1188C91.1238 77.5547 91.4724 77.9088 91.9083 77.9088H99.3562C99.7921 77.9088 100.146 77.5547 100.146 77.1188V71.4633C100.152 71.0329 99.7976 70.6788 99.3617 70.6788Z" fill="#1A1A1A"/>
</g>
<path d="M121.062 71.4635V77.1189C121.062 77.5548 120.338 77.9089 119.45 77.9089H104.21C103.317 77.9089 102.603 77.5548 102.603 77.1189V71.4635C102.603 71.0276 103.322 70.6789 104.21 70.6789H119.45C120.338 70.6789 121.062 71.033 121.062 71.4635Z" fill="#1A1A1A"/>
<path d="M119.128 70.6788H104.526V77.9088H119.128V70.6788Z" fill="#666666"/>
<path d="M106.428 70.6788H105.752V77.9088H106.428V70.6788Z" fill="#979797"/>
<path d="M118.076 70.6788H117.401V77.9088H118.076V70.6788Z" fill="#979797"/>
<g opacity="0.4">
<path d="M119.45 70.6789H119.128V76.002C119.128 76.4379 118.403 76.792 117.515 76.792H102.603V77.1189C102.603 77.5548 103.322 77.9089 104.21 77.9089H119.45C120.343 77.9089 121.062 77.5548 121.062 77.1189V71.4635C121.062 71.033 120.338 70.6789 119.45 70.6789Z" fill="#1A1A1A"/>
</g>
<path d="M199.296 31.9353H91.1235V71.0385H199.296V31.9353Z" fill="#FAA701"/>
<g opacity="0.6">
<path d="M196.206 31.9353V59.8039C196.206 64.6584 192.272 68.5867 187.423 68.5867H91.1282V71.0385H199.301V31.9353H196.206Z" fill="#FFC551"/>
</g>
<path d="M200.5 69.6001H91.1235V71.0385H200.5V69.6001Z" fill="#333333"/>
</svg>
