<svg width="251" height="120" viewBox="0 0 251 120" fill="none" xmlns="http://www.w3.org/2000/svg">
<path d="M190.621 64.5789H101.373V73.6243H190.621V64.5789Z" fill="#1A1A31"/>
<path d="M178.938 74.2997H168.078L162.675 72.994H178.938V74.2997Z" fill="#333333"/>
<path d="M153.084 74.7814H99.4329V77.1497H153.084V74.7814Z" fill="#34343F"/>
<path d="M153.084 69.0903H99.4329V71.4586H153.084V69.0903Z" fill="#34343F"/>
<path d="M197.285 41.5667L195.633 31.5172C195.462 30.4861 194.602 30.1439 194.12 30.9138L190.955 35.9476C190.662 36.4159 190.252 36.677 189.825 36.677H111.216L110.739 35.2362L108.636 27.9647H96.0471V28.9418L103.989 32.1925L105.124 35.2362L105.597 36.677H105.574L115.241 65.7585H192.675C192.72 65.7315 192.769 65.7045 192.819 65.6774C193.917 65.0426 196.65 63.3992 198.541 62.2556C198.632 62.197 198.722 62.143 198.812 62.089C199.802 61.4946 200.5 61.0669 200.5 61.0669L197.285 41.5667Z" fill="#FAA701"/>
<path d="M175.124 61.6027H182.418L174.872 40.7607H167.578L175.124 61.6027Z" fill="#D28C00"/>
<path d="M160.937 61.6027H168.231L160.684 40.7607H153.39L160.937 61.6027Z" fill="#D28C00"/>
<path d="M147.46 61.6027H154.759L147.208 40.7607H139.914L147.46 61.6027Z" fill="#D28C00"/>
<path d="M133.039 61.6027H140.333L132.787 40.7607H125.493L133.039 61.6027Z" fill="#D28C00"/>
<path d="M119.482 61.6027H126.776L119.23 40.7607H111.936L119.482 61.6027Z" fill="#D28C00"/>
<path d="M195.308 57.9782C195.218 58.0323 195.128 58.0863 195.038 58.1448C193.147 59.284 190.414 60.9319 189.315 61.5667L182.129 41.7288L181.796 40.8058H189.094L195.308 57.9782Z" fill="#D28C00"/>
<g opacity="0.5">
<path d="M195.308 57.9782C195.218 58.0323 195.128 58.0863 195.038 58.1448L189.094 41.7243H182.129L181.796 40.8013H189.094L195.308 57.9782Z" fill="#D28C00"/>
</g>
<g opacity="0.5">
<path d="M174.872 41.6838H167.911L167.578 40.7607H174.872L182.418 61.6027H182.085L174.872 41.6838Z" fill="#D28C00"/>
</g>
<g opacity="0.5">
<path d="M160.698 41.6838H153.737L153.404 40.7607H160.698L168.244 61.6027H167.911L160.698 41.6838Z" fill="#D28C00"/>
</g>
<g opacity="0.5">
<path d="M147.208 41.6838H140.247L139.914 40.7607H147.208L154.759 61.6027H154.426L147.208 41.6838Z" fill="#D28C00"/>
</g>
<g opacity="0.5">
<path d="M132.787 41.6838H125.826L125.493 40.7607H132.787L140.333 61.6027H140L132.787 41.6838Z" fill="#D28C00"/>
</g>
<g opacity="0.5">
<path d="M119.23 41.6838H112.27L111.936 40.7607H119.23L126.776 61.6027H126.443L119.23 41.6838Z" fill="#D28C00"/>
</g>
<path d="M104.993 69.5181H78.3972V78.6356H104.993V69.5181Z" fill="#333333"/>
<path d="M101.36 76.6996H98.9553L100.212 69.8198H101.36V76.6996Z" fill="#1A1A1A"/>
<g opacity="0.2">
<path d="M81.0763 71.2515H101.36V69.5181H79.7571V76.8751H81.0763V71.2515Z" fill="#333333"/>
</g>
<path d="M104.989 76.6725H77.8298V79.0453H104.989V76.6725Z" fill="#1A1A1A"/>
<path d="M106.024 40.4771V69.1129C106.024 69.8648 105.416 70.4726 104.665 70.4726H53.7911C53.3544 70.4726 52.9356 70.3871 52.5529 70.2295C51.3508 69.7432 50.4998 68.5636 50.4998 67.1813V57.6811C50.4998 57.6496 50.4998 57.618 50.4998 57.582C50.5448 56.4159 51.3327 53.827 52.3998 53.6559L75.2408 51.2786H75.2589L76.344 51.166C76.434 51.112 76.5196 51.0489 76.6006 50.9859C76.8978 50.7428 77.1274 50.4276 77.267 50.0629L81.846 38.0188L82.0216 37.555C82.4538 36.3213 83.7731 35.8216 85.0788 35.8036L100.72 35.3353C103.624 35.2452 106.024 37.573 106.024 40.4771Z" fill="white"/>
<path d="M84.4977 40.9859L81.6161 51.3056C81.391 52.1071 81.9943 52.904 82.8273 52.904H99.563C100.292 52.904 100.882 52.3052 100.873 51.5758L100.693 40.3961C100.684 39.7117 100.126 39.1624 99.4414 39.1624H86.911C85.7854 39.1579 84.7994 39.9053 84.4977 40.9859Z" fill="black"/>
<path d="M83.0298 39.7386L78.9866 50.5311C78.7434 51.1839 78.0185 51.5126 77.3657 51.2695L76.6047 50.9858C76.9019 50.7427 77.1315 50.4275 77.2711 50.0673L81.8501 38.0232L82.3319 38.2033C82.9487 38.4329 83.2594 39.1173 83.0298 39.7386Z" fill="black"/>
<g opacity="0.2">
<path d="M101.351 39.6487C101.337 38.8788 100.703 38.2529 99.9326 38.2529H85.9974C85.1734 38.2529 84.435 38.8067 84.2054 39.5947L80.1532 53.3947L80.1487 53.4082L80.3603 66.4204C80.3738 67.3524 81.1482 68.1088 82.0803 68.1088H99.8155C100.347 68.1088 100.842 67.9017 101.216 67.5235C101.589 67.1453 101.788 66.6455 101.779 66.1142L101.351 39.6487ZM101.085 67.3974C100.748 67.7441 100.297 67.9287 99.8155 67.9287H82.0803C81.2473 67.9287 80.5584 67.2489 80.5404 66.4159L80.3288 53.4308L84.3765 39.6442C84.5881 38.9283 85.2545 38.4285 85.9974 38.4285H99.9326C100.603 38.4285 101.157 38.9778 101.171 39.6442L101.598 66.1142C101.603 66.6005 101.423 67.0553 101.085 67.3974Z" fill="black"/>
<path d="M75.385 51.3912L74.5475 52.2917C73.9892 52.8905 73.683 53.6739 73.683 54.4889V60.9004H73.5029V57.7622H50.4998V57.6811C50.4998 57.6496 50.4998 57.6181 50.4998 57.5821H73.5029V54.4844C73.5029 53.6199 73.8271 52.7959 74.4169 52.1656L75.2408 51.2786L75.2499 51.2696L75.2589 51.2786L75.385 51.3912Z" fill="black"/>
</g>
<path d="M85.3532 41.4271L82.7238 50.8508C82.5212 51.5847 83.0704 52.3096 83.8314 52.3096H99.1127C99.7791 52.3096 100.319 51.7648 100.306 51.0939L100.139 40.8868C100.13 40.261 99.6215 39.7612 98.9957 39.7612H87.5549C86.5284 39.7567 85.6279 40.4366 85.3532 41.4271Z" fill="#424756"/>
<g opacity="0.6">
<path d="M103.859 36.2808C104.183 36.9516 104.363 37.708 104.363 38.505V67.1407C104.363 67.8926 103.755 68.5005 103.003 68.5005H52.1296C51.6928 68.5005 51.2741 68.4149 50.8914 68.2573C50.8059 68.2213 50.7248 68.1853 50.6438 68.1448C50.9365 69.0948 51.6388 69.8602 52.5528 70.2294C52.9356 70.387 53.3543 70.4726 53.791 70.4726H104.664C105.416 70.4726 106.024 69.8647 106.024 69.1128V40.4771C106.024 38.7436 105.169 37.2128 103.859 36.2808Z" fill="#B3C0D3"/>
</g>
<path d="M83.0298 39.7386L78.9866 50.5311C78.7434 51.1839 78.0185 51.5126 77.3657 51.2695L76.6047 50.9858C76.6813 50.9228 76.7533 50.8598 76.8163 50.7877C77.0099 50.5806 77.1675 50.3375 77.2666 50.0673L81.7961 38.1583L81.8456 38.0232L82.3274 38.2033C82.9488 38.4329 83.2594 39.1173 83.0298 39.7386Z" fill="black"/>
<path d="M82.5214 39.6306L78.6492 50.1259C78.4196 50.7607 77.6992 51.0894 77.0418 50.8643L76.8123 50.7832C77.0059 50.5761 77.1634 50.333 77.2625 50.0628L81.792 38.1538C82.4223 38.3654 82.7465 39.0273 82.5214 39.6306Z" fill="#424756"/>
<path d="M99.7656 56.686H96.051C95.8349 56.686 95.6638 56.5104 95.6638 56.2988C95.6638 56.0827 95.8394 55.9116 96.051 55.9116H99.7656C99.9817 55.9116 100.153 56.0872 100.153 56.2988C100.157 56.5149 99.9817 56.686 99.7656 56.686Z" fill="black"/>
<path d="M85.4552 55.2083H87.8325V54.0916H85.4552V55.2083Z" fill="#1A1A1A"/>
<path d="M87.4116 54.8672C86.3175 54.8672 85.426 53.9217 85.426 52.76V39.8289C85.426 38.6673 86.3175 37.7217 87.4116 37.7217H88.5867C88.7488 37.7217 88.8794 37.8523 88.8794 38.0144C88.8794 38.1765 88.7488 38.3071 88.5867 38.3071H87.4116C86.6417 38.3071 86.0113 38.9914 86.0113 39.8289V52.76C86.0113 53.5975 86.6372 54.2818 87.4116 54.2818C87.5737 54.2818 87.7042 54.4124 87.7042 54.5745C87.7042 54.7366 87.5737 54.8672 87.4116 54.8672Z" fill="#1A1A1A"/>
<path d="M85.264 48.8023H86.8939C87.2631 48.8023 87.5693 48.5007 87.5693 48.127V41.4183C87.5693 41.0491 87.2676 40.7429 86.8939 40.7429H85.264C84.8948 40.7429 84.5886 41.0446 84.5886 41.4183V48.127C84.5886 48.5007 84.8948 48.8023 85.264 48.8023Z" fill="#333333"/>
<g opacity="0.4">
<path d="M84.9353 40.8285V47.285C84.9353 47.6677 85.228 47.9829 85.5882 47.9829H87.2631C87.3757 47.9829 87.4747 47.9514 87.5693 47.8974V48.1045C87.5693 48.4872 87.2766 48.8024 86.9164 48.8024H85.2415C84.8813 48.8024 84.5886 48.4872 84.5886 48.1045V41.4408C84.5886 41.1752 84.7327 40.9456 84.9353 40.8285Z" fill="#323E47"/>
</g>
<path d="M73.7956 64.9751V70.4726H53.7912C53.3544 70.4726 52.9357 70.3871 52.553 70.2295V64.9706H73.7956V64.9751Z" fill="#333333"/>
<path d="M70.0006 87.6411C75.9387 85.2262 78.7949 78.4548 76.38 72.5167C73.9652 66.5786 67.1937 63.7224 61.2556 66.1373C55.3175 68.5521 52.4613 75.3236 54.8762 81.2617C57.291 87.1998 64.0625 90.056 70.0006 87.6411Z" fill="#1A242E"/>
<path d="M72.1547 78.0423C72.7903 74.4327 70.3794 70.9913 66.7697 70.3558C63.1601 69.7202 59.7187 72.1311 59.0832 75.7407C58.4476 79.3503 60.8585 82.7917 64.4682 83.4273C68.0778 84.0629 71.5192 81.6519 72.1547 78.0423Z" fill="#808080"/>
<path d="M65.6467 83.8586C61.7971 83.8586 58.6633 80.7249 58.6633 76.8753C58.6633 73.0257 61.7971 69.892 65.6467 69.892C69.4963 69.892 72.63 73.0257 72.63 76.8753C72.63 80.7294 69.4963 83.8586 65.6467 83.8586ZM65.6467 70.5898C62.1798 70.5898 59.3567 73.4129 59.3567 76.8798C59.3567 80.3467 62.1798 83.1698 65.6467 83.1698C69.1136 83.1698 71.9366 80.3467 71.9366 76.8798C71.9321 73.4084 69.1136 70.5898 65.6467 70.5898Z" fill="#666666"/>
<path d="M68.8027 76.8752C68.8027 78.6177 67.3889 80.0315 65.6465 80.0315C63.904 80.0315 62.4902 78.6177 62.4902 76.8752C62.4902 75.1328 63.904 73.719 65.6465 73.719C67.3889 73.719 68.8027 75.1328 68.8027 76.8752Z" fill="#808080"/>
<path d="M65.6463 80.2476C63.7868 80.2476 62.2739 78.7348 62.2739 76.8752C62.2739 75.0157 63.7868 73.5029 65.6463 73.5029C67.5058 73.5029 69.0186 75.0157 69.0186 76.8752C69.0186 78.7348 67.5058 80.2476 65.6463 80.2476ZM65.6463 73.9396C64.0254 73.9396 62.7061 75.2588 62.7061 76.8797C62.7061 78.5006 64.0254 79.8198 65.6463 79.8198C67.2672 79.8198 68.5864 78.5006 68.5864 76.8797C68.5819 75.2543 67.2672 73.9396 65.6463 73.9396Z" fill="black"/>
<path d="M66.0422 72.6564C66.0422 72.877 65.8621 73.0571 65.6414 73.0571C65.4208 73.0571 65.2407 72.877 65.2407 72.6564C65.2407 72.4358 65.4208 72.2557 65.6414 72.2557C65.8666 72.2602 66.0422 72.4358 66.0422 72.6564Z" fill="#1A242E"/>
<path d="M64.0388 72.9535C64.1424 73.1471 64.0658 73.3903 63.8722 73.4938C63.6786 73.5974 63.4355 73.5209 63.3319 73.3272C63.2284 73.1336 63.3049 72.8905 63.4985 72.7869C63.6966 72.6834 63.9353 72.7599 64.0388 72.9535Z" fill="#1A242E"/>
<path d="M62.3998 74.1512C62.5799 74.2773 62.6249 74.5249 62.5034 74.705C62.3773 74.8851 62.1297 74.9302 61.9496 74.8086C61.7695 74.6825 61.7244 74.4349 61.846 74.2548C61.972 74.0702 62.2197 74.0252 62.3998 74.1512Z" fill="#1A242E"/>
<path d="M61.5041 75.9703C61.7247 75.9973 61.8777 76.1954 61.8507 76.416C61.8237 76.6366 61.6256 76.7897 61.405 76.7627C61.1843 76.7357 61.0312 76.5376 61.0583 76.3169C61.0853 76.0963 61.2879 75.9432 61.5041 75.9703Z" fill="#1A242E"/>
<path d="M61.5581 78.0008C61.7652 77.9243 61.9948 78.0278 62.0713 78.2304C62.1479 78.4331 62.0444 78.6672 61.8417 78.7437C61.6346 78.8203 61.405 78.7167 61.3285 78.5141C61.2519 78.3115 61.3555 78.0774 61.5581 78.0008Z" fill="#1A242E"/>
<path d="M62.5485 79.7703C62.6925 79.6037 62.9447 79.5902 63.1113 79.7343C63.2779 79.8784 63.2913 80.1305 63.1473 80.2971C63.0032 80.4637 62.7511 80.4772 62.5845 80.3331C62.4179 80.1891 62.4044 79.9324 62.5485 79.7703Z" fill="#1A242E"/>
<path d="M64.25 80.8779C64.304 80.6618 64.5201 80.5312 64.7317 80.5852C64.9433 80.6393 65.0784 80.8554 65.0244 81.067C64.9704 81.2786 64.7543 81.4137 64.5427 81.3597C64.3265 81.3056 64.196 81.0895 64.25 80.8779Z" fill="#1A242E"/>
<path d="M66.2676 81.067C66.2135 80.8509 66.3441 80.6393 66.5602 80.5852C66.7718 80.5312 66.9879 80.6618 67.042 80.8779C67.096 81.0895 66.9654 81.3056 66.7493 81.3597C66.5377 81.4137 66.3216 81.2831 66.2676 81.067Z" fill="#1A242E"/>
<path d="M68.1451 80.2971C68.0011 80.1305 68.0145 79.8784 68.1811 79.7343C68.3477 79.5902 68.5999 79.6037 68.7439 79.7703C68.888 79.9369 68.8745 80.1891 68.7079 80.3331C68.5414 80.4772 68.2892 80.4637 68.1451 80.2971Z" fill="#1A242E"/>
<path d="M69.4462 78.7437C69.239 78.6672 69.1355 78.4375 69.2166 78.2304C69.2931 78.0233 69.5227 77.9198 69.7298 78.0008C69.9369 78.0774 70.0405 78.307 69.9594 78.5141C69.8829 78.7212 69.6533 78.8248 69.4462 78.7437Z" fill="#1A242E"/>
<path d="M69.8828 76.7626C69.6622 76.7896 69.4641 76.632 69.4371 76.4159C69.4101 76.1997 69.5676 75.9971 69.7837 75.9701C70.0044 75.9431 70.2025 76.1007 70.2295 76.3168C70.2566 76.5374 70.099 76.7355 69.8828 76.7626Z" fill="#1A242E"/>
<path d="M69.3424 74.8086C69.1623 74.9347 68.9147 74.8896 68.7886 74.705C68.6626 74.5249 68.7076 74.2773 68.8922 74.1512C69.0723 74.0252 69.3199 74.0702 69.446 74.2548C69.572 74.4349 69.5225 74.6825 69.3424 74.8086Z" fill="#1A242E"/>
<path d="M67.9607 73.3273C67.8572 73.5209 67.6185 73.5974 67.4204 73.4939C67.2268 73.3903 67.1502 73.1517 67.2538 72.9536C67.3574 72.7554 67.596 72.6834 67.7941 72.787C67.9877 72.8905 68.0598 73.1292 67.9607 73.3273Z" fill="#1A242E"/>
<g opacity="0.5">
<path d="M71.6076 73.9576C71.6482 74.2592 71.6707 74.5654 71.6707 74.8806C71.6707 78.5456 68.699 81.5172 65.034 81.5172C62.4181 81.5172 60.1533 79.9999 59.0728 77.7982C59.523 81.0265 62.292 83.5118 65.6419 83.5118C69.3069 83.5118 72.2785 80.5402 72.2785 76.8752C72.283 75.8306 72.0399 74.8401 71.6076 73.9576Z" fill="#808080"/>
</g>
<path d="M75.5061 70.7518C75.7267 71.6433 75.8438 72.5798 75.8438 73.5389C75.8438 79.9504 70.6479 85.1462 64.2364 85.1462C60.0716 85.1462 56.4246 82.9535 54.376 79.6622C55.6232 84.7275 60.1932 88.4826 65.6457 88.4826C72.0572 88.4826 77.2531 83.2867 77.2531 76.8752C77.2531 74.6285 76.6137 72.5303 75.5061 70.7518Z" fill="#1A242E"/>
<path d="M80.7109 74.4078C79.4547 71.4001 78.0499 68.478 76.5911 65.592C76.3885 65.1867 76.1814 64.7815 75.9698 64.3808L75.6591 63.7774L75.578 63.6244C75.551 63.5703 75.5375 63.5478 75.4655 63.4173C75.3484 63.2056 75.2089 63.0075 75.0603 62.8184C74.457 62.0665 73.6195 61.5397 72.7145 61.3506C72.4849 61.3056 72.2553 61.2741 72.0256 61.2696C71.8816 61.2651 71.8636 61.2696 71.805 61.2696H71.6429L70.9991 61.2741L69.7114 61.2831L68.4237 61.3101C67.5637 61.3236 66.7037 61.3551 65.8482 61.3821C64.9882 61.4092 64.1283 61.4542 63.2728 61.4902L60.6974 61.6298L58.1175 61.7693L56.8298 61.8414L56.1859 61.8774L55.8662 61.8954L55.6546 61.9089L55.389 61.9314C54.6821 62.0305 54.0022 62.3232 53.4484 62.7734C53.4394 62.7824 53.4304 62.7869 53.4214 62.7959C53.2863 62.8995 53.1693 63.021 53.0477 63.1381C52.9261 63.2732 52.8046 63.4037 52.701 63.5523C52.4804 63.8405 52.3093 64.1647 52.1697 64.5024C52.0301 64.84 51.94 65.2002 51.886 65.5604C51.877 65.6505 51.868 65.7405 51.859 65.8306L51.85 65.9657V66.0557L51.841 66.4024L51.8095 67.7847L51.787 69.1669L51.7825 69.5586C51.7825 69.7072 51.7915 69.8558 51.8005 70.0044C51.823 70.3015 51.8681 70.5942 51.9356 70.8824C51.9761 71.067 52.0256 71.2471 52.0842 71.4227C52.1157 71.5217 52.1517 71.6208 52.1922 71.7153C52.2462 71.8504 52.3048 71.981 52.3678 72.1115C52.3993 72.1836 52.4218 72.2196 52.4488 72.2736L52.5254 72.4267C52.647 72.6563 52.764 72.8905 52.8856 73.1246C53.0342 73.4128 53.3899 73.5253 53.6826 73.3857L53.7455 73.3587L54.2454 73.1201C54.6191 72.94 54.8037 72.5123 54.6776 72.116C54.61 71.9089 54.547 71.7018 54.4794 71.4947L54.4254 71.3326C54.4074 71.2786 54.3849 71.2155 54.3804 71.184C54.3534 71.103 54.3354 71.0174 54.3174 70.9364C54.2813 70.7698 54.2633 70.6032 54.2498 70.4366C54.2363 70.27 54.2363 70.1034 54.2498 69.9413C54.2543 69.8603 54.2679 69.7793 54.2769 69.6982L54.3219 69.3965L54.5155 68.0278C54.5155 68.0278 54.8442 65.9521 54.8892 65.8756C55.0738 65.5604 55.407 65.3893 55.7042 65.4074L56.0869 65.4299L60.7064 65.682L63.2818 65.8216C63.8086 65.8441 66.8793 65.9206 69.171 65.9747C70.7829 66.0152 72.2597 66.9247 73.1017 68.397C74.4749 70.7878 76.5866 74.4258 77.9644 76.5645C78.1985 76.9292 78.6803 77.0417 79.0495 76.8121L80.1661 76.1367C80.2652 76.0782 80.3507 76.0062 80.4317 75.9251C80.7019 75.6505 80.846 75.2723 80.8279 74.8896C80.8144 74.7275 80.7784 74.5654 80.7109 74.4078Z" fill="white"/>
<g opacity="0.8">
<path d="M80.8192 74.8851C80.8417 75.3804 80.5986 75.8622 80.1574 76.1323L79.0408 76.8077C78.6716 77.0328 78.1898 76.9247 77.9557 76.56C76.5824 74.4214 74.4663 70.7789 73.093 68.3925C72.2511 66.9202 70.7697 66.0108 69.1623 65.9702C66.8661 65.9162 63.7954 65.8352 63.2731 65.8171L60.6977 65.6776L55.6954 65.4029C55.4028 65.3849 55.0696 65.556 54.8805 65.8712C54.8309 65.9477 54.5068 68.0234 54.5068 68.0234L54.3132 69.3921L54.2681 69.6938C54.2591 69.7748 54.2457 69.8559 54.2412 69.9369C54.2276 70.1035 54.2276 70.2656 54.2412 70.4322C54.2547 70.5988 54.2771 70.7654 54.3086 70.932C54.3267 71.0175 54.3447 71.0985 54.3717 71.1796C54.3807 71.2156 54.4032 71.2786 54.4167 71.3282L54.4708 71.4903C54.5383 71.6974 54.6058 71.9045 54.6689 72.1116C54.7949 72.5078 54.6149 72.9356 54.2366 73.1157L53.6738 73.3813C53.3812 73.5209 53.03 73.4083 52.8769 73.1201C52.7553 72.8905 52.6382 72.6564 52.5167 72.4223L52.4402 72.2692C52.4132 72.2152 52.3906 72.1746 52.3591 72.1071C52.2961 71.9765 52.2375 71.846 52.1835 71.7109C52.143 71.6163 52.1115 71.5173 52.0754 71.4182L53.3136 70.95L54.2457 64.8356C54.3132 64.3899 54.6959 64.0612 55.1462 64.0567L70.8643 63.8946C71.4586 63.8901 72.0169 64.1917 72.3321 64.7005L78.9597 75.2994L80.8192 74.8851Z" fill="#C0CDDD"/>
</g>
<g opacity="0.8">
<path d="M53.8812 72.9715C53.8677 73.111 53.8182 73.2416 53.7416 73.3542L53.6787 73.3812C53.386 73.5208 53.0348 73.4082 52.8817 73.12C52.7601 72.8904 52.6431 72.6563 52.5215 72.4222L52.445 72.2691C52.418 72.2151 52.3954 72.1745 52.3639 72.107C52.3009 71.9764 52.2423 71.8459 52.1883 71.7108C52.1478 71.6162 52.1163 71.5172 52.0803 71.4181C52.0217 71.2425 51.9722 71.0624 51.9317 70.8778C51.8642 70.5897 51.8236 70.297 51.7966 69.9998C51.7831 69.8513 51.7786 69.7027 51.7786 69.5541L51.7831 69.1624L51.8056 67.7801L51.8371 66.3979L51.8461 66.0512V65.9611L51.8551 65.826C51.8641 65.736 51.8732 65.6459 51.8822 65.5559C51.9407 65.1957 52.0262 64.8355 52.1658 64.4978C52.3053 64.1601 52.4765 63.836 52.6971 63.5478C52.8006 63.3992 52.9222 63.2641 53.0438 63.1336C53.1654 63.0165 53.2824 62.8949 53.4175 62.7914C53.3319 62.8814 53.2554 62.976 53.1833 63.084C52.9627 63.3722 52.7917 63.6964 52.6521 64.0341C52.5125 64.3717 52.4224 64.7319 52.3684 65.0921C52.3594 65.1822 52.3504 65.2722 52.3414 65.3623L52.3324 65.4974V65.5874L52.3234 65.9341L52.2919 67.3164L52.2694 68.6986L52.2649 69.0903C52.2649 69.2389 52.2738 69.3875 52.2828 69.5361C52.3054 69.8332 52.3504 70.1259 52.4179 70.4141C52.4585 70.5987 52.508 70.7788 52.5665 70.9544C52.598 71.0534 52.634 71.1525 52.6746 71.247C52.7286 71.3821 52.7871 71.5127 52.8502 71.6432C52.8817 71.7153 52.9042 71.7513 52.9312 71.8053L53.0078 71.9584C53.1294 72.188 53.2464 72.4222 53.368 72.6563C53.4715 72.8499 53.6741 72.9625 53.8812 72.9715Z" fill="#C0CDDD"/>
<path d="M80.3516 75.8216C79.9824 76.0467 79.5006 75.9387 79.2665 75.574C77.8932 73.4353 75.7771 69.7928 74.4038 67.4065C73.5618 65.9387 72.0805 65.0247 70.4731 64.9841C68.1769 64.9301 65.1062 64.8491 64.5839 64.8311L62.0085 64.6915L57.0062 64.4168C56.7136 64.3988 56.3804 64.5699 56.1913 64.8851C56.1778 64.9076 56.1328 65.1327 56.0833 65.4254L60.7028 65.6775L63.2782 65.8171C63.805 65.8396 66.8757 65.9161 69.1674 65.9702C70.7793 66.0107 72.2562 66.9202 73.0981 68.3925C74.4714 70.7833 76.583 74.4213 77.9608 76.56C78.1949 76.9247 78.6767 77.0373 79.0459 76.8076L80.1625 76.1323C80.3606 76.0107 80.5137 75.8486 80.6263 75.6595L80.3516 75.8216Z" fill="#C0CDDD"/>
</g>
<path d="M70.0006 87.641C75.9387 85.2261 78.7949 78.4547 76.38 72.5165C73.9652 66.5784 67.1937 63.7223 61.2556 66.1371C55.3175 68.552 52.4613 75.3234 54.8762 81.2616C57.291 87.1997 64.0625 90.0558 70.0006 87.641Z" fill="#1A242E"/>
<path d="M72.1547 78.042C72.7903 74.4324 70.3794 70.991 66.7697 70.3554C63.1601 69.7199 59.7187 72.1308 59.0832 75.7404C58.4476 79.35 60.8585 82.7914 64.4682 83.427C68.0778 84.0625 71.5192 81.6516 72.1547 78.042Z" fill="#808080"/>
<path d="M65.6467 83.8584C61.7971 83.8584 58.6633 80.7247 58.6633 76.8751C58.6633 73.0255 61.7971 69.8917 65.6467 69.8917C69.4963 69.8917 72.63 73.0255 72.63 76.8751C72.63 80.7292 69.4963 83.8584 65.6467 83.8584ZM65.6467 70.5896C62.1798 70.5896 59.3567 73.4127 59.3567 76.8796C59.3567 80.3465 62.1798 83.1695 65.6467 83.1695C69.1136 83.1695 71.9366 80.3465 71.9366 76.8796C71.9321 73.4082 69.1136 70.5896 65.6467 70.5896Z" fill="#666666"/>
<path d="M68.8027 76.875C68.8027 78.6174 67.3889 80.0312 65.6465 80.0312C63.904 80.0312 62.4902 78.6174 62.4902 76.875C62.4902 75.1325 63.904 73.7188 65.6465 73.7188C67.3889 73.7188 68.8027 75.1325 68.8027 76.875Z" fill="#808080"/>
<path d="M65.6463 80.2474C63.7868 80.2474 62.2739 78.7346 62.2739 76.875C62.2739 75.0155 63.7868 73.5027 65.6463 73.5027C67.5058 73.5027 69.0186 75.0155 69.0186 76.875C69.0186 78.7346 67.5058 80.2474 65.6463 80.2474ZM65.6463 73.9394C64.0254 73.9394 62.7061 75.2587 62.7061 76.8795C62.7061 78.5004 64.0254 79.8197 65.6463 79.8197C67.2672 79.8197 68.5864 78.5004 68.5864 76.8795C68.5819 75.2541 67.2672 73.9394 65.6463 73.9394Z" fill="black"/>
<path d="M66.0422 72.6563C66.0422 72.8769 65.8621 73.057 65.6414 73.057C65.4208 73.057 65.2407 72.8769 65.2407 72.6563C65.2407 72.4356 65.4208 72.2556 65.6414 72.2556C65.8666 72.2601 66.0422 72.4356 66.0422 72.6563Z" fill="#1A242E"/>
<path d="M64.0388 72.9533C64.1424 73.1469 64.0658 73.39 63.8722 73.4936C63.6786 73.5971 63.4355 73.5206 63.3319 73.327C63.2284 73.1334 63.3049 72.8903 63.4985 72.7867C63.6966 72.6831 63.9353 72.7597 64.0388 72.9533Z" fill="#1A242E"/>
<path d="M62.3998 74.1511C62.5799 74.2772 62.6249 74.5248 62.5034 74.7049C62.3773 74.885 62.1297 74.93 61.9496 74.8085C61.7695 74.6824 61.7244 74.4348 61.846 74.2547C61.972 74.0701 62.2197 74.025 62.3998 74.1511Z" fill="#1A242E"/>
<path d="M61.5041 75.9701C61.7247 75.9971 61.8777 76.1952 61.8507 76.4158C61.8237 76.6364 61.6256 76.7895 61.405 76.7625C61.1843 76.7355 61.0312 76.5374 61.0583 76.3168C61.0853 76.0961 61.2879 75.9431 61.5041 75.9701Z" fill="#1A242E"/>
<path d="M61.5581 78.0006C61.7652 77.9241 61.9948 78.0276 62.0713 78.2303C62.1479 78.4329 62.0444 78.667 61.8417 78.7435C61.6346 78.8201 61.405 78.7165 61.3285 78.5139C61.2519 78.3113 61.3555 78.0772 61.5581 78.0006Z" fill="#1A242E"/>
<path d="M62.5485 79.7701C62.6925 79.6036 62.9447 79.59 63.1113 79.7341C63.2779 79.8782 63.2913 80.1303 63.1473 80.2969C63.0032 80.4635 62.7511 80.477 62.5845 80.333C62.4179 80.1889 62.4044 79.9322 62.5485 79.7701Z" fill="#1A242E"/>
<path d="M64.25 80.8778C64.304 80.6617 64.5201 80.5311 64.7317 80.5851C64.9433 80.6392 65.0784 80.8553 65.0244 81.0669C64.9704 81.2785 64.7543 81.4136 64.5427 81.3596C64.3265 81.3055 64.196 81.0894 64.25 80.8778Z" fill="#1A242E"/>
<path d="M66.2676 81.0668C66.2135 80.8507 66.3441 80.6391 66.5602 80.5851C66.7718 80.531 66.9879 80.6616 67.042 80.8777C67.096 81.0893 66.9654 81.3055 66.7493 81.3595C66.5377 81.4135 66.3216 81.283 66.2676 81.0668Z" fill="#1A242E"/>
<path d="M68.1451 80.2969C68.0011 80.1303 68.0145 79.8782 68.1811 79.7341C68.3477 79.59 68.5999 79.6036 68.7439 79.7701C68.888 79.9367 68.8745 80.1889 68.7079 80.333C68.5414 80.477 68.2892 80.4635 68.1451 80.2969Z" fill="#1A242E"/>
<path d="M69.4462 78.7436C69.239 78.6671 69.1355 78.4374 69.2166 78.2303C69.2931 78.0232 69.5227 77.9197 69.7298 78.0007C69.9369 78.0772 70.0405 78.3069 69.9594 78.514C69.8829 78.7211 69.6533 78.8246 69.4462 78.7436Z" fill="#1A242E"/>
<path d="M69.8828 76.7624C69.6622 76.7895 69.4641 76.6319 69.4371 76.4157C69.4101 76.1996 69.5676 75.997 69.7837 75.97C70.0044 75.943 70.2025 76.1006 70.2295 76.3167C70.2566 76.5373 70.099 76.7354 69.8828 76.7624Z" fill="#1A242E"/>
<path d="M69.3424 74.8085C69.1623 74.9345 68.9147 74.8895 68.7886 74.7049C68.6626 74.5248 68.7076 74.2772 68.8922 74.1511C69.0723 74.025 69.3199 74.0701 69.446 74.2547C69.572 74.4348 69.5225 74.6824 69.3424 74.8085Z" fill="#1A242E"/>
<path d="M67.9607 73.3271C67.8572 73.5207 67.6185 73.5972 67.4204 73.4937C67.2268 73.3901 67.1502 73.1515 67.2538 72.9534C67.3574 72.7553 67.596 72.6832 67.7941 72.7868C67.9877 72.8903 68.0598 73.129 67.9607 73.3271Z" fill="#1A242E"/>
<g opacity="0.5">
<path d="M71.6076 73.9574C71.6482 74.2591 71.6707 74.5652 71.6707 74.8804C71.6707 78.5454 68.699 81.5171 65.034 81.5171C62.4181 81.5171 60.1533 79.9997 59.0728 77.798C59.523 81.0263 62.292 83.5117 65.6419 83.5117C69.3069 83.5117 72.2785 80.54 72.2785 76.875C72.283 75.8304 72.0399 74.8399 71.6076 73.9574Z" fill="#808080"/>
</g>
<path d="M75.5061 70.7516C75.7267 71.6431 75.8438 72.5796 75.8438 73.5386C75.8438 79.9501 70.6479 85.146 64.2364 85.146C60.0716 85.146 56.4246 82.9533 54.376 79.662C55.6232 84.7273 60.1932 88.4823 65.6457 88.4823C72.0572 88.4823 77.2531 83.2865 77.2531 76.875C77.2531 74.6282 76.6137 72.5301 75.5061 70.7516Z" fill="#1A242E"/>
<path d="M154.416 87.6444C160.354 85.2295 163.21 78.4581 160.796 72.52C158.381 66.5818 151.609 63.7257 145.671 66.1406C139.733 68.5554 136.877 75.3269 139.292 81.265C141.707 87.2031 148.478 90.0593 154.416 87.6444Z" fill="#1A242E"/>
<path d="M156.606 77.9201C157.196 74.3024 154.741 70.8916 151.124 70.3019C147.506 69.7121 144.095 72.1667 143.506 75.7844C142.916 79.4021 145.37 82.8129 148.988 83.4026C152.606 83.9924 156.017 81.5378 156.606 77.9201Z" fill="#808080"/>
<path d="M150.063 83.8585C146.213 83.8585 143.079 80.7248 143.079 76.8752C143.079 73.0256 146.213 69.8918 150.063 69.8918C153.912 69.8918 157.046 73.0256 157.046 76.8752C157.046 80.7293 153.912 83.8585 150.063 83.8585ZM150.063 70.5897C146.596 70.5897 143.773 73.4128 143.773 76.8797C143.773 80.3466 146.596 83.1696 150.063 83.1696C153.53 83.1696 156.353 80.3466 156.353 76.8797C156.353 73.4083 153.53 70.5897 150.063 70.5897Z" fill="#666666"/>
<path d="M153.219 76.8751C153.219 78.6175 151.805 80.0313 150.063 80.0313C148.321 80.0313 146.907 78.6175 146.907 76.8751C146.907 75.1326 148.321 73.7188 150.063 73.7188C151.805 73.7188 153.219 75.1326 153.219 76.8751Z" fill="#808080"/>
<path d="M150.063 80.2473C148.204 80.2473 146.691 78.7345 146.691 76.875C146.691 75.0155 148.204 73.5026 150.063 73.5026C151.923 73.5026 153.436 75.0155 153.436 76.875C153.436 78.7345 151.923 80.2473 150.063 80.2473ZM150.063 73.9394C148.442 73.9394 147.123 75.2586 147.123 76.8795C147.123 78.5004 148.442 79.8196 150.063 79.8196C151.684 79.8196 153.003 78.5004 153.003 76.8795C153.003 75.2541 151.684 73.9394 150.063 73.9394Z" fill="black"/>
<path d="M150.464 72.6563C150.464 72.8769 150.284 73.057 150.063 73.057C149.842 73.057 149.662 72.8769 149.662 72.6563C149.662 72.4356 149.842 72.2556 150.063 72.2556C150.284 72.2601 150.464 72.4356 150.464 72.6563Z" fill="#1A242E"/>
<path d="M148.456 72.9535C148.559 73.1471 148.483 73.3902 148.289 73.4938C148.095 73.5973 147.852 73.5208 147.749 73.3272C147.645 73.1336 147.722 72.8904 147.915 72.7869C148.113 72.6833 148.352 72.7599 148.456 72.9535Z" fill="#1A242E"/>
<path d="M146.817 74.1511C146.997 74.2772 147.042 74.5248 146.92 74.7049C146.794 74.885 146.546 74.93 146.366 74.8085C146.186 74.6869 146.141 74.4348 146.263 74.2547C146.389 74.0701 146.636 74.025 146.817 74.1511Z" fill="#1A242E"/>
<path d="M145.921 75.9701C146.141 75.9971 146.294 76.1952 146.267 76.4159C146.24 76.6365 146.042 76.7896 145.822 76.7626C145.601 76.7356 145.448 76.5374 145.475 76.3168C145.502 76.0962 145.705 75.9431 145.921 75.9701Z" fill="#1A242E"/>
<path d="M145.975 78.0008C146.182 77.9243 146.412 78.0278 146.488 78.2304C146.565 78.4376 146.461 78.6672 146.258 78.7437C146.051 78.8203 145.822 78.7167 145.745 78.5141C145.669 78.3115 145.772 78.0774 145.975 78.0008Z" fill="#1A242E"/>
<path d="M146.965 79.7703C147.109 79.6037 147.361 79.5902 147.528 79.7342C147.694 79.8783 147.708 80.1305 147.564 80.297C147.419 80.4636 147.167 80.4772 147.001 80.3331C146.834 80.1845 146.821 79.9324 146.965 79.7703Z" fill="#1A242E"/>
<path d="M148.667 80.8778C148.721 80.6617 148.937 80.5312 149.148 80.5852C149.36 80.6392 149.495 80.8553 149.441 81.067C149.387 81.2831 149.171 81.4136 148.959 81.3596C148.743 81.3056 148.613 81.0895 148.667 80.8778Z" fill="#1A242E"/>
<path d="M150.684 81.067C150.63 80.8508 150.761 80.6392 150.977 80.5852C151.193 80.5312 151.405 80.6617 151.459 80.8778C151.513 81.0895 151.382 81.3056 151.166 81.3596C150.954 81.4136 150.738 81.2831 150.684 81.067Z" fill="#1A242E"/>
<path d="M152.561 80.297C152.417 80.1305 152.431 79.8783 152.597 79.7342C152.764 79.5902 153.016 79.6037 153.16 79.7703C153.304 79.9369 153.291 80.189 153.124 80.3331C152.958 80.4772 152.705 80.4636 152.561 80.297Z" fill="#1A242E"/>
<path d="M153.867 78.7437C153.66 78.6671 153.557 78.4375 153.638 78.2304C153.719 78.0233 153.944 77.9197 154.151 78.0008C154.358 78.0773 154.462 78.3069 154.381 78.514C154.3 78.7211 154.07 78.8247 153.867 78.7437Z" fill="#1A242E"/>
<path d="M154.3 76.7626C154.079 76.7896 153.881 76.632 153.854 76.4159C153.827 76.1952 153.984 75.9971 154.201 75.9701C154.421 75.9431 154.619 76.1007 154.646 76.3168C154.673 76.5374 154.516 76.7355 154.3 76.7626Z" fill="#1A242E"/>
<path d="M153.759 74.8085C153.579 74.9345 153.331 74.8895 153.205 74.7049C153.079 74.5248 153.124 74.2772 153.309 74.1511C153.489 74.025 153.737 74.0701 153.863 74.2547C153.989 74.4348 153.944 74.6824 153.759 74.8085Z" fill="#1A242E"/>
<path d="M152.377 73.3272C152.274 73.5208 152.035 73.5973 151.837 73.4938C151.644 73.3902 151.567 73.1516 151.671 72.9535C151.774 72.7599 152.013 72.6833 152.211 72.7869C152.404 72.8904 152.481 73.1291 152.377 73.3272Z" fill="#1A242E"/>
<g opacity="0.5">
<path d="M156.025 73.9575C156.065 74.2592 156.088 74.5653 156.088 74.8805C156.088 78.5455 153.116 81.5172 149.451 81.5172C146.835 81.5172 144.57 79.9998 143.49 77.7981C143.94 81.0264 146.709 83.5118 150.059 83.5118C153.724 83.5118 156.695 80.5401 156.695 76.8751C156.7 75.8306 156.457 74.84 156.025 73.9575Z" fill="#808080"/>
</g>
<path d="M159.923 70.7518C160.144 71.6433 160.261 72.5798 160.261 73.5388C160.261 79.9503 155.065 85.1462 148.654 85.1462C144.489 85.1462 140.842 82.9535 138.793 79.6622C140.04 84.7275 144.61 88.4825 150.063 88.4825C156.474 88.4825 161.67 83.2867 161.67 76.8751C161.67 74.6284 161.031 72.5302 159.923 70.7518Z" fill="#1A242E"/>
<path d="M179.455 87.5931C185.378 85.1398 188.191 78.3497 185.737 72.4269C183.284 66.5042 176.494 63.6917 170.571 66.145C164.648 68.5983 161.836 75.3885 164.289 81.3112C166.742 87.234 173.533 90.0465 179.455 87.5931Z" fill="#1A242E"/>
<path d="M181.559 77.8686C182.101 74.2436 179.601 70.8658 175.976 70.3241C172.351 69.7823 168.974 72.2818 168.432 75.9068C167.89 79.5318 170.39 82.9096 174.015 83.4514C177.64 83.9931 181.017 81.4936 181.559 77.8686Z" fill="#808080"/>
<path d="M174.997 83.8584C171.147 83.8584 168.013 80.7247 168.013 76.8751C168.013 73.0255 171.147 69.8917 174.997 69.8917C178.846 69.8917 181.98 73.0255 181.98 76.8751C181.98 80.7292 178.846 83.8584 174.997 83.8584ZM174.997 70.5896C171.53 70.5896 168.707 73.4127 168.707 76.8796C168.707 80.3465 171.53 83.1695 174.997 83.1695C178.464 83.1695 181.287 80.3465 181.287 76.8796C181.287 73.4082 178.464 70.5896 174.997 70.5896Z" fill="#666666"/>
<path d="M178.153 76.875C178.153 78.6174 176.739 80.0312 174.997 80.0312C173.254 80.0312 171.841 78.6174 171.841 76.875C171.841 75.1325 173.254 73.7188 174.997 73.7188C176.739 73.7188 178.153 75.1325 178.153 76.875Z" fill="#808080"/>
<path d="M174.997 80.2473C173.138 80.2473 171.625 78.7344 171.625 76.8749C171.625 75.0154 173.138 73.5026 174.997 73.5026C176.857 73.5026 178.369 75.0154 178.369 76.8749C178.369 78.7344 176.857 80.2473 174.997 80.2473ZM174.997 73.9393C173.376 73.9393 172.057 75.2585 172.057 76.8794C172.057 78.5003 173.376 79.8195 174.997 79.8195C176.618 79.8195 177.937 78.5003 177.937 76.8794C177.937 75.254 176.618 73.9393 174.997 73.9393Z" fill="black"/>
<path d="M175.398 72.6562C175.398 72.8768 175.218 73.0569 174.997 73.0569C174.777 73.0569 174.597 72.8768 174.597 72.6562C174.597 72.4356 174.777 72.2555 174.997 72.2555C175.218 72.26 175.398 72.4356 175.398 72.6562Z" fill="#1A242E"/>
<path d="M173.39 72.9534C173.493 73.147 173.417 73.3902 173.223 73.4937C173.03 73.5973 172.787 73.5207 172.683 73.3271C172.579 73.1335 172.656 72.8904 172.85 72.7868C173.048 72.6833 173.286 72.7598 173.39 72.9534Z" fill="#1A242E"/>
<path d="M171.751 74.151C171.931 74.2771 171.976 74.5248 171.855 74.7049C171.729 74.885 171.481 74.93 171.301 74.8084C171.121 74.6868 171.076 74.4347 171.198 74.2546C171.324 74.07 171.571 74.025 171.751 74.151Z" fill="#1A242E"/>
<path d="M170.86 75.9701C171.08 75.9971 171.233 76.1952 171.206 76.4158C171.179 76.6364 170.981 76.7895 170.76 76.7625C170.54 76.7355 170.387 76.5374 170.414 76.3168C170.441 76.0961 170.639 75.9431 170.86 75.9701Z" fill="#1A242E"/>
<path d="M170.914 78.0006C171.121 77.9241 171.35 78.0276 171.427 78.2303C171.503 78.4329 171.4 78.667 171.197 78.7435C170.99 78.8201 170.761 78.7165 170.684 78.5139C170.607 78.3113 170.706 78.0772 170.914 78.0006Z" fill="#1A242E"/>
<path d="M171.9 79.7702C172.044 79.6036 172.296 79.5901 172.463 79.7342C172.629 79.8783 172.643 80.1304 172.499 80.297C172.355 80.4636 172.103 80.4771 171.936 80.333C171.769 80.1889 171.756 79.9323 171.9 79.7702Z" fill="#1A242E"/>
<path d="M173.602 80.8778C173.656 80.6617 173.872 80.5311 174.083 80.5851C174.295 80.6392 174.43 80.8553 174.376 81.0669C174.322 81.2785 174.106 81.4136 173.894 81.3596C173.678 81.3055 173.548 81.0894 173.602 80.8778Z" fill="#1A242E"/>
<path d="M175.619 81.0669C175.565 80.8508 175.695 80.6392 175.911 80.5851C176.123 80.5311 176.339 80.6617 176.393 80.8778C176.447 81.0894 176.316 81.3055 176.1 81.3596C175.889 81.4136 175.673 81.283 175.619 81.0669Z" fill="#1A242E"/>
<path d="M177.497 80.297C177.353 80.1304 177.366 79.8783 177.533 79.7342C177.699 79.5901 177.951 79.6036 178.096 79.7702C178.24 79.9368 178.226 80.1889 178.06 80.333C177.893 80.4771 177.641 80.4636 177.497 80.297Z" fill="#1A242E"/>
<path d="M178.802 78.7435C178.595 78.667 178.491 78.4374 178.573 78.2303C178.649 78.0231 178.879 77.9196 179.086 78.0006C179.293 78.0772 179.396 78.3068 179.315 78.5139C179.239 78.721 179.005 78.8246 178.802 78.7435Z" fill="#1A242E"/>
<path d="M179.234 76.7624C179.013 76.7895 178.815 76.6319 178.788 76.4157C178.761 76.1996 178.919 75.997 179.135 75.97C179.355 75.943 179.554 76.1006 179.581 76.3167C179.608 76.5373 179.45 76.7354 179.234 76.7624Z" fill="#1A242E"/>
<path d="M178.694 74.8084C178.514 74.9345 178.266 74.8895 178.14 74.7049C178.014 74.5248 178.059 74.2771 178.244 74.151C178.424 74.025 178.671 74.07 178.798 74.2546C178.924 74.4347 178.879 74.6823 178.694 74.8084Z" fill="#1A242E"/>
<path d="M177.312 73.3271C177.208 73.5208 176.97 73.5973 176.771 73.4937C176.578 73.3902 176.501 73.1515 176.605 72.9534C176.708 72.7553 176.947 72.6833 177.145 72.7868C177.339 72.8904 177.415 73.129 177.312 73.3271Z" fill="#1A242E"/>
<g opacity="0.5">
<path d="M180.959 73.9575C180.999 74.2591 181.022 74.5653 181.022 74.8805C181.022 78.5455 178.05 81.5171 174.385 81.5171C171.769 81.5171 169.504 79.9998 168.424 77.7981C168.874 81.0263 171.643 83.5117 174.993 83.5117C178.658 83.5117 181.63 80.5401 181.63 76.8751C181.634 75.8305 181.391 74.8399 180.959 73.9575Z" fill="#808080"/>
</g>
<path d="M184.858 70.7518C185.079 71.6433 185.196 72.5798 185.196 73.5388C185.196 79.9503 180 85.1462 173.588 85.1462C169.423 85.1462 165.776 82.9535 163.728 79.6622C164.975 84.7275 169.545 88.4825 174.997 88.4825C181.409 88.4825 186.605 83.2867 186.605 76.8751C186.605 74.6284 185.966 72.5302 184.858 70.7518Z" fill="#1A242E"/>
</svg>
