<svg width="251" height="120" viewBox="0 0 251 120" fill="none" xmlns="http://www.w3.org/2000/svg">
<path d="M193.828 67.6505C193.486 67.6505 193.154 67.6283 192.821 67.584L190.541 67.2691C189.774 67.1626 189.238 66.4575 189.344 65.6903C189.45 64.923 190.16 64.3864 190.923 64.4928L193.202 64.8077C194.426 64.9762 195.815 64.6347 197.322 63.801C200.014 62.3109 201.815 59.8052 202.143 57.1043C202.418 54.8204 201.637 52.7005 199.943 51.1394C198.901 50.177 196.959 48.6648 196.564 48.4253C195.899 48.1104 195.588 47.3298 195.863 46.638C196.152 45.9195 196.968 45.5692 197.686 45.8575C198.4 46.1457 201.079 48.372 201.846 49.0816C204.183 51.2414 205.305 54.2882 204.928 57.4414C204.494 61.0336 202.161 64.3288 198.684 66.2535C196.999 67.1804 195.371 67.6505 193.828 67.6505ZM196.582 48.4253C196.604 48.4341 196.626 48.443 196.644 48.4519C196.622 48.443 196.604 48.4341 196.582 48.4253Z" fill="#4F3400"/>
<path d="M119.131 50.5496C118.79 50.5496 118.444 50.4254 118.173 50.1726C117.588 49.6227 115.898 46.536 115.472 45.6579C114.08 42.7974 114.142 39.5467 115.645 36.7483C117.357 33.5596 120.728 31.3377 124.666 30.8099C126.99 30.4995 128.99 30.7966 130.613 31.7014L132.622 32.8234C133.296 33.2004 133.54 34.0519 133.163 34.7304C132.786 35.4045 131.93 35.6484 131.256 35.2715L129.247 34.1494C128.17 33.5463 126.75 33.36 125.043 33.5906C121.992 33.9986 119.402 35.6794 118.116 38.0743C117.029 40.101 116.985 42.3584 117.996 44.4339C118.617 45.7112 119.872 47.8266 120.156 48.1947C120.661 48.7269 120.666 49.5695 120.16 50.115C119.881 50.4033 119.508 50.5496 119.131 50.5496ZM120.089 48.1282C120.107 48.1415 120.12 48.1592 120.134 48.1725C120.12 48.1548 120.103 48.137 120.089 48.1282Z" fill="#4F3400"/>
<path d="M197.071 63.8911L187.141 64.2966L187.29 67.9658L197.221 67.5603L197.071 63.8911Z" fill="#FAA701"/>
<g opacity="0.19">
<path d="M197.101 65.9831L187.171 66.3867L187.149 65.8101L187.238 67.9965L197.163 67.5929L197.039 64.5018L197.101 65.9831Z" fill="#FFADB0"/>
</g>
<path d="M178.754 64.4796H116.883V68.7902H178.754V64.4796Z" fill="#333333"/>
<path d="M130.524 61.721H123.774V68.4709H130.524V61.721Z" fill="#CF490A"/>
<path d="M178.749 68.2004H98.0298V76.2275H178.749V68.2004Z" fill="#1A1A1A"/>
<path d="M141.629 38.664L127.837 37.9722L128.01 34.5573C128.036 33.9985 128.515 33.5684 129.074 33.595L140.84 34.1848C141.399 34.2114 141.829 34.6904 141.802 35.2492L141.629 38.664Z" fill="#CF490A"/>
<path d="M197.495 61.5436C196.356 65.4996 191.752 68.2048 186.537 67.9831L123.18 65.3133C117.96 65.0916 113.605 62.0137 112.798 57.9735C112.754 57.7607 112.714 57.5478 112.678 57.335C112.638 57.1221 112.603 56.9092 112.572 56.6963C112.235 54.5765 112.111 52.4388 112.204 50.3145C112.31 47.7645 112.723 45.2233 113.441 42.7309C114.013 40.7529 115.446 39.0898 117.393 37.9456C119.34 36.8014 121.792 36.1806 124.404 36.2914L187.761 38.9612C192.635 39.1652 196.759 41.8705 197.934 45.516C197.943 45.5382 197.948 45.5603 197.952 45.5781C197.97 45.6313 197.983 45.6845 198.001 45.7377C198.023 45.8176 198.045 45.893 198.063 45.9684C198.067 45.995 198.076 46.0171 198.081 46.0437C198.103 46.128 198.121 46.2123 198.138 46.301C199.15 51.3878 198.932 56.5588 197.495 61.5436Z" fill="#FAA701"/>
<g opacity="0.3">
<path d="M198.134 46.301C198.081 46.0349 198.015 45.7732 197.93 45.5204C198.29 49.4897 197.913 53.4722 196.8 57.3438C195.66 61.2997 191.056 64.005 185.837 63.7833L122.48 61.1135C117.606 60.9095 113.477 58.2042 112.302 54.5587C112.404 55.6985 112.568 56.8427 112.794 57.978C113.597 62.0138 117.956 65.096 123.176 65.3178L186.533 67.9875C191.753 68.2093 196.356 65.504 197.496 61.5481C198.933 56.5589 199.15 51.3878 198.134 46.301Z" fill="#666666"/>
</g>
<g opacity="0.35">
<path d="M113.504 48.0483C114.076 46.0704 115.508 44.4073 117.455 43.2631C119.402 42.1189 121.854 41.498 124.467 41.6089L187.823 44.2787C192.697 44.4827 196.822 47.1879 197.997 50.8334C198.006 50.8556 198.01 50.8778 198.015 50.8955C198.032 50.9487 198.046 51.0019 198.063 51.0552C198.086 51.135 198.108 51.2104 198.125 51.2858C198.13 51.3124 198.139 51.3346 198.143 51.3612C198.165 51.4454 198.183 51.5297 198.201 51.6184C198.449 52.8646 198.622 54.1152 198.724 55.3659C198.848 52.7626 198.653 50.146 198.134 47.5472C198.117 47.4629 198.099 47.3742 198.077 47.29C198.072 47.2678 198.063 47.2412 198.059 47.2146C198.037 47.1347 198.019 47.0593 197.997 46.9839C197.979 46.9307 197.966 46.8775 197.948 46.8243C197.944 46.8021 197.935 46.7799 197.93 46.7622C196.755 43.1167 192.631 40.4114 187.757 40.2074L124.4 37.5377C121.792 37.4268 119.335 38.0477 117.388 39.1919C115.442 40.3361 114.009 42.0036 113.437 43.9771C112.719 46.4695 112.306 49.0063 112.2 51.5607C112.146 52.8646 112.169 54.1729 112.275 55.4767C112.39 52.9755 112.798 50.4875 113.504 48.0483Z" fill="#F5911E"/>
</g>
<path d="M104.594 67.3666H79.7095V77.8241H104.594V67.3666Z" fill="#333333"/>
<path d="M104.589 75.6421H101.822L103.268 67.717H104.589V75.6421Z" fill="#1A1A1A"/>
<g opacity="0.2">
<path d="M81.2262 69.3667H104.589V67.3666H79.7095V75.8461H81.2262V69.3667Z" fill="#333333"/>
</g>
<path d="M104.589 75.5756H79.1772V78.2942H104.589V75.5756Z" fill="#1A1A1A"/>
<path d="M109.969 33.9143V66.9054C109.969 67.7702 109.268 68.4709 108.403 68.4709H49.7962C49.2907 68.4709 48.8116 68.3734 48.3681 68.1915C46.9844 67.6283 46.0044 66.2712 46.0044 64.6791V53.7338C46.0044 53.6983 46.0044 53.6584 46.0044 53.6185C46.0576 52.2747 46.9667 49.2901 48.1952 49.0949L74.5074 46.3542H74.5296L75.7801 46.2256C75.8821 46.1635 75.9842 46.0925 76.0729 46.0171C76.4144 45.7377 76.6805 45.3741 76.8401 44.9572L82.1132 31.0849L82.3171 30.5483C82.8183 29.1291 84.3351 28.5526 85.8385 28.5304L103.857 27.9893C107.201 27.8873 109.969 30.5704 109.969 33.9143Z" fill="white"/>
<path d="M85.1693 34.4997L81.8476 46.3852C81.5903 47.3076 82.2821 48.2256 83.2445 48.2256H102.523C103.366 48.2256 104.044 47.5338 104.031 46.6956L103.822 33.8167C103.809 33.0273 103.166 32.3975 102.377 32.3975H87.9411C86.655 32.3931 85.5196 33.2579 85.1693 34.4997Z" fill="black"/>
<path d="M83.4745 33.0628L78.8179 45.4938C78.5385 46.2433 77.7048 46.6247 76.9509 46.3453L76.0728 46.0171C76.4142 45.7377 76.6803 45.3741 76.84 44.9572L82.113 31.0849L82.6674 31.2933C83.3814 31.5594 83.7406 32.3488 83.4745 33.0628Z" fill="black"/>
<g opacity="0.2">
<path d="M104.58 32.9608C104.567 32.0739 103.835 31.3554 102.948 31.3554H86.8938C85.9448 31.3554 85.0933 31.994 84.8272 32.9032L80.1573 48.8022L80.1528 48.82L80.3968 63.8099C80.4145 64.8831 81.3015 65.7568 82.3747 65.7568H102.806C103.418 65.7568 103.99 65.5173 104.416 65.0827C104.846 64.648 105.077 64.0715 105.064 63.4595L104.58 32.9608ZM104.274 64.9275C103.884 65.3266 103.365 65.5395 102.811 65.5395H82.3792C81.4168 65.5395 80.6229 64.7589 80.6052 63.7965L80.3613 48.8377L85.0268 32.9564C85.2707 32.1315 86.0379 31.555 86.8938 31.555H102.948C103.72 31.555 104.358 32.1847 104.372 32.9564L104.864 63.4506C104.873 64.0094 104.664 64.5327 104.274 64.9275Z" fill="black"/>
<path d="M74.6715 46.4827L73.7091 47.5205C73.0661 48.2124 72.7113 49.1126 72.7113 50.0528V57.4413H72.5028V53.8269H46V53.7338C46 53.6983 46 53.6584 46 53.6185H72.4984V50.0528C72.4984 49.0594 72.8709 48.1059 73.5494 47.3786L74.503 46.3541L74.5163 46.3408L74.5252 46.3497L74.6715 46.4827Z" fill="black"/>
</g>
<path d="M86.1531 35.0054L83.1241 45.8575C82.889 46.7001 83.5232 47.5383 84.3969 47.5383H102.003C102.771 47.5383 103.391 46.9086 103.378 46.1413L103.187 34.38C103.174 33.6616 102.589 33.0806 101.87 33.0806H88.6899C87.5057 33.0851 86.4724 33.87 86.1531 35.0054Z" fill="#424756"/>
<g opacity="0.6">
<path d="M107.472 29.0803C107.844 29.8564 108.053 30.7256 108.053 31.6436V64.6347C108.053 65.4995 107.352 66.2002 106.487 66.2002H47.8804C47.3748 66.2002 46.8958 66.1026 46.4523 65.9208C46.3548 65.8809 46.2616 65.8366 46.1685 65.7878C46.5011 66.8787 47.3172 67.7613 48.3638 68.187C48.8029 68.3689 49.2863 68.4664 49.7918 68.4664H108.399C109.264 68.4664 109.964 67.7657 109.964 66.9009V33.9099C109.969 31.9142 108.98 30.1535 107.472 29.0803Z" fill="white"/>
</g>
<path d="M83.4745 33.0628L78.8179 45.4938C78.5385 46.2433 77.7048 46.6247 76.9509 46.3453L76.0728 46.0171C76.1615 45.9462 76.2412 45.8708 76.3166 45.7865C76.5428 45.547 76.7202 45.2676 76.84 44.9572L82.0554 31.2401L82.113 31.0849L82.6674 31.2933C83.3814 31.5594 83.7451 32.3488 83.4745 33.0628Z" fill="black"/>
<path d="M82.8938 32.9386L78.4323 45.0281C78.1662 45.7599 77.3369 46.1368 76.583 45.8796L76.3213 45.7865C76.5475 45.547 76.7249 45.2676 76.8447 44.9571L82.0601 31.2401C82.7741 31.484 83.1466 32.2423 82.8938 32.9386Z" fill="#424756"/>
<path d="M102.757 52.5896H98.4777C98.2294 52.5896 98.0298 52.3901 98.0298 52.1417C98.0298 51.8934 98.2294 51.6938 98.4777 51.6938H102.757C103.006 51.6938 103.205 51.8934 103.205 52.1417C103.205 52.3856 103.006 52.5896 102.757 52.5896Z" fill="black"/>
<path d="M86.271 50.887H89.0073V49.6009H86.271V50.887Z" fill="#1A1A1A"/>
<path d="M88.5256 50.4919C87.2661 50.4919 86.2417 49.4053 86.2417 48.066V33.1692C86.2417 31.8299 87.2661 30.7433 88.5256 30.7433H89.8783C90.0645 30.7433 90.2153 30.8941 90.2153 31.0804C90.2153 31.2667 90.0645 31.4175 89.8783 31.4175H88.5256C87.6386 31.4175 86.9114 32.2024 86.9114 33.1692V48.066C86.9114 49.0328 87.6342 49.8178 88.5256 49.8178C88.7119 49.8178 88.8627 49.9686 88.8627 50.1548C88.8627 50.3411 88.7119 50.4919 88.5256 50.4919Z" fill="#1A1A1A"/>
<path d="M86.0515 43.5026H87.9319C88.3577 43.5026 88.708 43.1522 88.708 42.7265V34.9964C88.708 34.5707 88.3577 34.2203 87.9319 34.2203H86.0515C85.6258 34.2203 85.2754 34.5707 85.2754 34.9964V42.7265C85.271 43.1522 85.6214 43.5026 86.0515 43.5026Z" fill="#333333"/>
<g opacity="0.4">
<path d="M85.6701 34.3179V41.7552C85.6701 42.1987 86.0071 42.5579 86.4196 42.5579H88.3532C88.4818 42.5579 88.6016 42.518 88.7036 42.4603V42.6954C88.7036 43.1389 88.3665 43.4981 87.954 43.4981H86.0205C85.608 43.4981 85.271 43.1344 85.271 42.6954V35.0186C85.271 34.717 85.435 34.4554 85.6701 34.3179Z" fill="#323E47"/>
</g>
<path d="M72.8354 62.1334V68.4709H49.7918C49.2862 68.4709 48.8073 68.3733 48.3638 68.1915V62.1334H72.8354Z" fill="#333333"/>
<path d="M76.5104 78.9957C78.2074 71.8089 73.7571 64.6071 66.5703 62.9101C59.3835 61.2131 52.1818 65.6635 50.4848 72.8503C48.7878 80.0371 53.2382 87.2388 60.4249 88.9358C67.6117 90.6328 74.8134 86.1825 76.5104 78.9957Z" fill="#1A242E"/>
<path d="M63.4509 83.492C67.6735 83.492 71.0966 80.0689 71.0966 75.8462C71.0966 71.6236 67.6735 68.2005 63.4509 68.2005C59.2283 68.2005 55.8052 71.6236 55.8052 75.8462C55.8052 80.0689 59.2283 83.492 63.4509 83.492Z" fill="#808080"/>
<path d="M63.4511 83.8911C59.0162 83.8911 55.4062 80.2811 55.4062 75.8462C55.4062 71.4113 59.0162 67.8013 63.4511 67.8013C67.886 67.8013 71.496 71.4113 71.496 75.8462C71.496 80.2811 67.886 83.8911 63.4511 83.8911ZM63.4511 68.604C59.4552 68.604 56.209 71.8548 56.209 75.8462C56.209 79.842 59.4597 83.0884 63.4511 83.0884C67.4425 83.0884 70.6933 79.8376 70.6933 75.8462C70.6933 71.8504 67.4425 68.604 63.4511 68.604Z" fill="#666666"/>
<path d="M63.4508 79.4829C65.4592 79.4829 67.0875 77.8548 67.0875 75.8463C67.0875 73.8379 65.4592 72.2097 63.4508 72.2097C61.4423 72.2097 59.8142 73.8379 59.8142 75.8463C59.8142 77.8548 61.4423 79.4829 63.4508 79.4829Z" fill="#808080"/>
<path d="M63.4506 79.7313C61.3086 79.7313 59.5657 77.9884 59.5657 75.8464C59.5657 73.7043 61.3086 71.9614 63.4506 71.9614C65.5927 71.9614 67.3356 73.7043 67.3356 75.8464C67.3356 77.9884 65.5927 79.7313 63.4506 79.7313ZM63.4506 72.4626C61.5835 72.4626 60.0669 73.9793 60.0669 75.8464C60.0669 77.7135 61.5835 79.2302 63.4506 79.2302C65.3177 79.2302 66.8345 77.7135 66.8345 75.8464C66.8345 73.9793 65.3133 72.4626 63.4506 72.4626Z" fill="black"/>
<path d="M63.9077 70.9856C63.9077 71.2384 63.7037 71.4468 63.4465 71.4468C63.1937 71.4468 62.9854 71.2429 62.9854 70.9856C62.9854 70.7284 63.1893 70.5244 63.4465 70.5244C63.7037 70.5244 63.9077 70.7328 63.9077 70.9856Z" fill="#1A242E"/>
<path d="M61.5974 71.327C61.7171 71.5532 61.6285 71.8282 61.4023 71.9479C61.1761 72.0677 60.9012 71.979 60.7814 71.7528C60.6617 71.5266 60.7504 71.2517 60.9766 71.1319C61.2027 71.0166 61.4776 71.1053 61.5974 71.327Z" fill="#1A242E"/>
<path d="M59.7121 72.7063C59.9206 72.8482 59.9738 73.1365 59.8275 73.3449C59.6855 73.5534 59.3973 73.6066 59.1889 73.4602C58.9804 73.3139 58.9272 73.0301 59.0735 72.8216C59.2155 72.6132 59.4993 72.5644 59.7121 72.7063Z" fill="#1A242E"/>
<path d="M58.679 74.8041C58.9318 74.8351 59.1093 75.0657 59.0782 75.3141C59.0472 75.5669 58.8165 75.7442 58.5681 75.7132C58.3154 75.6822 58.138 75.4516 58.1691 75.2032C58.2001 74.9548 58.4262 74.773 58.679 74.8041Z" fill="#1A242E"/>
<path d="M58.7412 77.1413C58.9807 77.0526 59.2424 77.1723 59.3355 77.4074C59.4242 77.6424 59.3044 77.9085 59.0694 78.0016C58.8343 78.0903 58.5682 77.9706 58.4751 77.7356C58.3864 77.4961 58.5062 77.23 58.7412 77.1413Z" fill="#1A242E"/>
<path d="M59.8808 79.1769C60.0493 78.9862 60.3376 78.9685 60.5283 79.137C60.719 79.3055 60.7366 79.5938 60.5681 79.7845C60.3996 79.9752 60.1113 79.9929 59.9206 79.8244C59.7299 79.6559 59.7123 79.3676 59.8808 79.1769Z" fill="#1A242E"/>
<path d="M61.8413 80.4541C61.9034 80.2058 62.1518 80.0594 62.3957 80.1171C62.6441 80.1792 62.7904 80.4275 62.7328 80.6714C62.6707 80.9198 62.4223 81.0661 62.1784 81.0085C61.9345 80.9508 61.7793 80.7025 61.8413 80.4541Z" fill="#1A242E"/>
<path d="M64.1648 80.6758C64.1028 80.4275 64.2535 80.1791 64.5019 80.1215C64.7502 80.0638 64.9986 80.2102 65.0563 80.4585C65.1183 80.7069 64.9676 80.9552 64.7192 81.0129C64.4753 81.0705 64.2269 80.9198 64.1648 80.6758Z" fill="#1A242E"/>
<path d="M66.3295 79.7889C66.1609 79.5982 66.1787 79.3099 66.3694 79.1414C66.5601 78.9729 66.8484 78.9906 67.0169 79.1813C67.1854 79.372 67.1678 79.6603 66.9771 79.8288C66.7864 79.9973 66.498 79.9796 66.3295 79.7889Z" fill="#1A242E"/>
<path d="M67.8281 77.9972C67.5931 77.9085 67.4733 77.6424 67.562 77.4029C67.6507 77.1679 67.9168 77.0481 68.1563 77.1368C68.3913 77.2255 68.5111 77.4916 68.4224 77.7311C68.3337 77.9706 68.0676 78.0903 67.8281 77.9972Z" fill="#1A242E"/>
<path d="M68.3293 75.7177C68.0766 75.7487 67.8504 75.5669 67.8194 75.3185C67.7883 75.0657 67.9701 74.8396 68.2185 74.8085C68.4713 74.7775 68.6975 74.9593 68.7285 75.2077C68.7596 75.456 68.5821 75.6866 68.3293 75.7177Z" fill="#1A242E"/>
<path d="M67.7082 73.4647C67.4998 73.6111 67.2116 73.5579 67.0696 73.3494C66.9233 73.141 66.9765 72.8527 67.185 72.7108C67.3934 72.5645 67.6816 72.6177 67.8235 72.8261C67.9699 73.0346 67.9167 73.3184 67.7082 73.4647Z" fill="#1A242E"/>
<path d="M66.1164 71.7573C65.9967 71.9835 65.7218 72.0677 65.4956 71.9524C65.2694 71.8327 65.1852 71.5577 65.3005 71.3315C65.4202 71.1054 65.6951 71.0211 65.9213 71.1364C66.1475 71.2517 66.2317 71.5311 66.1164 71.7573Z" fill="#1A242E"/>
<g opacity="0.5">
<path d="M70.3164 72.4846C70.3652 72.8305 70.3918 73.1853 70.3918 73.5446C70.3918 77.7666 66.9681 81.1903 62.746 81.1903C59.7303 81.1903 57.1226 79.4429 55.8809 76.9062C56.3997 80.627 59.5883 83.492 63.4511 83.492C67.6731 83.492 71.0968 80.0683 71.0968 75.8463C71.0924 74.64 70.8131 73.5002 70.3164 72.4846Z" fill="#808080"/>
</g>
<path d="M74.8088 68.7903C75.0616 69.8192 75.199 70.8924 75.199 72.0011C75.199 79.3852 69.212 85.3723 61.8279 85.3723C57.0338 85.3723 52.8296 82.8444 50.4702 79.0526C51.9071 84.8889 57.1757 89.2129 63.451 89.2129C70.8351 89.2129 76.8222 83.2258 76.8222 75.8418C76.8222 73.2562 76.0816 70.8392 74.8088 68.7903Z" fill="#1A242E"/>
<path d="M80.8048 73.0033C79.3546 69.5397 77.7403 66.1736 76.0595 62.8475C75.8245 62.3818 75.5849 61.9161 75.3455 61.4505L74.9862 60.7542L74.8931 60.5768C74.862 60.5147 74.8487 60.4881 74.7645 60.3373C74.6314 60.0934 74.4718 59.8628 74.2989 59.6455C73.607 58.7762 72.6402 58.1731 71.5936 57.9558C71.3319 57.9026 71.0658 57.8671 70.7997 57.8626C70.6356 57.8582 70.6134 57.8626 70.5424 57.8626H70.3562L69.6156 57.8671L68.1299 57.8804L66.6443 57.9114C65.6553 57.9247 64.6618 57.9602 63.6728 57.9913C62.6838 58.0223 61.6905 58.0755 60.7015 58.1154L57.7301 58.2751L54.7588 58.4347L53.2731 58.5146L52.5325 58.5545L52.1643 58.5722L51.9204 58.59L51.6144 58.6166C50.8028 58.7319 50.0178 59.0645 49.3792 59.5878C49.3703 59.5967 49.3571 59.6011 49.3482 59.6144C49.1975 59.7342 49.06 59.8716 48.9181 60.0091C48.7806 60.1643 48.6386 60.3151 48.5189 60.4881C48.2661 60.8207 48.0666 61.1932 47.9069 61.5835C47.7473 61.9738 47.6453 62.3862 47.5787 62.8031C47.5654 62.9051 47.5565 63.0115 47.5477 63.1135L47.5343 63.2687V63.3708L47.5255 63.7699L47.49 65.362L47.4634 66.9541L47.459 67.4021C47.459 67.575 47.4678 67.7436 47.4811 67.9165C47.5077 68.258 47.5565 68.595 47.6319 68.9277C47.6807 69.1405 47.7384 69.349 47.8049 69.553C47.8404 69.6683 47.8802 69.7792 47.929 69.89C47.9911 70.0453 48.0577 70.196 48.1287 70.3468C48.1641 70.4267 48.1907 70.471 48.2218 70.5331L48.3104 70.7105C48.4479 70.9766 48.5854 71.2471 48.7273 71.5132C48.9003 71.8458 49.3083 71.9744 49.6453 71.8148L49.7163 71.7837L50.2928 71.5088C50.723 71.3003 50.9359 70.8081 50.7896 70.3513C50.7142 70.1118 50.6388 69.8767 50.559 69.6373L50.4968 69.451C50.4791 69.3889 50.4525 69.3179 50.4436 69.278C50.4126 69.1849 50.3948 69.0873 50.3726 68.9898C50.3327 68.7991 50.3106 68.6084 50.2928 68.4132C50.2795 68.2225 50.2795 68.0318 50.2928 67.8411C50.2973 67.748 50.3106 67.6549 50.3239 67.5617L50.3726 67.2158L50.5944 65.637C50.5944 65.637 50.9714 63.2466 51.0246 63.1579C51.242 62.7942 51.6233 62.5991 51.9603 62.6213L52.3994 62.6479L57.7212 62.9406L60.6926 63.1002C61.3002 63.1269 64.8348 63.2155 67.478 63.2776C69.3318 63.322 71.0347 64.373 72.0104 66.0672C73.5892 68.8212 76.024 73.0122 77.6117 75.478C77.8823 75.8993 78.4365 76.0279 78.8623 75.7663L80.1485 74.9857C80.2638 74.9192 80.3613 74.8349 80.4544 74.7418C80.7649 74.4269 80.929 73.9923 80.9113 73.5488C80.9246 73.367 80.8802 73.1851 80.8048 73.0033Z" fill="white"/>
<g opacity="0.8">
<path d="M80.9292 73.5533C80.9558 74.1209 80.6764 74.6798 80.1664 74.9902L78.8802 75.7707C78.4545 76.0324 77.9002 75.9038 77.6297 75.4825C76.0464 73.0167 73.6116 68.8257 72.0284 66.0716C71.0571 64.3775 69.3541 63.3265 67.4959 63.2821C64.8527 63.22 61.3137 63.1269 60.7105 63.1047L57.7392 62.9451L51.9783 62.6302C51.6412 62.608 51.2554 62.8076 51.0425 63.1668C50.9848 63.2555 50.6123 65.6459 50.6123 65.6459L50.3906 67.2247L50.3418 67.5706C50.3285 67.6638 50.3152 67.7569 50.3108 67.85C50.2975 68.0407 50.2975 68.2314 50.3108 68.4221C50.3241 68.6128 50.3507 68.808 50.3906 68.9987C50.4127 69.0962 50.4306 69.1894 50.4616 69.2869C50.4705 69.3268 50.497 69.4022 50.5148 69.4599L50.5769 69.6462C50.6523 69.8856 50.7276 70.1207 50.8074 70.3602C50.9538 70.817 50.7454 71.3092 50.3108 71.5177L49.6633 71.8237C49.3262 71.9833 48.9226 71.8547 48.7452 71.5221C48.6078 71.256 48.4703 70.9855 48.3284 70.7194L48.2397 70.542C48.2087 70.4799 48.182 70.4356 48.1465 70.3557C48.0755 70.205 48.009 70.0542 47.9469 69.8989C47.9026 69.7881 47.8627 69.6772 47.8228 69.5619L49.2509 69.0208L50.3285 61.9783C50.4084 61.4638 50.8473 61.0824 51.3662 61.078L69.4739 60.8917C70.1613 60.8828 70.8044 61.2376 71.168 61.8186L78.8004 74.0278L80.9292 73.5533Z" fill="white"/>
</g>
<g opacity="0.8">
<path d="M49.8987 71.3447C49.881 71.5043 49.8277 71.6551 49.7346 71.7881L49.6637 71.8192C49.3266 71.9789 48.923 71.8502 48.7456 71.5176C48.6081 71.2515 48.4707 70.981 48.3288 70.7149L48.2401 70.5375C48.209 70.4754 48.1823 70.4311 48.1469 70.3513C48.0759 70.2005 48.0094 70.0497 47.9473 69.8944C47.903 69.7836 47.863 69.6727 47.8231 69.5574C47.7566 69.3534 47.699 69.145 47.6502 68.9321C47.5748 68.5995 47.526 68.2624 47.4994 67.9209C47.4861 67.748 47.4773 67.5794 47.4773 67.4065L47.4816 66.9586L47.5083 65.3664L47.5438 63.7743L47.5527 63.3752V63.2732L47.566 63.118C47.5748 63.016 47.5836 62.9095 47.5969 62.8075C47.6635 62.3906 47.7655 61.9782 47.9251 61.5879C48.0848 61.2021 48.2844 60.8251 48.5372 60.4925C48.6569 60.3196 48.7988 60.1688 48.9363 60.0135C49.0738 59.8761 49.2112 59.7386 49.3664 59.6188C49.2689 59.7253 49.1802 59.8317 49.096 59.9559C48.8432 60.2885 48.6436 60.661 48.4839 61.0513C48.3243 61.4416 48.2223 61.854 48.1557 62.2709C48.1424 62.3729 48.1336 62.4793 48.1248 62.5813L48.1115 62.7366V62.8386L48.1026 63.2377L48.0671 64.8298L48.0404 66.422L48.036 66.8699C48.036 67.0428 48.0449 67.2114 48.0582 67.3843C48.0848 67.7258 48.1336 68.0628 48.209 68.3955C48.2578 68.6083 48.3154 68.8168 48.3819 69.0208C48.4174 69.1361 48.4573 69.247 48.5061 69.3578C48.5682 69.5131 48.6347 69.6638 48.7057 69.8146C48.7411 69.8944 48.7678 69.9388 48.7989 70.0009L48.8876 70.1783C49.025 70.4444 49.1625 70.7149 49.3044 70.981C49.4242 71.2072 49.6548 71.3358 49.8987 71.3447Z" fill="white"/>
<path d="M80.3885 74.6308C79.9627 74.8925 79.4083 74.7638 79.1378 74.3425C77.5545 71.8767 75.1197 67.6858 73.5365 64.9317C72.5652 63.2376 70.8623 62.1865 69.004 62.1422C66.3609 62.0801 62.8219 61.9869 62.2188 61.9648L59.2473 61.8051L53.4864 61.4903C53.1494 61.4681 52.7636 61.6676 52.5507 62.0269C52.533 62.0535 52.4842 62.3107 52.4265 62.6478L57.7484 62.9404L60.7197 63.1001C61.3273 63.1267 64.8619 63.2154 67.5051 63.2775C69.3589 63.3218 71.0619 64.3729 72.0375 66.067C73.6164 68.8211 76.0511 73.0121 77.6387 75.4779C77.9093 75.8992 78.4637 76.0278 78.8894 75.7661L80.1756 74.9856C80.4018 74.8481 80.5836 74.6574 80.7122 74.4401L80.3885 74.6308Z" fill="white"/>
</g>
<path d="M175.356 79.0007C177.053 71.8139 172.602 64.6123 165.416 62.9153C158.229 61.2182 151.027 65.6685 149.33 72.8553C147.633 80.0421 152.083 87.2438 159.27 88.9408C166.457 90.6378 173.659 86.1875 175.356 79.0007Z" fill="#1A242E"/>
<path d="M162.292 83.492C166.514 83.492 169.937 80.0689 169.937 75.8463C169.937 71.6237 166.514 68.2006 162.292 68.2006C158.069 68.2006 154.646 71.6237 154.646 75.8463C154.646 80.0689 158.069 83.492 162.292 83.492Z" fill="#808080"/>
<path d="M162.291 83.891C157.857 83.891 154.247 80.281 154.247 75.8461C154.247 71.4113 157.857 67.8013 162.291 67.8013C166.726 67.8013 170.336 71.4113 170.336 75.8461C170.336 80.281 166.726 83.891 162.291 83.891ZM162.291 68.604C158.296 68.604 155.049 71.8548 155.049 75.8461C155.049 79.842 158.3 83.0883 162.291 83.0883C166.283 83.0883 169.534 79.8375 169.534 75.8461C169.534 71.8503 166.283 68.604 162.291 68.604Z" fill="#666666"/>
<path d="M162.292 79.4828C164.3 79.4828 165.928 77.8547 165.928 75.8463C165.928 73.8378 164.3 72.2097 162.292 72.2097C160.283 72.2097 158.655 73.8378 158.655 75.8463C158.655 77.8547 160.283 79.4828 162.292 79.4828Z" fill="#808080"/>
<path d="M162.292 79.7313C160.15 79.7313 158.407 77.9884 158.407 75.8463C158.407 73.7043 160.15 71.9614 162.292 71.9614C164.434 71.9614 166.177 73.7043 166.177 75.8463C166.177 77.9884 164.434 79.7313 162.292 79.7313ZM162.292 72.4625C160.425 72.4625 158.908 73.9792 158.908 75.8463C158.908 77.7134 160.425 79.2301 162.292 79.2301C164.159 79.2301 165.676 77.7134 165.676 75.8463C165.676 73.9792 164.155 72.4625 162.292 72.4625Z" fill="black"/>
<path d="M162.748 70.9856C162.748 71.2384 162.544 71.4468 162.287 71.4468C162.034 71.4468 161.826 71.2428 161.826 70.9856C161.826 70.7283 162.03 70.5244 162.287 70.5244C162.544 70.5244 162.748 70.7328 162.748 70.9856Z" fill="#1A242E"/>
<path d="M160.437 71.3269C160.557 71.5531 160.468 71.8281 160.242 71.9478C160.016 72.0675 159.741 71.9788 159.621 71.7527C159.502 71.5265 159.59 71.2515 159.816 71.1318C160.043 71.0165 160.318 71.1052 160.437 71.3269Z" fill="#1A242E"/>
<path d="M158.553 72.7063C158.762 72.8482 158.815 73.1364 158.668 73.3449C158.522 73.5533 158.238 73.6065 158.03 73.4602C157.821 73.3138 157.768 73.03 157.914 72.8216C158.056 72.6131 158.34 72.5643 158.553 72.7063Z" fill="#1A242E"/>
<path d="M157.52 74.804C157.773 74.835 157.95 75.0657 157.919 75.314C157.888 75.5668 157.657 75.7442 157.409 75.7131C157.156 75.6821 156.979 75.4515 157.01 75.2031C157.041 74.9548 157.267 74.7729 157.52 74.804Z" fill="#1A242E"/>
<path d="M157.582 77.1412C157.821 77.0525 158.083 77.1722 158.176 77.4073C158.265 77.6423 158.145 77.9085 157.91 78.0016C157.671 78.0903 157.409 77.9705 157.316 77.7355C157.227 77.496 157.347 77.2299 157.582 77.1412Z" fill="#1A242E"/>
<path d="M158.722 79.1769C158.89 78.9862 159.178 78.9685 159.369 79.137C159.56 79.3055 159.578 79.5938 159.409 79.7845C159.24 79.9752 158.952 79.9929 158.762 79.8244C158.571 79.6603 158.553 79.3676 158.722 79.1769Z" fill="#1A242E"/>
<path d="M160.681 80.454C160.744 80.2057 160.992 80.0594 161.236 80.117C161.484 80.1791 161.631 80.4275 161.573 80.6714C161.511 80.9197 161.262 81.0661 161.018 81.0084C160.77 80.9508 160.619 80.7024 160.681 80.454Z" fill="#1A242E"/>
<path d="M163.006 80.6757C162.944 80.4274 163.094 80.179 163.343 80.1214C163.591 80.0593 163.839 80.2101 163.897 80.4584C163.959 80.7068 163.808 80.9551 163.56 81.0128C163.316 81.0705 163.068 80.9197 163.006 80.6757Z" fill="#1A242E"/>
<path d="M165.17 79.7888C165.001 79.5981 165.019 79.3098 165.21 79.1413C165.4 78.9728 165.689 78.9905 165.857 79.1812C166.026 79.3719 166.008 79.6602 165.817 79.8287C165.627 79.9972 165.338 79.9795 165.17 79.7888Z" fill="#1A242E"/>
<path d="M166.673 77.9972C166.438 77.9085 166.318 77.6424 166.407 77.4029C166.495 77.1679 166.761 77.0481 167.001 77.1368C167.236 77.2255 167.356 77.4916 167.267 77.7311C167.174 77.9706 166.908 78.0903 166.673 77.9972Z" fill="#1A242E"/>
<path d="M167.17 75.7176C166.917 75.7486 166.691 75.5668 166.66 75.3185C166.629 75.0657 166.81 74.8395 167.059 74.8084C167.312 74.7774 167.538 74.9592 167.569 75.2076C167.6 75.456 167.422 75.6865 167.17 75.7176Z" fill="#1A242E"/>
<path d="M166.549 73.4647C166.341 73.611 166.052 73.5578 165.91 73.3494C165.769 73.1409 165.817 72.8527 166.026 72.7108C166.234 72.5644 166.523 72.6176 166.664 72.8261C166.811 73.0345 166.758 73.3183 166.549 73.4647Z" fill="#1A242E"/>
<path d="M164.957 71.7572C164.837 71.9834 164.562 72.0677 164.336 71.9524C164.11 71.8326 164.025 71.5577 164.141 71.3315C164.261 71.1053 164.536 71.021 164.762 71.1364C164.988 71.2517 165.072 71.531 164.957 71.7572Z" fill="#1A242E"/>
<g opacity="0.5">
<path d="M169.157 72.4846C169.206 72.8305 169.232 73.1853 169.232 73.5445C169.232 77.7665 165.808 81.1902 161.586 81.1902C158.571 81.1902 155.963 79.4429 154.721 76.9061C155.24 80.627 158.429 83.4919 162.292 83.4919C166.514 83.4919 169.937 80.0682 169.937 75.8462C169.933 74.6399 169.653 73.5001 169.157 72.4846Z" fill="#808080"/>
</g>
<path d="M173.648 68.7902C173.901 69.8191 174.039 70.8924 174.039 72.0011C174.039 79.3851 168.052 85.3722 160.668 85.3722C155.873 85.3722 151.669 82.8444 149.31 79.0525C150.747 84.8888 156.015 89.2128 162.291 89.2128C169.675 89.2128 175.662 83.2258 175.662 75.8417C175.662 73.2562 174.921 70.8391 173.648 68.7902Z" fill="#1A242E"/>
<path d="M186.791 60.7276L129.019 59.144L128.978 60.6468L186.75 62.2304L186.791 60.7276Z" fill="#FAA701"/>
<path d="M147.208 59.8362L135.212 59.3262C133.895 59.2686 132.87 58.1554 132.928 56.8383L132.964 55.969C133.021 54.6519 134.134 53.6274 135.452 53.6851L147.448 54.1951C148.765 54.2527 149.789 55.3659 149.732 56.683L149.696 57.5523C149.643 58.8694 148.526 59.8939 147.208 59.8362Z" fill="#F0650A"/>
<g opacity="0.2">
<path d="M148.268 57.9469L136.614 57.4502C135.203 57.3881 134.099 56.3415 134.152 55.113L134.201 53.9999C133.496 54.368 133.008 55.0332 132.977 55.8093L132.928 56.9934C132.875 58.2263 133.979 59.273 135.389 59.3306L147.044 59.8273C148.455 59.8894 149.643 58.9403 149.696 57.7074L149.701 57.6365C149.28 57.8538 148.787 57.9691 148.268 57.9469Z" fill="#4D4D4D"/>
</g>
<g opacity="0.35">
<path d="M135.829 54.3413C135.62 54.3635 135.39 54.3945 135.248 54.5941C135.035 54.8824 135.137 55.3924 135.368 55.6451C135.603 55.9024 135.922 55.9689 136.223 56.0221C139.896 56.6652 143.625 56.4612 147.328 56.1729C147.697 56.1463 148.233 56 148.14 55.3525C148.06 54.807 147.488 54.838 147.16 54.7715C145.918 54.5231 144.65 54.3945 143.395 54.2925C140.88 54.0841 138.348 54.0974 135.829 54.3413Z" fill="#F5911E"/>
</g>
<path d="M175.778 60.8385L163.782 60.3285C162.465 60.2708 161.441 59.1577 161.498 57.8405L161.534 56.9713C161.591 55.6541 162.704 54.6297 164.022 54.6873L176.018 55.1973C177.335 55.255 178.36 56.3681 178.302 57.6853L178.266 58.5545C178.209 59.8717 177.096 60.8917 175.778 60.8385Z" fill="#F0650A"/>
<g opacity="0.2">
<path d="M176.834 58.9493L165.179 58.4526C163.769 58.3905 162.665 57.3439 162.718 56.1154L162.767 55.0023C162.062 55.3704 161.574 56.0356 161.543 56.8117L161.494 57.9958C161.441 59.2287 162.545 60.2753 163.955 60.333L175.61 60.8297C177.02 60.8918 178.209 59.9427 178.262 58.7098L178.267 58.6388C177.85 58.8561 177.357 58.9715 176.834 58.9493Z" fill="#4D4D4D"/>
</g>
<g opacity="0.35">
<path d="M164.398 55.3437C164.19 55.3659 163.959 55.3969 163.817 55.5965C163.605 55.8847 163.707 56.3948 163.937 56.6475C164.172 56.9048 164.491 56.9713 164.793 57.0245C168.465 57.6676 172.195 57.4636 175.898 57.1753C176.266 57.1487 176.803 57.0023 176.71 56.3549C176.63 55.8094 176.058 55.8404 175.73 55.7739C174.488 55.5255 173.219 55.3969 171.964 55.2949C169.445 55.0865 166.917 55.0998 164.398 55.3437Z" fill="#F5911E"/>
</g>
<path d="M176.855 72.7594L175.507 65.3621C175.227 63.8187 174.048 62.7011 172.708 62.7011H151.802C150.472 62.7011 149.297 63.8099 149.008 65.3355L147.722 72.1253L145.376 71.6818L146.662 64.892C147.163 62.2399 149.328 60.3107 151.807 60.3107H172.708C175.205 60.3107 177.369 62.2532 177.857 64.9319L179.205 72.3293L176.855 72.7594Z" fill="#FAA701"/>
<path d="M118.054 65.6326H109.299V68.0896H118.054V65.6326Z" fill="#FAA701"/>
<path d="M118.182 64.1114H109.428V65.3399H118.182V64.1114Z" fill="#FAA701"/>
<path d="M109.428 67.0251V67.2469V76.7242V77.9394H136.37V67.0251H109.428ZM119.588 68.6261H122.045V76.3384H119.588V68.6261ZM117.725 76.3384H115.268V68.6261H117.725V76.3384ZM123.903 68.6261H126.36V76.3384H123.903V68.6261ZM128.218 68.6261H130.675V76.3384H128.218V68.6261ZM111.29 68.6261H113.41V76.3384H111.29V68.6261ZM134.511 76.3384H132.538V68.6261H134.511V76.3384Z" fill="#333333"/>
<g opacity="0.4">
<path d="M177.703 71.5442L176.275 64.1468C175.978 62.6035 174.731 61.4859 173.312 61.4859H151.191C149.781 61.4859 148.539 62.5946 148.233 64.1202L146.871 70.91L145.563 70.675L145.373 71.6817L147.719 72.1252L149.005 65.3354C149.293 63.8098 150.468 62.7011 151.799 62.7011H172.709C174.048 62.7011 175.228 63.8186 175.508 65.362L176.856 72.7594L179.206 72.3292L179.02 71.3136L177.703 71.5442Z" fill="#4D4D4D"/>
</g>
</svg>
