<svg width="251" height="120" viewBox="0 0 251 120" fill="none" xmlns="http://www.w3.org/2000/svg">
<path d="M54.1233 79.793L50.7124 83.0582V85.8135H195.731V75.2629H50.7124L54.1233 79.793Z" fill="#333333"/>
<path d="M82.7152 65.9178V76.1438H71.0057C70.8997 76.1438 70.8003 76.1504 70.7009 76.157C70.6479 76.157 70.6016 76.1637 70.5486 76.1703C70.3632 76.1902 70.1844 76.2232 70.0056 76.2762C69.946 76.2894 69.8863 76.3094 69.8267 76.3226C69.2108 76.5147 68.6545 76.8591 68.2041 77.3094C67.9789 77.5346 67.7802 77.7863 67.6146 78.0578C67.4491 78.3294 67.3166 78.6208 67.2173 78.9321C67.1974 78.9917 67.1841 79.0513 67.1709 79.1109C67.1245 79.2897 67.0847 79.4686 67.0649 79.654C67.0583 79.7004 67.0517 79.7534 67.0517 79.8064C67.0451 79.9057 67.0384 80.005 67.0384 80.111V80.1309C67.0384 80.5216 66.8993 80.8792 66.6609 81.164C66.641 81.1905 66.6145 81.2104 66.5947 81.2369C66.5814 81.2567 66.5616 81.2767 66.5417 81.2899C66.5218 81.3098 66.5019 81.3296 66.482 81.3429C66.4622 81.3627 66.4423 81.376 66.4225 81.3959C66.4026 81.4158 66.3827 81.429 66.3629 81.4422C66.343 81.4621 66.3165 81.4753 66.2967 81.4886C66.1178 81.6011 65.9191 81.6872 65.7006 81.7336C65.6476 81.7402 65.588 81.7535 65.535 81.7601C65.4886 81.7667 65.4357 81.7668 65.3893 81.7668H53.8254C53.8121 81.7668 53.8055 81.7668 53.7857 81.7668H51.9245C51.2556 81.7668 50.7059 81.2237 50.7059 80.5481L50.5271 69.6796C50.5205 69.4545 50.5536 69.2293 50.6132 69.0173L52.3882 62.5665C52.4544 62.3214 52.5273 62.0697 52.6067 61.8247L52.6266 61.7717V61.7784C52.6465 61.7188 52.6663 61.6658 52.6796 61.6062L53.1763 60.2021L53.269 59.9371L56.3223 51.3536L56.4283 51.0622C56.9515 49.5919 58.3357 48.6117 59.8987 48.6117H77.7943C77.834 48.6117 77.8737 48.6117 77.9135 48.6117C77.9135 48.6117 77.9135 48.6117 77.9201 48.6117C78.7877 48.6382 79.5892 48.976 80.2051 49.5124C80.2978 49.5985 80.3905 49.6846 80.4832 49.7773C80.5031 49.8038 80.8541 50.2409 80.8872 50.2873C81.2051 50.7774 81.4104 51.347 81.4701 51.9696L82.7152 65.9178Z" fill="white"/>
<path d="M66.8396 87.966L66.7535 86.6611L66.992 86.5883C66.9986 86.33 67.0119 86.0784 67.045 85.8267L66.8198 85.7207L67.0847 84.4358L67.3364 84.4292C67.4092 84.1842 67.4953 83.9457 67.5947 83.7073L67.4092 83.5417L68.0119 82.3761L68.257 82.4357C68.3961 82.2237 68.5418 82.0118 68.7008 81.8131L68.5616 81.6011L69.4558 80.6408L69.6743 80.7666C69.8664 80.5944 70.0585 80.4355 70.2638 80.2832L70.1843 80.0447L71.3036 79.3625L71.4824 79.5414C71.7076 79.4288 71.9461 79.3295 72.1845 79.2367L72.1779 78.9851L73.4362 78.634L73.5621 78.8525C73.8138 78.8062 74.0654 78.7731 74.3171 78.7466L74.3767 78.5016H75.6881L75.7477 78.7466C76.006 78.7665 76.2576 78.8062 76.5027 78.8525L76.6286 78.634L77.887 78.9851L77.8803 79.2367C78.1188 79.3295 78.3505 79.4288 78.5823 79.5414L78.7612 79.3625L79.8805 80.0447L79.801 80.2832C80.0064 80.4355 80.205 80.5944 80.3904 80.7666L80.609 80.6408L81.5031 81.6011L81.3641 81.8131C81.523 82.0118 81.6687 82.2237 81.8078 82.4357L82.0528 82.3761L82.6555 83.5417L82.4701 83.7073C82.5694 83.9391 82.6555 84.1842 82.7284 84.4292L82.9801 84.4358L83.245 85.7207L83.0198 85.8267C83.0463 86.0784 83.0662 86.33 83.0728 86.5883L83.3112 86.6611L83.2185 87.966L82.9734 88.0056C82.9337 88.2573 82.8807 88.509 82.8211 88.7541L83.0265 88.8932L82.5893 90.1251L82.3377 90.0986C82.2317 90.3304 82.1124 90.5556 81.9866 90.7742L82.1522 90.9661L81.3971 92.0391L81.1654 91.9465C80.9998 92.1385 80.8276 92.3239 80.6421 92.5027L80.7481 92.7279L79.7347 93.5558L79.5361 93.4035C79.3242 93.5492 79.1056 93.6816 78.8804 93.8008L78.9201 94.0459L77.7214 94.5692L77.5691 94.3704C77.3306 94.4499 77.0855 94.5162 76.8338 94.5758L76.8074 94.8274L75.5092 95.0062L75.4166 94.7744C75.2907 94.781 75.1648 94.781 75.0324 94.781C74.9065 94.781 74.7741 94.7744 74.6483 94.7744L74.5555 95.0062L73.2574 94.8274L73.2309 94.5758C72.9792 94.5162 72.7342 94.4499 72.4958 94.3704L72.3435 94.5692L71.1446 94.0459L71.1844 93.8008C70.9592 93.675 70.7407 93.5426 70.5287 93.4035L70.33 93.5558L69.3167 92.7279L69.4227 92.5027C69.2372 92.3239 69.065 92.1385 68.8994 91.9465L68.6676 92.0391L67.9126 90.9661L68.0782 90.7742C67.9523 90.5556 67.8331 90.3304 67.7271 90.0986L67.4754 90.1251L67.0384 88.8932L67.2436 88.7541C67.1774 88.509 67.1311 88.2573 67.0913 88.0056L66.8396 87.966Z" fill="#232C33"/>
<g opacity="0.4">
<path d="M70.9658 86.7539C70.9658 88.9925 72.7805 90.8071 75.0191 90.8071C77.2577 90.8071 79.0725 88.9925 79.0725 86.7539C79.0725 84.5153 77.2577 82.7006 75.0191 82.7006C72.7805 82.7006 70.9658 84.5153 70.9658 86.7539Z" fill="#14191E"/>
</g>
<path d="M71.3236 86.7539C71.3236 88.7938 72.9793 90.4496 75.0193 90.4496C77.0592 90.4496 78.715 88.7938 78.715 86.7539C78.715 84.714 77.0592 83.0582 75.0193 83.0582C72.9793 83.0582 71.3236 84.714 71.3236 86.7539Z" fill="black"/>
<path d="M75.0192 88.7939C76.1459 88.7939 77.0592 87.8806 77.0592 86.7539C77.0592 85.6273 76.1459 84.714 75.0192 84.714C73.8926 84.714 72.9794 85.6273 72.9794 86.7539C72.9794 87.8806 73.8926 88.7939 75.0192 88.7939Z" fill="#31393F"/>
<g opacity="0.2">
<path d="M72.2839 84.2636C72.1912 84.5948 72.1382 84.9392 72.1382 85.2968C72.1382 87.3368 73.794 88.9924 75.8339 88.9924C76.9201 88.9924 77.8937 88.5289 78.5692 87.7871C78.1188 89.3237 76.7015 90.4496 75.0193 90.4496C72.9793 90.4496 71.3236 88.7938 71.3236 86.7539C71.3236 85.7935 71.6878 84.9259 72.2839 84.2636Z" fill="#14191E"/>
</g>
<g opacity="0.2">
<path d="M82.9404 88.8534L83 88.8932L82.8874 89.2111L82.861 89.1912C82.8941 89.0786 82.9206 88.966 82.9404 88.8534Z" fill="#14191E"/>
<path d="M83.0928 86.595L83.2848 86.6546L83.2584 87.0586L83.1127 87.0121C83.1127 86.8731 83.0994 86.7341 83.0928 86.595Z" fill="#14191E"/>
<path d="M67.6542 84.1377C67.5549 84.3695 67.4688 84.6146 67.3959 84.8596L67.1442 84.8663L66.9522 85.7803L66.8065 85.714L67.0714 84.4292L67.3231 84.4226C67.3694 84.2769 67.4158 84.1311 67.4688 83.9854L67.6542 84.1377Z" fill="#14191E"/>
<path d="M81.3574 81.8263L80.6619 81.0779L80.4434 81.2038C80.2513 81.0316 80.0592 80.8726 79.8539 80.7203L79.9334 80.4819L78.814 79.7997L78.6353 79.9785C78.4101 79.8659 78.1716 79.7665 77.9332 79.6738L77.9398 79.4221L76.6814 79.0712L76.5556 79.2897C76.304 79.2433 76.0523 79.2102 75.8006 79.1837L75.741 78.9387H74.4296L74.37 79.1837C74.1117 79.2036 73.86 79.2433 73.6149 79.2897L73.4892 79.0712L72.2307 79.4221L72.2374 79.6738C71.9989 79.7665 71.7671 79.8659 71.5353 79.9785L71.3565 79.7997L70.2372 80.4819L70.3167 80.7203C70.1114 80.8726 69.9127 81.0316 69.7272 81.2038L69.5087 81.0779L68.6146 82.0383L68.7536 82.2502C68.5947 82.4489 68.4489 82.6609 68.3099 82.8728L68.0648 82.8131L67.5284 83.853C67.5483 83.8066 67.5615 83.7537 67.5813 83.7073L67.3959 83.5417L67.9986 82.3761L68.2436 82.4357C68.3827 82.2237 68.5285 82.0118 68.6874 81.8131L68.5483 81.6011L69.4425 80.6408L69.661 80.7666C69.8531 80.5944 70.0451 80.4355 70.2505 80.2832L70.171 80.0447L71.2902 79.3625L71.4691 79.5414C71.6943 79.4288 71.9327 79.3295 72.1712 79.2367L72.1645 78.9851L73.4229 78.634L73.5487 78.8525C73.8004 78.8062 74.0521 78.7731 74.3038 78.7466L74.3634 78.5016H75.6747L75.7344 78.7466C75.9927 78.7665 76.2444 78.8062 76.4894 78.8525L76.6152 78.634L77.8736 78.9851L77.867 79.2367C78.1054 79.3295 78.3372 79.4288 78.569 79.5414L78.7478 79.3625L79.8672 80.0447L79.7877 80.2832C79.993 80.4355 80.1917 80.5944 80.3772 80.7666L80.5957 80.6408L81.4898 81.6011L81.3507 81.8131C81.3507 81.8131 81.3574 81.8197 81.3574 81.8263Z" fill="#14191E"/>
<path d="M68.1378 91.2112L68.1047 91.251L67.906 90.9661L67.9657 90.9C68.0253 91.0059 68.0782 91.1053 68.1378 91.2112Z" fill="#14191E"/>
<path d="M66.9919 86.5817C66.9919 86.4558 66.9985 86.3299 67.0051 86.2041L67.1045 86.2505C67.078 86.5022 67.0582 86.7538 67.0515 87.0121L66.813 87.085L66.8727 87.9659L66.8329 87.9593L66.7468 86.6546L66.9919 86.5817Z" fill="#14191E"/>
<path d="M67.31 89.1911L67.1709 89.2839L67.0319 88.8931L67.2107 88.7739C67.2438 88.913 67.2702 89.052 67.31 89.1911Z" fill="#14191E"/>
<path d="M82.1058 82.8066L81.8608 82.8661C81.7217 82.6542 81.5759 82.4422 81.417 82.2435L81.5362 82.0647C81.6223 82.1839 81.7084 82.3098 81.7879 82.4356L82.033 82.376L82.6356 83.5417L82.5297 83.6344L82.1058 82.8066Z" fill="#14191E"/>
<path d="M83.0199 84.8663L82.7682 84.8596C82.6953 84.6146 82.6092 84.3762 82.5099 84.1377L82.5827 84.0715C82.6225 84.1841 82.6622 84.3034 82.6954 84.4226L82.947 84.4292L83.2119 85.714L83.1921 85.7207L83.0199 84.8663Z" fill="#14191E"/>
</g>
<g opacity="0.4">
<path d="M81.4636 91.9066L81.3709 92.039L81.1987 91.9727C81.2915 91.9463 81.3775 91.9265 81.4636 91.9066Z" fill="#14191E"/>
<path d="M66.8396 87.966L66.7535 86.6611L66.992 86.5883C66.9986 86.33 67.0119 86.0784 67.045 85.8268L66.8198 85.7207L67.0847 84.4358L67.3364 84.4292C67.4092 84.1842 67.4953 83.9458 67.5947 83.7073L67.4092 83.5417L68.0119 82.3761L68.257 82.4357C68.3961 82.2237 68.5418 82.0118 68.7008 81.8131L68.5616 81.6012L69.4558 80.6408L69.6743 80.7666C69.8664 80.5944 70.0585 80.4355 70.2638 80.2832L70.1843 80.0447L70.6082 79.7864C69.6876 81.0316 69.1577 82.5085 69.1577 84.0848C69.1577 88.5819 73.4694 92.2246 78.7877 92.2246C79.5891 92.2246 80.364 92.1384 81.1058 91.9861C80.9534 92.1649 80.7945 92.3371 80.6223 92.4961L80.7282 92.7213L79.7149 93.5492L79.5162 93.3969C79.3043 93.5426 79.0857 93.675 78.8605 93.7942L78.9002 94.0393L77.7015 94.5626L77.5492 94.3638C77.3108 94.4433 77.0657 94.5096 76.814 94.5692L76.7875 94.8208L75.4894 94.9996L75.3967 94.7679C75.2708 94.7745 75.145 94.7744 75.0125 94.7744C74.8867 94.7744 74.7542 94.7679 74.6284 94.7679L74.5357 94.9996L73.2376 94.8208L73.211 94.5692C72.9594 94.5096 72.7143 94.4433 72.4759 94.3638L72.3236 94.5626L71.1248 94.0393L71.1645 93.7942C70.9393 93.6683 70.7208 93.536 70.5089 93.3969L70.3101 93.5492L69.2968 92.7213L69.4028 92.4961C69.2173 92.3173 69.0451 92.1319 68.8795 91.9398L68.6477 92.0325L67.8927 90.9596L68.0583 90.7675C67.9324 90.549 67.8133 90.3238 67.7073 90.092L67.4556 90.1185L67.0185 88.8865L67.2238 88.7475C67.1575 88.5024 67.1112 88.2507 67.0714 87.999L66.8396 87.966Z" fill="#14191E"/>
</g>
<path d="M74.8668 85.1246C74.8668 85.2041 74.933 85.2769 75.0191 85.2769C75.0986 85.2769 75.1715 85.2107 75.1715 85.1246C75.1715 85.0385 75.1052 84.9723 75.0191 84.9723C74.933 84.9723 74.8668 85.0385 74.8668 85.1246Z" fill="#22272B"/>
<g opacity="0.5">
<path d="M74.8935 85.0384C74.8935 85.045 74.8935 85.0517 74.8935 85.0583C74.8935 85.1378 74.9597 85.2106 75.0458 85.2106C75.0988 85.2106 75.1385 85.1842 75.165 85.1445C75.1584 85.2173 75.0921 85.2769 75.0193 85.2769C74.9398 85.2769 74.8669 85.2107 74.8669 85.1246C74.8669 85.0915 74.8802 85.0583 74.8935 85.0384Z" fill="#22272B"/>
</g>
<path d="M75.5425 85.2041C75.5094 85.277 75.5425 85.3697 75.6154 85.4028C75.6882 85.436 75.781 85.4029 75.8141 85.3301C75.8472 85.2572 75.8141 85.1645 75.7413 85.1314C75.6684 85.0916 75.5823 85.1246 75.5425 85.2041Z" fill="#22272B"/>
<g opacity="0.5">
<path d="M75.6021 85.1313C75.6021 85.138 75.5955 85.1446 75.5955 85.1446C75.5624 85.2175 75.5955 85.3101 75.6683 85.3432C75.7147 85.363 75.7677 85.3564 75.8075 85.3365C75.7677 85.4028 75.6882 85.4293 75.622 85.3962C75.5492 85.3631 75.5094 85.277 75.5492 85.1975C75.5558 85.171 75.5823 85.1512 75.6021 85.1313Z" fill="#22272B"/>
</g>
<path d="M76.1319 85.5485C76.0723 85.6015 76.0657 85.7009 76.1187 85.7605C76.1717 85.8201 76.271 85.8267 76.3306 85.7737C76.3902 85.7208 76.3968 85.6214 76.3438 85.5618C76.2842 85.5021 76.1916 85.4955 76.1319 85.5485Z" fill="#22272B"/>
<g opacity="0.5">
<path d="M76.2116 85.5153C76.2049 85.5219 76.1983 85.522 76.1983 85.5286C76.1387 85.5816 76.132 85.681 76.185 85.7406C76.2181 85.7803 76.2646 85.7936 76.3109 85.787C76.2513 85.8267 76.1652 85.8201 76.1122 85.7671C76.0592 85.7075 76.0592 85.6081 76.1254 85.5551C76.1519 85.5286 76.1851 85.5153 76.2116 85.5153Z" fill="#22272B"/>
</g>
<path d="M76.5227 86.1048C76.4432 86.1313 76.4034 86.2174 76.4299 86.2902C76.4564 86.3697 76.5425 86.4094 76.6154 86.3829C76.6949 86.3564 76.7346 86.2703 76.7081 86.1974C76.6883 86.1246 76.6021 86.0849 76.5227 86.1048Z" fill="#22272B"/>
<g opacity="0.5">
<path d="M76.6152 86.1048C76.6086 86.1048 76.602 86.1048 76.5953 86.1114C76.5159 86.1379 76.4761 86.224 76.5026 86.2968C76.5159 86.3432 76.5556 86.3763 76.602 86.3961C76.5291 86.4094 76.4563 86.3697 76.4298 86.2968C76.4033 86.2174 76.4497 86.1312 76.5225 86.1114C76.5556 86.0981 76.5887 86.0981 76.6152 86.1048Z" fill="#22272B"/>
</g>
<path d="M76.6552 86.7738C76.5757 86.7672 76.5029 86.8268 76.4896 86.9062C76.483 86.9857 76.5426 87.0586 76.6221 87.0718C76.7015 87.0784 76.7744 87.0189 76.7876 86.9394C76.8009 86.8599 76.7413 86.7871 76.6552 86.7738Z" fill="#22272B"/>
<g opacity="0.5">
<path d="M76.7412 86.8136C76.7346 86.8136 76.7279 86.8136 76.7213 86.807C76.6418 86.8003 76.569 86.8599 76.5557 86.9394C76.5491 86.9924 76.5689 87.0387 76.6087 87.0652C76.5358 87.0453 76.4828 86.9791 76.4961 86.9062C76.5027 86.8268 76.5755 86.7672 76.6616 86.7738C76.6881 86.7804 76.7147 86.7937 76.7412 86.8136Z" fill="#22272B"/>
</g>
<path d="M76.5097 87.4428C76.4369 87.403 76.3442 87.4228 76.3044 87.4956C76.2647 87.5685 76.2845 87.6612 76.3574 87.701C76.4302 87.7407 76.523 87.721 76.5627 87.6481C76.6025 87.5753 76.5759 87.4825 76.5097 87.4428Z" fill="#22272B"/>
<g opacity="0.5">
<path d="M76.5691 87.5088C76.5624 87.5022 76.5624 87.5022 76.5558 87.4956C76.483 87.4558 76.3902 87.4758 76.3505 87.5486C76.324 87.595 76.324 87.6413 76.3438 87.6877C76.2842 87.6413 76.2644 87.5618 76.3041 87.4956C76.3439 87.4227 76.4366 87.403 76.5094 87.4427C76.5359 87.4559 76.5558 87.4823 76.5691 87.5088Z" fill="#22272B"/>
</g>
<path d="M76.0985 87.9857C76.0522 87.9195 75.9595 87.9064 75.8866 87.9527C75.8204 87.9991 75.8071 88.0917 75.8535 88.1579C75.8998 88.2241 75.9926 88.2374 76.0655 88.1911C76.1317 88.1447 76.1449 88.0519 76.0985 87.9857Z" fill="#22272B"/>
<g opacity="0.5">
<path d="M76.1252 88.072C76.1252 88.0654 76.1185 88.0588 76.1185 88.0588C76.0722 87.9925 75.9795 87.9793 75.9066 88.0256C75.8669 88.0521 75.847 88.0984 75.847 88.1514C75.8138 88.0852 75.8271 88.0059 75.8867 87.9595C75.953 87.9131 76.0456 87.9263 76.0986 87.9925C76.1185 88.0124 76.1252 88.0455 76.1252 88.072Z" fill="#22272B"/>
</g>
<path d="M75.5025 88.3169C75.4826 88.2374 75.4032 88.1845 75.3237 88.2043C75.2442 88.2242 75.1912 88.3037 75.2111 88.3832C75.231 88.4626 75.3105 88.5156 75.3899 88.4957C75.4694 88.4825 75.5223 88.403 75.5025 88.3169Z" fill="#22272B"/>
<g opacity="0.5">
<path d="M75.4959 88.4097C75.4959 88.4031 75.4959 88.3965 75.4959 88.3899C75.476 88.3104 75.3965 88.2574 75.3171 88.2773C75.2707 88.2906 75.2309 88.3236 75.2111 88.3633C75.2045 88.2905 75.2508 88.2176 75.3303 88.2044C75.4098 88.1845 75.4892 88.2375 75.5091 88.3169C75.5091 88.35 75.5091 88.3833 75.4959 88.4097Z" fill="#22272B"/>
</g>
<path d="M74.827 88.3832C74.8469 88.3037 74.7939 88.2242 74.7144 88.2043C74.6349 88.1845 74.5554 88.2374 74.5356 88.3169C74.5157 88.3963 74.5687 88.4758 74.6482 88.4957C74.7277 88.5156 74.8071 88.4626 74.827 88.3832Z" fill="#22272B"/>
<g opacity="0.5">
<path d="M74.7808 88.4627C74.7808 88.4561 74.7874 88.4494 74.7874 88.4428C74.8073 88.3633 74.7543 88.2838 74.6748 88.264C74.6284 88.2507 74.5755 88.2706 74.5424 88.3037C74.5689 88.2309 74.6417 88.1911 74.7146 88.2043C74.794 88.2242 74.8471 88.3037 74.8272 88.3831C74.8206 88.4163 74.8006 88.4428 74.7808 88.4627Z" fill="#22272B"/>
</g>
<path d="M74.178 88.1646C74.2244 88.0983 74.2112 88.0057 74.1449 87.9594C74.0787 87.913 73.9859 87.9261 73.933 87.9924C73.8866 88.0586 73.8999 88.1514 73.9661 88.2043C74.039 88.2441 74.1316 88.2308 74.178 88.1646Z" fill="#22272B"/>
<g opacity="0.5">
<path d="M74.1051 88.2176C74.1117 88.211 74.1118 88.211 74.1184 88.2043C74.1647 88.1381 74.1515 88.0453 74.0853 87.999C74.0456 87.9725 73.9925 87.966 73.9462 87.9793C73.9992 87.9263 74.0787 87.913 74.1449 87.9594C74.2111 88.0057 74.2243 88.0983 74.178 88.1646C74.1581 88.1911 74.1316 88.2043 74.1051 88.2176Z" fill="#22272B"/>
</g>
<path d="M73.6812 87.7009C73.7541 87.6612 73.7806 87.5684 73.7342 87.4956C73.6945 87.4227 73.6017 87.403 73.5289 87.4427C73.456 87.4824 73.4362 87.5752 73.4759 87.6481C73.5157 87.7143 73.6084 87.7407 73.6812 87.7009Z" fill="#22272B"/>
<g opacity="0.5">
<path d="M73.5886 87.721C73.5952 87.721 73.6017 87.7144 73.6017 87.7144C73.6746 87.6746 73.6945 87.5819 73.6548 87.509C73.6283 87.4626 73.5885 87.4362 73.5355 87.4362C73.6018 87.4097 73.6879 87.4295 73.721 87.4957C73.7607 87.5686 73.7409 87.6614 73.668 87.7011C73.6482 87.7143 73.6217 87.721 73.5886 87.721Z" fill="#22272B"/>
</g>
<path d="M73.4097 87.0718C73.4892 87.0652 73.5488 86.9923 73.5422 86.9062C73.5355 86.8268 73.4627 86.7672 73.3766 86.7738C73.2971 86.7804 73.2375 86.8533 73.2442 86.9394C73.2574 87.0255 73.3303 87.0851 73.4097 87.0718Z" fill="#22272B"/>
<g opacity="0.5">
<path d="M73.3237 87.0519C73.3304 87.0519 73.337 87.0519 73.3436 87.0519C73.4231 87.0453 73.4827 86.9724 73.476 86.8863C73.4694 86.8334 73.4429 86.7937 73.4032 86.7738C73.4761 86.7738 73.5423 86.8334 73.5489 86.9062C73.5555 86.9857 73.4959 87.0586 73.4165 87.0718C73.3767 87.0784 73.3502 87.0718 73.3237 87.0519Z" fill="#22272B"/>
</g>
<path d="M73.4164 86.3897C73.4959 86.4162 73.5819 86.3699 73.6018 86.297C73.6283 86.2175 73.582 86.1314 73.5092 86.1116C73.4297 86.0851 73.3436 86.1314 73.3237 86.2108C73.3038 86.2903 73.3436 86.3632 73.4164 86.3897Z" fill="#22272B"/>
<g opacity="0.5">
<path d="M73.3434 86.3365C73.35 86.3365 73.3566 86.3431 73.3632 86.3431C73.4427 86.3696 73.5288 86.3233 73.5487 86.2505C73.5619 86.2041 73.5553 86.1512 73.5288 86.118C73.595 86.1512 73.6347 86.224 73.6082 86.2969C73.5817 86.3764 73.4957 86.416 73.4229 86.3895C73.3897 86.3829 73.3633 86.363 73.3434 86.3365Z" fill="#22272B"/>
</g>
<path d="M73.7076 85.7738C73.7672 85.8268 73.8666 85.8267 73.9196 85.7605C73.9726 85.6943 73.9726 85.6015 73.9063 85.5485C73.8467 85.4955 73.7473 85.4956 73.6943 85.5618C73.6414 85.6214 73.6414 85.7208 73.7076 85.7738Z" fill="#22272B"/>
<g opacity="0.5">
<path d="M73.6613 85.6941C73.6679 85.7007 73.6679 85.7007 73.6745 85.7073C73.7341 85.7603 73.8334 85.7603 73.8864 85.6941C73.9195 85.6543 73.9328 85.608 73.9196 85.5616C73.9659 85.6146 73.9725 85.7008 73.9196 85.7604C73.8666 85.82 73.7672 85.8266 73.7076 85.7736C73.6811 85.7538 73.6679 85.7206 73.6613 85.6941Z" fill="#22272B"/>
</g>
<path d="M74.2179 85.3235C74.2511 85.3963 74.3372 85.4294 74.4167 85.3963C74.4895 85.3631 74.5293 85.277 74.4895 85.1975C74.4498 85.1181 74.3703 85.085 74.2908 85.1248C74.2179 85.1579 74.1848 85.2506 74.2179 85.3235Z" fill="#22272B"/>
<g opacity="0.5">
<path d="M74.2043 85.2306C74.2043 85.2372 74.2044 85.2439 74.211 85.2505C74.2441 85.3233 74.3302 85.3632 74.4097 85.3234C74.4561 85.3035 74.4892 85.2637 74.4958 85.2173C74.5157 85.2902 74.4826 85.3697 74.4163 85.3962C74.3435 85.4293 74.2507 85.3963 74.2176 85.3234C74.2044 85.2969 74.2043 85.2637 74.2043 85.2306Z" fill="#22272B"/>
</g>
<path d="M82.1524 76.1438C81.7882 76.1438 81.4901 75.8457 81.4901 75.4815V49.8038C81.4901 49.4395 81.7882 49.1415 82.1524 49.1415C82.5167 49.1415 82.8147 49.4395 82.8147 49.8038V75.4815C82.8081 75.8523 82.5167 76.1438 82.1524 76.1438Z" fill="#1A1A31"/>
<g opacity="0.4">
<path d="M54.7921 55.6387C54.7921 55.6387 54.7789 81.4223 54.7921 81.7534V55.6387Z" fill="#4D4D4D"/>
<path d="M54.6068 81.7601C54.5936 81.4289 54.6068 56.6918 54.6068 55.6387H54.9711C54.9711 55.897 54.9578 81.3892 54.9711 81.7402L54.6068 81.7601Z" fill="#4D4D4D"/>
</g>
<g opacity="0.4">
<path d="M77.9269 73.5276C77.9203 73.2627 77.9203 61.5995 77.9203 51.3337V48.5984L77.9269 73.5276Z" fill="#4D4D4D"/>
<path d="M77.7148 73.5343C77.7081 73.2694 77.7081 61.9373 77.7081 51.3338V48.5984H78.1386L78.1453 73.5277L77.7148 73.5343Z" fill="#4D4D4D"/>
</g>
<g opacity="0.3">
<path d="M50.9111 80.323H52.7722V80.3163C52.7854 80.3229 52.7921 80.323 52.8053 80.323H64.3692C65.2765 80.323 66.0183 79.5811 66.0183 78.6737C66.0183 76.4947 67.7999 74.7132 69.9789 74.7132H81.6885V64.4872L80.45 50.5191C80.4169 50.1615 80.3374 49.8171 80.2116 49.4991C80.9136 50.1018 81.3838 50.9694 81.4699 51.9563L82.7084 65.9243V76.1504H70.9989C68.8199 76.1504 67.0383 77.932 67.0383 80.111C67.0383 81.0183 66.2965 81.7601 65.3892 81.7601H53.8252C53.812 81.7601 53.8054 81.7601 53.7921 81.7535V81.7601H51.931C51.2555 81.7601 50.7124 81.217 50.7124 80.5415V80.3031C50.7786 80.3097 50.8449 80.323 50.9111 80.323Z" fill="#4D4D4D"/>
</g>
<path d="M80.9272 73.6933L80.7218 73.6535L80.5298 73.6204C80.404 73.6005 80.2781 73.5806 80.1523 73.5608C79.9006 73.521 79.6489 73.5012 79.3972 73.4747C79.1455 73.4482 78.8939 73.435 78.6423 73.4151C78.3906 73.4018 78.1389 73.3886 77.8872 73.3819C76.8739 73.3554 75.854 73.4019 74.834 73.5277C73.8074 73.6602 72.7742 73.8588 71.7609 74.2363C71.2509 74.4152 70.7542 74.647 70.2641 74.9053C69.774 75.1636 69.2904 75.4749 68.8268 75.8259C68.595 75.9981 68.3764 76.1968 68.1513 76.3955C67.9393 76.6074 67.7274 76.826 67.5486 77.0445C67.1843 77.4816 66.8664 77.9452 66.6147 78.4353C66.0981 79.4023 65.767 80.4223 65.5617 81.4356C65.3498 82.4489 65.257 83.4623 65.2437 84.4624C65.2371 84.9658 65.2437 85.4625 65.2702 85.9592C65.2835 86.2109 65.3033 86.4559 65.3298 86.7076L65.3696 87.0851C65.3828 87.211 65.3961 87.3302 65.4226 87.4759C65.4822 87.8601 65.8332 88.1249 66.2174 88.0653C66.5816 88.0123 66.8399 87.6877 66.8134 87.3235V87.2971C66.8068 87.2044 66.8002 87.0785 66.7936 86.9726C66.787 86.86 66.7869 86.7474 66.7869 86.6282C66.7869 86.3964 66.787 86.1711 66.7936 85.9393C66.8068 85.4823 66.8399 85.0187 66.8929 84.5683C66.9988 83.661 67.1843 82.7735 67.4625 81.9323C67.7407 81.0912 68.1248 80.3097 68.595 79.6408C68.8335 79.303 69.0984 79.005 69.3898 78.7401C69.5355 78.5944 69.6812 78.5016 69.8269 78.3956L70.0653 78.25C70.1448 78.2036 70.2375 78.1638 70.317 78.1241C70.6614 77.9585 71.0323 77.8261 71.4297 77.7333C71.5291 77.7068 71.6284 77.6804 71.7277 77.6605C71.8271 77.6406 71.9264 77.6141 72.0324 77.5942C72.2377 77.5611 72.443 77.5214 72.655 77.4883C73.0722 77.4221 73.4961 77.3691 73.9266 77.3161C74.3571 77.2631 74.7942 77.2168 75.2314 77.177C76.1122 77.1042 77.0063 77.0577 77.907 77.0313L78.5826 77.0114L79.2648 76.9982L79.9404 76.9849L80.2781 76.9783L80.4437 76.9717C80.4967 76.9717 80.5563 76.9717 80.596 76.965L82.9141 76.9452C82.9141 76.9452 82.2386 74.8722 82.1922 74.7463C81.9737 74.2032 81.4968 73.7993 80.9272 73.6933Z" fill="#333333"/>
<path d="M65.2304 84.469C65.2436 83.4623 65.3363 82.4556 65.5482 81.4423C65.7536 80.4289 66.0847 79.409 66.6013 78.442C66.8596 77.9585 67.1775 77.4883 67.5352 77.0512C67.7074 76.8326 67.9259 76.6141 68.1378 76.4021C68.3564 76.2034 68.5816 76.0114 68.8134 75.8325C69.277 75.4815 69.7539 75.1702 70.2506 74.9119C70.7407 74.6536 71.2441 74.4218 71.7474 74.243C72.7608 73.8589 73.794 73.6602 74.8206 73.5344C75.8471 73.4085 76.8671 73.3621 77.8738 73.3886C78.1255 73.3886 78.3771 73.4085 78.6288 73.4217C78.8805 73.435 79.1322 73.4548 79.3839 73.4813C79.6355 73.5078 79.8871 73.5343 80.1388 73.5674C80.2647 73.5873 80.3905 73.6005 80.5164 73.627L80.7085 73.6602L80.9137 73.6999C81.4701 73.8059 81.9337 74.19 82.139 74.7198C81.9469 74.5741 81.7217 74.4748 81.4767 74.4285L81.2714 74.3887L81.0793 74.3556C80.9535 74.3357 80.8277 74.3158 80.7018 74.2959C80.4502 74.2562 80.1985 74.2363 79.9468 74.2098C79.6951 74.1834 79.4434 74.1701 79.1918 74.1503C78.9401 74.137 78.6884 74.1237 78.4367 74.1171C77.4234 74.0906 76.4034 74.137 75.3769 74.2629C74.3503 74.3953 73.3171 74.594 72.3038 74.9715C71.7938 75.1503 71.297 75.3822 70.8069 75.6405C70.3168 75.8988 69.8334 76.21 69.3698 76.5611C69.138 76.7333 68.9194 76.932 68.6942 77.1306C68.4823 77.3426 68.2703 77.5611 68.0915 77.7797C67.7272 78.2168 67.4093 78.6804 67.151 79.1705C66.6344 80.1375 66.3033 81.1575 66.0979 82.1708C65.886 83.1841 65.7933 84.1974 65.78 85.1975C65.7734 85.7009 65.7801 86.1976 65.8066 86.6943C65.8198 86.946 65.8397 87.1911 65.8661 87.4428L65.9058 87.8202C65.9125 87.8997 65.9257 87.9792 65.939 88.0653C65.6674 88.0057 65.4423 87.7806 65.3959 87.4826C65.3761 87.3369 65.3628 87.2242 65.3429 87.0918L65.3032 86.7142C65.2767 86.4625 65.2568 86.2176 65.2435 85.9659C65.2303 85.4691 65.2171 84.9657 65.2304 84.469Z" fill="#333333"/>
<g opacity="0.7">
<path d="M66.0252 86.8732C66.3895 86.8202 66.6478 86.4958 66.6213 86.1315V86.105C66.6147 86.0123 66.6081 85.8864 66.6014 85.7805C66.5948 85.6679 66.5948 85.5553 66.5948 85.4361C66.5948 85.2043 66.5948 84.979 66.6014 84.7472C66.6147 84.2902 66.6478 83.8267 66.7008 83.3763C66.8068 82.4689 66.9922 81.5814 67.2704 80.7402C67.5485 79.8991 67.9327 79.1176 68.4029 78.4487C68.6413 78.1109 68.9063 77.8129 69.1977 77.548C69.3434 77.4023 69.4891 77.3095 69.6348 77.2036L69.8732 77.0579C69.9527 77.0115 70.0454 76.9717 70.1249 76.932C70.4693 76.7664 70.8402 76.634 71.2376 76.5412C71.3369 76.5148 71.4363 76.4883 71.5356 76.4684C71.6349 76.4485 71.7343 76.4221 71.8403 76.4022C72.0456 76.3691 72.2509 76.3293 72.4628 76.2962C72.8801 76.23 73.304 76.177 73.7345 76.124C74.165 76.071 74.6021 76.0247 75.0392 75.9849C75.9201 75.9121 76.8142 75.8657 77.7216 75.8392L78.3972 75.8194L79.0793 75.8061L79.7549 75.7928L80.0926 75.7862L80.2582 75.7796C80.3112 75.7796 80.3708 75.7796 80.4105 75.7729L82.5167 75.7598C82.7088 76.336 82.9074 76.9519 82.9074 76.9519L80.5894 76.9718C80.5496 76.9784 80.49 76.9784 80.4371 76.9784L80.2715 76.985L79.9337 76.9916L79.2581 77.0049L78.5759 77.0181L77.9004 77.038C76.9997 77.0645 76.0989 77.1108 75.2247 77.1837C74.7876 77.2234 74.3505 77.2698 73.92 77.3228C73.4895 77.3758 73.0656 77.4288 72.6483 77.495C72.4364 77.5281 72.2376 77.5678 72.0257 77.6009C71.9197 77.6208 71.827 77.6473 71.7211 77.6672C71.6217 77.6871 71.5158 77.7136 71.4231 77.7401C71.0257 77.8394 70.6481 77.9652 70.3103 78.1308C70.2242 78.1772 70.1315 78.2102 70.0587 78.2566L69.8202 78.4024C69.6745 78.5083 69.5288 78.6077 69.3831 78.7468C69.0983 79.0117 68.8268 79.3097 68.5884 79.6475C68.1115 80.3164 67.7274 81.0979 67.4558 81.9391C67.1843 82.7802 66.9989 83.6677 66.8863 84.575C66.8333 85.032 66.8002 85.4891 66.7869 85.9461C66.7803 86.1779 66.7737 86.4031 66.7803 86.6349C66.7803 86.7475 66.7869 86.8667 66.7869 86.9793C66.7935 87.0919 66.8002 87.2111 66.8068 87.3038V87.3302C66.8333 87.6944 66.575 88.0191 66.2107 88.072C65.8266 88.1316 65.4689 87.8668 65.4159 87.4827C65.396 87.3369 65.3828 87.2243 65.3629 87.0918L65.3232 86.7143C65.3165 86.6414 65.31 86.562 65.3033 86.4892C65.4226 86.7541 65.714 86.9196 66.0252 86.8732Z" fill="#333333"/>
</g>
<path d="M65.2236 85.8135H50.7124V88.5023H65.2236V85.8135Z" fill="#333333"/>
<path d="M50.7124 83.4953V86.8135H52.0039C52.5999 86.8135 53.0901 86.383 53.1894 85.8135C53.2027 85.7472 53.2093 85.681 53.2093 85.6081V84.7007C53.2093 84.0384 52.6728 83.4953 52.0039 83.4953H50.7124Z" fill="#808080"/>
<path d="M57.0971 64.6395L70.3697 62.4341C70.8532 62.3546 71.3433 62.3281 71.8334 62.3546C72.6481 62.3943 73.9263 62.3678 75.0125 62.3347C76.1185 62.3016 76.9928 61.3942 76.9928 60.2882V52.6584C76.9928 52.0491 76.3437 51.5523 75.5423 51.5523H60.2232C58.6005 51.5523 55.746 60.7981 55.746 60.7981C55.2294 61.8445 55.7924 64.6395 57.0971 64.6395Z" fill="#333333"/>
<path d="M56.8239 65.6294H58.9102V64.6492H56.8239V65.6294Z" fill="#1A1A1A"/>
<path d="M76.2975 69.1432H72.6813C72.5224 69.1432 72.3899 69.0173 72.3899 68.8517V68.3749C72.7939 67.9708 73.0191 67.7456 73.4231 67.3416H76.2379C76.4433 67.3416 76.6154 67.5139 76.6154 67.7192V68.8185C76.6154 68.9974 76.4763 69.1432 76.2975 69.1432Z" fill="black"/>
<path d="M76.2976 69.2624H72.6814C72.4562 69.2624 72.2708 69.0769 72.2708 68.8517V68.3285L73.3701 67.2291H76.238C76.5095 67.2291 76.7347 67.4543 76.7347 67.7259V68.8252C76.7347 69.0637 76.536 69.2624 76.2976 69.2624ZM72.5092 68.4279V68.8517C72.5092 68.9445 72.582 69.024 72.6814 69.024H76.2976C76.4101 69.024 76.4962 68.9378 76.4962 68.8252V67.7259C76.4962 67.5868 76.3837 67.4675 76.238 67.4675H73.4695L72.5092 68.4279Z" fill="#666666"/>
<path d="M52.5272 75.8921L50.6331 75.9517L50.5005 71.9116C50.4807 71.2361 51.0105 70.6731 51.6861 70.6466L52.4279 70.6202C52.812 70.6069 53.1365 70.9116 53.1498 71.2957L53.2757 75.0907C53.2823 75.5212 52.9511 75.8789 52.5272 75.8921Z" fill="#E4E4E4"/>
<g opacity="0.7">
<path d="M53.1498 71.3022C53.1432 71.0174 52.9645 70.779 52.7194 70.6797L52.8319 74.117C52.8452 74.5409 52.514 74.8986 52.0835 74.9118L50.6 74.9582L50.6331 75.9516L52.5273 75.892C52.9512 75.8788 53.289 75.5212 53.2757 75.0973L53.1498 71.3022Z" fill="#B1B1B1"/>
</g>
<path d="M58.0178 63.7387L70.2108 61.8379C70.6545 61.7717 71.1049 61.7452 71.5553 61.7651C72.3037 61.7982 73.4826 61.7783 74.4695 61.7518C75.4828 61.7253 76.2908 60.9438 76.2908 59.9901V53.4068C76.2908 52.8769 75.6947 52.453 74.9596 52.453H60.8922C59.402 52.453 56.7793 60.4272 56.7793 60.4272C56.2958 61.3279 56.819 63.7387 58.0178 63.7387Z" fill="#424756"/>
<path d="M58.839 65.3945C57.8787 65.3945 57.0972 64.5666 57.0972 63.54V52.1682C57.0972 51.1483 57.8787 50.3137 58.839 50.3137H59.8722C60.0113 50.3137 60.1305 50.4263 60.1305 50.572C60.1305 50.7177 60.0179 50.8303 59.8722 50.8303H58.839C58.1635 50.8303 57.6072 51.4331 57.6072 52.1682V63.54C57.6072 64.2751 58.1569 64.8779 58.839 64.8779C58.9781 64.8779 59.0973 64.9905 59.0973 65.1362C59.0973 65.2819 58.9847 65.3945 58.839 65.3945Z" fill="#1A1A1A"/>
<path d="M56.8718 57.811H58.1169C58.4017 57.811 58.6335 57.5793 58.6335 57.2945V52.1814C58.6335 51.8966 58.4017 51.6649 58.1169 51.6649H56.8718C56.5871 51.6649 56.3552 51.8966 56.3552 52.1814V57.2945C56.3552 57.5793 56.5871 57.811 56.8718 57.811Z" fill="#1A1A1A"/>
<path d="M56.8653 63.0764H58.1237C58.3422 63.0764 58.5211 62.8976 58.5211 62.679V59.4337C58.5211 59.2151 58.3422 59.0363 58.1237 59.0363H56.8653C56.6468 59.0363 56.4679 59.2151 56.4679 59.4337V62.679C56.4679 62.8976 56.6468 63.0764 56.8653 63.0764Z" fill="#1A1A1A"/>
<g opacity="0.4">
<path d="M56.6202 51.7377V56.6519C56.6202 56.9434 56.8453 57.1818 57.1169 57.1818H58.3951C58.4812 57.1818 58.5607 57.1553 58.6269 57.1156V57.2746C58.6269 57.566 58.4017 57.8044 58.1302 57.8044H56.852C56.5804 57.8044 56.3552 57.566 56.3552 57.2746V52.2013C56.3552 52.0026 56.4678 51.8304 56.6202 51.7377Z" fill="#323E47"/>
</g>
<g opacity="0.3">
<path d="M56.607 59.1356V62.2948C56.607 62.52 56.7792 62.7055 56.9911 62.7055H58.2761C58.3688 62.7055 58.4549 62.6658 58.5211 62.6062V62.6658C58.5211 62.891 58.3489 63.0764 58.1369 63.0764H56.8521C56.6401 63.0764 56.4679 62.891 56.4679 62.6658V59.447C56.4679 59.3278 56.5209 59.2151 56.607 59.1356Z" fill="#323E47"/>
</g>
<path d="M186.618 80.1043V87.84H88.6629L83.2186 80.1043H186.618Z" fill="#27292B"/>
<g opacity="0.7">
<path d="M89.1331 84.5949L85.9738 80.111H83.2186L88.6629 87.8401H186.618V84.5949H89.1331Z" fill="#27292B"/>
</g>
<path d="M180.75 86.9195C180.75 87.2308 180.73 87.5353 180.704 87.84H163.04C163.007 87.5353 162.994 87.2308 162.994 86.9195C162.994 84.1841 164.232 81.7336 166.179 80.1043C167.722 78.8128 169.709 78.0379 171.875 78.0379C174.047 78.0379 176.028 78.8128 177.571 80.1043C179.511 81.7336 180.75 84.1841 180.75 86.9195Z" fill="black"/>
<path d="M163.537 87.966L163.45 86.6611L163.689 86.5883C163.695 86.33 163.709 86.0784 163.742 85.8267L163.517 85.7207L163.782 84.4358L164.033 84.4292C164.106 84.1842 164.192 83.9457 164.292 83.7073L164.106 83.5417L164.709 82.3761L164.954 82.4357C165.093 82.2237 165.239 82.0118 165.398 81.8131L165.259 81.6011L166.153 80.6408L166.371 80.7666C166.563 80.5944 166.755 80.4355 166.961 80.2832L166.881 80.0447L168 79.3625L168.179 79.5414C168.405 79.4288 168.643 79.3295 168.881 79.2367L168.875 78.9851L170.133 78.634L170.259 78.8525C170.511 78.8062 170.762 78.7731 171.014 78.7466L171.074 78.5016H172.385L172.445 78.7466C172.703 78.7665 172.955 78.8062 173.2 78.8525L173.325 78.634L174.584 78.9851L174.577 79.2367C174.816 79.3295 175.047 79.4288 175.279 79.5414L175.458 79.3625L176.577 80.0447L176.498 80.2832C176.703 80.4355 176.902 80.5944 177.087 80.7666L177.306 80.6408L178.2 81.6011L178.061 81.8131C178.22 82.0118 178.366 82.2237 178.505 82.4357L178.75 82.3761L179.352 83.5417L179.167 83.7073C179.266 83.9391 179.352 84.1842 179.425 84.4292L179.677 84.4358L179.942 85.7207L179.717 85.8267C179.743 86.0784 179.763 86.33 179.77 86.5883L180.008 86.6611L179.915 87.966L179.67 88.0056C179.631 88.2573 179.578 88.509 179.518 88.7541L179.723 88.8932L179.286 90.1251L179.035 90.0986C178.929 90.3304 178.809 90.5556 178.684 90.7742L178.849 90.9661L178.094 92.0391L177.862 91.9465C177.697 92.1385 177.524 92.3239 177.339 92.5027L177.445 92.7279L176.432 93.5558L176.233 93.4035C176.021 93.5492 175.803 93.6816 175.577 93.8008L175.617 94.0459L174.418 94.5692L174.266 94.3704C174.028 94.4499 173.782 94.5162 173.531 94.5758L173.504 94.8274L172.206 95.0062L172.113 94.7744C171.988 94.781 171.862 94.781 171.729 94.781C171.603 94.781 171.471 94.7744 171.345 94.7744L171.252 95.0062L169.954 94.8274L169.928 94.5758C169.676 94.5162 169.431 94.4499 169.193 94.3704L169.04 94.5692L167.842 94.0459L167.881 93.8008C167.656 93.675 167.438 93.5426 167.226 93.4035L167.027 93.5558L166.014 92.7279L166.12 92.5027C165.934 92.3239 165.762 92.1385 165.596 91.9465L165.365 92.0391L164.609 90.9661L164.775 90.7742C164.649 90.5556 164.53 90.3304 164.424 90.0986L164.172 90.1251L163.735 88.8932L163.941 88.7541C163.874 88.509 163.828 88.2573 163.788 88.0056L163.537 87.966Z" fill="#232C33"/>
<g opacity="0.4">
<path d="M167.663 86.7539C167.663 88.9925 169.477 90.8071 171.716 90.8071C173.955 90.8071 175.769 88.9925 175.769 86.7539C175.769 84.5153 173.955 82.7006 171.716 82.7006C169.477 82.7006 167.663 84.5153 167.663 86.7539Z" fill="#14191E"/>
</g>
<path d="M168.02 86.7539C168.02 88.7938 169.676 90.4496 171.716 90.4496C173.756 90.4496 175.412 88.7938 175.412 86.7539C175.412 84.714 173.756 83.0582 171.716 83.0582C169.676 83.0582 168.02 84.714 168.02 86.7539Z" fill="black"/>
<path d="M171.716 88.7939C172.843 88.7939 173.756 87.8806 173.756 86.7539C173.756 85.6273 172.843 84.714 171.716 84.714C170.589 84.714 169.676 85.6273 169.676 86.7539C169.676 87.8806 170.589 88.7939 171.716 88.7939Z" fill="#31393F"/>
<g opacity="0.2">
<path d="M168.98 84.2636C168.888 84.5948 168.835 84.9392 168.835 85.2968C168.835 87.3368 170.491 88.9924 172.53 88.9924C173.617 88.9924 174.59 88.5289 175.266 87.7871C174.815 89.3237 173.398 90.4496 171.716 90.4496C169.676 90.4496 168.02 88.7938 168.02 86.7539C168.02 85.7935 168.384 84.9259 168.98 84.2636Z" fill="#14191E"/>
</g>
<g opacity="0.2">
<path d="M179.644 88.8534L179.703 88.8932L179.591 89.2111L179.564 89.1912C179.591 89.0786 179.617 88.966 179.644 88.8534Z" fill="#14191E"/>
<path d="M179.79 86.595L179.982 86.6546L179.955 87.0586L179.809 87.0121C179.809 86.8731 179.803 86.7341 179.79 86.595Z" fill="#14191E"/>
<path d="M164.358 84.1377C164.258 84.3695 164.172 84.6146 164.099 84.8596L163.848 84.8663L163.656 85.7803L163.51 85.714L163.775 84.4292L164.027 84.4226C164.073 84.2769 164.119 84.1311 164.172 83.9854L164.358 84.1377Z" fill="#14191E"/>
<path d="M178.061 81.8263L177.365 81.0779L177.147 81.2038C176.955 81.0316 176.763 80.8726 176.557 80.7203L176.637 80.4819L175.518 79.7997L175.339 79.9785C175.114 79.8659 174.875 79.7665 174.637 79.6738L174.643 79.4221L173.385 79.0712L173.259 79.2897C173.007 79.2433 172.756 79.2102 172.504 79.1837L172.445 78.9387H171.133L171.073 79.1837C170.815 79.2036 170.563 79.2433 170.318 79.2897L170.193 79.0712L168.934 79.4221L168.941 79.6738C168.702 79.7665 168.471 79.8659 168.239 79.9785L168.06 79.7997L166.941 80.4819L167.02 80.7203C166.815 80.8726 166.616 81.0316 166.431 81.2038L166.212 81.0779L165.318 82.0383L165.457 82.2502C165.298 82.4489 165.152 82.6609 165.013 82.8728L164.768 82.8131L164.232 83.853C164.252 83.8066 164.265 83.7537 164.285 83.7073L164.099 83.5417L164.702 82.3761L164.947 82.4357C165.086 82.2237 165.232 82.0118 165.391 81.8131L165.252 81.6011L166.146 80.6408L166.364 80.7666C166.557 80.5944 166.749 80.4355 166.954 80.2832L166.874 80.0447L167.994 79.3625L168.173 79.5414C168.398 79.4288 168.636 79.3295 168.875 79.2367L168.868 78.9851L170.126 78.634L170.252 78.8525C170.504 78.8062 170.756 78.7731 171.007 78.7466L171.067 78.5016H172.378L172.438 78.7466C172.696 78.7665 172.948 78.8062 173.193 78.8525L173.319 78.634L174.577 78.9851L174.57 79.2367C174.809 79.3295 175.041 79.4288 175.272 79.5414L175.451 79.3625L176.571 80.0447L176.491 80.2832C176.697 80.4355 176.895 80.5944 177.081 80.7666L177.299 80.6408L178.193 81.6011L178.054 81.8131C178.054 81.8131 178.054 81.8197 178.061 81.8263Z" fill="#14191E"/>
<path d="M164.841 91.2112L164.808 91.251L164.609 90.9661L164.669 90.9C164.722 91.0059 164.781 91.1053 164.841 91.2112Z" fill="#14191E"/>
<path d="M163.689 86.5817C163.689 86.4558 163.695 86.3299 163.702 86.2041L163.801 86.2505C163.775 86.5022 163.755 86.7538 163.748 87.0121L163.51 87.085L163.569 87.9659L163.53 87.9593L163.444 86.6546L163.689 86.5817Z" fill="#14191E"/>
<path d="M164.007 89.1911L163.868 89.2839L163.729 88.8931L163.908 88.7739C163.941 88.913 163.974 89.052 164.007 89.1911Z" fill="#14191E"/>
<path d="M178.802 82.8066L178.557 82.8661C178.418 82.6542 178.273 82.4422 178.114 82.2435L178.233 82.0647C178.319 82.1839 178.405 82.3098 178.485 82.4356L178.73 82.376L179.332 83.5417L179.226 83.6344L178.802 82.8066Z" fill="#14191E"/>
<path d="M179.723 84.8663L179.472 84.8596C179.399 84.6146 179.313 84.3762 179.213 84.1377L179.286 84.0715C179.326 84.1841 179.366 84.3034 179.399 84.4226L179.65 84.4292L179.915 85.714L179.896 85.7207L179.723 84.8663Z" fill="#14191E"/>
</g>
<g opacity="0.4">
<path d="M178.167 91.9066L178.074 92.039L177.902 91.9727C177.988 91.9463 178.081 91.9265 178.167 91.9066Z" fill="#14191E"/>
<path d="M163.537 87.966L163.45 86.6611L163.689 86.5883C163.695 86.33 163.709 86.0784 163.742 85.8268L163.517 85.7207L163.782 84.4358L164.033 84.4292C164.106 84.1842 164.192 83.9458 164.292 83.7073L164.106 83.5417L164.709 82.3761L164.954 82.4357C165.093 82.2237 165.239 82.0118 165.398 81.8131L165.259 81.6012L166.153 80.6408L166.371 80.7666C166.563 80.5944 166.755 80.4355 166.961 80.2832L166.881 80.0447L167.305 79.7864C166.385 81.0316 165.855 82.5085 165.855 84.0848C165.855 88.5819 170.166 92.2246 175.485 92.2246C176.286 92.2246 177.061 92.1384 177.803 91.9861C177.65 92.1649 177.491 92.3371 177.319 92.4961L177.425 92.7213L176.412 93.5492L176.213 93.3969C176.001 93.5426 175.783 93.675 175.557 93.7942L175.597 94.0393L174.398 94.5626L174.246 94.3638C174.008 94.4433 173.763 94.5096 173.511 94.5692L173.484 94.8208L172.186 94.9996L172.094 94.7679C171.968 94.7745 171.842 94.7744 171.709 94.7744C171.577 94.7744 171.451 94.7679 171.325 94.7679L171.233 94.9996L169.934 94.8208L169.908 94.5692C169.656 94.5096 169.411 94.4433 169.173 94.3638L169.02 94.5626L167.822 94.0393L167.861 93.7942C167.636 93.6683 167.418 93.536 167.206 93.3969L167.007 93.5492L165.994 92.7213L166.1 92.4961C165.914 92.3173 165.742 92.1319 165.576 91.9398L165.345 92.0325L164.59 90.9596L164.755 90.7675C164.629 90.549 164.51 90.3238 164.404 90.092L164.153 90.1185L163.715 88.8865L163.921 88.7475C163.854 88.5024 163.808 88.2507 163.768 87.999L163.537 87.966Z" fill="#14191E"/>
</g>
<path d="M171.716 85.2769C171.8 85.2769 171.868 85.2087 171.868 85.1246C171.868 85.0405 171.8 84.9723 171.716 84.9723C171.632 84.9723 171.564 85.0405 171.564 85.1246C171.564 85.2087 171.632 85.2769 171.716 85.2769Z" fill="#22272B"/>
<g opacity="0.5">
<path d="M171.597 85.0384C171.597 85.045 171.597 85.0517 171.597 85.0583C171.597 85.1378 171.663 85.2106 171.749 85.2106C171.802 85.2106 171.842 85.1842 171.868 85.1445C171.861 85.2173 171.795 85.2769 171.722 85.2769C171.643 85.2769 171.57 85.2107 171.57 85.1246C171.57 85.0915 171.577 85.0583 171.597 85.0384Z" fill="#22272B"/>
</g>
<path d="M172.246 85.2041C172.212 85.277 172.246 85.3697 172.318 85.4028C172.391 85.436 172.484 85.4029 172.517 85.3301C172.55 85.2572 172.517 85.1645 172.444 85.1314C172.365 85.0916 172.279 85.1246 172.246 85.2041Z" fill="#22272B"/>
<g opacity="0.5">
<path d="M172.305 85.1313C172.305 85.138 172.299 85.1446 172.299 85.1446C172.266 85.2175 172.299 85.3101 172.372 85.3432C172.418 85.363 172.471 85.3564 172.511 85.3365C172.471 85.4028 172.391 85.4293 172.325 85.3962C172.252 85.3631 172.213 85.277 172.252 85.1975C172.259 85.171 172.279 85.1512 172.305 85.1313Z" fill="#22272B"/>
</g>
<path d="M172.828 85.5485C172.769 85.6015 172.762 85.7009 172.815 85.7605C172.868 85.8201 172.968 85.8267 173.027 85.7737C173.087 85.7208 173.093 85.6214 173.04 85.5618C172.987 85.5021 172.895 85.4955 172.828 85.5485Z" fill="#22272B"/>
<g opacity="0.5">
<path d="M172.915 85.5153C172.908 85.5219 172.901 85.522 172.901 85.5286C172.842 85.5816 172.835 85.681 172.888 85.7406C172.921 85.7803 172.968 85.7936 173.014 85.787C172.954 85.8267 172.868 85.8201 172.815 85.7671C172.762 85.7075 172.762 85.6081 172.828 85.5551C172.855 85.5286 172.881 85.5153 172.915 85.5153Z" fill="#22272B"/>
</g>
<path d="M173.226 86.1047C173.147 86.1312 173.107 86.2173 173.133 86.2902C173.16 86.3697 173.246 86.4093 173.319 86.3828C173.398 86.3563 173.438 86.2702 173.411 86.1974C173.385 86.1245 173.306 86.0848 173.226 86.1047Z" fill="#22272B"/>
<g opacity="0.5">
<path d="M173.312 86.1048C173.306 86.1048 173.299 86.1048 173.292 86.1114C173.213 86.1379 173.173 86.224 173.2 86.2968C173.213 86.3432 173.253 86.3763 173.299 86.3961C173.226 86.4094 173.153 86.3697 173.127 86.2968C173.1 86.2174 173.147 86.1312 173.22 86.1114C173.253 86.0981 173.286 86.0981 173.312 86.1048Z" fill="#22272B"/>
</g>
<path d="M173.358 86.7738C173.279 86.7672 173.206 86.8268 173.193 86.9062C173.186 86.9857 173.246 87.0586 173.325 87.0718C173.405 87.0784 173.478 87.0189 173.491 86.9394C173.497 86.8599 173.438 86.7871 173.358 86.7738Z" fill="#22272B"/>
<g opacity="0.5">
<path d="M173.438 86.8136C173.431 86.8136 173.425 86.8136 173.418 86.807C173.338 86.8003 173.266 86.8599 173.252 86.9394C173.246 86.9924 173.266 87.0387 173.305 87.0652C173.232 87.0453 173.179 86.9791 173.193 86.9062C173.199 86.8268 173.272 86.7672 173.358 86.7738C173.391 86.7804 173.418 86.7937 173.438 86.8136Z" fill="#22272B"/>
</g>
<path d="M173.206 87.4428C173.133 87.403 173.04 87.4228 173.001 87.4956C172.961 87.5685 172.981 87.6612 173.054 87.701C173.126 87.7407 173.219 87.721 173.259 87.6481C173.299 87.5753 173.279 87.4825 173.206 87.4428Z" fill="#22272B"/>
<g opacity="0.5">
<path d="M173.266 87.5088C173.259 87.5022 173.259 87.5022 173.253 87.4956C173.18 87.4558 173.087 87.4758 173.047 87.5486C173.021 87.595 173.021 87.6413 173.041 87.6877C172.981 87.6413 172.961 87.5618 173.001 87.4956C173.041 87.4227 173.133 87.403 173.206 87.4427C173.233 87.4559 173.253 87.4823 173.266 87.5088Z" fill="#22272B"/>
</g>
<path d="M172.795 87.9857C172.749 87.9195 172.656 87.9064 172.583 87.9527C172.517 87.9991 172.504 88.0917 172.55 88.1579C172.597 88.2241 172.689 88.2374 172.762 88.1911C172.835 88.1447 172.848 88.0519 172.795 87.9857Z" fill="#22272B"/>
<g opacity="0.5">
<path d="M172.829 88.072C172.829 88.0654 172.822 88.0588 172.822 88.0588C172.776 87.9925 172.683 87.9793 172.61 88.0256C172.57 88.0521 172.55 88.0984 172.55 88.1514C172.517 88.0852 172.53 88.0059 172.59 87.9595C172.656 87.9131 172.749 87.9263 172.802 87.9925C172.815 88.0124 172.829 88.0455 172.829 88.072Z" fill="#22272B"/>
</g>
<path d="M172.206 88.3169C172.186 88.2375 172.107 88.1845 172.027 88.2044C171.948 88.2243 171.895 88.3037 171.914 88.3832C171.934 88.4627 172.014 88.5156 172.093 88.4958C172.166 88.4825 172.219 88.403 172.206 88.3169Z" fill="#22272B"/>
<g opacity="0.5">
<path d="M172.193 88.4097C172.193 88.4031 172.193 88.3964 172.193 88.3898C172.173 88.3103 172.094 88.2574 172.014 88.2773C171.968 88.2905 171.928 88.3235 171.908 88.3633C171.901 88.2904 171.948 88.2176 172.027 88.2043C172.107 88.1845 172.186 88.2374 172.206 88.3169C172.213 88.35 172.206 88.3832 172.193 88.4097Z" fill="#22272B"/>
</g>
<path d="M171.524 88.3832C171.544 88.3037 171.491 88.2242 171.411 88.2043C171.332 88.1845 171.252 88.2374 171.232 88.3169C171.212 88.3963 171.265 88.4758 171.345 88.4957C171.424 88.5156 171.504 88.4626 171.524 88.3832Z" fill="#22272B"/>
<g opacity="0.5">
<path d="M171.477 88.4627C171.477 88.4561 171.484 88.4494 171.484 88.4428C171.504 88.3633 171.451 88.2838 171.371 88.264C171.325 88.2507 171.272 88.2706 171.239 88.3037C171.266 88.2309 171.338 88.1911 171.411 88.2043C171.491 88.2242 171.544 88.3037 171.524 88.3831C171.517 88.4163 171.504 88.4428 171.477 88.4627Z" fill="#22272B"/>
</g>
<path d="M170.881 88.1646C170.928 88.0983 170.915 88.0057 170.848 87.9594C170.782 87.913 170.689 87.9261 170.636 87.9924C170.59 88.0586 170.603 88.1514 170.67 88.2043C170.736 88.2573 170.829 88.2308 170.881 88.1646Z" fill="#22272B"/>
<g opacity="0.5">
<path d="M170.808 88.2176C170.815 88.211 170.815 88.211 170.822 88.2043C170.868 88.1381 170.855 88.0453 170.789 87.999C170.749 87.9725 170.696 87.966 170.65 87.9793C170.703 87.9263 170.782 87.913 170.848 87.9594C170.914 88.0057 170.928 88.0983 170.881 88.1646C170.861 88.1911 170.835 88.2043 170.808 88.2176Z" fill="#22272B"/>
</g>
<path d="M170.378 87.7009C170.451 87.6612 170.471 87.5684 170.431 87.4956C170.391 87.4227 170.299 87.403 170.226 87.4427C170.153 87.4824 170.133 87.5752 170.173 87.6481C170.212 87.7209 170.305 87.7407 170.378 87.7009Z" fill="#22272B"/>
<g opacity="0.5">
<path d="M170.292 87.721C170.298 87.721 170.305 87.7144 170.312 87.7144C170.384 87.6746 170.404 87.5819 170.365 87.509C170.338 87.4626 170.298 87.4362 170.245 87.4362C170.312 87.4097 170.398 87.4295 170.431 87.4957C170.471 87.5686 170.451 87.6614 170.378 87.7011C170.351 87.7143 170.318 87.721 170.292 87.721Z" fill="#22272B"/>
</g>
<path d="M170.107 87.0718C170.186 87.0652 170.246 86.9923 170.239 86.9062C170.232 86.8268 170.159 86.7672 170.073 86.7738C169.994 86.7804 169.934 86.8533 169.941 86.9394C169.954 87.0255 170.027 87.0851 170.107 87.0718Z" fill="#22272B"/>
<g opacity="0.5">
<path d="M170.021 87.0519C170.027 87.0519 170.034 87.0519 170.041 87.0519C170.12 87.0453 170.18 86.9724 170.173 86.8863C170.166 86.8334 170.14 86.7937 170.1 86.7738C170.173 86.7738 170.239 86.8334 170.246 86.9062C170.253 86.9857 170.193 87.0586 170.113 87.0718C170.08 87.0784 170.047 87.0718 170.021 87.0519Z" fill="#22272B"/>
</g>
<path d="M170.12 86.3897C170.199 86.4162 170.285 86.3699 170.305 86.297C170.332 86.2175 170.285 86.1314 170.212 86.1116C170.133 86.0851 170.047 86.1314 170.027 86.2108C169.994 86.2837 170.04 86.3632 170.12 86.3897Z" fill="#22272B"/>
<g opacity="0.5">
<path d="M170.047 86.3365C170.054 86.3365 170.06 86.3431 170.067 86.3431C170.146 86.3696 170.233 86.3233 170.252 86.2505C170.266 86.2041 170.259 86.1512 170.233 86.118C170.299 86.1512 170.339 86.224 170.312 86.2969C170.286 86.3764 170.2 86.416 170.127 86.3895C170.087 86.3829 170.06 86.363 170.047 86.3365Z" fill="#22272B"/>
</g>
<path d="M170.405 85.7738C170.464 85.8268 170.564 85.8267 170.617 85.7605C170.669 85.7009 170.669 85.6015 170.603 85.5485C170.537 85.4955 170.444 85.4956 170.391 85.5618C170.338 85.6214 170.345 85.7208 170.405 85.7738Z" fill="#22272B"/>
<g opacity="0.5">
<path d="M170.358 85.6941C170.365 85.7007 170.365 85.7007 170.371 85.7073C170.431 85.7603 170.53 85.7603 170.583 85.6941C170.616 85.6543 170.63 85.608 170.616 85.5616C170.663 85.6146 170.669 85.7008 170.616 85.7604C170.563 85.82 170.464 85.8266 170.404 85.7736C170.378 85.7538 170.365 85.7206 170.358 85.6941Z" fill="#22272B"/>
</g>
<path d="M170.914 85.3235C170.948 85.3963 171.034 85.4293 171.113 85.3962C171.186 85.3631 171.226 85.277 171.186 85.1975C171.153 85.1247 171.067 85.085 170.987 85.1247C170.914 85.1579 170.881 85.2506 170.914 85.3235Z" fill="#22272B"/>
<g opacity="0.5">
<path d="M170.908 85.2306C170.908 85.2372 170.908 85.2439 170.915 85.2505C170.948 85.3233 171.034 85.3632 171.113 85.3234C171.16 85.3035 171.193 85.2637 171.199 85.2173C171.219 85.2902 171.186 85.3697 171.12 85.3962C171.047 85.4293 170.954 85.3963 170.921 85.3234C170.901 85.2969 170.901 85.2637 170.908 85.2306Z" fill="#22272B"/>
</g>
<path d="M101.684 83.9788H99.9485C99.73 83.9788 99.5511 83.8 99.5511 83.5814V83.3695C99.5511 83.151 99.73 82.9722 99.9485 82.9722H101.684C101.902 82.9722 102.081 83.151 102.081 83.3695V83.5814C102.081 83.8 101.902 83.9788 101.684 83.9788Z" fill="#EF5A24"/>
<path d="M155.185 83.9788H153.45C153.231 83.9788 153.052 83.8 153.052 83.5814V83.3695C153.052 83.151 153.231 82.9722 153.45 82.9722H155.185C155.403 82.9722 155.582 83.151 155.582 83.3695V83.5814C155.582 83.8 155.403 83.9788 155.185 83.9788Z" fill="#EF5A24"/>
<path d="M184.406 83.9788H182.671C182.452 83.9788 182.273 83.8 182.273 83.5814V83.3695C182.273 83.151 182.452 82.9722 182.671 82.9722H184.406C184.624 82.9722 184.803 83.151 184.803 83.3695V83.5814C184.797 83.8 184.618 83.9788 184.406 83.9788Z" fill="#EF5A24"/>
<path d="M200.5 24.9938H88.1195V78.1572H200.5V24.9938Z" fill="#FAA701"/>
<path d="M198.824 24.9938H198.546H90.0799H88.1195V26.9542V49.9031V53.2478V76.1967V78.1572H90.0799H198.546H198.824H200.5V24.9938H198.824ZM90.0799 26.9542H198.546V49.9031H90.0799V26.9542ZM90.0799 76.2033V53.2544H198.546V76.2033H90.0799Z" fill="#FFC859"/>
<g opacity="0.7">
<path d="M90.7556 26.3713V26.9542H198.546V49.3269H199.222V26.378H90.7556V26.3713ZM90.7556 52.6716V53.2544H198.546V75.6271H199.222V52.6782H90.7556V52.6716Z" fill="#B88621"/>
</g>
<g opacity="0.7">
<path d="M90.7556 49.3269V26.9542H90.0801V49.9098H198.546V49.3269H90.7556ZM90.7556 75.6205V53.2478H90.0801V76.2033H198.546V75.6205H90.7556Z" fill="#B88621"/>
</g>
</svg>
