<svg width="251" height="120" viewBox="0 0 251 120" fill="none" xmlns="http://www.w3.org/2000/svg">
<path d="M59.4511 69.8546H56.6926V71.4201H59.4511V69.8546Z" fill="#1A1A31"/>
<path d="M82.7677 69.8546H80.0092V71.4201H82.7677V69.8546Z" fill="#1A1A31"/>
<path d="M106.077 69.8546H103.318V71.4201H106.077V69.8546Z" fill="#1A1A31"/>
<path d="M129.386 69.8546H126.627V71.4201H129.386V69.8546Z" fill="#1A1A31"/>
<path d="M152.702 69.8546H149.944V71.4201H152.702V69.8546Z" fill="#1A1A31"/>
<path d="M176.012 69.8546H173.253V71.4201H176.012V69.8546Z" fill="#1A1A31"/>
<path d="M199.328 69.8546H196.569V71.4201H199.328V69.8546Z" fill="#1A1A31"/>
<path d="M222.637 69.8546H219.879V71.4201H222.637V69.8546Z" fill="#1A1A31"/>
<path d="M54.8374 66.3444H4.79834L5.52244 70.6684H29.7144V82.723H54.8374V66.3444Z" fill="#1A1A1A"/>
<path d="M54.6928 51.8417V67.7168H36.5144C36.3557 67.7168 36.1971 67.7237 36.0454 67.7374C35.9627 67.7443 35.8868 67.7513 35.8109 67.7582C35.5213 67.7857 35.2386 67.8409 34.9627 67.9168C34.8731 67.9374 34.7834 67.965 34.6868 67.9926C33.7283 68.296 32.8663 68.8271 32.1697 69.5236C31.8249 69.8684 31.5146 70.2615 31.2594 70.6822C31.0043 71.1028 30.7974 71.558 30.6457 72.0407C30.6181 72.1303 30.5905 72.22 30.5698 72.3166C30.4939 72.5924 30.4388 72.8751 30.4112 73.1648C30.3974 73.2406 30.3905 73.3166 30.3905 73.3993C30.3767 73.5579 30.3698 73.7096 30.3698 73.8682V73.8958C30.3767 74.5027 30.156 75.0613 29.7836 75.4957C29.7491 75.5371 29.7147 75.5716 29.6802 75.613C29.6595 75.6406 29.6319 75.6681 29.5974 75.6957C29.5698 75.7233 29.5423 75.7578 29.5078 75.7785C29.4802 75.8061 29.4457 75.8336 29.4112 75.8612C29.3837 75.8888 29.3492 75.9164 29.3147 75.9302C29.2802 75.9578 29.2457 75.9784 29.2112 75.9991C28.9354 76.1784 28.6251 76.3095 28.2872 76.3785C28.2044 76.3922 28.1147 76.4061 28.032 76.4199C27.9561 76.4268 27.8803 76.4336 27.8044 76.4336H9.84662C9.82594 76.4336 9.81213 76.4336 9.79144 76.4267V76.4336H6.90192C5.86059 76.4336 5.01236 75.5923 5.01236 74.544L4.73649 57.669C4.72959 57.3173 4.77787 56.9724 4.86752 56.6414L7.62601 46.6281C7.72256 46.2419 7.83979 45.8626 7.96392 45.4833L7.99153 45.3936L7.99844 45.4005C8.02602 45.3109 8.05357 45.2281 8.08805 45.1385L8.86047 42.9593L9.00526 42.5456L13.743 29.222L13.9016 28.7668C14.7085 26.4842 16.867 24.967 19.2876 24.967H47.0656C47.1277 24.967 47.1897 24.967 47.2449 24.9739H47.2518C48.6035 25.0153 49.8379 25.5394 50.8033 26.3738V26.3669C50.9482 26.498 51.093 26.6359 51.2309 26.7738C51.2654 26.8152 51.3068 26.8566 51.3413 26.898C51.3689 26.9255 51.3895 26.9531 51.4171 26.9807C51.5206 27.1048 51.624 27.229 51.7067 27.36C51.755 27.429 51.8033 27.4979 51.8516 27.5669C52.3481 28.3255 52.6653 29.2151 52.755 30.1737L54.6928 51.8417Z" fill="white"/>
<path d="M5.97793 76.3234C5.97793 76.3234 4.10217 81.7783 4.10217 82.4748V88.2332C4.10217 89.447 5.08834 90.4331 6.30207 90.4331H28.5217V85.6678H29.7148V76.4268L5.97793 76.3234Z" fill="white"/>
<path d="M53.8929 67.7168H53.7205C53.2033 67.7168 52.7826 67.296 52.7826 66.7788V30.146C52.7826 29.6288 53.2033 29.2081 53.7205 29.2081H53.8929C54.4101 29.2081 54.8308 29.6288 54.8308 30.146V66.7788C54.8377 67.296 54.417 67.7168 53.8929 67.7168Z" fill="#1A1A31"/>
<g opacity="0.4">
<path d="M11.3431 35.8907C11.3431 35.8907 11.3224 75.9164 11.3431 76.4267V35.8907Z" fill="#4D4D4D"/>
<path d="M11.0603 76.4404C11.0397 75.9301 11.0603 37.525 11.0603 35.8906H11.6189C11.6189 36.2906 11.5982 75.8612 11.6189 76.4129L11.0603 76.4404Z" fill="#4D4D4D"/>
</g>
<g opacity="0.4">
<path d="M47.2587 25.4359V63.6549C47.245 63.2411 47.2449 45.1385 47.2518 29.2082V24.9601L47.2587 25.4359Z" fill="#4D4D4D"/>
<path d="M46.9209 63.6686C46.9071 63.2618 46.9071 46.4212 46.914 29.2082V24.9601H47.5829C47.5829 24.9601 47.5829 25.0222 47.5829 25.1049H47.5898V63.6618L46.9209 63.6686Z" fill="#4D4D4D"/>
</g>
<g opacity="0.3">
<path d="M5.32267 74.1992H8.21219V74.1923C8.23288 74.1992 8.24664 74.1992 8.26733 74.1992H26.2252C27.6389 74.1992 28.7836 73.0545 28.7836 71.6408C28.7836 68.2616 31.5491 65.4962 34.9282 65.4962H53.1067V49.621L51.1826 27.9393C51.1344 27.3807 51.0033 26.8497 50.8102 26.3531C51.8929 27.291 52.6308 28.6358 52.7619 30.1599L54.6859 51.8417V67.7168H36.5074C33.1283 67.7168 30.3629 70.4822 30.3629 73.8613C30.3629 75.2751 29.2181 76.4199 27.8044 76.4199H9.8466C9.82591 76.4199 9.8121 76.4199 9.79142 76.413V76.4199H6.90189C5.86056 76.4199 5.01233 75.5716 5.01233 74.5302V74.1648C5.11577 74.1855 5.21233 74.1992 5.32267 74.1992Z" fill="#4D4D4D"/>
</g>
<path d="M51.9068 63.9101L51.5826 63.8479L51.2861 63.7928C51.0861 63.7583 50.893 63.7307 50.693 63.7032C50.2999 63.6411 49.9137 63.6066 49.5207 63.5653C49.1276 63.5239 48.7414 63.5032 48.3483 63.4756C47.9552 63.4549 47.5621 63.4342 47.1691 63.4273C45.5967 63.3928 44.0175 63.4618 42.4244 63.6549C40.8314 63.8549 39.2315 64.1652 37.6591 64.7583C36.8729 65.0341 36.0937 65.3928 35.3282 65.7996C34.5627 66.1996 33.8179 66.6892 33.1007 67.2271C32.7421 67.4961 32.3973 67.7995 32.0525 68.1099C31.7215 68.4409 31.3905 68.7788 31.1215 69.1167C30.556 69.7925 30.0664 70.5166 29.6664 71.2683C28.8595 72.7717 28.3492 74.3578 28.032 75.9302C27.701 77.5025 27.5561 79.0749 27.5354 80.6334C27.5217 81.4127 27.5354 82.1851 27.5768 82.9644C27.5975 83.3506 27.6251 83.7367 27.6665 84.1229L27.7286 84.7022C27.7492 84.9021 27.7768 85.0815 27.8044 85.3022C27.8941 85.8953 28.4457 86.309 29.0388 86.2194C29.6043 86.1366 30.0043 85.6332 29.9629 85.0677V85.0263C29.9491 84.8815 29.9423 84.6884 29.9354 84.5229C29.9285 84.3505 29.9216 84.1712 29.9216 83.9919C29.9216 83.6333 29.9216 83.2816 29.9354 82.923C29.9629 82.2126 30.0043 81.4955 30.0871 80.792C30.2595 79.3852 30.5422 77.999 30.9698 76.6956C31.3974 75.3922 31.9973 74.1786 32.7283 73.1441C33.0938 72.6269 33.5145 72.1649 33.9558 71.7511C34.1765 71.5304 34.4041 71.3787 34.6317 71.2132L34.9972 70.9856C35.1144 70.9098 35.2592 70.8546 35.3903 70.7856C35.9213 70.5304 36.5075 70.3304 37.1212 70.1718C37.2729 70.1304 37.4247 70.0959 37.5833 70.0615C37.7419 70.027 37.8936 69.9926 38.0522 69.9581C38.3763 69.9029 38.6867 69.8408 39.0177 69.7925C39.6659 69.696 40.328 69.6064 40.99 69.5236C41.652 69.4409 42.3348 69.3719 43.0175 69.3098C44.383 69.1926 45.776 69.1236 47.176 69.0822L48.2311 69.0546L49.2862 69.0339L50.3413 69.0132L50.8654 69.0064L51.1206 68.9995C51.2033 68.9995 51.2999 68.9926 51.3551 68.9926L54.9549 68.965C54.9549 68.965 53.9067 65.7514 53.8308 65.5445C53.5343 64.71 52.7964 64.0825 51.9068 63.9101Z" fill="white"/>
<path d="M27.5422 80.6334C27.5629 79.0749 27.7146 77.5025 28.0387 75.9302C28.356 74.3578 28.8663 72.7786 29.6731 71.2683C30.0731 70.5166 30.5627 69.7925 31.1282 69.1167C31.3972 68.7787 31.7351 68.4409 32.0592 68.1098C32.3971 67.8064 32.7488 67.4961 33.1074 67.2271C33.8247 66.6892 34.5694 66.1996 35.3349 65.7996C36.1004 65.3927 36.8728 65.0341 37.6658 64.7583C39.2382 64.1652 40.845 63.8549 42.4312 63.6549C44.0242 63.4549 45.6034 63.3859 47.1758 63.4273C47.5689 63.4342 47.9619 63.4549 48.355 63.4756C48.7481 63.5032 49.1412 63.5239 49.5274 63.5652C49.9205 63.6066 50.3067 63.6411 50.6998 63.7031C50.8928 63.7307 51.0928 63.7583 51.2928 63.7928L51.5893 63.8479L51.9135 63.9101C52.7755 64.0756 53.4927 64.6755 53.8169 65.4892C53.5134 65.2686 53.1617 65.11 52.7893 65.0341L52.4652 64.972L52.1687 64.9169C51.9687 64.8824 51.7756 64.8548 51.5756 64.8272C51.1825 64.7652 50.7963 64.7307 50.4032 64.6893C50.0101 64.648 49.6239 64.6273 49.2308 64.5997C48.8378 64.579 48.4447 64.5583 48.0516 64.5514C46.4792 64.5169 44.9 64.5859 43.307 64.779C41.7139 64.979 40.114 65.2893 38.5417 65.8824C37.7555 66.1582 36.9762 66.5168 36.2108 66.9237C35.4453 67.3237 34.7005 67.8133 33.9833 68.3512C33.6247 68.6201 33.2799 68.9236 32.935 69.2339C32.604 69.565 32.273 69.9028 32.0041 70.2408C31.4386 70.9166 30.9489 71.6407 30.5489 72.3924C29.7421 73.8958 29.2317 75.4819 28.9145 77.0542C28.5835 78.6266 28.4387 80.199 28.418 81.7575C28.4042 82.5368 28.418 83.3092 28.4594 84.0885C28.4801 84.4746 28.5077 84.8608 28.549 85.247L28.6111 85.8262C28.6249 85.9573 28.6387 86.0745 28.6594 86.2056C28.2318 86.109 27.887 85.7642 27.818 85.309C27.7836 85.0883 27.7628 84.9021 27.7422 84.709L27.6801 84.1298C27.6456 83.7436 27.6111 83.3575 27.5905 82.9713C27.5422 82.192 27.5284 81.4127 27.5422 80.6334Z" fill="white"/>
<g opacity="0.3">
<path d="M28.7766 84.3782C29.3421 84.2955 29.7421 83.7921 29.7007 83.2266V83.1852C29.687 83.0404 29.6801 82.8542 29.6732 82.6818C29.6663 82.5094 29.6594 82.3301 29.6594 82.1508C29.6594 81.7922 29.6594 81.4404 29.6732 81.0818C29.7008 80.3715 29.7421 79.6543 29.8249 78.9509C29.9973 77.5441 30.28 76.158 30.7076 74.8546C31.1352 73.5512 31.7283 72.3374 32.4661 71.303C32.8316 70.7858 33.2523 70.3237 33.6937 69.9099C33.9143 69.6893 34.1419 69.5375 34.3695 69.372L34.735 69.1445C34.8522 69.0686 34.9971 69.0134 35.1281 68.9445C35.6591 68.6893 36.2453 68.4893 36.859 68.3307C37.0108 68.2893 37.1625 68.2549 37.3211 68.2204C37.4797 68.1859 37.6314 68.1445 37.79 68.1169C38.1141 68.0618 38.4245 67.9997 38.7555 67.9514C39.4038 67.8549 40.0658 67.7652 40.7278 67.6825C41.3899 67.5997 42.0726 67.5307 42.7553 67.4687C44.1208 67.3514 45.5138 67.2825 46.9138 67.2411L47.9689 67.2135L49.024 67.1929L50.0791 67.1722L50.6032 67.1653L50.8584 67.1584C50.9412 67.1584 51.0377 67.1515 51.0929 67.1515L54.3617 67.1238C54.6582 68.0204 54.9686 68.9721 54.9686 68.9721L51.3687 68.9997C51.3135 69.0066 51.217 69.0066 51.1343 69.0066L50.8791 69.0134L50.355 69.0203L49.2998 69.041L48.2447 69.0617L47.1896 69.0893C45.7897 69.1376 44.3966 69.2065 43.0312 69.3169C42.3485 69.3789 41.6726 69.4479 41.0037 69.5306C40.3348 69.6134 39.6796 69.6961 39.0314 69.7996C38.7073 69.8479 38.39 69.9099 38.0659 69.9651C37.9073 69.9927 37.7556 70.0341 37.5969 70.0685C37.4383 70.103 37.2797 70.1375 37.1349 70.1789C36.5211 70.3306 35.935 70.5306 35.404 70.7927C35.2729 70.8616 35.1281 70.9168 35.0109 70.9927L34.6453 71.2202C34.4178 71.3858 34.1902 71.5375 33.9695 71.7582C33.5282 72.1719 33.1075 72.6339 32.742 73.1511C32.0041 74.1925 31.411 75.3993 30.9834 76.7027C30.5628 78.0061 30.2731 79.3923 30.1007 80.7991C30.018 81.5025 29.9697 82.2128 29.949 82.93C29.9352 83.2886 29.9352 83.6404 29.9352 83.999C29.9352 84.1783 29.9421 84.3506 29.949 84.5299C29.9559 84.7023 29.9697 84.8886 29.9766 85.0334V85.0748C30.018 85.6334 29.618 86.1437 29.0525 86.2265C28.4594 86.3161 27.9077 85.9023 27.8181 85.3092C27.7836 85.0885 27.7629 84.9023 27.7422 84.7092L27.6802 84.13C27.6664 84.0127 27.6595 83.8955 27.6526 83.7783C27.8457 84.192 28.3008 84.4472 28.7766 84.3782Z" fill="#333333"/>
</g>
<path d="M14.9221 49.8625L35.5281 46.4419C36.2798 46.3178 37.0384 46.2834 37.8039 46.3178C39.0728 46.373 41.0589 46.3385 42.7347 46.2902C44.4518 46.2351 45.8104 44.8351 45.8104 43.118V31.2702C45.8104 30.3185 44.8035 29.5461 43.5622 29.5461H19.784C17.2669 29.5461 12.8326 43.8973 12.8326 43.8973C12.0188 45.5179 12.9016 49.8625 14.9221 49.8625Z" fill="#333333"/>
<path d="M14.5009 51.3915H17.7422V49.8675H14.5009V51.3915Z" fill="#1A1A1A"/>
<path d="M44.7277 56.8484H39.1073C38.8591 56.8484 38.6591 56.6484 38.6591 56.4002V55.6622C39.2866 55.0346 39.6383 54.683 40.259 54.0623H44.6312C44.9553 54.0623 45.2174 54.3244 45.2174 54.6485V56.3587C45.2174 56.6277 44.9967 56.8484 44.7277 56.8484Z" fill="black"/>
<path d="M44.7276 57.0344H39.1072C38.7555 57.0344 38.4728 56.7517 38.4728 56.4V55.5862L40.183 53.876H44.6311C45.0587 53.876 45.4035 54.2208 45.4035 54.6484V56.3586C45.4035 56.731 45.1 57.0344 44.7276 57.0344ZM38.8452 55.7379V56.4C38.8452 56.5448 38.9624 56.6621 39.1072 56.6621H44.7276C44.9 56.6621 45.038 56.5241 45.038 56.3517V54.6414C45.038 54.4208 44.8587 54.2415 44.638 54.2415H40.3416L38.8452 55.7379Z" fill="#666666"/>
<path d="M9.10173 67.3237L4.96399 67.4202L4.68126 61.1516C4.63299 60.1034 5.79156 59.2275 7.26735 59.193L8.88795 59.1586C9.72929 59.1379 10.4396 59.6068 10.4603 60.2068L10.7292 66.0961C10.7637 66.7513 10.0327 67.303 9.10173 67.3237Z" fill="#979797"/>
<g opacity="0.7">
<path d="M10.4675 60.1999C10.4468 59.7586 10.0606 59.393 9.52271 59.2344L9.7641 64.5652C9.79169 65.2273 9.06755 65.779 8.13656 65.7997L4.90222 65.8755L4.97121 67.4134L9.10895 67.3168C10.0399 67.2961 10.7709 66.7444 10.7365 66.0824L10.4675 60.1999Z" fill="#979797"/>
</g>
<path d="M16.3501 48.4625L35.2733 45.5109C35.963 45.4006 36.6595 45.373 37.3629 45.4005C38.5283 45.4488 40.349 45.4213 41.8937 45.373C43.4661 45.3247 44.7212 44.1178 44.7212 42.6351V32.415C44.7212 31.5943 43.7971 30.9323 42.6592 30.9323H20.8257C18.5155 30.9323 14.4398 43.311 14.4398 43.311C13.6812 44.7179 14.4881 48.4625 16.3501 48.4625Z" fill="#424756"/>
<path d="M17.6323 51.0349C16.1359 51.0349 14.9221 49.7452 14.9221 48.1591V30.5048C14.9221 28.9186 16.1359 27.6291 17.6323 27.6291H19.2392C19.4598 27.6291 19.6391 27.8084 19.6391 28.029C19.6391 28.2497 19.4598 28.429 19.2392 28.429H17.6323C16.5772 28.429 15.7221 29.36 15.7221 30.5048V48.1591C15.7221 49.3039 16.5772 50.2349 17.6323 50.2349C17.853 50.2349 18.0323 50.4142 18.0323 50.6349C18.0323 50.8556 17.853 51.0349 17.6323 51.0349Z" fill="#1A1A1A"/>
<path d="M14.5707 39.263H16.5016C16.943 39.263 17.3016 38.9044 17.3016 38.463V30.5323C17.3016 30.091 16.943 29.7324 16.5016 29.7324H14.5707C14.1293 29.7324 13.7708 30.091 13.7708 30.5323V38.463C13.7776 38.9044 14.1362 39.263 14.5707 39.263Z" fill="#666666"/>
<path d="M14.5638 47.435H16.5155C16.8534 47.435 17.1293 47.1591 17.1293 46.8212V41.7869C17.1293 41.449 16.8534 41.1732 16.5155 41.1732H14.5638C14.2259 41.1732 13.9501 41.449 13.9501 41.7869V46.8212C13.9501 47.1591 14.2259 47.435 14.5638 47.435Z" fill="#666666"/>
<g opacity="0.4">
<path d="M14.1845 29.8359V37.47C14.1845 37.9251 14.5293 38.2976 14.9569 38.2976H16.9361C17.0671 38.2976 17.1913 38.2562 17.2947 38.1941V38.4355C17.2947 38.8906 16.9499 39.2631 16.5223 39.2631H14.5431C14.1225 39.2631 13.7708 38.8906 13.7708 38.4355V30.56C13.7776 30.2497 13.9431 29.9738 14.1845 29.8359Z" fill="#323E47"/>
</g>
<g opacity="0.3">
<path d="M14.1639 41.318V46.2212C14.1639 46.5729 14.4328 46.8557 14.757 46.8557H16.75C16.8948 46.8557 17.0258 46.8005 17.1293 46.7039V46.7936C17.1293 47.1453 16.8603 47.428 16.5362 47.428H14.5432C14.2191 47.428 13.9501 47.1453 13.9501 46.7936V41.8007C13.9501 41.6076 14.0329 41.4352 14.1639 41.318Z" fill="#323E47"/>
</g>
<g opacity="0.6">
<path d="M25.8595 88.8194H11.3429V76.3234H27.5421V87.1367C27.5353 88.0677 26.7836 88.8194 25.8595 88.8194Z" fill="white"/>
</g>
<g opacity="0.4">
<path d="M27.5421 79.0266H11.3429V80.3093H27.5421V79.0266Z" fill="white"/>
</g>
<g opacity="0.4">
<path d="M27.5421 85.9366H11.3429V87.2193H27.5421V85.9366Z" fill="white"/>
</g>
<path d="M27.5421 79.792H11.3429V81.0748H27.5421V79.792Z" fill="white"/>
<path d="M27.5421 86.647H11.3429V87.9297H27.5421V86.647Z" fill="white"/>
<g opacity="0.2">
<path d="M7.21233 88.8194C5.99859 88.8194 5.01243 87.8332 5.01243 86.6195V80.8611C5.01243 80.4129 5.7917 77.9923 6.34339 76.3234H5.97101C5.97101 76.3234 4.09521 81.7783 4.09521 82.4748V88.2332C4.09521 89.447 5.08138 90.4331 6.29512 90.4331H28.5148V88.8194H7.21233Z" fill="#4D4D4D"/>
</g>
<path d="M237.857 73.5717H54.1619V80.3092H237.857V73.5717Z" fill="#FAA701"/>
<path d="M242.429 69.7857V77.3716H56.2303V70.0919H223.216L242.429 69.7857Z" fill="#FAA701"/>
<path d="M205.861 69.9289L245.187 69.7857V73.2338H54.8513L205.861 69.9289Z" fill="#FAA701"/>
<path d="M30.5837 84.1091L30.4458 82.0816L30.8182 81.9644C30.8251 81.5644 30.8527 81.1713 30.894 80.7851L30.5424 80.6196L30.9561 78.6266L31.3423 78.6128C31.4595 78.2335 31.5906 77.8611 31.7423 77.4956L31.4526 77.2405L32.3905 75.4337L32.7698 75.5302C32.9836 75.1992 33.2112 74.875 33.4525 74.5647L33.2388 74.2406L34.6249 72.7579L34.9628 72.951C35.2594 72.689 35.5628 72.4407 35.88 72.1994L35.7628 71.8269L37.5006 70.7718L37.7765 71.0477C38.1282 70.8752 38.4937 70.7166 38.8661 70.5718L38.8523 70.1856L40.8108 69.6339L41.0039 69.9718C41.3901 69.9028 41.7832 69.8477 42.1763 69.8132L42.266 69.434H44.3003L44.39 69.8132C44.79 69.8477 45.1762 69.9028 45.5623 69.9718L45.7555 69.6339L47.714 70.1856L47.7002 70.5718C48.0726 70.7097 48.4381 70.8684 48.7898 71.0477L49.0656 70.7718L50.8035 71.8269L50.6862 72.1994C51.0035 72.4338 51.3138 72.6821 51.6034 72.951L51.9414 72.7579L53.3275 74.2406L53.1137 74.5647C53.3551 74.875 53.5827 75.1992 53.7964 75.5302L54.1757 75.4337L55.1136 77.2405L54.824 77.4956C54.9757 77.8611 55.1067 78.2335 55.224 78.6128L55.6102 78.6266L56.0239 80.6196L55.6722 80.7851C55.7205 81.1713 55.7412 81.5713 55.7481 81.9644L56.1205 82.0816L55.9825 84.1091L55.6033 84.1712C55.5412 84.5643 55.4585 84.9504 55.3619 85.3366L55.686 85.5505L55.0033 87.4676L54.6171 87.4262C54.4516 87.7848 54.2654 88.1365 54.0723 88.4814L54.3275 88.7779L53.1551 90.4399L52.7896 90.2951C52.5344 90.5985 52.2655 90.8882 51.9827 91.164L52.1482 91.5156L50.569 92.7984L50.2587 92.5639C49.9346 92.7846 49.5898 92.9915 49.2449 93.1846L49.3139 93.5639L47.4519 94.3707L47.2175 94.0604C46.8451 94.1845 46.4657 94.2879 46.0727 94.3776L46.0313 94.7638L44.0176 95.0397L43.8728 94.6742C43.6728 94.6811 43.4797 94.688 43.2797 94.688C43.0797 94.688 42.8866 94.6811 42.6866 94.6742L42.5418 95.0397L40.5281 94.7638L40.4867 94.3776C40.1005 94.2879 39.7143 94.1845 39.3419 94.0604L39.1075 94.3707L37.2455 93.5639L37.3144 93.1846C36.9627 92.9915 36.6248 92.7915 36.3007 92.5639L35.9904 92.7984L34.4111 91.5156L34.5766 91.164C34.2939 90.8882 34.025 90.5985 33.7698 90.2951L33.4043 90.4399L32.2319 88.7779L32.4871 88.4814C32.2871 88.1434 32.1078 87.7917 31.9423 87.4262L31.5561 87.4676L30.8734 85.5505L31.1975 85.3366C31.1009 84.9573 31.0182 84.5643 30.9561 84.1712L30.5837 84.1091Z" fill="#232C33"/>
<g opacity="0.4">
<path d="M44.7432 88.3035C48.1274 87.5044 50.223 84.1133 49.4239 80.7291C48.6248 77.345 45.2336 75.2494 41.8495 76.0485C38.4653 76.8476 36.3697 80.2388 37.1688 83.6229C37.9679 87.007 41.3591 89.1026 44.7432 88.3035Z" fill="#14191E"/>
</g>
<path d="M43.2794 87.9711C46.4482 87.9711 49.0171 85.4022 49.0171 82.2334C49.0171 79.0645 46.4482 76.4957 43.2794 76.4957C40.1106 76.4957 37.5417 79.0645 37.5417 82.2334C37.5417 85.4022 40.1106 87.9711 43.2794 87.9711Z" fill="black"/>
<path d="M40.1144 82.2335C40.1144 83.9851 41.535 85.3988 43.2798 85.3988C45.0314 85.3988 46.4452 83.9782 46.4452 82.2335C46.4452 80.4818 45.0245 79.0681 43.2798 79.0681C41.535 79.0681 40.1144 80.4818 40.1144 82.2335Z" fill="#31393F"/>
<g opacity="0.2">
<path d="M39.0382 78.3716C38.8865 78.8819 38.8107 79.4198 38.8107 79.9784C38.8107 83.1506 41.383 85.7161 44.5483 85.7161C46.231 85.7161 47.7413 84.9919 48.7895 83.8403C48.093 86.2263 45.8931 87.9712 43.2794 87.9712C40.1072 87.9712 37.5417 85.4057 37.5417 82.2335C37.5417 80.7439 38.1072 79.3922 39.0382 78.3716Z" fill="#14191E"/>
</g>
<g opacity="0.2">
<path d="M55.5825 85.4884L55.679 85.5505L55.5066 86.0401L55.4652 86.0125C55.5066 85.8401 55.548 85.6677 55.5825 85.4884Z" fill="#14191E"/>
<path d="M55.8171 81.9851L56.1137 82.0817L56.0723 82.7092L55.8447 82.6402C55.8447 82.4195 55.8309 82.2058 55.8171 81.9851Z" fill="#14191E"/>
<path d="M31.8528 78.1715C31.7011 78.537 31.5701 78.9094 31.4528 79.2887L31.0667 79.3025L30.7701 80.7231L30.5494 80.6197L30.9632 78.6266L31.3494 78.6128C31.4184 78.3853 31.4943 78.1577 31.577 77.9301L31.8528 78.1715Z" fill="#14191E"/>
<path d="M53.1276 74.5786L52.0449 73.42L51.7069 73.6131C51.4104 73.3511 51.107 73.1028 50.7898 72.8614L50.907 72.489L49.1691 71.4339L48.8933 71.7097C48.5416 71.5373 48.1761 71.3788 47.8037 71.2339L47.8175 70.8477L45.8589 70.2961L45.6659 70.634C45.2797 70.565 44.8866 70.5099 44.4935 70.4754L44.4038 70.096H42.3694L42.2798 70.4754C41.8798 70.5099 41.4936 70.565 41.1074 70.634L40.9144 70.2961L38.9558 70.8477L38.9696 71.2339C38.5972 71.3719 38.2317 71.5304 37.88 71.7097L37.6042 71.4339L35.8663 72.489L35.9835 72.8614C35.6663 73.0959 35.356 73.3442 35.0664 73.6131L34.7284 73.42L33.3423 74.9027L33.5561 75.2268C33.3147 75.5371 33.0871 75.8613 32.8733 76.1923L32.494 76.0957L31.6596 77.7095C31.6872 77.6337 31.7148 77.5577 31.7493 77.4819L31.4596 77.2267L32.3975 75.4199L32.7768 75.5165C32.9906 75.1855 33.2182 74.8613 33.4595 74.551L33.2457 74.2269L34.6319 72.7442L34.9698 72.9373C35.2663 72.6752 35.5698 72.427 35.887 72.1856L35.7697 71.8132L37.5076 70.7581L37.7835 71.0339C38.1352 70.8615 38.5007 70.7029 38.873 70.5581L38.8593 70.1719L40.8178 69.6202L41.0109 69.9582C41.3971 69.8892 41.7901 69.834 42.1832 69.7995L42.2729 69.4202H44.3073L44.3969 69.7995C44.7969 69.834 45.1831 69.8892 45.5693 69.9582L45.7624 69.6202L47.7209 70.1719L47.7071 70.5581C48.0795 70.696 48.445 70.8546 48.7967 71.0339L49.0726 70.7581L50.8104 71.8132L50.6932 72.1856C51.0104 72.4201 51.3208 72.6683 51.6104 72.9373L51.9483 72.7442L53.3345 74.2269L53.1207 74.551C53.1138 74.5648 53.1207 74.5717 53.1276 74.5786Z" fill="#14191E"/>
<path d="M32.6043 89.1504L32.5561 89.2124L32.2457 88.771L32.3423 88.6608C32.425 88.8263 32.5147 88.9918 32.6043 89.1504Z" fill="#14191E"/>
<path d="M30.8252 81.9644C30.8321 81.7713 30.839 81.5782 30.8528 81.3851L31.0114 81.461C30.9701 81.8472 30.9425 82.2471 30.9356 82.6402L30.5632 82.7575L30.6597 84.1229L30.5976 84.116L30.4597 82.0886L30.8252 81.9644Z" fill="#14191E"/>
<path d="M31.3148 86.0125L31.101 86.1504L30.8872 85.5436L31.1699 85.3574C31.2113 85.5849 31.2596 85.7987 31.3148 86.0125Z" fill="#14191E"/>
<path d="M54.2792 76.1096L53.8999 76.2061C53.6861 75.8751 53.4585 75.551 53.2172 75.2406L53.4034 74.9579C53.5413 75.1441 53.6723 75.3372 53.7965 75.5303L54.1757 75.4337L55.1136 77.2406L54.9481 77.3854L54.2792 76.1096Z" fill="#14191E"/>
<path d="M55.7068 79.3025L55.3206 79.2887C55.2034 78.9094 55.0724 78.537 54.9207 78.1715L55.0379 78.075C55.0999 78.2543 55.162 78.4336 55.2172 78.6198L55.6034 78.6336L56.0171 80.6266L55.9827 80.6404L55.7068 79.3025Z" fill="#14191E"/>
</g>
<g opacity="0.4">
<path d="M53.2931 90.226L53.1482 90.4329L52.8793 90.3226C53.0172 90.295 53.1551 90.2605 53.2931 90.226Z" fill="#14191E"/>
<path d="M30.5837 84.1091L30.4458 82.0817L30.8182 81.9644C30.8251 81.5644 30.8527 81.1714 30.894 80.7852L30.5424 80.6197L30.9561 78.6267L31.3423 78.6129C31.4595 78.2336 31.5906 77.8612 31.7423 77.4957L31.4526 77.2405L32.3905 75.4337L32.7698 75.5303C32.9836 75.1992 33.2112 74.8751 33.4525 74.5648L33.2388 74.2407L34.6249 72.758L34.9628 72.9511C35.2594 72.689 35.5628 72.4408 35.88 72.1994L35.7628 71.827L36.4179 71.4269C34.9904 73.3648 34.1697 75.6475 34.1697 78.0956C34.1697 85.0746 40.8591 90.7364 49.1208 90.7364C50.3621 90.7364 51.569 90.6054 52.7206 90.3641C52.4862 90.6399 52.2379 90.9089 51.9758 91.1572L52.1413 91.5089L50.5621 92.7916L50.2518 92.557C49.9276 92.7777 49.5829 92.9846 49.238 93.1777L49.307 93.557L47.445 94.3638L47.2106 94.0535C46.8382 94.1777 46.4588 94.2811 46.0658 94.3707L46.0244 94.757L44.0107 95.0328L43.8659 94.6673C43.6659 94.6742 43.4728 94.6811 43.2728 94.6811C43.0728 94.6811 42.8797 94.6742 42.6797 94.6673L42.5349 95.0328L40.5212 94.757L40.4798 94.3707C40.0936 94.2811 39.7075 94.1777 39.3351 94.0535L39.1006 94.3638L37.2386 93.557L37.3076 93.1777C36.9559 92.9846 36.6179 92.7846 36.2938 92.557L35.9835 92.7916L34.4042 91.5089L34.5697 91.1572C34.287 90.8813 34.018 90.5917 33.7629 90.2882L33.3974 90.433L32.225 88.771L32.4802 88.4745C32.2802 88.1366 32.1009 87.7849 31.9354 87.4194L31.5492 87.4607L30.8665 85.5436L31.1906 85.3298C31.094 84.9505 31.0113 84.5574 30.9492 84.1644L30.5837 84.1091Z" fill="#14191E"/>
</g>
<path d="M43.2795 79.9301C43.409 79.9301 43.514 79.8251 43.514 79.6957C43.514 79.5662 43.409 79.4611 43.2795 79.4611C43.15 79.4611 43.045 79.5662 43.045 79.6957C43.045 79.8251 43.15 79.9301 43.2795 79.9301Z" fill="#22272B"/>
<g opacity="0.5">
<path d="M43.0936 79.5645C43.0936 79.5714 43.0936 79.5852 43.0936 79.5921C43.0936 79.7232 43.1971 79.8266 43.3281 79.8266C43.404 79.8266 43.4729 79.7852 43.5143 79.73C43.5005 79.8473 43.404 79.9369 43.2867 79.9369C43.1557 79.9369 43.0522 79.8334 43.0522 79.7024C43.0522 79.6472 43.066 79.6059 43.0936 79.5645Z" fill="#22272B"/>
</g>
<path d="M44.1 79.8266C44.0448 79.9439 44.1 80.0818 44.2172 80.1301C44.3345 80.1853 44.4724 80.1301 44.5207 80.0129C44.5758 79.8956 44.5207 79.7576 44.4034 79.7094C44.2862 79.6542 44.1552 79.7094 44.1 79.8266Z" fill="#22272B"/>
<g opacity="0.5">
<path d="M44.1969 79.7162C44.19 79.7231 44.19 79.73 44.1831 79.7438C44.1279 79.861 44.183 79.9989 44.3003 80.0472C44.3692 80.0817 44.452 80.0748 44.5141 80.0335C44.452 80.13 44.3279 80.1714 44.2244 80.1231C44.1072 80.068 44.052 79.9369 44.1072 79.8196C44.121 79.7783 44.1555 79.7438 44.1969 79.7162Z" fill="#22272B"/>
</g>
<path d="M45.0107 80.3646C44.9141 80.4473 44.9072 80.599 44.9969 80.6887C45.0796 80.7852 45.2313 80.7921 45.321 80.7025C45.4175 80.6197 45.4244 80.468 45.3348 80.3784C45.252 80.2887 45.1072 80.2818 45.0107 80.3646Z" fill="#22272B"/>
<g opacity="0.5">
<path d="M45.135 80.3093C45.1281 80.3162 45.1212 80.3162 45.1143 80.3231C45.0177 80.4059 45.0109 80.5577 45.1005 80.6473C45.1557 80.7025 45.2315 80.7301 45.3005 80.7232C45.204 80.7921 45.0729 80.7783 44.9971 80.6887C44.9143 80.5921 44.9212 80.4473 45.0109 80.3645C45.0454 80.3301 45.0936 80.3162 45.135 80.3093Z" fill="#22272B"/>
</g>
<path d="M45.6176 81.2267C45.4935 81.2681 45.4314 81.3991 45.4659 81.5163C45.5072 81.6404 45.6383 81.7026 45.7555 81.6681C45.8797 81.6267 45.9417 81.4957 45.9072 81.3784C45.8727 81.2543 45.7417 81.1922 45.6176 81.2267Z" fill="#22272B"/>
<g opacity="0.5">
<path d="M45.7622 81.2267C45.7553 81.2267 45.7416 81.2267 45.7347 81.2336C45.6105 81.275 45.5485 81.406 45.583 81.5232C45.6105 81.5991 45.6657 81.6543 45.7347 81.675C45.6243 81.6957 45.5071 81.6335 45.4726 81.5232C45.4312 81.3991 45.5002 81.2681 45.6243 81.2336C45.6657 81.2129 45.714 81.2129 45.7622 81.2267Z" fill="#22272B"/>
</g>
<path d="M45.8245 82.2679C45.7004 82.2541 45.5832 82.3437 45.5694 82.4748C45.5556 82.6058 45.6452 82.7161 45.7763 82.7299C45.9073 82.7437 46.0176 82.6541 46.0314 82.5231C46.0452 82.3921 45.9556 82.2817 45.8245 82.2679Z" fill="#22272B"/>
<g opacity="0.5">
<path d="M45.9553 82.3231C45.9484 82.3231 45.9346 82.3162 45.9277 82.3162C45.8036 82.3024 45.6863 82.3921 45.6725 82.5231C45.6657 82.599 45.6933 82.6748 45.7484 82.7231C45.6381 82.6955 45.5553 82.592 45.5691 82.4748C45.5829 82.3507 45.6933 82.2542 45.8243 82.268C45.8726 82.2749 45.9208 82.2955 45.9553 82.3231Z" fill="#22272B"/>
</g>
<path d="M45.5898 83.3024C45.4795 83.2403 45.3347 83.2748 45.2726 83.3851C45.2105 83.4955 45.245 83.6403 45.3553 83.7023C45.4657 83.7644 45.6105 83.7299 45.6725 83.6196C45.7415 83.5023 45.7001 83.3644 45.5898 83.3024Z" fill="#22272B"/>
<g opacity="0.5">
<path d="M45.6861 83.4059C45.6792 83.399 45.6724 83.392 45.6655 83.392C45.5551 83.33 45.4103 83.3645 45.3482 83.4748C45.3068 83.5438 45.3068 83.6196 45.3413 83.6885C45.2517 83.6196 45.2172 83.4886 45.2793 83.3851C45.3413 83.2748 45.4861 83.2334 45.5965 83.3024C45.6379 83.3231 45.6654 83.3576 45.6861 83.4059Z" fill="#22272B"/>
</g>
<path d="M44.9552 84.1436C44.8793 84.0401 44.7345 84.0195 44.6311 84.0953C44.5276 84.1712 44.5069 84.316 44.5828 84.4194C44.6587 84.5229 44.8035 84.5435 44.9069 84.4677C45.0104 84.3987 45.031 84.247 44.9552 84.1436Z" fill="#22272B"/>
<g opacity="0.5">
<path d="M45.0038 84.2814C44.9969 84.2746 44.9968 84.2677 44.99 84.2539C44.9141 84.1505 44.7693 84.1297 44.6658 84.2056C44.6038 84.2539 44.5693 84.3229 44.5693 84.3987C44.5141 84.2953 44.5417 84.1711 44.6314 84.1021C44.7348 84.0263 44.8796 84.047 44.9555 84.1505C44.99 84.1849 45.0038 84.2332 45.0038 84.2814Z" fill="#22272B"/>
</g>
<path d="M44.0382 84.6609C44.0106 84.5367 43.8865 84.454 43.7624 84.4816C43.6383 84.5092 43.5555 84.6333 43.5831 84.7574C43.6107 84.8816 43.7348 84.9643 43.8589 84.9367C43.9831 84.9092 44.0589 84.7919 44.0382 84.6609Z" fill="#22272B"/>
<g opacity="0.5">
<path d="M44.0244 84.8056C44.0244 84.7987 44.0244 84.785 44.0244 84.7781C43.9969 84.6539 43.8727 84.5712 43.7486 84.5988C43.6727 84.6126 43.6107 84.6677 43.5831 84.7367C43.5762 84.6194 43.652 84.516 43.7624 84.4884C43.8865 84.4608 44.0106 84.5436 44.0382 84.6677C44.0451 84.7091 44.0382 84.7573 44.0244 84.8056Z" fill="#22272B"/>
</g>
<path d="M42.983 84.7574C43.0105 84.6332 42.9278 84.5091 42.8036 84.4815C42.6795 84.4539 42.5554 84.5367 42.5278 84.6608C42.5002 84.785 42.583 84.9091 42.7071 84.9367C42.8312 84.9643 42.9554 84.8884 42.983 84.7574Z" fill="#22272B"/>
<g opacity="0.5">
<path d="M42.9143 84.8815C42.9143 84.8746 42.9212 84.8609 42.9212 84.854C42.9488 84.7298 42.866 84.6057 42.7419 84.5781C42.6661 84.5643 42.5902 84.585 42.535 84.6332C42.5695 84.5229 42.6868 84.454 42.804 84.4815C42.9281 84.5091 43.0109 84.6333 42.9833 84.7574C42.9695 84.8057 42.9488 84.847 42.9143 84.8815Z" fill="#22272B"/>
</g>
<path d="M41.9762 84.4194C42.052 84.316 42.0313 84.1712 41.9279 84.0953C41.8245 84.0195 41.6797 84.0401 41.6038 84.1436C41.5279 84.247 41.5486 84.3918 41.6521 84.4677C41.7624 84.5435 41.9072 84.5229 41.9762 84.4194Z" fill="#22272B"/>
<g opacity="0.5">
<path d="M41.866 84.5022C41.8729 84.4953 41.8798 84.4884 41.8867 84.4815C41.9626 84.3781 41.9419 84.2333 41.8384 84.1574C41.7763 84.1092 41.6936 84.1022 41.6246 84.1229C41.7005 84.0402 41.8315 84.0264 41.9281 84.0954C42.0315 84.1712 42.0522 84.316 41.9763 84.4195C41.9488 84.4609 41.9074 84.4884 41.866 84.5022Z" fill="#22272B"/>
</g>
<path d="M41.2037 83.7022C41.314 83.6402 41.3554 83.4954 41.2865 83.385C41.2244 83.2747 41.0796 83.2333 40.9693 83.3023C40.8589 83.3643 40.8175 83.5091 40.8865 83.6195C40.9486 83.7298 41.0934 83.7643 41.2037 83.7022Z" fill="#22272B"/>
<g opacity="0.5">
<path d="M41.066 83.73C41.0729 83.7231 41.0867 83.7231 41.0936 83.7162C41.204 83.6541 41.2453 83.5093 41.1764 83.399C41.135 83.33 41.066 83.2886 40.9971 83.2817C41.1005 83.2335 41.2315 83.2748 41.2867 83.3783C41.3488 83.4886 41.3143 83.6334 41.2039 83.6955C41.1626 83.7231 41.1143 83.7369 41.066 83.73Z" fill="#22272B"/>
</g>
<path d="M40.7829 82.73C40.9071 82.7162 41.0036 82.6058 40.9898 82.4748C40.976 82.3507 40.8657 82.2542 40.7346 82.268C40.6036 82.2818 40.514 82.3921 40.5278 82.5231C40.5416 82.6542 40.6588 82.7438 40.7829 82.73Z" fill="#22272B"/>
<g opacity="0.5">
<path d="M40.6449 82.7025C40.6518 82.7025 40.6656 82.7025 40.6725 82.7025C40.7966 82.6887 40.8932 82.5783 40.8794 82.4473C40.8725 82.3715 40.8242 82.3025 40.7621 82.268C40.8794 82.268 40.9759 82.3576 40.9897 82.4748C41.0035 82.599 40.9139 82.7162 40.7828 82.73C40.7346 82.7369 40.6863 82.7232 40.6449 82.7025Z" fill="#22272B"/>
</g>
<path d="M40.7967 81.6679C40.9209 81.7093 41.0519 81.6402 41.0864 81.5161C41.1277 81.392 41.0588 81.261 40.9346 81.2265C40.8105 81.1851 40.6795 81.2541 40.645 81.3782C40.6105 81.5023 40.6795 81.6334 40.7967 81.6679Z" fill="#22272B"/>
<g opacity="0.5">
<path d="M40.6863 81.5921C40.6932 81.599 40.7001 81.5989 40.7139 81.6058C40.838 81.6472 40.969 81.5782 41.0035 81.4541C41.0311 81.3782 41.0104 81.3024 40.969 81.2404C41.0725 81.2886 41.1277 81.4058 41.0932 81.523C41.0518 81.6472 40.9207 81.7093 40.8035 81.6748C40.7552 81.6541 40.7139 81.6266 40.6863 81.5921Z" fill="#22272B"/>
</g>
<path d="M41.2453 80.7094C41.3418 80.7921 41.4866 80.7852 41.5694 80.6956C41.6522 80.599 41.6452 80.4542 41.5556 80.3715C41.459 80.2887 41.3142 80.2956 41.2315 80.3853C41.1418 80.4749 41.1487 80.6266 41.2453 80.7094Z" fill="#22272B"/>
<g opacity="0.5">
<path d="M41.1694 80.5922C41.1763 80.5991 41.1832 80.606 41.1901 80.6129C41.2866 80.6957 41.4315 80.6888 41.5142 80.5991C41.5694 80.544 41.5832 80.4612 41.5694 80.3922C41.6453 80.4819 41.6453 80.6129 41.5694 80.6957C41.4867 80.7922 41.3349 80.7991 41.2453 80.7095C41.2039 80.675 41.1832 80.6336 41.1694 80.5922Z" fill="#22272B"/>
</g>
<path d="M42.0382 80.0129C42.0934 80.1301 42.2244 80.1853 42.3416 80.1301C42.4589 80.0749 42.514 79.9439 42.4589 79.8266C42.4037 79.7094 42.2727 79.6542 42.1554 79.7094C42.0382 79.7576 41.9899 79.8956 42.0382 80.0129Z" fill="#22272B"/>
<g opacity="0.5">
<path d="M42.0245 79.8748C42.0245 79.8817 42.0314 79.8955 42.0314 79.9024C42.0866 80.0197 42.2176 80.0749 42.3348 80.0197C42.4038 79.9852 42.4521 79.9231 42.4659 79.8542C42.5004 79.9645 42.4452 80.0886 42.3417 80.1369C42.2245 80.192 42.0866 80.1369 42.0383 80.0197C42.0176 79.9645 42.0176 79.9162 42.0245 79.8748Z" fill="#22272B"/>
</g>
<path d="M180.108 84.1091L179.97 82.0816L180.342 81.9644C180.349 81.5644 180.377 81.1713 180.418 80.7851L180.066 80.6196L180.48 78.6266L180.866 78.6128C180.984 78.2335 181.115 77.8611 181.266 77.4956L180.977 77.2405L181.915 75.4337L182.294 75.5302C182.508 75.1992 182.735 74.875 182.977 74.5647L182.763 74.2406L184.149 72.7579L184.487 72.951C184.784 72.689 185.087 72.4407 185.404 72.1994L185.287 71.8269L187.025 70.7718L187.301 71.0477C187.652 70.8752 188.018 70.7166 188.39 70.5718L188.376 70.1856L190.335 69.6339L190.528 69.9718C190.914 69.9028 191.307 69.8477 191.7 69.8132L191.79 69.434H193.824L193.914 69.8132C194.314 69.8477 194.7 69.9028 195.087 69.9718L195.28 69.6339L197.238 70.1856L197.224 70.5718C197.597 70.7097 197.962 70.8684 198.314 71.0477L198.59 70.7718L200.328 71.8269L200.21 72.1994C200.528 72.4338 200.838 72.6821 201.128 72.951L201.466 72.7579L202.852 74.2406L202.638 74.5647C202.879 74.875 203.107 75.1992 203.321 75.5302L203.7 75.4337L204.638 77.2405L204.348 77.4956C204.5 77.8611 204.631 78.2335 204.748 78.6128L205.134 78.6266L205.548 80.6196L205.196 80.7851C205.238 81.1713 205.265 81.5713 205.272 81.9644L205.645 82.0816L205.507 84.1091L205.127 84.1712C205.065 84.5643 204.99 84.9504 204.886 85.3366L205.21 85.5505L204.527 87.4676L204.141 87.4262C203.976 87.7848 203.79 88.1365 203.596 88.4814L203.852 88.7779L202.679 90.4399L202.314 90.2951C202.059 90.5985 201.79 90.8882 201.507 91.164L201.672 91.5156L200.093 92.7984L199.783 92.5639C199.459 92.7846 199.114 92.9915 198.769 93.1846L198.838 93.5639L196.976 94.3707L196.742 94.0604C196.369 94.1845 195.99 94.2879 195.597 94.3776L195.555 94.7638L193.542 95.0397L193.397 94.6742C193.204 94.6811 193.004 94.688 192.804 94.688C192.604 94.688 192.411 94.6811 192.211 94.6742L192.066 95.0397L190.052 94.7638L190.011 94.3776C189.625 94.2879 189.238 94.1845 188.866 94.0604L188.632 94.3707L186.77 93.5639L186.839 93.1846C186.487 92.9915 186.149 92.7915 185.825 92.5639L185.515 92.7984L183.935 91.5156L184.101 91.164C183.818 90.8882 183.549 90.5985 183.294 90.2951L182.928 90.4399L181.756 88.7779L182.011 88.4814C181.811 88.1434 181.632 87.7917 181.466 87.4262L181.08 87.4676L180.398 85.5505L180.722 85.3366C180.625 84.9573 180.542 84.5643 180.48 84.1712L180.108 84.1091Z" fill="#232C33"/>
<g opacity="0.4">
<path d="M198.648 84.646C199.978 81.4333 198.453 77.75 195.24 76.4193C192.027 75.0885 188.344 76.6141 187.013 79.8268C185.683 83.0395 187.208 86.7227 190.421 88.0535C193.634 89.3843 197.317 87.8587 198.648 84.646Z" fill="#14191E"/>
</g>
<path d="M192.804 87.9711C195.973 87.9711 198.542 85.4022 198.542 82.2334C198.542 79.0645 195.973 76.4957 192.804 76.4957C189.635 76.4957 187.066 79.0645 187.066 82.2334C187.066 85.4022 189.635 87.9711 192.804 87.9711Z" fill="black"/>
<path d="M189.639 82.2335C189.639 83.9851 191.059 85.3988 192.804 85.3988C194.549 85.3988 195.969 83.9782 195.969 82.2335C195.969 80.4818 194.549 79.0681 192.804 79.0681C191.059 79.0681 189.639 80.4818 189.639 82.2335Z" fill="#31393F"/>
<g opacity="0.2">
<path d="M188.563 78.3716C188.411 78.8819 188.335 79.4198 188.335 79.9784C188.335 83.1506 190.907 85.7161 194.073 85.7161C195.755 85.7161 197.266 84.9919 198.314 83.8403C197.617 86.2263 195.418 87.9712 192.804 87.9712C189.638 87.9712 187.066 85.4057 187.066 82.2335C187.066 80.7439 187.632 79.3922 188.563 78.3716Z" fill="#14191E"/>
</g>
<g opacity="0.2">
<path d="M205.107 85.4884L205.204 85.5505L205.031 86.0401L204.99 86.0125C205.031 85.8401 205.072 85.6677 205.107 85.4884Z" fill="#14191E"/>
<path d="M205.342 81.9851L205.638 82.0817L205.597 82.7092L205.369 82.6402C205.369 82.4195 205.355 82.2058 205.342 81.9851Z" fill="#14191E"/>
<path d="M181.377 78.1715C181.225 78.537 181.094 78.9094 180.977 79.2887L180.591 79.3025L180.294 80.7231L180.073 80.6197L180.487 78.6266L180.873 78.6128C180.942 78.3853 181.018 78.1577 181.101 77.9301L181.377 78.1715Z" fill="#14191E"/>
<path d="M202.652 74.5786L201.569 73.42L201.231 73.6131C200.935 73.3511 200.631 73.1028 200.314 72.8614L200.431 72.489L198.693 71.4339L198.418 71.7097C198.066 71.5373 197.7 71.3788 197.328 71.2339L197.342 70.8477L195.383 70.2961L195.19 70.634C194.804 70.565 194.411 70.5099 194.018 70.4754L193.928 70.096H191.894L191.804 70.4754C191.404 70.5099 191.018 70.565 190.632 70.634L190.439 70.2961L188.48 70.8477L188.494 71.2339C188.122 71.3719 187.756 71.5304 187.404 71.7097L187.128 71.4339L185.391 72.489L185.508 72.8614C185.191 73.0959 184.88 73.3442 184.591 73.6131L184.253 73.42L182.867 74.9027L183.08 75.2268C182.839 75.5371 182.611 75.8613 182.398 76.1923L182.018 76.0957L181.184 77.7095C181.211 77.6337 181.239 77.5577 181.274 77.4819L180.984 77.2267L181.922 75.4199L182.301 75.5165C182.515 75.1855 182.742 74.8613 182.984 74.551L182.77 74.2269L184.156 72.7442L184.494 72.9373C184.791 72.6752 185.094 72.427 185.411 72.1856L185.294 71.8132L187.032 70.7581L187.308 71.0339C187.659 70.8615 188.025 70.7029 188.397 70.5581L188.384 70.1719L190.342 69.6202L190.535 69.9582C190.921 69.8892 191.314 69.834 191.708 69.7995L191.797 69.4202H193.832L193.921 69.7995C194.321 69.834 194.707 69.8892 195.094 69.9582L195.287 69.6202L197.245 70.1719L197.231 70.5581C197.604 70.696 197.969 70.8546 198.321 71.0339L198.597 70.7581L200.335 71.8132L200.218 72.1856C200.535 72.4201 200.845 72.6683 201.135 72.9373L201.473 72.7442L202.859 74.2269L202.645 74.551C202.638 74.5648 202.645 74.5717 202.652 74.5786Z" fill="#14191E"/>
<path d="M182.129 89.1504L182.081 89.2124L181.77 88.771L181.867 88.6608C181.95 88.8263 182.039 88.9918 182.129 89.1504Z" fill="#14191E"/>
<path d="M180.349 81.9644C180.356 81.7713 180.363 81.5782 180.377 81.3851L180.535 81.461C180.494 81.8472 180.467 82.2471 180.46 82.6402L180.087 82.7575L180.184 84.1229L180.122 84.116L179.984 82.0886L180.349 81.9644Z" fill="#14191E"/>
<path d="M180.839 86.0125L180.626 86.1504L180.412 85.5436L180.695 85.3574C180.736 85.5849 180.784 85.7987 180.839 86.0125Z" fill="#14191E"/>
<path d="M203.804 76.1096L203.424 76.2061C203.211 75.8751 202.983 75.551 202.742 75.2406L202.928 74.9579C203.066 75.1441 203.197 75.3372 203.321 75.5303L203.7 75.4337L204.638 77.2406L204.473 77.3854L203.804 76.1096Z" fill="#14191E"/>
<path d="M205.231 79.3025L204.845 79.2887C204.728 78.9094 204.597 78.537 204.445 78.1715L204.562 78.075C204.624 78.2543 204.686 78.4336 204.741 78.6198L205.128 78.6336L205.541 80.6266L205.507 80.6404L205.231 79.3025Z" fill="#14191E"/>
</g>
<g opacity="0.4">
<path d="M202.818 90.2261L202.673 90.4331L202.404 90.3227C202.542 90.2951 202.68 90.2606 202.818 90.2261Z" fill="#14191E"/>
<path d="M180.108 84.1091L179.97 82.0817L180.342 81.9644C180.349 81.5644 180.377 81.1714 180.418 80.7852L180.066 80.6197L180.48 78.6267L180.866 78.6129C180.984 78.2336 181.115 77.8612 181.266 77.4957L180.977 77.2405L181.915 75.4337L182.294 75.5303C182.508 75.1992 182.735 74.8751 182.977 74.5648L182.763 74.2407L184.149 72.758L184.487 72.9511C184.784 72.689 185.087 72.4408 185.404 72.1994L185.287 71.827L185.942 71.4269C184.515 73.3648 183.694 75.6475 183.694 78.0956C183.694 85.0746 190.383 90.7364 198.645 90.7364C199.886 90.7364 201.093 90.6054 202.245 90.3641C202.01 90.6399 201.762 90.9089 201.5 91.1572L201.666 91.5089L200.086 92.7916L199.776 92.557C199.452 92.7777 199.107 92.9846 198.762 93.1777L198.831 93.557L196.969 94.3638L196.735 94.0535C196.362 94.1777 195.983 94.2811 195.59 94.3707L195.549 94.757L193.535 95.0328L193.39 94.6673C193.19 94.6742 192.997 94.6811 192.797 94.6811C192.597 94.6811 192.404 94.6742 192.204 94.6673L192.059 95.0328L190.045 94.757L190.004 94.3707C189.618 94.2811 189.232 94.1777 188.859 94.0535L188.625 94.3638L186.763 93.557L186.832 93.1777C186.48 92.9846 186.142 92.7846 185.818 92.557L185.508 92.7916L183.928 91.5089L184.094 91.1572C183.811 90.8813 183.542 90.5917 183.287 90.2882L182.922 90.433L181.749 88.771L182.004 88.4745C181.804 88.1366 181.625 87.7849 181.46 87.4194L181.073 87.4607L180.391 85.5436L180.715 85.3298C180.618 84.9505 180.535 84.5574 180.473 84.1644L180.108 84.1091Z" fill="#14191E"/>
</g>
<path d="M192.804 79.9301C192.934 79.9301 193.039 79.8251 193.039 79.6957C193.039 79.5662 192.934 79.4611 192.804 79.4611C192.675 79.4611 192.57 79.5662 192.57 79.6957C192.57 79.8251 192.675 79.9301 192.804 79.9301Z" fill="#22272B"/>
<g opacity="0.5">
<path d="M192.618 79.5645C192.618 79.5714 192.618 79.5852 192.618 79.5921C192.618 79.7232 192.721 79.8266 192.853 79.8266C192.928 79.8266 192.997 79.7852 193.039 79.73C193.025 79.8473 192.928 79.9369 192.811 79.9369C192.68 79.9369 192.577 79.8334 192.577 79.7024C192.577 79.6472 192.59 79.6059 192.618 79.5645Z" fill="#22272B"/>
</g>
<path d="M193.625 79.8266C193.569 79.9439 193.625 80.0818 193.742 80.1301C193.859 80.1853 193.997 80.1301 194.045 80.0129C194.1 79.8956 194.045 79.7576 193.928 79.7094C193.811 79.6542 193.68 79.7094 193.625 79.8266Z" fill="#22272B"/>
<g opacity="0.5">
<path d="M193.714 79.7161C193.707 79.723 193.707 79.7299 193.7 79.7437C193.645 79.8609 193.7 79.9988 193.817 80.0471C193.886 80.0816 193.969 80.0747 194.031 80.0333C193.969 80.1299 193.845 80.1713 193.742 80.123C193.624 80.0678 193.569 79.9368 193.624 79.8195C193.645 79.7781 193.68 79.7436 193.714 79.7161Z" fill="#22272B"/>
</g>
<path d="M194.535 80.3646C194.438 80.4473 194.431 80.599 194.521 80.6887C194.604 80.7852 194.756 80.7921 194.845 80.7025C194.935 80.6128 194.949 80.468 194.859 80.3784C194.776 80.2887 194.631 80.2818 194.535 80.3646Z" fill="#22272B"/>
<g opacity="0.5">
<path d="M194.659 80.3093C194.652 80.3162 194.645 80.3162 194.638 80.3231C194.542 80.4059 194.535 80.5577 194.624 80.6473C194.68 80.7025 194.755 80.7301 194.824 80.7232C194.728 80.7921 194.597 80.7783 194.521 80.6887C194.438 80.5921 194.445 80.4473 194.535 80.3645C194.569 80.3301 194.617 80.3162 194.659 80.3093Z" fill="#22272B"/>
</g>
<path d="M195.142 81.2267C195.018 81.2681 194.956 81.3991 194.99 81.5163C195.032 81.6404 195.163 81.7026 195.28 81.6681C195.404 81.6267 195.466 81.4957 195.432 81.3784C195.397 81.2543 195.266 81.1922 195.142 81.2267Z" fill="#22272B"/>
<g opacity="0.5">
<path d="M195.287 81.2267C195.28 81.2267 195.266 81.2267 195.259 81.2336C195.135 81.275 195.073 81.406 195.107 81.5232C195.135 81.5991 195.19 81.6543 195.259 81.675C195.149 81.6957 195.031 81.6335 194.997 81.5232C194.956 81.3991 195.025 81.2681 195.149 81.2336C195.19 81.2129 195.238 81.2129 195.287 81.2267Z" fill="#22272B"/>
</g>
<path d="M195.349 82.2679C195.225 82.2541 195.107 82.3437 195.094 82.4748C195.08 82.5989 195.17 82.7161 195.301 82.7299C195.425 82.7437 195.542 82.6541 195.556 82.5231C195.57 82.3921 195.48 82.2817 195.349 82.2679Z" fill="#22272B"/>
<g opacity="0.5">
<path d="M195.48 82.3231C195.473 82.3231 195.459 82.3162 195.452 82.3162C195.328 82.3024 195.211 82.3921 195.197 82.5231C195.19 82.599 195.218 82.6748 195.273 82.7231C195.163 82.6955 195.08 82.592 195.094 82.4748C195.107 82.3507 195.218 82.2542 195.349 82.268C195.397 82.2749 195.445 82.2955 195.48 82.3231Z" fill="#22272B"/>
</g>
<path d="M195.114 83.3024C195.004 83.2403 194.859 83.2748 194.797 83.3851C194.735 83.4955 194.77 83.6403 194.88 83.7023C194.99 83.7644 195.135 83.7299 195.197 83.6196C195.266 83.5023 195.225 83.3644 195.114 83.3024Z" fill="#22272B"/>
<g opacity="0.5">
<path d="M195.211 83.4058C195.204 83.3989 195.197 83.392 195.19 83.392C195.08 83.3299 194.935 83.3644 194.873 83.4747C194.831 83.5437 194.831 83.6195 194.866 83.6885C194.776 83.6195 194.742 83.4885 194.804 83.3851C194.866 83.2747 195.011 83.2334 195.121 83.3023C195.162 83.323 195.19 83.3575 195.211 83.4058Z" fill="#22272B"/>
</g>
<path d="M194.48 84.1436C194.404 84.0401 194.259 84.0195 194.155 84.0953C194.052 84.1712 194.031 84.316 194.107 84.4194C194.183 84.5229 194.328 84.5435 194.431 84.4677C194.535 84.3987 194.555 84.247 194.48 84.1436Z" fill="#22272B"/>
<g opacity="0.5">
<path d="M194.528 84.2814C194.521 84.2746 194.521 84.2677 194.514 84.2539C194.438 84.1505 194.293 84.1297 194.19 84.2056C194.128 84.2539 194.093 84.3229 194.093 84.3987C194.038 84.2953 194.066 84.1711 194.162 84.1021C194.266 84.0263 194.411 84.047 194.487 84.1505C194.514 84.1849 194.528 84.2332 194.528 84.2814Z" fill="#22272B"/>
</g>
<path d="M193.562 84.6609C193.535 84.5367 193.411 84.454 193.287 84.4816C193.162 84.5092 193.08 84.6333 193.107 84.7574C193.135 84.8816 193.259 84.9643 193.383 84.9367C193.507 84.9092 193.583 84.7919 193.562 84.6609Z" fill="#22272B"/>
<g opacity="0.5">
<path d="M193.549 84.8057C193.549 84.7988 193.549 84.7851 193.549 84.7782C193.521 84.6541 193.397 84.5713 193.273 84.5989C193.197 84.6127 193.135 84.6678 193.107 84.7368C193.1 84.6195 193.176 84.5161 193.287 84.4885C193.411 84.4609 193.535 84.5437 193.562 84.6678C193.569 84.7092 193.562 84.7575 193.549 84.8057Z" fill="#22272B"/>
</g>
<path d="M192.507 84.7574C192.535 84.6332 192.452 84.5091 192.328 84.4815C192.204 84.4539 192.08 84.5367 192.052 84.6608C192.024 84.785 192.107 84.9091 192.231 84.9367C192.356 84.9643 192.48 84.8884 192.507 84.7574Z" fill="#22272B"/>
<g opacity="0.5">
<path d="M192.438 84.8814C192.438 84.8745 192.445 84.8608 192.445 84.8539C192.473 84.7298 192.39 84.6056 192.266 84.578C192.19 84.5643 192.114 84.5849 192.059 84.6332C192.093 84.5228 192.211 84.4539 192.328 84.4815C192.452 84.5091 192.535 84.6332 192.507 84.7574C192.493 84.8056 192.473 84.847 192.438 84.8814Z" fill="#22272B"/>
</g>
<path d="M191.501 84.4194C191.576 84.316 191.556 84.1712 191.452 84.0953C191.349 84.0195 191.204 84.0401 191.128 84.1436C191.052 84.247 191.073 84.3918 191.176 84.4677C191.287 84.5435 191.432 84.5229 191.501 84.4194Z" fill="#22272B"/>
<g opacity="0.5">
<path d="M191.39 84.5022C191.397 84.4953 191.404 84.4884 191.411 84.4815C191.487 84.3781 191.466 84.2333 191.363 84.1574C191.301 84.1092 191.218 84.1022 191.149 84.1229C191.225 84.0402 191.356 84.0264 191.452 84.0954C191.556 84.1712 191.576 84.316 191.501 84.4195C191.473 84.4609 191.432 84.4884 191.39 84.5022Z" fill="#22272B"/>
</g>
<path d="M190.728 83.7022C190.839 83.6402 190.88 83.4954 190.811 83.385C190.749 83.2747 190.604 83.2333 190.494 83.3023C190.383 83.3643 190.342 83.5091 190.411 83.6195C190.473 83.7298 190.618 83.7643 190.728 83.7022Z" fill="#22272B"/>
<g opacity="0.5">
<path d="M190.59 83.73C190.597 83.7231 190.611 83.7231 190.618 83.7162C190.728 83.6541 190.77 83.5093 190.701 83.399C190.659 83.33 190.59 83.2886 190.521 83.2817C190.625 83.2335 190.756 83.2748 190.811 83.3783C190.873 83.4886 190.839 83.6334 190.728 83.6955C190.687 83.7231 190.639 83.7369 190.59 83.73Z" fill="#22272B"/>
</g>
<path d="M190.307 82.7299C190.431 82.7161 190.528 82.6058 190.514 82.4748C190.5 82.3437 190.39 82.2541 190.259 82.2679C190.128 82.2817 190.038 82.3921 190.052 82.5231C190.066 82.6472 190.183 82.7437 190.307 82.7299Z" fill="#22272B"/>
<g opacity="0.5">
<path d="M190.17 82.7024C190.176 82.7024 190.19 82.7024 190.197 82.7024C190.321 82.6886 190.418 82.5783 190.404 82.4473C190.397 82.3714 190.349 82.3024 190.287 82.2679C190.404 82.2679 190.501 82.3575 190.514 82.4748C190.528 82.5989 190.439 82.7161 190.307 82.7299C190.259 82.7368 190.211 82.7231 190.17 82.7024Z" fill="#22272B"/>
</g>
<path d="M190.321 81.6679C190.445 81.7093 190.576 81.6402 190.611 81.5161C190.645 81.392 190.583 81.261 190.459 81.2265C190.335 81.1851 190.204 81.2541 190.17 81.3782C190.135 81.5023 190.204 81.6334 190.321 81.6679Z" fill="#22272B"/>
<g opacity="0.5">
<path d="M190.211 81.592C190.218 81.5989 190.224 81.5988 190.238 81.6057C190.362 81.6471 190.493 81.5782 190.528 81.454C190.556 81.3782 190.535 81.3024 190.493 81.2403C190.597 81.2886 190.652 81.4057 190.618 81.523C190.576 81.6471 190.445 81.7092 190.328 81.6748C190.28 81.6541 190.238 81.6265 190.211 81.592Z" fill="#22272B"/>
</g>
<path d="M190.769 80.7094C190.866 80.7921 191.011 80.7852 191.093 80.6956C191.176 80.599 191.169 80.4542 191.08 80.3715C190.99 80.2887 190.838 80.2956 190.756 80.3853C190.666 80.4749 190.673 80.6266 190.769 80.7094Z" fill="#22272B"/>
<g opacity="0.5">
<path d="M190.693 80.5922C190.7 80.5991 190.707 80.606 190.714 80.6129C190.811 80.6957 190.955 80.6888 191.045 80.5991C191.1 80.544 191.114 80.4612 191.1 80.3922C191.176 80.4819 191.176 80.6129 191.1 80.6957C191.017 80.7922 190.866 80.7991 190.776 80.7095C190.728 80.675 190.707 80.6336 190.693 80.5922Z" fill="#22272B"/>
</g>
<path d="M191.563 80.0129C191.618 80.1301 191.749 80.1853 191.866 80.1301C191.984 80.0749 192.039 79.9439 191.984 79.8266C191.928 79.7094 191.797 79.6542 191.68 79.7094C191.563 79.7576 191.515 79.8956 191.563 80.0129Z" fill="#22272B"/>
<g opacity="0.5">
<path d="M191.549 79.8748C191.549 79.8817 191.556 79.8955 191.556 79.9024C191.611 80.0197 191.742 80.0749 191.859 80.0197C191.928 79.9852 191.976 79.9231 191.99 79.8542C192.025 79.9645 191.969 80.0886 191.866 80.1369C191.749 80.192 191.611 80.1369 191.562 80.0197C191.542 79.9645 191.542 79.9162 191.549 79.8748Z" fill="#22272B"/>
</g>
<path d="M207.245 84.1092L207.107 82.0818L207.479 81.9645C207.486 81.5645 207.514 81.1714 207.555 80.7853L207.203 80.6198L207.617 78.6267L208.003 78.6129C208.121 78.2336 208.252 77.8612 208.403 77.4957L208.114 77.2406L209.052 75.4338L209.431 75.5303C209.645 75.1993 209.872 74.8752 210.114 74.5648L209.9 74.2407L211.286 72.758L211.624 72.9511C211.92 72.6891 212.224 72.4408 212.541 72.1995L212.424 71.8271L214.162 70.7719L214.438 71.0478C214.789 70.8754 215.155 70.7167 215.527 70.5719L215.513 70.1857L217.472 69.634L217.665 69.9719C218.051 69.903 218.444 69.8478 218.837 69.8133L218.927 69.4341H220.961L221.051 69.8133C221.451 69.8478 221.837 69.903 222.223 69.9719L222.416 69.634L224.375 70.1857L224.361 70.5719C224.734 70.7098 225.099 70.8685 225.451 71.0478L225.727 70.7719L227.465 71.8271L227.347 72.1995C227.664 72.434 227.975 72.6822 228.264 72.9511L228.602 72.758L229.989 74.2407L229.775 74.5648C230.016 74.8752 230.244 75.1993 230.457 75.5303L230.837 75.4338L231.775 77.2406L231.485 77.4957C231.637 77.8612 231.768 78.2336 231.885 78.6129L232.271 78.6267L232.685 80.6198L232.333 80.7853C232.375 81.1714 232.402 81.5714 232.409 81.9645L232.781 82.0818L232.644 84.1092L232.264 84.1713C232.202 84.5644 232.126 84.9506 232.023 85.3368L232.347 85.5506L231.664 87.4677L231.278 87.4263C231.113 87.7849 230.926 88.1367 230.733 88.4815L230.988 88.778L229.816 90.44L229.451 90.2952C229.195 90.5986 228.926 90.8883 228.644 91.1641L228.809 91.5158L227.23 92.7985L226.92 92.564C226.596 92.7847 226.251 92.9916 225.906 93.1847L225.975 93.564L224.113 94.3708L223.878 94.0605C223.506 94.1846 223.127 94.2881 222.734 94.3777L222.692 94.7639L220.679 95.0398L220.534 94.6743C220.334 94.6812 220.141 94.6881 219.941 94.6881C219.741 94.6881 219.548 94.6812 219.348 94.6743L219.203 95.0398L217.189 94.7639L217.148 94.3777C216.762 94.2881 216.375 94.1846 216.003 94.0605L215.768 94.3708L213.906 93.564L213.975 93.1847C213.624 92.9916 213.286 92.7916 212.962 92.564L212.651 92.7985L211.072 91.5158L211.238 91.1641C210.955 90.8883 210.686 90.5986 210.431 90.2952L210.065 90.44L208.893 88.778L209.148 88.4815C208.948 88.1436 208.769 87.7918 208.603 87.4263L208.217 87.4677L207.534 85.5506L207.859 85.3368C207.762 84.9575 207.679 84.5644 207.617 84.1713L207.245 84.1092Z" fill="#232C33"/>
<g opacity="0.4">
<path d="M224.384 86.6845C226.843 84.2256 226.843 80.2391 224.384 77.7803C221.925 75.3215 217.939 75.3215 215.48 77.7803C213.021 80.2391 213.021 84.2256 215.48 86.6845C217.939 89.1433 221.925 89.1433 224.384 86.6845Z" fill="#14191E"/>
</g>
<path d="M219.941 87.9711C223.109 87.9711 225.678 85.4022 225.678 82.2334C225.678 79.0645 223.109 76.4957 219.941 76.4957C216.772 76.4957 214.203 79.0645 214.203 82.2334C214.203 85.4022 216.772 87.9711 219.941 87.9711Z" fill="black"/>
<path d="M216.775 82.2335C216.775 83.9851 218.196 85.3988 219.94 85.3988C221.685 85.3988 223.106 83.9782 223.106 82.2335C223.106 80.4818 221.685 79.0681 219.94 79.0681C218.196 79.0681 216.775 80.4818 216.775 82.2335Z" fill="#31393F"/>
<g opacity="0.2">
<path d="M215.699 78.3716C215.548 78.8819 215.472 79.4198 215.472 79.9784C215.472 83.1506 218.044 85.7161 221.209 85.7161C222.892 85.7161 224.402 84.9919 225.451 83.8403C224.754 86.2263 222.554 87.9712 219.941 87.9712C216.768 87.9712 214.203 85.4057 214.203 82.2335C214.203 80.7439 214.768 79.3922 215.699 78.3716Z" fill="#14191E"/>
</g>
<g opacity="0.2">
<path d="M232.243 85.4884L232.34 85.5505L232.167 86.0401L232.126 86.0125C232.167 85.8401 232.202 85.6677 232.243 85.4884Z" fill="#14191E"/>
<path d="M232.478 81.9851L232.774 82.0817L232.733 82.7092L232.505 82.6402C232.498 82.4195 232.491 82.2058 232.478 81.9851Z" fill="#14191E"/>
<path d="M208.513 78.1715C208.362 78.537 208.231 78.9094 208.113 79.2887L207.727 79.3025L207.431 80.7231L207.21 80.6197L207.624 78.6266L208.01 78.6128C208.079 78.3853 208.155 78.1577 208.237 77.9301L208.513 78.1715Z" fill="#14191E"/>
<path d="M229.781 74.5786L228.699 73.42L228.361 73.6131C228.064 73.3511 227.761 73.1028 227.444 72.8614L227.561 72.489L225.823 71.4339L225.547 71.7097C225.195 71.5373 224.83 71.3788 224.457 71.2339L224.471 70.8477L222.513 70.2961L222.32 70.634C221.933 70.565 221.54 70.5099 221.147 70.4754L221.058 70.096H219.023L218.934 70.4754C218.534 70.5099 218.147 70.565 217.761 70.634L217.568 70.2961L215.61 70.8477L215.623 71.2339C215.251 71.3719 214.886 71.5304 214.534 71.7097L214.258 71.4339L212.52 72.489L212.637 72.8614C212.32 73.0959 212.01 73.3442 211.72 73.6131L211.382 73.42L209.996 74.9027L210.21 75.2268C209.968 75.5371 209.741 75.8613 209.527 76.1923L209.148 76.0957L208.313 77.7095C208.341 77.6337 208.369 77.5577 208.403 77.4819L208.113 77.2267L209.051 75.4199L209.431 75.5165C209.644 75.1855 209.872 74.8613 210.113 74.551L209.9 74.2269L211.286 72.7442L211.624 72.9373C211.92 72.6752 212.224 72.427 212.541 72.1856L212.424 71.8132L214.161 70.7581L214.437 71.0339C214.789 70.8615 215.154 70.7029 215.527 70.5581L215.513 70.1719L217.472 69.6202L217.665 69.9582C218.051 69.8892 218.444 69.834 218.837 69.7995L218.927 69.4202H220.961L221.051 69.7995C221.451 69.834 221.837 69.8892 222.223 69.9582L222.416 69.6202L224.375 70.1719L224.361 70.5581C224.733 70.696 225.099 70.8546 225.451 71.0339L225.726 70.7581L227.464 71.8132L227.347 72.1856C227.664 72.4201 227.975 72.6683 228.264 72.9373L228.602 72.7442L229.988 74.2269L229.774 74.551C229.774 74.5648 229.781 74.5717 229.781 74.5786Z" fill="#14191E"/>
<path d="M209.265 89.1504L209.217 89.2124L208.906 88.771L209.003 88.6608C209.079 88.8263 209.168 88.9918 209.265 89.1504Z" fill="#14191E"/>
<path d="M207.479 81.9644C207.486 81.7713 207.493 81.5782 207.506 81.3851L207.665 81.461C207.624 81.8472 207.596 82.2471 207.589 82.6402L207.217 82.7575L207.313 84.1229L207.251 84.116L207.113 82.0886L207.479 81.9644Z" fill="#14191E"/>
<path d="M207.975 86.0125L207.762 86.1504L207.548 85.5436L207.83 85.3574C207.872 85.5849 207.92 85.7987 207.975 86.0125Z" fill="#14191E"/>
<path d="M230.94 76.1096L230.56 76.2061C230.347 75.8751 230.119 75.551 229.878 75.2406L230.064 74.9579C230.202 75.1441 230.333 75.3372 230.457 75.5303L230.836 75.4337L231.774 77.2406L231.609 77.3854L230.94 76.1096Z" fill="#14191E"/>
<path d="M232.367 79.3025L231.981 79.2887C231.864 78.9094 231.733 78.537 231.581 78.1715L231.698 78.075C231.76 78.2543 231.823 78.4336 231.878 78.6198L232.264 78.6336L232.678 80.6266L232.643 80.6404L232.367 79.3025Z" fill="#14191E"/>
</g>
<g opacity="0.4">
<path d="M229.954 90.226L229.809 90.4329L229.54 90.3226C229.678 90.295 229.816 90.2605 229.954 90.226Z" fill="#14191E"/>
<path d="M207.245 84.1091L207.107 82.0817L207.479 81.9644C207.486 81.5644 207.514 81.1714 207.555 80.7852L207.203 80.6197L207.617 78.6267L208.003 78.6129C208.12 78.2336 208.251 77.8612 208.403 77.4957L208.114 77.2405L209.051 75.4337L209.431 75.5303C209.645 75.1992 209.872 74.8751 210.113 74.5648L209.9 74.2407L211.286 72.758L211.624 72.9511C211.92 72.689 212.224 72.4408 212.541 72.1994L212.424 71.827L213.079 71.4269C211.651 73.3648 210.831 75.6475 210.831 78.0956C210.831 85.0746 217.52 90.7364 225.782 90.7364C227.023 90.7364 228.23 90.6054 229.382 90.3641C229.147 90.6399 228.899 90.9089 228.637 91.1572L228.802 91.5089L227.223 92.7916L226.913 92.557C226.589 92.7777 226.244 92.9846 225.899 93.1777L225.968 93.557L224.106 94.3638L223.871 94.0535C223.499 94.1777 223.12 94.2811 222.727 94.3707L222.685 94.757L220.672 95.0328L220.527 94.6673C220.327 94.6742 220.134 94.6811 219.934 94.6811C219.734 94.6811 219.541 94.6742 219.341 94.6673L219.196 95.0328L217.182 94.757L217.141 94.3707C216.755 94.2811 216.368 94.1777 215.996 94.0535L215.761 94.3638L213.899 93.557L213.968 93.1777C213.617 92.9846 213.279 92.7846 212.955 92.557L212.644 92.7916L211.065 91.5089L211.231 91.1572C210.948 90.8813 210.679 90.5917 210.424 90.2882L210.058 90.433L208.886 88.771L209.141 88.4745C208.941 88.1366 208.762 87.7849 208.596 87.4194L208.21 87.4607L207.527 85.5436L207.851 85.3298C207.755 84.9505 207.672 84.5574 207.61 84.1644L207.245 84.1091Z" fill="#14191E"/>
</g>
<path d="M219.941 79.9301C220.07 79.9301 220.175 79.8251 220.175 79.6957C220.175 79.5662 220.07 79.4611 219.941 79.4611C219.811 79.4611 219.706 79.5662 219.706 79.6957C219.706 79.8251 219.811 79.9301 219.941 79.9301Z" fill="#22272B"/>
<g opacity="0.5">
<path d="M219.754 79.5645C219.754 79.5714 219.754 79.5852 219.754 79.5921C219.754 79.7232 219.858 79.8266 219.989 79.8266C220.065 79.8266 220.134 79.7852 220.175 79.73C220.161 79.8473 220.065 79.9369 219.947 79.9369C219.816 79.9369 219.713 79.8334 219.713 79.7024C219.706 79.6472 219.727 79.6059 219.754 79.5645Z" fill="#22272B"/>
</g>
<path d="M220.761 79.8266C220.706 79.9439 220.761 80.0818 220.878 80.1301C220.996 80.1853 221.134 80.1301 221.182 80.0129C221.237 79.8956 221.182 79.7576 221.065 79.7094C220.947 79.6542 220.809 79.7094 220.761 79.8266Z" fill="#22272B"/>
<g opacity="0.5">
<path d="M220.851 79.7161C220.844 79.723 220.844 79.7299 220.837 79.7437C220.782 79.8609 220.837 79.9988 220.954 80.0471C221.023 80.0816 221.106 80.0747 221.168 80.0333C221.106 80.1299 220.982 80.1713 220.878 80.123C220.761 80.0678 220.706 79.9368 220.761 79.8195C220.782 79.7781 220.816 79.7436 220.851 79.7161Z" fill="#22272B"/>
</g>
<path d="M221.671 80.3646C221.575 80.4473 221.568 80.599 221.658 80.6887C221.74 80.7852 221.892 80.7921 221.982 80.7025C222.071 80.6128 222.085 80.468 221.996 80.3784C221.913 80.2887 221.761 80.2818 221.671 80.3646Z" fill="#22272B"/>
<g opacity="0.5">
<path d="M221.796 80.3093C221.789 80.3162 221.782 80.3162 221.775 80.3231C221.678 80.4059 221.671 80.5577 221.761 80.6473C221.816 80.7025 221.892 80.7301 221.961 80.7232C221.864 80.7921 221.733 80.7783 221.658 80.6887C221.575 80.5921 221.582 80.4473 221.671 80.3645C221.706 80.3301 221.747 80.3162 221.796 80.3093Z" fill="#22272B"/>
</g>
<path d="M222.279 81.2267C222.155 81.2681 222.093 81.3991 222.127 81.5163C222.168 81.6404 222.299 81.7026 222.417 81.6681C222.541 81.6267 222.603 81.4957 222.568 81.3784C222.534 81.2543 222.403 81.1922 222.279 81.2267Z" fill="#22272B"/>
<g opacity="0.5">
<path d="M222.416 81.2267C222.41 81.2267 222.396 81.2267 222.389 81.2336C222.265 81.2749 222.203 81.4059 222.237 81.5231C222.265 81.599 222.32 81.6542 222.389 81.6749C222.278 81.6956 222.161 81.6335 222.127 81.5231C222.085 81.399 222.154 81.268 222.278 81.2336C222.327 81.2129 222.375 81.2129 222.416 81.2267Z" fill="#22272B"/>
</g>
<path d="M222.485 82.2679C222.361 82.2541 222.243 82.3437 222.23 82.4748C222.216 82.5989 222.306 82.7161 222.437 82.7299C222.561 82.7437 222.678 82.6541 222.692 82.5231C222.705 82.3921 222.609 82.2817 222.485 82.2679Z" fill="#22272B"/>
<g opacity="0.5">
<path d="M222.616 82.3231C222.609 82.3231 222.595 82.3162 222.588 82.3162C222.464 82.3024 222.347 82.3921 222.333 82.5231C222.326 82.599 222.354 82.6748 222.409 82.7231C222.299 82.6955 222.216 82.592 222.23 82.4748C222.244 82.3507 222.354 82.2542 222.485 82.268C222.533 82.2749 222.581 82.2955 222.616 82.3231Z" fill="#22272B"/>
</g>
<path d="M222.251 83.3024C222.141 83.2403 221.996 83.2748 221.934 83.3851C221.872 83.4955 221.906 83.6403 222.016 83.7023C222.127 83.7644 222.272 83.7299 222.334 83.6196C222.403 83.5023 222.361 83.3644 222.251 83.3024Z" fill="#22272B"/>
<g opacity="0.5">
<path d="M222.347 83.4058C222.34 83.3989 222.333 83.392 222.327 83.392C222.216 83.3299 222.071 83.3644 222.009 83.4747C221.968 83.5437 221.968 83.6195 222.002 83.6885C221.913 83.6195 221.878 83.4885 221.94 83.3851C222.002 83.2747 222.147 83.2334 222.258 83.3023C222.292 83.323 222.327 83.3575 222.347 83.4058Z" fill="#22272B"/>
</g>
<path d="M221.616 84.1436C221.54 84.0401 221.396 84.0195 221.292 84.0953C221.189 84.1712 221.168 84.316 221.244 84.4194C221.32 84.5229 221.465 84.5435 221.568 84.4677C221.671 84.3987 221.692 84.247 221.616 84.1436Z" fill="#22272B"/>
<g opacity="0.5">
<path d="M221.665 84.2814C221.658 84.2746 221.658 84.2677 221.651 84.2539C221.575 84.1505 221.43 84.1297 221.327 84.2056C221.265 84.2539 221.23 84.3229 221.23 84.3987C221.175 84.2953 221.203 84.1711 221.292 84.1021C221.396 84.0263 221.541 84.047 221.616 84.1505C221.644 84.1849 221.665 84.2332 221.665 84.2814Z" fill="#22272B"/>
</g>
<path d="M220.692 84.6609C220.665 84.5367 220.54 84.454 220.416 84.4816C220.292 84.5092 220.209 84.6333 220.237 84.7574C220.265 84.8816 220.389 84.9643 220.513 84.9367C220.644 84.9092 220.72 84.7919 220.692 84.6609Z" fill="#22272B"/>
<g opacity="0.5">
<path d="M220.678 84.8056C220.678 84.7987 220.678 84.785 220.678 84.7781C220.651 84.6539 220.527 84.5712 220.402 84.5988C220.327 84.6126 220.264 84.6677 220.237 84.7367C220.23 84.6194 220.306 84.516 220.416 84.4884C220.54 84.4608 220.664 84.5436 220.692 84.6677C220.706 84.7091 220.699 84.7573 220.678 84.8056Z" fill="#22272B"/>
</g>
<path d="M219.644 84.7573C219.671 84.6332 219.588 84.509 219.464 84.4815C219.34 84.4539 219.216 84.5366 219.189 84.6608C219.161 84.7849 219.244 84.909 219.368 84.9366C219.492 84.9642 219.616 84.8883 219.644 84.7573Z" fill="#22272B"/>
<g opacity="0.5">
<path d="M219.568 84.8814C219.568 84.8745 219.575 84.8608 219.575 84.8539C219.602 84.7298 219.52 84.6056 219.395 84.578C219.32 84.5643 219.244 84.5849 219.189 84.6332C219.223 84.5228 219.34 84.4539 219.458 84.4815C219.582 84.5091 219.664 84.6332 219.637 84.7574C219.63 84.8056 219.602 84.847 219.568 84.8814Z" fill="#22272B"/>
</g>
<path d="M218.637 84.4194C218.713 84.316 218.692 84.1712 218.589 84.0953C218.485 84.0195 218.34 84.0401 218.264 84.1436C218.189 84.247 218.209 84.3918 218.313 84.4677C218.416 84.5435 218.561 84.5229 218.637 84.4194Z" fill="#22272B"/>
<g opacity="0.5">
<path d="M218.527 84.5022C218.534 84.4953 218.541 84.4884 218.547 84.4815C218.623 84.3781 218.603 84.2333 218.499 84.1574C218.437 84.1092 218.354 84.1022 218.285 84.1229C218.361 84.0402 218.492 84.0264 218.589 84.0954C218.692 84.1712 218.713 84.316 218.637 84.4195C218.61 84.4609 218.568 84.4884 218.527 84.5022Z" fill="#22272B"/>
</g>
<path d="M217.865 83.7022C217.975 83.6402 218.016 83.4954 217.948 83.385C217.885 83.2747 217.741 83.2333 217.63 83.3023C217.52 83.3643 217.479 83.5091 217.548 83.6195C217.61 83.7298 217.754 83.7643 217.865 83.7022Z" fill="#22272B"/>
<g opacity="0.5">
<path d="M217.727 83.73C217.734 83.7231 217.747 83.7231 217.754 83.7162C217.865 83.6541 217.906 83.5093 217.837 83.399C217.796 83.33 217.727 83.2886 217.658 83.2817C217.761 83.2335 217.892 83.2748 217.947 83.3783C218.009 83.4886 217.975 83.6334 217.865 83.6955C217.816 83.7231 217.768 83.7369 217.727 83.73Z" fill="#22272B"/>
</g>
<path d="M217.444 82.7299C217.568 82.7161 217.665 82.6058 217.651 82.4748C217.637 82.3437 217.527 82.2541 217.396 82.2679C217.265 82.2817 217.175 82.3921 217.189 82.5231C217.203 82.6541 217.32 82.7437 217.444 82.7299Z" fill="#22272B"/>
<g opacity="0.5">
<path d="M217.306 82.7024C217.313 82.7024 217.327 82.7024 217.334 82.7024C217.458 82.6886 217.554 82.5783 217.541 82.4473C217.534 82.3714 217.485 82.3024 217.423 82.2679C217.541 82.2679 217.637 82.3575 217.651 82.4748C217.665 82.5989 217.575 82.7161 217.444 82.7299C217.396 82.7368 217.348 82.7231 217.306 82.7024Z" fill="#22272B"/>
</g>
<path d="M217.458 81.6679C217.582 81.7093 217.713 81.6402 217.748 81.5161C217.789 81.392 217.72 81.261 217.596 81.2265C217.472 81.1851 217.341 81.2541 217.306 81.3782C217.272 81.5023 217.341 81.6334 217.458 81.6679Z" fill="#22272B"/>
<g opacity="0.5">
<path d="M217.347 81.5921C217.354 81.599 217.361 81.5989 217.375 81.6058C217.499 81.6472 217.63 81.5782 217.665 81.4541C217.692 81.3782 217.672 81.3024 217.63 81.2404C217.734 81.2886 217.789 81.4058 217.754 81.523C217.713 81.6472 217.582 81.7093 217.465 81.6748C217.41 81.6541 217.375 81.6266 217.347 81.5921Z" fill="#22272B"/>
</g>
<path d="M217.899 80.7094C217.995 80.7921 218.14 80.7852 218.223 80.6956C218.306 80.599 218.299 80.4542 218.209 80.3715C218.12 80.2887 217.968 80.2956 217.885 80.3853C217.802 80.4749 217.809 80.6266 217.899 80.7094Z" fill="#22272B"/>
<g opacity="0.5">
<path d="M217.83 80.5922C217.837 80.5991 217.844 80.606 217.851 80.6129C217.948 80.6957 218.092 80.6888 218.175 80.5991C218.23 80.544 218.244 80.4612 218.23 80.3922C218.306 80.4819 218.306 80.6129 218.23 80.6957C218.148 80.7922 217.996 80.7991 217.899 80.7095C217.865 80.675 217.844 80.6336 217.83 80.5922Z" fill="#22272B"/>
</g>
<path d="M218.699 80.0129C218.755 80.1301 218.886 80.1853 219.003 80.1301C219.12 80.0749 219.175 79.9439 219.12 79.8266C219.065 79.7094 218.934 79.6542 218.817 79.7094C218.699 79.7645 218.644 79.8956 218.699 80.0129Z" fill="#22272B"/>
<g opacity="0.5">
<path d="M218.685 79.8748C218.685 79.8817 218.692 79.8955 218.692 79.9024C218.747 80.0197 218.878 80.0749 218.996 80.0197C219.065 79.9852 219.113 79.9231 219.127 79.8542C219.161 79.9645 219.106 80.0886 219.003 80.1369C218.885 80.192 218.747 80.1369 218.699 80.0197C218.678 79.9645 218.671 79.9162 218.685 79.8748Z" fill="#22272B"/>
</g>
<path d="M129.696 76.206H55.1068V84.0884H129.696V76.206Z" fill="#FAA701"/>
<g opacity="0.29">
<path d="M241.071 41.5455V48.428C241.071 57.4413 233.761 64.7514 224.747 64.7514H55.6584V70.0615H246.905V41.5455H241.071Z" fill="#FAA701"/>
</g>
<g opacity="0.29">
<path d="M246.905 41.5455H55.6584V44.3109H246.905V41.5455Z" fill="#FAA701"/>
</g>
<path d="M114.077 39.4215H107.746V70.0614H114.077V39.4215Z" fill="#FAA701"/>
<path d="M58.8238 33.0149H55.6584V70.0615H58.8238V33.0149Z" fill="#FAA701"/>
<path d="M187.466 39.4215H181.135V70.0614H187.466V39.4215Z" fill="#FAA701"/>
<path d="M246.898 39.4215H240.567V70.0614H246.898V39.4215Z" fill="#FAA701"/>
<path d="M63.5132 74.5302H59.0237C58.7754 74.5302 58.5754 74.3302 58.5754 74.082V73.8612C58.5754 73.613 58.7754 73.413 59.0237 73.413H63.5132C63.7614 73.413 63.9614 73.613 63.9614 73.8612V74.082C63.9614 74.3302 63.7614 74.5302 63.5132 74.5302Z" fill="black"/>
<path d="M127.559 74.5302H123.069C122.821 74.5302 122.621 74.3302 122.621 74.082V73.8612C122.621 73.613 122.821 73.413 123.069 73.413H127.559C127.807 73.413 128.007 73.613 128.007 73.8612V74.082C128.007 74.3302 127.807 74.5302 127.559 74.5302Z" fill="black"/>
<path d="M177.729 74.5302H173.239C172.991 74.5302 172.791 74.3302 172.791 74.082V73.8612C172.791 73.613 172.991 73.413 173.239 73.413H177.729C177.977 73.413 178.177 73.613 178.177 73.8612V74.082C178.177 74.3302 177.977 74.5302 177.729 74.5302Z" fill="black"/>
<g opacity="0.3">
<path d="M56.8929 33.0149H55.6584V70.0615H56.8929V33.0149Z" fill="#2F749B"/>
</g>
<g opacity="0.3">
<path d="M109.739 39.4215H107.746V70.0614H109.739V39.4215Z" fill="#2F749B"/>
</g>
<g opacity="0.3">
<path d="M183.121 39.4215H181.128V70.0614H183.121V39.4215Z" fill="#FAA701"/>
</g>
<g opacity="0.3">
<path d="M242.56 39.4215H240.567V70.0614H242.56V39.4215Z" fill="#FAA701"/>
</g>
</svg>
