<svg width="251" height="120" viewBox="0 0 251 120" fill="none" xmlns="http://www.w3.org/2000/svg">
<path d="M0 79.3226V81.6147C0 82.3976 0.652228 83.0296 1.46021 83.0296H27.0528V79.3226H0Z" fill="#27292B"/>
<path d="M166.765 72.9274H47.1449V80.398H166.765V72.9274Z" fill="#1A1A31"/>
<path d="M250.883 69.2487L250.504 74.5592L245.627 79.8603H48.9363V69.6732H225.719L250.883 69.2487Z" fill="#27292B"/>
<path d="M4.02045 71.0127L0.661896 74.7763C0.233567 75.2573 0 75.8611 0 76.4836V79.3228H56.0623V64.7683H2.76463L4.02045 71.0127Z" fill="#27292B"/>
<path d="M179.654 82.2939L179.528 80.4923L179.868 80.3885C179.878 80.0301 179.898 79.6811 179.936 79.3415L179.615 79.1906L179.995 77.4267L180.345 77.4173C180.452 77.0777 180.569 76.7475 180.706 76.4268L180.433 76.2004L181.29 74.5969L181.64 74.6818C181.835 74.3894 182.049 74.097 182.263 73.8235L182.068 73.531L183.344 72.2105L183.655 72.3803C183.928 72.1445 184.21 71.9275 184.502 71.7105L184.395 71.3804L185.991 70.4466L186.245 70.6918C186.566 70.5409 186.907 70.3995 187.247 70.2674L187.238 69.9278L189.029 69.4373L189.204 69.7391C189.554 69.6731 189.915 69.6259 190.285 69.5976L190.372 69.2581H192.231L192.319 69.5976C192.679 69.6259 193.039 69.6731 193.4 69.7391L193.575 69.4373L195.366 69.9278L195.356 70.2674C195.697 70.39 196.028 70.5315 196.359 70.6918L196.612 70.4466L198.209 71.3804L198.102 71.7105C198.394 71.918 198.676 72.1445 198.948 72.3803L199.26 72.2105L200.535 73.531L200.34 73.8235C200.564 74.097 200.769 74.3894 200.963 74.6818L201.314 74.5969L202.171 76.2004L201.898 76.4268C202.034 76.7475 202.161 77.0777 202.258 77.4173L202.609 77.4267L202.988 79.1906L202.667 79.3415C202.706 79.6905 202.735 80.0395 202.735 80.3885L203.076 80.4923L202.949 82.2939L202.599 82.3505C202.541 82.6995 202.472 83.0485 202.375 83.388L202.667 83.5768L202.044 85.2745L201.694 85.2369C201.538 85.5576 201.372 85.8689 201.197 86.1707L201.431 86.4349L200.36 87.9063L200.029 87.7742C199.795 88.0383 199.552 88.3025 199.289 88.5477L199.445 88.859L197.994 90.0003L197.712 89.7928C197.41 89.9909 197.099 90.17 196.778 90.3398L196.836 90.6795L195.123 91.3964L194.909 91.1228C194.568 91.236 194.217 91.3303 193.857 91.4057L193.818 91.7547L191.969 92L191.842 91.6793C191.657 91.6887 191.482 91.6887 191.297 91.6887C191.112 91.6887 190.937 91.6793 190.752 91.6793L190.625 92L188.776 91.7547L188.737 91.4057C188.377 91.3303 188.036 91.236 187.685 91.1228L187.471 91.3964L185.758 90.6795L185.816 90.3398C185.495 90.17 185.183 89.9909 184.882 89.7928L184.599 90.0003L183.149 88.859L183.305 88.5477C183.042 88.3025 182.798 88.0477 182.565 87.7742L182.234 87.9063L181.163 86.4349L181.397 86.1707C181.212 85.8689 181.046 85.5576 180.9 85.2369L180.55 85.2745L179.927 83.5768L180.219 83.388C180.131 83.0485 180.053 82.7089 179.995 82.3505L179.654 82.2939Z" fill="#232C33"/>
<g opacity="0.4">
<path d="M191.297 86.2178C194.485 86.2178 197.069 83.7135 197.069 80.6243C197.069 77.5351 194.485 75.0308 191.297 75.0308C188.108 75.0308 185.524 77.5351 185.524 80.6243C185.524 83.7135 188.108 86.2178 191.297 86.2178Z" fill="#14191E"/>
</g>
<path d="M186.041 80.6243C186.041 83.4352 188.396 85.7179 191.297 85.7179C194.198 85.7179 196.554 83.4352 196.554 80.6243C196.554 77.8134 194.198 75.5307 191.297 75.5307C188.396 75.5212 186.041 77.8039 186.041 80.6243Z" fill="black"/>
<path d="M191.297 83.4351C192.899 83.4351 194.198 82.1767 194.198 80.6242C194.198 79.0718 192.899 77.8134 191.297 77.8134C189.695 77.8134 188.396 79.0718 188.396 80.6242C188.396 82.1767 189.695 83.4351 191.297 83.4351Z" fill="#31393F"/>
<g opacity="0.2">
<path d="M187.403 77.1909C187.267 77.6437 187.189 78.1248 187.189 78.6152C187.189 81.4262 189.545 83.7089 192.446 83.7089C193.984 83.7089 195.376 83.0674 196.34 82.0393C195.707 84.1616 193.682 85.7086 191.287 85.7086C188.386 85.7086 186.031 83.4259 186.031 80.6149C186.04 79.3038 186.556 78.0964 187.403 77.1909Z" fill="#14191E"/>
</g>
<g opacity="0.2">
<path d="M202.579 83.5107L202.667 83.5674L202.511 84.0013L202.472 83.9729C202.501 83.8314 202.54 83.6711 202.579 83.5107Z" fill="#14191E"/>
<path d="M202.793 80.4073L203.066 80.4922L203.027 81.0487L202.823 80.9827C202.813 80.7846 202.803 80.596 202.793 80.4073Z" fill="#14191E"/>
<path d="M180.822 77.0118C180.686 77.3325 180.559 77.6626 180.452 78.0022L180.102 78.0116L179.829 79.2755L179.625 79.1812L180.004 77.4173L180.355 77.4079C180.423 77.2004 180.491 77.0023 180.569 76.8042L180.822 77.0118Z" fill="#14191E"/>
<path d="M200.321 73.8235L199.328 72.7953L199.016 72.9652C198.744 72.7293 198.461 72.5124 198.169 72.2955L198.277 71.9652L196.68 71.0314L196.427 71.2767C196.106 71.1258 195.765 70.9843 195.424 70.8523L195.434 70.5127L193.643 70.0222L193.468 70.324C193.117 70.258 192.757 70.2108 192.387 70.1825L192.299 69.8429H190.44L190.352 70.1825C189.992 70.2108 189.632 70.258 189.272 70.324L189.097 70.0222L187.305 70.5127L187.315 70.8523C186.974 70.9749 186.644 71.1163 186.313 71.2767L186.059 71.0314L184.463 71.9652L184.57 72.2955C184.278 72.503 183.996 72.7293 183.723 72.9652L183.412 72.7953L182.136 74.1159L182.331 74.4084C182.107 74.6819 181.903 74.9742 181.708 75.2666L181.358 75.1818L180.589 76.6156C180.618 76.5495 180.637 76.4835 180.666 76.4175L180.394 76.191L181.25 74.5875L181.601 74.6724C181.796 74.38 182.01 74.0877 182.224 73.8141L182.029 73.5216L183.304 72.2011L183.616 72.3709C183.889 72.1351 184.171 71.9182 184.463 71.7012L184.356 71.371L185.952 70.4372L186.205 70.6824C186.527 70.5315 186.867 70.3901 187.208 70.258L187.198 69.9184L188.99 69.4279L189.165 69.7297C189.515 69.6637 189.875 69.6165 190.245 69.5882L190.333 69.2487H192.192L192.28 69.5882C192.64 69.6165 193 69.6637 193.361 69.7297L193.536 69.4279L195.327 69.9184L195.317 70.258C195.658 70.3806 195.989 70.5221 196.32 70.6824L196.573 70.4372L198.169 71.371L198.062 71.7012C198.354 71.9087 198.637 72.1351 198.909 72.3709L199.221 72.2011L200.496 73.5216L200.301 73.8141C200.311 73.8141 200.321 73.8141 200.321 73.8235Z" fill="#14191E"/>
<path d="M181.503 86.7745L181.454 86.831L181.172 86.4444L181.26 86.35C181.338 86.482 181.425 86.6236 181.503 86.7745Z" fill="#14191E"/>
<path d="M179.877 80.3886C179.877 80.2188 179.887 80.0395 179.897 79.8698L180.043 79.9358C180.004 80.2848 179.975 80.6338 179.975 80.9828L179.634 81.0866L179.722 82.294L179.663 82.2845L179.537 80.4829L179.877 80.3886Z" fill="#14191E"/>
<path d="M180.326 83.9822L180.131 84.1049L179.936 83.5673L180.199 83.4069C180.228 83.5955 180.277 83.7936 180.326 83.9822Z" fill="#14191E"/>
<path d="M201.382 75.1818L201.031 75.2667C200.836 74.9743 200.622 74.6819 200.408 74.4084L200.583 74.1537C200.71 74.3235 200.827 74.4932 200.943 74.663L201.294 74.5781L202.151 76.1817L201.995 76.3137L201.382 75.1818Z" fill="#14191E"/>
<path d="M202.686 78.0209L202.336 78.0115C202.228 77.6719 202.112 77.3417 201.975 77.021L202.082 76.9362C202.141 77.0965 202.199 77.2569 202.248 77.4172L202.598 77.4267L202.978 79.1906L202.949 79.2L202.686 78.0209Z" fill="#14191E"/>
</g>
<g opacity="0.4">
<path d="M200.477 87.7271L200.34 87.9062L200.097 87.8119C200.224 87.7836 200.35 87.7553 200.477 87.7271Z" fill="#14191E"/>
<path d="M179.654 82.294L179.527 80.4923L179.868 80.3886C179.878 80.0301 179.897 79.6811 179.936 79.3416L179.615 79.1906L179.995 77.4267L180.345 77.4173C180.452 77.0777 180.569 76.7475 180.705 76.4268L180.433 76.2004L181.29 74.597L181.64 74.6818C181.835 74.3894 182.049 74.0971 182.263 73.8235L182.068 73.5311L183.344 72.2105L183.655 72.3803C183.928 72.1445 184.21 71.9275 184.502 71.7105L184.395 71.3804L184.998 71.022C183.694 72.7387 182.935 74.7762 182.935 76.9457C182.935 83.1429 189.068 88.1704 196.641 88.1704C197.78 88.1704 198.89 88.0573 199.941 87.8403C199.727 88.0856 199.493 88.3214 199.26 88.5478L199.416 88.859L197.965 90.0003L197.683 89.7928C197.381 89.9909 197.07 90.1701 196.748 90.3399L196.807 90.6795L195.093 91.3964L194.879 91.1228C194.538 91.236 194.188 91.3303 193.828 91.4057L193.789 91.7547L191.939 92L191.813 91.6793C191.628 91.6888 191.453 91.6888 191.268 91.6888C191.083 91.6888 190.907 91.6793 190.722 91.6793L190.596 92L188.746 91.7547L188.707 91.4057C188.347 91.3303 188.006 91.236 187.656 91.1228L187.442 91.3964L185.728 90.6795L185.787 90.3399C185.466 90.1701 185.154 89.9909 184.852 89.7928L184.57 90.0003L183.12 88.859L183.275 88.5478C183.012 88.3025 182.769 88.0478 182.536 87.7742L182.205 87.9063L181.134 86.4349L181.367 86.1707C181.182 85.8689 181.017 85.5576 180.871 85.2369L180.52 85.2746L179.897 83.5768L180.189 83.3881C180.102 83.0485 180.024 82.7089 179.966 82.3505L179.654 82.294Z" fill="#14191E"/>
</g>
<path d="M191.082 78.37C191.082 78.4832 191.18 78.5775 191.296 78.5775C191.413 78.5775 191.511 78.4832 191.511 78.37C191.511 78.2568 191.413 78.1625 191.296 78.1625C191.18 78.1625 191.082 78.2568 191.082 78.37Z" fill="#22272B"/>
<g opacity="0.5">
<path d="M191.121 78.2568C191.121 78.2662 191.121 78.2757 191.121 78.2851C191.121 78.3983 191.218 78.4926 191.335 78.4926C191.403 78.4926 191.471 78.4549 191.51 78.4077C191.501 78.5115 191.413 78.5869 191.296 78.5869C191.179 78.5869 191.082 78.4926 191.082 78.3794C191.082 78.3228 191.101 78.2851 191.121 78.2568Z" fill="#22272B"/>
</g>
<path d="M192.047 78.4832C191.998 78.5869 192.047 78.7096 192.154 78.7567C192.261 78.8039 192.388 78.7568 192.436 78.653C192.485 78.5492 192.436 78.4266 192.329 78.3794C192.222 78.3322 192.095 78.3794 192.047 78.4832Z" fill="#22272B"/>
<g opacity="0.5">
<path d="M192.134 78.3892C192.134 78.3986 192.125 78.3986 192.125 78.408C192.076 78.5118 192.125 78.6343 192.232 78.6815C192.3 78.7098 192.368 78.7004 192.426 78.6721C192.368 78.757 192.261 78.7948 192.154 78.757C192.047 78.7099 191.998 78.5872 192.047 78.4835C192.066 78.4457 192.095 78.408 192.134 78.3892Z" fill="#22272B"/>
</g>
<path d="M192.884 78.9644C192.796 79.0398 192.787 79.1718 192.864 79.2567C192.942 79.3416 193.078 79.3511 193.166 79.2756C193.254 79.2001 193.263 79.0681 193.186 78.9833C193.108 78.8984 192.971 78.8889 192.884 78.9644Z" fill="#22272B"/>
<g opacity="0.5">
<path d="M193.001 78.9075C192.991 78.9169 192.991 78.9169 192.981 78.9264C192.894 79.0018 192.884 79.1339 192.962 79.2188C193.011 79.266 193.079 79.2942 193.147 79.2848C193.059 79.3414 192.942 79.3319 192.865 79.2565C192.787 79.1716 192.796 79.0396 192.884 78.9641C192.913 78.9358 192.962 78.9169 193.001 78.9075Z" fill="#22272B"/>
</g>
<path d="M193.439 79.7282C193.332 79.7659 193.264 79.8792 193.303 79.9923C193.341 80.0961 193.458 80.1621 193.575 80.1244C193.682 80.0867 193.75 79.9735 193.711 79.8603C193.672 79.7565 193.556 79.6999 193.439 79.7282Z" fill="#22272B"/>
<g opacity="0.5">
<path d="M193.575 79.7283C193.565 79.7283 193.556 79.7283 193.546 79.7377C193.439 79.7754 193.371 79.8887 193.41 80.0018C193.429 80.0679 193.487 80.1151 193.546 80.1339C193.439 80.1528 193.341 80.0962 193.303 79.9924C193.264 79.8886 193.332 79.766 193.439 79.7283C193.487 79.7188 193.526 79.7188 193.575 79.7283Z" fill="#22272B"/>
</g>
<path d="M193.634 80.6527C193.517 80.6432 193.41 80.7186 193.4 80.8318C193.39 80.945 193.468 81.0488 193.585 81.0582C193.702 81.0676 193.809 80.9922 193.819 80.879C193.828 80.7658 193.75 80.6621 193.634 80.6527Z" fill="#22272B"/>
<g opacity="0.5">
<path d="M193.75 80.6998C193.74 80.6998 193.731 80.6997 193.721 80.6903C193.604 80.6809 193.497 80.7564 193.487 80.8696C193.478 80.9356 193.507 81.0016 193.555 81.0488C193.448 81.0299 193.38 80.9356 193.39 80.8318C193.4 80.7186 193.507 80.6338 193.624 80.6527C193.672 80.6621 193.721 80.6715 193.75 80.6998Z" fill="#22272B"/>
</g>
<path d="M193.419 81.5676C193.322 81.511 193.186 81.5487 193.127 81.643C193.069 81.7374 193.108 81.8695 193.205 81.9261C193.302 81.9827 193.439 81.9449 193.497 81.8505C193.556 81.7562 193.517 81.6242 193.419 81.5676Z" fill="#22272B"/>
<g opacity="0.5">
<path d="M193.507 81.6619C193.497 81.6524 193.497 81.6524 193.488 81.643C193.39 81.5864 193.254 81.6242 193.196 81.7185C193.157 81.7751 193.157 81.8505 193.186 81.9071C193.098 81.8411 193.079 81.7279 193.127 81.643C193.186 81.5486 193.312 81.511 193.419 81.5676C193.458 81.5959 193.487 81.6241 193.507 81.6619Z" fill="#22272B"/>
</g>
<path d="M192.835 82.322C192.767 82.2277 192.631 82.2089 192.534 82.275C192.436 82.341 192.417 82.473 192.485 82.5673C192.553 82.6616 192.689 82.6805 192.787 82.6145C192.884 82.5485 192.904 82.4164 192.835 82.322Z" fill="#22272B"/>
<g opacity="0.5">
<path d="M192.874 82.4448C192.874 82.4353 192.864 82.426 192.864 82.426C192.796 82.3317 192.66 82.3128 192.562 82.3788C192.504 82.4165 192.475 82.4826 192.475 82.5486C192.426 82.4543 192.445 82.3411 192.533 82.2845C192.63 82.2184 192.757 82.2372 192.835 82.3316C192.864 82.3599 192.874 82.3976 192.874 82.4448Z" fill="#22272B"/>
</g>
<path d="M191.988 82.7844C191.959 82.6712 191.852 82.6051 191.735 82.624C191.618 82.6523 191.55 82.7561 191.569 82.8692C191.599 82.9824 191.706 83.0484 191.823 83.0295C191.939 83.0012 192.017 82.8976 191.988 82.7844Z" fill="#22272B"/>
<g opacity="0.5">
<path d="M191.978 82.907C191.978 82.8976 191.978 82.8881 191.978 82.8787C191.949 82.7655 191.842 82.6994 191.725 82.7183C191.657 82.7372 191.598 82.7749 191.569 82.8409C191.559 82.7372 191.627 82.6429 191.735 82.624C191.851 82.5957 191.958 82.6712 191.988 82.7844C191.997 82.8221 191.988 82.8693 191.978 82.907Z" fill="#22272B"/>
</g>
<path d="M191.024 82.8694C191.054 82.7563 190.976 82.6525 190.859 82.6242C190.742 82.5959 190.635 82.6714 190.606 82.7846C190.577 82.8978 190.654 83.0014 190.771 83.0297C190.888 83.0486 190.995 82.9826 191.024 82.8694Z" fill="#22272B"/>
<g opacity="0.5">
<path d="M190.956 82.9732C190.956 82.9638 190.966 82.9543 190.966 82.9449C190.995 82.8317 190.917 82.7279 190.8 82.6996C190.732 82.6808 190.664 82.7091 190.615 82.7468C190.654 82.6525 190.752 82.5865 190.859 82.6148C190.976 82.6431 191.044 82.7468 191.024 82.86C191.015 82.9072 190.985 82.9449 190.956 82.9732Z" fill="#22272B"/>
</g>
<path d="M190.099 82.5673C190.167 82.473 190.148 82.3504 190.05 82.275C189.953 82.2089 189.826 82.2277 189.749 82.322C189.68 82.4164 189.7 82.5391 189.797 82.6145C189.904 82.6805 190.031 82.6616 190.099 82.5673Z" fill="#22272B"/>
<g opacity="0.5">
<path d="M190.002 82.6428C190.012 82.6333 190.012 82.6333 190.022 82.6239C190.09 82.5296 190.071 82.4069 189.973 82.3314C189.915 82.2937 189.847 82.2844 189.779 82.3032C189.847 82.2278 189.973 82.2183 190.061 82.2749C190.158 82.3409 190.178 82.4729 190.11 82.5672C190.08 82.605 190.041 82.6239 190.002 82.6428Z" fill="#22272B"/>
</g>
<path d="M189.389 81.9261C189.486 81.8695 189.525 81.7468 189.467 81.643C189.409 81.5393 189.282 81.511 189.175 81.5676C189.068 81.6242 189.039 81.7468 189.097 81.8505C189.155 81.9543 189.292 81.9826 189.389 81.9261Z" fill="#22272B"/>
<g opacity="0.5">
<path d="M189.262 81.9545C189.272 81.9545 189.282 81.9451 189.282 81.9451C189.379 81.8885 189.418 81.7658 189.36 81.662C189.321 81.6054 189.262 81.5677 189.194 81.5583C189.291 81.5206 189.408 81.5488 189.457 81.6432C189.515 81.7375 189.476 81.8696 189.379 81.9262C189.35 81.945 189.311 81.9545 189.262 81.9545Z" fill="#22272B"/>
</g>
<path d="M189.009 81.0676C189.126 81.0582 189.213 80.9544 189.194 80.8412C189.174 80.728 189.077 80.6432 188.96 80.6621C188.844 80.6809 188.756 80.7752 188.775 80.8884C188.785 80.9922 188.892 81.077 189.009 81.0676Z" fill="#22272B"/>
<g opacity="0.5">
<path d="M188.882 81.0392C188.892 81.0392 188.902 81.0392 188.911 81.0392C189.028 81.0298 189.116 80.9261 189.096 80.8129C189.087 80.7468 189.048 80.6903 188.989 80.6526C189.096 80.6526 189.184 80.728 189.194 80.8318C189.203 80.9449 189.125 81.0487 189.009 81.0581C188.96 81.0676 188.921 81.0581 188.882 81.0392Z" fill="#22272B"/>
</g>
<path d="M189.019 80.1243C189.126 80.1621 189.253 80.096 189.292 79.9923C189.331 79.8885 189.263 79.7659 189.155 79.7281C189.048 79.6904 188.922 79.7564 188.883 79.8602C188.854 79.9734 188.912 80.0866 189.019 80.1243Z" fill="#22272B"/>
<g opacity="0.5">
<path d="M188.921 80.049C188.931 80.049 188.941 80.0585 188.941 80.0585C189.048 80.0962 189.174 80.0301 189.213 79.9264C189.233 79.8604 189.223 79.7943 189.184 79.7377C189.281 79.7848 189.33 79.8886 189.301 79.9829C189.262 80.0867 189.145 80.1527 189.028 80.115C188.98 80.1056 188.941 80.0867 188.921 80.049Z" fill="#22272B"/>
</g>
<path d="M189.427 79.2661C189.515 79.3415 189.651 79.3322 189.729 79.2473C189.807 79.1624 189.797 79.0303 189.71 78.9548C189.622 78.8794 189.486 78.8888 189.408 78.9737C189.33 79.0586 189.34 79.1906 189.427 79.2661Z" fill="#22272B"/>
<g opacity="0.5">
<path d="M189.359 79.1623C189.369 79.1718 189.369 79.1718 189.379 79.1812C189.467 79.2567 189.603 79.2472 189.681 79.1623C189.729 79.1152 189.749 79.0397 189.729 78.9832C189.798 79.0586 189.798 79.1812 189.729 79.2566C189.652 79.3415 189.515 79.351 189.428 79.2755C189.399 79.2378 189.369 79.2 189.359 79.1623Z" fill="#22272B"/>
</g>
<path d="M190.157 78.6529C190.206 78.7566 190.333 78.8038 190.44 78.7566C190.547 78.7095 190.595 78.5868 190.547 78.483C190.498 78.3793 190.372 78.3321 190.264 78.3793C190.157 78.4265 190.109 78.5491 190.157 78.6529Z" fill="#22272B"/>
<g opacity="0.5">
<path d="M190.148 78.5302C190.148 78.5397 190.148 78.549 190.158 78.5584C190.206 78.6622 190.333 78.7095 190.44 78.6623C190.508 78.634 190.547 78.5774 190.567 78.5114C190.596 78.6057 190.547 78.7189 190.45 78.7566C190.343 78.8038 190.216 78.7566 190.167 78.6529C190.138 78.6057 190.138 78.568 190.148 78.5302Z" fill="#22272B"/>
</g>
<path d="M204.536 82.2939L204.41 80.4923L204.751 80.3885C204.76 80.0301 204.78 79.6811 204.819 79.3415L204.497 79.1906L204.877 77.4267L205.228 77.4173C205.335 77.0777 205.451 76.7475 205.588 76.4268L205.315 76.2004L206.172 74.5969L206.522 74.6818C206.717 74.3894 206.931 74.097 207.145 73.8235L206.951 73.531L208.226 72.2105L208.537 72.3803C208.81 72.1445 209.092 71.9275 209.384 71.7105L209.277 71.3804L210.874 70.4466L211.127 70.6918C211.448 70.5409 211.789 70.3995 212.129 70.2674L212.12 69.9278L213.911 69.4373L214.086 69.7391C214.437 69.6731 214.797 69.6259 215.167 69.5976L215.254 69.2581H217.114L217.201 69.5976C217.561 69.6259 217.922 69.6731 218.282 69.7391L218.457 69.4373L220.248 69.9278L220.239 70.2674C220.579 70.39 220.91 70.5315 221.241 70.6918L221.494 70.4466L223.091 71.3804L222.984 71.7105C223.276 71.918 223.558 72.1445 223.831 72.3803L224.142 72.2105L225.417 73.531L225.223 73.8235C225.447 74.097 225.651 74.3894 225.846 74.6818L226.196 74.5969L227.053 76.2004L226.78 76.4268C226.917 76.7475 227.043 77.0777 227.14 77.4173L227.491 77.4267L227.871 79.1906L227.549 79.3415C227.588 79.6905 227.617 80.0395 227.617 80.3885L227.958 80.4923L227.832 82.2939L227.481 82.3505C227.423 82.6995 227.355 83.0485 227.257 83.388L227.549 83.5768L226.926 85.2745L226.576 85.2369C226.42 85.5576 226.255 85.8689 226.079 86.1707L226.313 86.4349L225.242 87.9063L224.911 87.7742C224.678 88.0383 224.424 88.3025 224.171 88.5477L224.327 88.859L222.877 90.0003L222.594 89.7928C222.292 89.9909 221.981 90.17 221.66 90.3398L221.718 90.6795L220.005 91.3964L219.791 91.1228C219.45 91.236 219.1 91.3303 218.739 91.4057L218.7 91.7547L216.851 92L216.724 91.6793C216.539 91.6887 216.364 91.6887 216.179 91.6887C215.994 91.6887 215.819 91.6793 215.634 91.6793L215.507 92L213.658 91.7547L213.619 91.4057C213.259 91.3303 212.918 91.236 212.568 91.1228L212.353 91.3964L210.64 90.6795L210.698 90.3398C210.377 90.17 210.066 89.9909 209.764 89.7928L209.482 90.0003L208.031 88.859L208.187 88.5477C207.924 88.3025 207.681 88.0477 207.447 87.7742L207.116 87.9063L206.045 86.4349L206.279 86.1707C206.094 85.8689 205.929 85.5576 205.782 85.2369L205.432 85.2745L204.809 83.5768L205.101 83.388C205.013 83.0485 204.936 82.7089 204.877 82.3505L204.536 82.2939Z" fill="#232C33"/>
<g opacity="0.4">
<path d="M216.179 86.2178C219.367 86.2178 221.952 83.7135 221.952 80.6243C221.952 77.5351 219.367 75.0308 216.179 75.0308C212.991 75.0308 210.407 77.5351 210.407 80.6243C210.407 83.7135 212.991 86.2178 216.179 86.2178Z" fill="#14191E"/>
</g>
<path d="M210.922 80.6243C210.922 83.4352 213.278 85.7179 216.179 85.7179C219.08 85.7179 221.436 83.4352 221.436 80.6243C221.436 77.8134 219.08 75.5307 216.179 75.5307C213.268 75.5212 210.922 77.8039 210.922 80.6243Z" fill="black"/>
<path d="M213.278 80.6244C213.278 82.1807 214.573 83.4353 216.179 83.4353C217.785 83.4353 219.08 82.1807 219.08 80.6244C219.08 79.068 217.785 77.8135 216.179 77.8135C214.573 77.8135 213.278 79.068 213.278 80.6244Z" fill="#31393F"/>
<g opacity="0.2">
<path d="M212.286 77.1908C212.149 77.6436 212.071 78.1246 212.071 78.6151C212.071 81.426 214.427 83.7087 217.328 83.7087C218.866 83.7087 220.258 83.0673 221.222 82.0392C220.589 84.1615 218.564 85.7084 216.17 85.7084C213.269 85.7084 210.913 83.4257 210.913 80.6148C210.923 79.3037 211.439 78.0963 212.286 77.1908Z" fill="#14191E"/>
</g>
<g opacity="0.2">
<path d="M227.462 83.5106L227.549 83.5673L227.394 84.0011L227.355 83.9728C227.384 83.8313 227.423 83.671 227.462 83.5106Z" fill="#14191E"/>
<path d="M227.676 80.4076L227.948 80.4925L227.909 81.0489L227.705 80.983C227.695 80.7849 227.685 80.5962 227.676 80.4076Z" fill="#14191E"/>
<path d="M205.695 77.0118C205.559 77.3325 205.432 77.6626 205.325 78.0022L204.974 78.0116L204.702 79.2755L204.497 79.1812L204.877 77.4173L205.228 77.4079C205.296 77.2004 205.364 77.0023 205.442 76.8042L205.695 77.0118Z" fill="#14191E"/>
<path d="M225.204 73.8235L224.211 72.7953L223.899 72.9652C223.627 72.7293 223.344 72.5124 223.052 72.2955L223.16 71.9652L221.563 71.0314L221.31 71.2767C220.989 71.1258 220.648 70.9843 220.307 70.8523L220.317 70.5127L218.526 70.0222L218.35 70.324C218 70.258 217.64 70.2108 217.27 70.1825L217.182 69.8429H215.323L215.235 70.1825C214.875 70.2108 214.515 70.258 214.155 70.324L213.98 70.0222L212.188 70.5127L212.198 70.8523C211.857 70.9749 211.526 71.1163 211.195 71.2767L210.942 71.0314L209.346 71.9652L209.453 72.2955C209.161 72.503 208.879 72.7293 208.606 72.9652L208.295 72.7953L207.019 74.1159L207.214 74.4084C206.99 74.6819 206.786 74.9742 206.591 75.2666L206.241 75.1818L205.471 76.6156C205.501 76.5495 205.52 76.4835 205.549 76.4175L205.277 76.191L206.133 74.5875L206.484 74.6724C206.679 74.38 206.893 74.0877 207.107 73.8141L206.912 73.5216L208.187 72.2011L208.499 72.3709C208.772 72.1351 209.054 71.9182 209.346 71.7012L209.239 71.371L210.835 70.4372L211.088 70.6824C211.41 70.5315 211.75 70.3901 212.091 70.258L212.081 69.9184L213.873 69.4279L214.048 69.7297C214.398 69.6637 214.758 69.6165 215.128 69.5882L215.216 69.2487H217.075L217.163 69.5882C217.523 69.6165 217.883 69.6637 218.243 69.7297L218.419 69.4279L220.21 69.9184L220.2 70.258C220.541 70.3806 220.872 70.5221 221.203 70.6824L221.456 70.4372L223.052 71.371L222.945 71.7012C223.237 71.9087 223.52 72.1351 223.792 72.3709L224.104 72.2011L225.379 73.5216L225.184 73.8141C225.194 73.8141 225.204 73.8141 225.204 73.8235Z" fill="#14191E"/>
<path d="M206.386 86.7745L206.337 86.831L206.055 86.4444L206.142 86.35C206.22 86.482 206.308 86.6236 206.386 86.7745Z" fill="#14191E"/>
<path d="M204.751 80.3886C204.751 80.2188 204.76 80.0395 204.77 79.8698L204.916 79.9358C204.877 80.2848 204.848 80.6338 204.848 80.9828L204.507 81.0866L204.595 82.294L204.537 82.2845L204.41 80.4829L204.751 80.3886Z" fill="#14191E"/>
<path d="M205.209 83.9821L205.014 84.1047L204.819 83.5671L205.082 83.4067C205.111 83.5954 205.16 83.7935 205.209 83.9821Z" fill="#14191E"/>
<path d="M226.264 75.1818L225.914 75.2667C225.719 74.9743 225.505 74.6819 225.291 74.4084L225.466 74.1537C225.592 74.3235 225.709 74.4932 225.826 74.663L226.176 74.5781L227.033 76.1817L226.877 76.3137L226.264 75.1818Z" fill="#14191E"/>
<path d="M227.569 78.0209L227.219 78.0115C227.112 77.6719 226.995 77.3417 226.859 77.021L226.966 76.9362C227.024 77.0965 227.083 77.2569 227.131 77.4172L227.482 77.4267L227.862 79.1906L227.832 79.2L227.569 78.0209Z" fill="#14191E"/>
</g>
<g opacity="0.4">
<path d="M225.358 87.7271L225.222 87.9062L224.978 87.8119C225.105 87.7836 225.232 87.7553 225.358 87.7271Z" fill="#14191E"/>
<path d="M204.537 82.294L204.41 80.4923L204.751 80.3886C204.76 80.0301 204.78 79.6811 204.819 79.3416L204.498 79.1906L204.877 77.4267L205.228 77.4173C205.335 77.0777 205.452 76.7475 205.588 76.4268L205.315 76.2004L206.172 74.597L206.522 74.6818C206.717 74.3894 206.931 74.0971 207.145 73.8235L206.951 73.5311L208.226 72.2105L208.538 72.3803C208.81 72.1445 209.092 71.9275 209.384 71.7105L209.277 71.3804L209.881 71.022C208.576 72.7387 207.817 74.7762 207.817 76.9457C207.817 83.1429 213.95 88.1704 221.524 88.1704C222.663 88.1704 223.772 88.0573 224.824 87.8403C224.61 88.0856 224.376 88.3214 224.142 88.5478L224.298 88.859L222.848 90.0003L222.565 89.7928C222.264 89.9909 221.952 90.1701 221.631 90.3399L221.689 90.6795L219.976 91.3964L219.762 91.1228C219.421 91.236 219.07 91.3303 218.71 91.4057L218.671 91.7547L216.822 92L216.695 91.6793C216.51 91.6888 216.335 91.6888 216.15 91.6888C215.965 91.6888 215.79 91.6793 215.605 91.6793L215.478 92L213.629 91.7547L213.59 91.4057C213.23 91.3303 212.889 91.236 212.539 91.1228L212.324 91.3964L210.611 90.6795L210.669 90.3399C210.348 90.1701 210.037 89.9909 209.735 89.7928L209.453 90.0003L208.002 88.859L208.158 88.5478C207.895 88.3025 207.652 88.0478 207.418 87.7742L207.087 87.9063L206.016 86.4349L206.25 86.1707C206.065 85.8689 205.899 85.5576 205.753 85.2369L205.403 85.2746L204.78 83.5768L205.072 83.3881C204.984 83.0485 204.906 82.7089 204.848 82.3505L204.537 82.294Z" fill="#14191E"/>
</g>
<path d="M215.965 78.37C215.965 78.4832 216.062 78.5775 216.179 78.5775C216.296 78.5775 216.393 78.4832 216.393 78.37C216.393 78.2568 216.296 78.1625 216.179 78.1625C216.062 78.1625 215.965 78.2568 215.965 78.37Z" fill="#22272B"/>
<g opacity="0.5">
<path d="M216.004 78.2568C216.004 78.2662 216.004 78.2757 216.004 78.2851C216.004 78.3983 216.101 78.4926 216.218 78.4926C216.286 78.4926 216.354 78.4549 216.393 78.4077C216.383 78.5115 216.296 78.5869 216.179 78.5869C216.062 78.5869 215.965 78.4926 215.965 78.3794C215.965 78.3228 215.984 78.2851 216.004 78.2568Z" fill="#22272B"/>
</g>
<path d="M216.929 78.4832C216.88 78.5869 216.929 78.7096 217.036 78.7567C217.143 78.8039 217.269 78.7568 217.318 78.653C217.367 78.5492 217.318 78.4266 217.211 78.3794C217.104 78.3322 216.977 78.3794 216.929 78.4832Z" fill="#22272B"/>
<g opacity="0.5">
<path d="M217.016 78.3892C217.016 78.3986 217.007 78.3986 217.007 78.408C216.958 78.5118 217.007 78.6343 217.114 78.6815C217.182 78.7098 217.25 78.7004 217.308 78.6721C217.25 78.757 217.143 78.7948 217.036 78.757C216.929 78.7099 216.88 78.5872 216.929 78.4835C216.948 78.4457 216.977 78.408 217.016 78.3892Z" fill="#22272B"/>
</g>
<path d="M217.766 78.9644C217.679 79.0398 217.669 79.1718 217.747 79.2567C217.825 79.3416 217.961 79.3511 218.049 79.2756C218.136 79.2001 218.146 79.0681 218.068 78.9833C217.981 78.8984 217.854 78.8889 217.766 78.9644Z" fill="#22272B"/>
<g opacity="0.5">
<path d="M217.883 78.9075C217.873 78.9169 217.873 78.9169 217.864 78.9264C217.776 79.0018 217.766 79.1339 217.844 79.2188C217.893 79.266 217.961 79.2942 218.029 79.2848C217.942 79.3414 217.825 79.3319 217.747 79.2565C217.669 79.1716 217.679 79.0396 217.766 78.9641C217.796 78.9358 217.834 78.9169 217.883 78.9075Z" fill="#22272B"/>
</g>
<path d="M218.32 79.7283C218.213 79.766 218.145 79.8792 218.184 79.9924C218.223 80.0962 218.34 80.1622 218.457 80.1245C218.564 80.0867 218.632 79.9735 218.593 79.8603C218.554 79.7566 218.437 79.7 218.32 79.7283Z" fill="#22272B"/>
<g opacity="0.5">
<path d="M218.447 79.7283C218.438 79.7283 218.428 79.7283 218.418 79.7377C218.311 79.7754 218.243 79.8887 218.282 80.0018C218.301 80.0679 218.36 80.1151 218.418 80.1339C218.311 80.1528 218.214 80.0962 218.175 79.9924C218.136 79.8886 218.204 79.766 218.311 79.7283C218.37 79.7188 218.408 79.7188 218.447 79.7283Z" fill="#22272B"/>
</g>
<path d="M218.515 80.6527C218.398 80.6432 218.291 80.7186 218.281 80.8318C218.271 80.945 218.349 81.0488 218.466 81.0582C218.583 81.0676 218.69 80.9922 218.7 80.879C218.709 80.7658 218.631 80.6621 218.515 80.6527Z" fill="#22272B"/>
<g opacity="0.5">
<path d="M218.632 80.6998C218.622 80.6998 218.612 80.6997 218.603 80.6903C218.486 80.6809 218.379 80.7564 218.369 80.8696C218.359 80.9356 218.389 81.0016 218.437 81.0488C218.33 81.0299 218.262 80.9356 218.272 80.8318C218.281 80.7186 218.389 80.6338 218.505 80.6527C218.554 80.6621 218.593 80.6715 218.632 80.6998Z" fill="#22272B"/>
</g>
<path d="M218.303 81.5676C218.206 81.511 218.069 81.5487 218.011 81.643C217.952 81.7374 217.991 81.8695 218.089 81.9261C218.186 81.9827 218.322 81.9449 218.381 81.8505C218.439 81.7562 218.4 81.6242 218.303 81.5676Z" fill="#22272B"/>
<g opacity="0.5">
<path d="M218.38 81.6619C218.37 81.6525 218.37 81.6525 218.36 81.643C218.263 81.5864 218.127 81.6242 218.068 81.7186C218.03 81.7752 218.03 81.8506 218.059 81.9072C217.971 81.8411 217.952 81.7279 218 81.643C218.059 81.5487 218.185 81.511 218.292 81.5676C218.341 81.5959 218.37 81.6242 218.38 81.6619Z" fill="#22272B"/>
</g>
<path d="M217.717 82.322C217.649 82.2277 217.513 82.2089 217.415 82.275C217.318 82.341 217.299 82.473 217.367 82.5673C217.435 82.6616 217.571 82.6805 217.669 82.6145C217.766 82.5485 217.785 82.4164 217.717 82.322Z" fill="#22272B"/>
<g opacity="0.5">
<path d="M217.755 82.4448C217.755 82.4353 217.746 82.426 217.746 82.426C217.678 82.3317 217.541 82.3128 217.444 82.3788C217.386 82.4165 217.356 82.4826 217.356 82.5486C217.308 82.4543 217.327 82.3411 217.415 82.2845C217.512 82.2184 217.639 82.2372 217.716 82.3316C217.746 82.3599 217.755 82.3976 217.755 82.4448Z" fill="#22272B"/>
</g>
<path d="M216.87 82.7844C216.841 82.6712 216.734 82.6051 216.617 82.624C216.5 82.6523 216.432 82.7561 216.452 82.8692C216.481 82.9824 216.588 83.0484 216.705 83.0295C216.822 83.0012 216.89 82.8976 216.87 82.7844Z" fill="#22272B"/>
<g opacity="0.5">
<path d="M216.86 82.907C216.86 82.8976 216.86 82.8881 216.86 82.8787C216.831 82.7655 216.724 82.6994 216.607 82.7183C216.539 82.7372 216.481 82.7749 216.451 82.8409C216.442 82.7372 216.51 82.6429 216.617 82.624C216.734 82.5957 216.841 82.6712 216.87 82.7844C216.88 82.8221 216.87 82.8693 216.86 82.907Z" fill="#22272B"/>
</g>
<path d="M215.907 82.8694C215.936 82.7563 215.858 82.6525 215.741 82.6242C215.625 82.5959 215.517 82.6714 215.488 82.7846C215.459 82.8978 215.537 83.0014 215.654 83.0297C215.77 83.0486 215.878 82.9826 215.907 82.8694Z" fill="#22272B"/>
<g opacity="0.5">
<path d="M215.839 82.9732C215.839 82.9638 215.849 82.9543 215.849 82.9449C215.878 82.8317 215.8 82.7279 215.683 82.6996C215.615 82.6808 215.547 82.7091 215.498 82.7468C215.537 82.6525 215.635 82.5865 215.742 82.6148C215.858 82.6431 215.927 82.7468 215.907 82.86C215.897 82.9072 215.868 82.9449 215.839 82.9732Z" fill="#22272B"/>
</g>
<path d="M214.982 82.5673C215.051 82.473 215.031 82.3504 214.934 82.275C214.836 82.2089 214.71 82.2277 214.632 82.322C214.564 82.4164 214.583 82.5391 214.681 82.6145C214.778 82.69 214.914 82.6616 214.982 82.5673Z" fill="#22272B"/>
<g opacity="0.5">
<path d="M214.885 82.6428C214.895 82.6333 214.895 82.6333 214.904 82.6239C214.972 82.5296 214.953 82.4069 214.856 82.3314C214.797 82.2937 214.729 82.2844 214.661 82.3032C214.729 82.2278 214.856 82.2183 214.943 82.2749C215.041 82.3409 215.06 82.4729 214.992 82.5672C214.963 82.605 214.924 82.6239 214.885 82.6428Z" fill="#22272B"/>
</g>
<path d="M214.271 81.9261C214.368 81.8695 214.407 81.7468 214.349 81.643C214.29 81.5393 214.164 81.511 214.057 81.5676C213.95 81.6242 213.92 81.7468 213.979 81.8505C214.037 81.9543 214.174 81.9826 214.271 81.9261Z" fill="#22272B"/>
<g opacity="0.5">
<path d="M214.145 81.9545C214.155 81.9545 214.165 81.9451 214.165 81.9451C214.262 81.8885 214.301 81.7658 214.243 81.662C214.204 81.6054 214.145 81.5677 214.077 81.5583C214.174 81.5206 214.291 81.5488 214.34 81.6432C214.398 81.7375 214.359 81.8696 214.262 81.9262C214.233 81.945 214.194 81.9545 214.145 81.9545Z" fill="#22272B"/>
</g>
<path d="M213.891 81.0677C214.008 81.0582 214.096 80.9545 214.076 80.8413C214.067 80.7281 213.96 80.6433 213.843 80.6621C213.726 80.681 213.638 80.7753 213.658 80.8885C213.668 80.9922 213.775 81.0771 213.891 81.0677Z" fill="#22272B"/>
<g opacity="0.5">
<path d="M213.764 81.0392C213.774 81.0392 213.784 81.0392 213.793 81.0392C213.91 81.0298 213.998 80.9261 213.978 80.8129C213.969 80.7468 213.93 80.6903 213.871 80.6526C213.978 80.6526 214.066 80.728 214.076 80.8318C214.085 80.9449 214.008 81.0487 213.891 81.0581C213.842 81.0676 213.803 81.0581 213.764 81.0392Z" fill="#22272B"/>
</g>
<path d="M213.902 80.1243C214.009 80.1621 214.135 80.096 214.174 79.9923C214.213 79.8885 214.145 79.7659 214.038 79.7281C213.931 79.6904 213.804 79.7564 213.765 79.8602C213.726 79.9734 213.794 80.0866 213.902 80.1243Z" fill="#22272B"/>
<g opacity="0.5">
<path d="M213.795 80.0489C213.805 80.0489 213.815 80.0583 213.815 80.0583C213.922 80.0961 214.048 80.03 214.087 79.9263C214.107 79.8602 214.097 79.7941 214.058 79.7375C214.155 79.7847 214.204 79.8885 214.175 79.9828C214.136 80.0866 214.019 80.1526 213.902 80.1149C213.863 80.1054 213.824 80.0866 213.795 80.0489Z" fill="#22272B"/>
</g>
<path d="M214.31 79.2661C214.398 79.3415 214.534 79.3322 214.612 79.2473C214.69 79.1624 214.68 79.0303 214.593 78.9548C214.505 78.8794 214.369 78.8888 214.291 78.9737C214.213 79.0586 214.223 79.1906 214.31 79.2661Z" fill="#22272B"/>
<g opacity="0.5">
<path d="M214.242 79.1623C214.251 79.1718 214.251 79.1718 214.261 79.1812C214.349 79.2567 214.485 79.2472 214.563 79.1623C214.612 79.1152 214.631 79.0397 214.612 78.9832C214.68 79.0586 214.68 79.1812 214.612 79.2566C214.534 79.3415 214.397 79.351 214.31 79.2755C214.271 79.2378 214.251 79.2 214.242 79.1623Z" fill="#22272B"/>
</g>
<path d="M215.04 78.6529C215.089 78.7566 215.215 78.8038 215.322 78.7566C215.429 78.7095 215.478 78.5868 215.429 78.483C215.381 78.3793 215.254 78.3321 215.147 78.3793C215.04 78.4265 214.991 78.5491 215.04 78.6529Z" fill="#22272B"/>
<g opacity="0.5">
<path d="M215.02 78.5303C215.02 78.5397 215.02 78.5491 215.03 78.5585C215.079 78.6623 215.205 78.7095 215.312 78.6624C215.38 78.6341 215.419 78.5774 215.439 78.5114C215.468 78.6057 215.419 78.7189 215.322 78.7567C215.215 78.8038 215.088 78.7567 215.04 78.6529C215.02 78.6058 215.02 78.568 215.02 78.5303Z" fill="#22272B"/>
</g>
<path d="M9.88036 48.8271H33.2535C33.896 48.8271 34.4217 48.412 34.4217 47.9026V35.7818C34.4217 34.7725 33.3898 33.9519 32.1146 33.9519H15.731C13.6964 33.9519 7.8166 45.9595 7.8166 45.9595C7.15464 47.3084 8.24493 48.8271 9.88036 48.8271Z" fill="#1A1A1A"/>
<g opacity="0.7">
<path d="M10.7269 48.2613H32.2603C32.893 48.2613 33.3991 47.8558 33.3991 47.3558V35.8387C33.3991 35.103 32.6496 34.5087 31.7248 34.5087H16.1297C14.2509 34.5087 8.81893 45.6014 8.81893 45.6014C8.20564 46.8559 9.21801 48.2613 10.7269 48.2613Z" fill="#424756"/>
</g>
<path d="M46.211 31.3202H10.5819V32.2257H46.211V31.3202Z" fill="#4D4D4D"/>
<path d="M36.3205 31.7825H35.386V65.9944H36.3205V31.7825Z" fill="#4D4D4D"/>
<path d="M48.1282 51.8833V65.9849H31.4623C31.3163 65.9849 31.1703 65.9944 31.034 66.0038C30.9562 66.0038 30.8879 66.0133 30.8198 66.0227C30.5569 66.051 30.2942 66.0982 30.0411 66.1642C29.9535 66.1831 29.8756 66.2113 29.788 66.2302C28.9118 66.4943 28.1233 66.9659 27.4808 67.5884C27.1596 67.8997 26.8773 68.2394 26.6437 68.6167C26.41 68.994 26.2153 69.3995 26.079 69.824C26.0498 69.9088 26.0304 69.9843 26.0109 70.0692C25.9427 70.3145 25.894 70.5692 25.8648 70.8239C25.8551 70.8899 25.8453 70.9559 25.8453 71.0313C25.8356 71.1728 25.8259 71.305 25.8259 71.4464V71.4747C25.8259 72.0123 25.6312 72.5122 25.2905 72.899C25.2613 72.9367 25.2321 72.9651 25.1932 73.0028C25.1737 73.0311 25.1444 73.05 25.1152 73.0783C25.086 73.1066 25.0666 73.1348 25.0277 73.1537C24.9985 73.182 24.9693 73.2009 24.9401 73.2292C24.9109 73.2575 24.8816 73.2763 24.8524 73.2952C24.8232 73.3235 24.794 73.3423 24.7551 73.3612C24.502 73.5215 24.2197 73.6348 23.9081 73.6914C23.8303 73.7008 23.7524 73.7196 23.6745 73.729C23.6064 73.7385 23.5383 73.7385 23.4701 73.7385H7.00865C6.98919 73.7385 6.9794 73.7385 6.95993 73.7385H4.31211C3.35811 73.7385 2.5793 72.9934 2.5793 72.0596L2.32631 57.0618C2.31657 56.7505 2.36524 56.4391 2.44312 56.1467L4.97413 47.2519C5.06174 46.9123 5.16877 46.5728 5.28559 46.2332L5.30508 46.1577V46.1671C5.33428 46.0916 5.35371 46.0162 5.38291 45.9313L6.09365 43.9977L6.22983 43.6298L10.5716 31.7919L10.7176 31.3862C11.4575 29.3582 13.4336 28.0094 15.6531 28.0094H41.129C41.1874 28.0094 41.236 28.0094 41.2944 28.0094C41.2944 28.0094 41.2944 28.0094 41.3041 28.0094C42.5404 28.0471 43.6794 28.5094 44.5555 29.2546C44.6918 29.3678 44.8281 29.4904 44.9449 29.613C44.9741 29.6507 45.013 29.6885 45.0422 29.7262C45.0714 29.7545 45.091 29.7733 45.1104 29.8016C45.2078 29.9054 45.2954 30.0185 45.383 30.1317C45.4317 30.1883 45.4707 30.2544 45.5193 30.3204C45.9769 30.9996 46.2689 31.7825 46.3468 32.6408L48.1282 51.8833Z" fill="white"/>
<path d="M47.3987 65.9944H47.2429C46.7659 65.9944 46.3766 65.617 46.3766 65.1548V32.6125C46.3766 32.1503 46.7659 31.7729 47.2429 31.7729H47.3987C47.8757 31.7729 48.2651 32.1503 48.2651 32.6125V65.1548C48.2651 65.617 47.8757 65.9944 47.3987 65.9944Z" fill="#1A1A31"/>
<g opacity="0.4">
<path d="M8.38174 37.7156C8.38174 37.7156 8.36273 73.2763 8.38174 73.7291V37.7156Z" fill="#4D4D4D"/>
<path d="M8.11888 73.7386C8.09941 73.2859 8.11888 39.1683 8.11888 37.7157H8.63485C8.63485 38.0741 8.61538 73.2293 8.63485 73.7198L8.11888 73.7386Z" fill="#4D4D4D"/>
</g>
<g opacity="0.4">
<path d="M41.3136 28.4245V62.3818C41.3041 62.0139 41.3041 45.9313 41.3041 31.773V28L41.3136 28.4245Z" fill="#4D4D4D"/>
<path d="M41.0023 62.3912C40.9926 62.0234 40.9926 45.988 40.9926 31.8391V28H41.6058C41.6058 28 41.6058 28.0566 41.6058 28.1226H41.6156V62.3818L41.0023 62.3912Z" fill="#4D4D4D"/>
</g>
<g opacity="0.3">
<path d="M2.86157 71.7482H5.50939C5.52886 71.7482 5.53864 71.7482 5.55811 71.7482H22.0196C23.3143 71.7482 24.3656 70.7295 24.3656 69.4749C24.3656 66.4754 26.8966 64.0136 30.002 64.0136H46.6679V49.9118L44.906 30.6506C44.8573 30.1601 44.7404 29.6884 44.5652 29.2451C45.5581 30.0752 46.2299 31.2731 46.3564 32.6314L48.1184 51.8927V65.9944H31.4525C28.3568 65.9944 25.816 68.4469 25.816 71.4559C25.816 72.7104 24.7648 73.729 23.4701 73.729H7.00858C6.98911 73.729 6.97933 73.729 6.95986 73.729H4.31204C3.35803 73.729 2.57922 72.9745 2.57922 72.0501V71.7199C2.66684 71.7388 2.76422 71.7482 2.86157 71.7482Z" fill="#27292B"/>
</g>
<path d="M45.5781 62.6079L45.286 62.5513L45.0135 62.5042C44.8285 62.4759 44.6533 62.4475 44.4683 62.4286C44.1081 62.372 43.7479 62.3437 43.3878 62.306C43.0276 62.2683 42.6674 62.2495 42.3072 62.2306C41.947 62.2117 41.5869 62.1928 41.2267 62.1928C39.7859 62.1645 38.3355 62.2211 36.8753 62.4003C35.4151 62.5795 33.9451 62.8531 32.5044 63.3813C31.784 63.6266 31.0733 63.9473 30.3724 64.3057C29.6715 64.6547 28.9901 65.0981 28.3281 65.5698C27.9972 65.8056 27.6857 66.0791 27.3742 66.3526C27.0724 66.645 26.7706 66.9468 26.5175 67.2487C26.0016 67.8524 25.5538 68.4938 25.1838 69.1635C24.444 70.5029 23.9767 71.9084 23.6847 73.3044C23.3829 74.7004 23.2466 76.0965 23.2272 77.4831C23.2174 78.1717 23.2271 78.8602 23.266 79.5488C23.2855 79.8884 23.3148 80.2373 23.344 80.5769L23.4023 81.0957C23.4218 81.275 23.4413 81.4353 23.4705 81.6333C23.5484 82.1616 24.0545 82.5294 24.5997 82.4445C25.1156 82.3691 25.4856 81.9258 25.4467 81.4259V81.3881C25.437 81.256 25.4272 81.0863 25.4175 80.9353C25.4077 80.775 25.4077 80.6241 25.4077 80.4637C25.4077 80.1524 25.4077 79.8317 25.4175 79.511C25.4369 78.879 25.4759 78.247 25.5538 77.6151C25.7095 76.3605 25.9723 75.1343 26.3617 73.9741C26.7511 72.8139 27.2963 71.7386 27.9777 70.8142C28.3184 70.352 28.698 69.937 29.1069 69.5786C29.3113 69.3805 29.5157 69.2485 29.7299 69.0975L30.0707 68.8994C30.1778 68.8333 30.3141 68.7862 30.4309 68.7202C30.9176 68.4938 31.453 68.3145 32.0177 68.173C32.1539 68.1353 32.2999 68.107 32.4459 68.0787C32.5919 68.0504 32.7282 68.0127 32.8742 67.9939C33.1662 67.9467 33.4583 67.8901 33.7601 67.8429C34.3539 67.758 34.9574 67.6731 35.5707 67.6071C36.184 67.5317 36.8071 67.4751 37.4301 67.4185C38.6859 67.3147 39.9612 67.2582 41.2462 67.211L42.2099 67.1827L43.1736 67.1638L44.1374 67.1449L44.6143 67.1355L44.848 67.126C44.9258 67.126 45.0134 67.126 45.0621 67.1166L48.3622 67.0884C48.3622 67.0884 47.3985 64.2302 47.3304 64.051C47.0675 63.3153 46.3861 62.7588 45.5781 62.6079Z" fill="#333333"/>
<path d="M23.2369 77.4644C23.2564 76.0778 23.3926 74.6818 23.6944 73.2857C23.9865 71.8897 24.4538 70.4843 25.1936 69.1448C25.5635 68.4751 26.0113 67.8337 26.5273 67.23C26.7706 66.9281 27.0822 66.6263 27.3839 66.3339C27.6954 66.0604 28.0167 65.7869 28.3379 65.5511C28.9999 65.07 29.6813 64.636 30.3822 64.287C31.0831 63.9286 31.7937 63.6079 32.514 63.3627C33.9548 62.8344 35.4248 62.561 36.885 62.3817C38.3453 62.2025 39.7957 62.1458 41.2364 62.1741C41.5966 62.1741 41.9568 62.193 42.317 62.2119C42.6772 62.2308 43.0373 62.259 43.3975 62.2873C43.7577 62.3251 44.1179 62.3534 44.4781 62.41C44.6533 62.4383 44.8383 62.4572 45.0233 62.4855L45.2957 62.5326L45.5878 62.5892C46.3764 62.7307 47.0384 63.2684 47.3304 63.9947C47.0481 63.7966 46.7365 63.6551 46.386 63.589L46.0941 63.5325L45.8215 63.4853C45.6365 63.457 45.4613 63.4287 45.2764 63.4099C44.9162 63.3533 44.5559 63.325 44.1957 63.2872C43.8355 63.2495 43.4754 63.2307 43.1152 63.2118C42.755 63.1929 42.3948 63.174 42.0346 63.1646C40.5939 63.1363 39.1434 63.1929 37.6832 63.3721C36.223 63.5513 34.7531 63.8249 33.3124 64.3531C32.592 64.5984 31.8813 64.9191 31.1804 65.2775C30.4795 65.6265 29.7981 66.0698 29.1361 66.5414C28.8051 66.7772 28.4936 67.0509 28.1821 67.3244C27.8803 67.6168 27.5786 67.9186 27.3255 68.2205C26.8095 68.8241 26.3617 69.4656 25.9918 70.1353C25.252 71.4747 24.7847 72.8802 24.4926 74.2762C24.1908 75.6722 24.0546 77.0682 24.0351 78.4548C24.0254 79.1433 24.0352 79.832 24.0741 80.5206C24.0936 80.8601 24.1227 81.2091 24.1519 81.5487L24.2104 82.0675C24.2201 82.1807 24.2395 82.2845 24.2493 82.4071C23.8599 82.3222 23.5387 82.0109 23.4803 81.6053C23.4511 81.4072 23.4315 81.2468 23.4121 81.0676L23.3537 80.5489C23.3148 80.2093 23.2952 79.8602 23.2758 79.5207C23.2368 78.8509 23.2272 78.1624 23.2369 77.4644Z" fill="#333333"/>
<g opacity="0.7">
<path d="M24.3667 80.7941C24.8826 80.7186 25.2525 80.2753 25.2136 79.7754V79.7376C25.2038 79.6056 25.1942 79.4453 25.1845 79.2849C25.1747 79.1245 25.1747 78.9736 25.1747 78.8133C25.1747 78.502 25.1747 78.1813 25.1845 77.8606C25.2039 77.2286 25.2429 76.5966 25.3208 75.9646C25.4765 74.7101 25.7393 73.4839 26.1287 72.3237C26.5181 71.1634 27.0633 70.0882 27.7447 69.1638C28.0854 68.7016 28.465 68.2866 28.8738 67.9282C29.0783 67.7301 29.2827 67.598 29.4969 67.4471L29.8376 67.2489C29.9447 67.1829 30.0809 67.1358 30.1978 67.0698C30.6845 66.8434 31.2199 66.6641 31.7845 66.5226C31.9208 66.4849 32.0669 66.4566 32.2129 66.4283C32.3589 66.4 32.4952 66.3623 32.6412 66.3434C32.9332 66.2963 33.2253 66.2396 33.5271 66.1925C34.1209 66.1076 34.7244 66.0227 35.3377 65.9567C35.951 65.8812 36.5741 65.8247 37.1971 65.7681C38.4529 65.6643 39.7282 65.6077 41.0132 65.5606L41.9769 65.5322L42.9406 65.5134L43.9043 65.4945L44.3813 65.485L44.615 65.4756C44.6928 65.4756 44.7804 65.4756 44.8291 65.4662L47.8275 65.4474C48.1 66.2492 48.3823 67.0886 48.3823 67.0886L45.0822 67.1169C45.0335 67.1169 44.9459 67.1263 44.8681 67.1263L44.6344 67.1357L44.1575 67.1452L43.1937 67.1641L42.23 67.1829L41.2663 67.2113C39.9813 67.249 38.706 67.315 37.4502 67.4188C36.8272 67.4754 36.2041 67.5319 35.5908 67.6074C34.9776 67.6828 34.374 67.7583 33.7802 67.8432C33.4784 67.8903 33.1961 67.9375 32.8943 67.9941C32.7483 68.0224 32.612 68.0507 32.466 68.079C32.32 68.1073 32.1739 68.1356 32.0376 68.1733C31.473 68.3054 30.9376 68.4846 30.4509 68.7205C30.3341 68.7771 30.1978 68.8336 30.0907 68.8996L29.75 69.0978C29.5456 69.2487 29.3314 69.3808 29.127 69.5789C28.7181 69.9467 28.3385 70.3523 27.9978 70.8145C27.3261 71.7389 26.7712 72.8141 26.3818 73.9744C25.9924 75.1346 25.7295 76.3608 25.5738 77.6153C25.4959 78.2379 25.457 78.8699 25.4376 79.5113C25.4278 79.832 25.4278 80.1433 25.4278 80.464C25.4278 80.6243 25.4376 80.7752 25.4376 80.9356C25.4473 81.0865 25.457 81.2563 25.4667 81.3883V81.4261C25.5056 81.926 25.1357 82.3693 24.6198 82.4448C24.0746 82.5202 23.5685 82.1618 23.4906 81.6336C23.4614 81.4355 23.4419 81.2752 23.4224 81.096L23.3641 80.5772C23.3543 80.4734 23.3446 80.3697 23.3348 80.2659C23.5198 80.6244 23.9286 80.8507 24.3667 80.7941Z" fill="#333333"/>
</g>
<path d="M0 76.8512V78.7661H1.83988C2.6868 78.7661 3.38769 78.5208 3.53371 78.1907C3.54345 78.153 3.55308 78.1152 3.55308 78.0681V77.5398C3.55308 77.1531 2.78415 76.8418 1.83988 76.8418H0V76.8512Z" fill="#BF272D"/>
<path d="M11.6617 50.1289L30.5569 47.0915C31.2481 46.9783 31.9391 46.9501 32.64 46.9783C33.7985 47.0255 35.6189 46.9972 37.1569 46.95C38.7242 46.9029 39.98 45.6578 39.98 44.1297V33.603C39.98 32.7541 39.0553 32.075 37.9163 32.075H16.1202C13.8131 32.075 9.74402 44.8277 9.74402 44.8277C9.00418 46.2614 9.81213 50.1289 11.6617 50.1289Z" fill="#333333"/>
<path d="M11.269 51.4836H14.2479V50.1254H11.269V51.4836Z" fill="#1A1A1A"/>
<path d="M38.9881 56.3354H33.8385C33.6146 56.3354 33.4296 56.1561 33.4296 55.9392V55.2789C34.0039 54.7224 34.3252 54.4111 34.8995 53.8546H38.9102C39.2023 53.8546 39.4456 54.0905 39.4456 54.3735V55.8921C39.4456 56.1373 39.2412 56.3354 38.9881 56.3354Z" fill="black"/>
<path d="M38.9872 56.4958H33.8376C33.5164 56.4958 33.2534 56.241 33.2534 55.9298V55.2034L34.8207 53.6848H38.8996C39.289 53.6848 39.6102 53.9962 39.6102 54.3735V55.8921C39.6102 56.2317 39.3376 56.4958 38.9872 56.4958ZM33.6039 55.345V55.9298C33.6039 56.0618 33.7109 56.1656 33.8472 56.1656H38.9969C39.1527 56.1656 39.2793 56.043 39.2793 55.8921V54.3735C39.2793 54.1754 39.1138 54.015 38.9094 54.015H34.9765L33.6039 55.345Z" fill="#666666"/>
<path d="M6.32672 65.636L2.5399 65.7208L2.27704 60.1556C2.2381 59.2218 3.29913 58.4389 4.65226 58.4106L6.13196 58.3729C6.901 58.3541 7.55321 58.7691 7.57268 59.3067L7.81605 64.5418C7.84525 65.1266 7.18338 65.6171 6.32672 65.636Z" fill="#979797"/>
<path d="M241.315 71.6162L241.305 73.1161L241.295 73.8423L241.285 74.8516L241.276 75.578L241.266 76.5872L241.256 77.323L241.246 78.3228V78.7095H237.81L237.8 77.6342L237.791 76.8984L237.781 75.8892L237.771 75.144L237.761 74.1347V73.3895L237.752 72.3803L237.742 71.6445V71.6162H241.315Z" fill="#F9AE3B"/>
<path d="M241.305 73.1161L241.296 73.8423L237.752 72.3804L237.742 71.6446L241.305 73.1161Z" fill="black"/>
<path d="M241.286 74.8517L241.276 75.578L237.762 74.1348V73.3896L241.286 74.8517Z" fill="black"/>
<path d="M241.266 76.5873L241.257 77.3231L237.781 75.8893L237.772 75.1441L241.266 76.5873Z" fill="black"/>
<path d="M241.246 78.3228V78.7096H240.399L237.8 77.6343L237.79 76.8985L241.246 78.3228Z" fill="black"/>
<g opacity="0.6">
<path d="M240.819 71.6162L240.809 72.2671L240.799 72.9934L240.789 74.0027V74.7384L240.77 75.7382V76.474L240.76 77.4834L240.75 77.87H237.801L237.811 78.7095H241.247V78.3228L241.257 77.323L241.266 76.5872L241.276 75.578L241.286 74.8516L241.296 73.8423L241.305 73.1161L241.315 71.6162H240.819Z" fill="#F9AE3B"/>
</g>
<g opacity="0.7">
<path d="M7.57365 59.3162C7.55418 58.9294 7.20383 58.5993 6.70736 58.4578L6.93124 63.1929C6.96045 63.7778 6.28872 64.2682 5.4418 64.287L2.47266 64.3531L2.54087 65.7208L6.32769 65.6359C7.18435 65.6171 7.84622 65.1265 7.81702 64.5417L7.57365 59.3162Z" fill="#979797"/>
</g>
<path d="M66.264 59.2124H48.0114V69.6732H66.264V59.2124Z" fill="#27292B"/>
<path d="M12.9667 48.8836L30.3237 46.2613C30.9564 46.167 31.599 46.1387 32.2415 46.167C33.3123 46.2142 34.977 46.1859 36.3982 46.1481C37.839 46.1104 38.9876 45.0351 38.9876 43.7146V34.631C38.9876 33.9047 38.1407 33.3104 37.0991 33.3104H17.0747C14.9525 33.3104 11.2241 44.3088 11.2241 44.3088C10.5232 45.5539 11.2631 48.8836 12.9667 48.8836Z" fill="#424756"/>
<path d="M14.1443 51.1664C12.7717 51.1664 11.662 50.025 11.662 48.6101V32.9237C11.662 31.5183 12.7717 30.3676 14.1443 30.3676H15.6142C15.8187 30.3676 15.9842 30.5279 15.9842 30.726C15.9842 30.9241 15.8187 31.0844 15.6142 31.0844H14.1443C13.1805 31.0844 12.3921 31.9145 12.3921 32.9332V48.6196C12.3921 49.6383 13.1805 50.4684 14.1443 50.4684C14.3487 50.4684 14.5142 50.6288 14.5142 50.8269C14.5142 51.0249 14.3487 51.1664 14.1443 51.1664Z" fill="#1A1A1A"/>
<path d="M11.3406 40.7057H13.1124C13.5115 40.7057 13.8425 40.385 13.8425 39.9982V32.9521C13.8425 32.5654 13.5115 32.2447 13.1124 32.2447H11.3406C10.9415 32.2447 10.6105 32.5654 10.6105 32.9521V39.9982C10.6105 40.3944 10.9415 40.7057 11.3406 40.7057Z" fill="#666666"/>
<path d="M11.3313 47.9688H13.1225C13.434 47.9688 13.687 47.7235 13.687 47.4216V42.9506C13.687 42.6488 13.434 42.4036 13.1225 42.4036H11.3313C11.0198 42.4036 10.7666 42.6488 10.7666 42.9506V47.4216C10.7666 47.7235 11.0198 47.9688 11.3313 47.9688Z" fill="#666666"/>
<g opacity="0.4">
<path d="M10.9901 32.3391V39.1212C10.9901 39.5268 11.3114 39.857 11.7008 39.857H13.5213C13.6381 39.857 13.7549 39.8191 13.8522 39.7625V39.9796C13.8522 40.3852 13.531 40.7152 13.1416 40.7152H11.3212C10.9318 40.7152 10.6105 40.3852 10.6105 39.9796V32.9806C10.6105 32.6976 10.7662 32.4617 10.9901 32.3391Z" fill="#323E47"/>
</g>
<g opacity="0.3">
<path d="M10.971 42.5356V46.8935C10.971 47.2048 11.2144 47.4594 11.5162 47.4594H13.3463C13.4826 47.4594 13.5994 47.4122 13.687 47.3274V47.4029C13.687 47.7142 13.4437 47.9688 13.1419 47.9688H11.3118C11.01 47.9688 10.7666 47.7142 10.7666 47.4029V42.9695C10.7666 42.7903 10.8444 42.6394 10.971 42.5356Z" fill="#323E47"/>
</g>
<path d="M251 56.3354H67.8311V69.8146H251V56.3354Z" fill="#D09520"/>
<path d="M71.9586 34.9896H67.8311V69.8147H71.9586V34.9896Z" fill="#FAA701"/>
<path d="M77.8879 58.2975H77.2454V65.8813H77.8879V58.2975Z" fill="#FAA701"/>
<path d="M85.4708 58.2975H84.8284V65.8813H85.4708V58.2975Z" fill="#FAA701"/>
<path d="M93.0445 58.2975H92.402V65.8813H93.0445V58.2975Z" fill="#FAA701"/>
<path d="M100.628 58.2975H99.986V65.8813H100.628V58.2975Z" fill="#FAA701"/>
<path d="M108.211 58.2975H107.569V65.8813H108.211V58.2975Z" fill="#FAA701"/>
<path d="M115.785 58.2975H115.143V65.8813H115.785V58.2975Z" fill="#FAA701"/>
<path d="M123.368 58.2975H122.725V65.8813H123.368V58.2975Z" fill="#FAA701"/>
<path d="M130.951 58.2975H130.309V65.8813H130.951V58.2975Z" fill="#FAA701"/>
<path d="M138.525 58.2975H137.883V65.8813H138.525V58.2975Z" fill="#FAA701"/>
<path d="M146.108 58.2975H145.466V65.8813H146.108V58.2975Z" fill="#FAA701"/>
<path d="M153.692 58.2975H153.049V65.8813H153.692V58.2975Z" fill="#FAA701"/>
<path d="M161.266 58.2975H160.623V65.8813H161.266V58.2975Z" fill="#FAA701"/>
<path d="M168.85 58.2975H168.207V65.8813H168.85V58.2975Z" fill="#FAA701"/>
<path d="M176.432 58.2975H175.789V65.8813H176.432V58.2975Z" fill="#FAA701"/>
<path d="M184.006 58.2975H183.363V65.8813H184.006V58.2975Z" fill="#FAA701"/>
<path d="M191.589 58.2975H190.947V65.8813H191.589V58.2975Z" fill="#FAA701"/>
<path d="M199.172 58.2975H198.53V65.8813H199.172V58.2975Z" fill="#FAA701"/>
<path d="M206.746 58.2975H206.104V65.8813H206.746V58.2975Z" fill="#FAA701"/>
<path d="M214.329 58.2975H213.687V65.8813H214.329V58.2975Z" fill="#FAA701"/>
<path d="M221.913 58.2975H221.271V65.8813H221.913V58.2975Z" fill="#FAA701"/>
<path d="M229.487 58.2975H228.844V65.8813H229.487V58.2975Z" fill="#FAA701"/>
<path d="M237.07 58.2975H236.427V65.8813H237.07V58.2975Z" fill="#FAA701"/>
<path d="M244.654 58.2975H244.011V65.8813H244.654V58.2975Z" fill="#FAA701"/>
<path d="M176.422 76.3135H47.1449V84.1048H176.422V76.3135Z" fill="#4D4D4D"/>
<path d="M176.423 82.2373H47.321V84.1049H176.423V82.2373Z" fill="#1A1A1A"/>
<path d="M176.423 76.2571H47.321V78.1247H176.423V76.2571Z" fill="#1A1A1A"/>
<g opacity="0.3">
<path d="M251 56.3354V67.8431H67.8311V63.9193H247.957V56.3354H251Z" fill="#6D6C69"/>
</g>
<path d="M54.8846 71.6162L54.8748 73.1161L54.8651 73.8423L54.8553 74.8516L54.8456 75.578L54.8359 76.5872V77.323L54.8261 78.3228L54.8164 78.7095H51.38L51.3702 77.6342L51.3606 76.8984L51.3509 75.8892V75.144L51.3411 74.1347L51.3314 73.3895L51.3216 72.3803L51.3119 71.6445V71.6162H54.8846Z" fill="#F9AE3B"/>
<path d="M54.8748 73.1163L54.8651 73.8425L51.3216 72.3805L51.3119 71.6447L54.8748 73.1163Z" fill="black"/>
<path d="M54.8554 74.8516L54.8456 75.5779L51.3412 74.1347L51.3314 73.3895L54.8554 74.8516Z" fill="black"/>
<path d="M54.8357 76.5872V77.323L51.3507 75.8892V75.144L54.8357 76.5872Z" fill="black"/>
<path d="M54.8257 78.3227L54.816 78.7095H53.9691L51.3699 77.6341L51.3602 76.8984L54.8257 78.3227Z" fill="black"/>
<g opacity="0.6">
<path d="M54.3887 71.6162L54.379 72.2671V72.9934L54.3595 74.0027V74.7384L54.3497 75.7382L54.34 76.474L54.3302 77.4834L54.3205 77.87H51.3708L51.3806 78.7095H54.817L54.8267 78.3228L54.8365 77.323V76.5872L54.8462 75.578L54.856 74.8516L54.8657 73.8423L54.8755 73.1161L54.8852 71.6162H54.3887Z" fill="#F9AE3B"/>
</g>
<path d="M251 65.8812H67.8311V69.8052H251V65.8812Z" fill="#FAA701"/>
<path d="M251 56.3354H67.8311V58.2974H251V56.3354Z" fill="#FAA701"/>
<path d="M25.5344 82.2939L25.4078 80.4922L25.7485 80.3885C25.7583 80.03 25.7777 79.681 25.8166 79.3415L25.4954 79.1905L25.8751 77.4266L26.2255 77.4172C26.3326 77.0776 26.4494 76.7474 26.5954 76.4267L26.3228 76.2004L27.1795 74.5969L27.5299 74.6817C27.7246 74.3893 27.9388 74.097 28.153 73.8234L27.9583 73.531L29.2335 72.2104L29.5451 72.3802C29.8177 72.1444 30.1 71.9274 30.392 71.7104L30.285 71.3803L31.8815 70.4465L32.1346 70.6918C32.4558 70.5408 32.7964 70.3994 33.1372 70.2673L33.1274 69.9278L34.9187 69.4373L35.0939 69.7391C35.4443 69.673 35.8045 69.6259 36.1744 69.5976L36.2621 69.258H38.1213L38.209 69.5976C38.5692 69.6259 38.9294 69.673 39.2896 69.7391L39.4647 69.4373L41.256 69.9278L41.2463 70.2673C41.587 70.39 41.9179 70.5314 42.2489 70.6918L42.502 70.4465L44.0985 71.3803L43.9914 71.7104C44.2835 71.918 44.5658 72.1444 44.8383 72.3802L45.1499 72.2104L46.4251 73.531L46.2305 73.8234C46.4544 74.097 46.6588 74.3893 46.8535 74.6817L47.2039 74.5969L48.0606 76.2004L47.788 76.4267C47.9243 76.7474 48.0508 77.0776 48.1579 77.4172L48.5084 77.4266L48.888 79.1905L48.5668 79.3415C48.6058 79.6905 48.6349 80.0395 48.6349 80.3885L48.9756 80.4922L48.849 82.2939L48.4986 82.3504C48.4402 82.6994 48.3721 83.0484 48.2747 83.388L48.5668 83.5767L47.9438 85.2745L47.5933 85.2368C47.4376 85.5575 47.2721 85.8688 47.0969 86.1706L47.3305 86.4348L46.2596 87.9062L45.9286 87.7741C45.695 88.0383 45.4516 88.3024 45.1888 88.5477L45.3446 88.8589L43.8941 90.0002L43.6117 89.7927C43.31 89.9908 42.9985 90.17 42.6773 90.3398L42.7356 90.6794L41.0224 91.3963L40.8081 91.1227C40.4674 91.2359 40.117 91.3302 39.7568 91.4057L39.7179 91.7547L37.8682 91.9999L37.7417 91.6792C37.5567 91.6887 37.3815 91.6887 37.1966 91.6887C37.0116 91.6887 36.8363 91.6792 36.6514 91.6792L36.5248 91.9999L34.6753 91.7547L34.6363 91.4057C34.2762 91.3302 33.9355 91.2359 33.585 91.1227L33.3708 91.3963L31.6575 90.6794L31.7159 90.3398C31.3947 90.17 31.0832 89.9908 30.7814 89.7927L30.4991 90.0002L29.0486 88.8589L29.2044 88.5477C28.9416 88.3024 28.6982 88.0477 28.4646 87.7741L28.1335 87.9062L27.0627 86.4348L27.2963 86.1706C27.1114 85.8688 26.9459 85.5575 26.7998 85.2368L26.4494 85.2745L25.8264 83.5767L26.1185 83.388C26.0308 83.0484 25.953 82.7088 25.8946 82.3504L25.5344 82.2939Z" fill="#232C33"/>
<g opacity="0.4">
<path d="M37.1673 86.2178C40.3555 86.2178 42.94 83.7135 42.94 80.6243C42.94 77.5351 40.3555 75.0308 37.1673 75.0308C33.9791 75.0308 31.3947 77.5351 31.3947 80.6243C31.3947 83.7135 33.9791 86.2178 37.1673 86.2178Z" fill="#14191E"/>
</g>
<path d="M37.1678 85.7179C40.071 85.7179 42.4246 83.4374 42.4246 80.6243C42.4246 77.8111 40.071 75.5306 37.1678 75.5306C34.2646 75.5306 31.911 77.8111 31.911 80.6243C31.911 83.4374 34.2646 85.7179 37.1678 85.7179Z" fill="black"/>
<path d="M37.168 83.4351C38.7702 83.4351 40.069 82.1767 40.069 80.6242C40.069 79.0718 38.7702 77.8134 37.168 77.8134C35.5659 77.8134 34.2671 79.0718 34.2671 80.6242C34.2671 82.1767 35.5659 83.4351 37.168 83.4351Z" fill="#31393F"/>
<g opacity="0.2">
<path d="M33.2836 77.1908C33.1474 77.6436 33.0695 78.1246 33.0695 78.6151C33.0695 81.426 35.4253 83.7087 38.3263 83.7087C39.8644 83.7087 41.2564 83.0673 42.2202 82.0392C41.5874 84.1615 39.5625 85.7084 37.1678 85.7084C34.2668 85.7084 31.911 83.4257 31.911 80.6148C31.911 79.3037 32.427 78.0963 33.2836 77.1908Z" fill="#14191E"/>
</g>
<g opacity="0.2">
<path d="M48.4502 83.5107L48.5379 83.5674L48.3821 84.0013L48.3431 83.9729C48.3821 83.8314 48.4113 83.6711 48.4502 83.5107Z" fill="#14191E"/>
<path d="M48.6648 80.4073L48.9373 80.4922L48.8984 81.0487L48.6939 80.9827C48.6842 80.7846 48.6745 80.596 48.6648 80.4073Z" fill="#14191E"/>
<path d="M26.6931 77.0116C26.5568 77.3323 26.4303 77.6623 26.3329 78.0019L25.9825 78.0114L25.7099 79.2753L25.5055 79.181L25.8852 77.4171L26.2356 77.4077C26.3037 77.2001 26.3719 77.002 26.4497 76.804L26.6931 77.0116Z" fill="#14191E"/>
<path d="M46.1913 73.8234L45.1983 72.7952L44.8868 72.965C44.6143 72.7292 44.332 72.5123 44.0399 72.2954L44.147 71.9651L42.5505 71.0313L42.2974 71.2766C41.9761 71.1256 41.6354 70.9842 41.2947 70.8521L41.3044 70.5126L39.5132 70.0221L39.338 70.3239C38.9875 70.2578 38.6273 70.2106 38.2574 70.1824L38.1698 69.8428H36.3105L36.2229 70.1824C35.8627 70.2106 35.5025 70.2578 35.1424 70.3239L34.9671 70.0221L33.1759 70.5126L33.1857 70.8521C32.845 70.9748 32.5139 71.1162 32.183 71.2766L31.9298 71.0313L30.3333 71.9651L30.4404 72.2954C30.1484 72.5029 29.8661 72.7292 29.5935 72.965L29.282 72.7952L28.0067 74.1158L28.2015 74.4082C27.9776 74.6818 27.7731 74.9741 27.5784 75.2665L27.228 75.1817L26.4589 76.6154C26.4881 76.5494 26.5077 76.4834 26.5369 76.4174L26.2643 76.1909L27.1209 74.5874L27.4714 74.6723C27.6661 74.3799 27.8803 74.0875 28.0944 73.814L27.8997 73.5215L29.175 72.2009L29.4864 72.3708C29.759 72.135 30.0413 71.918 30.3333 71.7011L30.2263 71.3709L31.8228 70.437L32.0759 70.6823C32.3971 70.5314 32.7379 70.3899 33.0786 70.2579L33.0689 69.9183L34.86 69.4278L35.0353 69.7296C35.3857 69.6636 35.7459 69.6164 36.1158 69.5881L36.2034 69.2485H38.0628L38.1504 69.5881C38.5105 69.6164 38.8707 69.6636 39.2309 69.7296L39.4062 69.4278L41.1973 69.9183L41.1876 70.2579C41.5283 70.3805 41.8593 70.522 42.1903 70.6823L42.4434 70.437L44.0399 71.3709L43.9329 71.7011C44.2249 71.9086 44.5072 72.135 44.7798 72.3708L45.0912 72.2009L46.3665 73.5215L46.1718 73.814C46.1912 73.814 46.1913 73.814 46.1913 73.8234Z" fill="#14191E"/>
<path d="M27.3838 86.7744L27.3351 86.8309L27.0527 86.4443L27.1404 86.3499C27.2086 86.4819 27.2962 86.6235 27.3838 86.7744Z" fill="#14191E"/>
<path d="M25.7485 80.3885C25.7485 80.2187 25.7583 80.0394 25.768 79.8696L25.9141 79.9357C25.8751 80.2847 25.8459 80.6337 25.8459 80.9827L25.5052 81.0865L25.5927 82.2939L25.5344 82.2844L25.4078 80.4828L25.7485 80.3885Z" fill="#14191E"/>
<path d="M26.1969 83.9822L26.0023 84.1049L25.8076 83.5673L26.0704 83.4069C26.0996 83.5955 26.1482 83.7936 26.1969 83.9822Z" fill="#14191E"/>
<path d="M47.2526 75.1817L46.9022 75.2665C46.7075 74.9741 46.4933 74.6818 46.2792 74.4083L46.4545 74.1536C46.581 74.3234 46.6978 74.4931 46.8146 74.6628L47.1651 74.578L48.0217 76.1816L47.8659 76.3135L47.2526 75.1817Z" fill="#14191E"/>
<path d="M48.5668 78.0208L48.2162 78.0114C48.1092 77.6718 47.9923 77.3416 47.8463 77.0209L47.9535 76.936C48.0119 77.0964 48.0702 77.2568 48.1189 77.4171L48.4694 77.4265L48.849 79.1904L48.8198 79.1999L48.5668 78.0208Z" fill="#14191E"/>
</g>
<g opacity="0.4">
<path d="M46.3472 87.7269L46.2109 87.9061L45.9675 87.8118C46.0941 87.7835 46.2206 87.7552 46.3472 87.7269Z" fill="#14191E"/>
<path d="M25.5344 82.2938L25.4078 80.4922L25.7485 80.3884C25.7583 80.03 25.7777 79.681 25.8166 79.3414L25.4954 79.1905L25.8751 77.4266L26.2255 77.4172C26.3326 77.0776 26.4494 76.7474 26.5954 76.4267L26.3228 76.2003L27.1795 74.5968L27.5299 74.6817C27.7246 74.3893 27.9388 74.097 28.153 73.8234L27.9583 73.5309L29.2335 72.2104L29.5451 72.3802C29.8177 72.1444 30.1 71.9274 30.392 71.7104L30.285 71.3803L30.8885 71.0219C29.584 72.7386 28.8247 74.776 28.8247 76.9455C28.8247 83.1427 34.9576 88.1703 42.5312 88.1703C43.6702 88.1703 44.7799 88.0571 45.8313 87.8402C45.6171 88.0854 45.3835 88.3213 45.1499 88.5476L45.3056 88.8589L43.8551 90.0002L43.5729 89.7927C43.2711 89.9908 42.9595 90.17 42.6383 90.3397L42.6967 90.6794L40.9834 91.3963L40.7693 91.1227C40.4286 91.2359 40.078 91.3302 39.7179 91.4056L39.679 91.7546L37.8294 91.9999L37.7028 91.6792C37.5179 91.6886 37.3426 91.6887 37.1576 91.6887C36.9727 91.6887 36.7975 91.6792 36.6125 91.6792L36.486 91.9999L34.6363 91.7546L34.5974 91.4056C34.2372 91.3302 33.8965 91.2359 33.5461 91.1227L33.3319 91.3963L31.6186 90.6794L31.677 90.3397C31.3557 90.17 31.0442 89.9908 30.7425 89.7927L30.4601 90.0002L29.0096 88.8589L29.1654 88.5476C28.9026 88.3024 28.6592 88.0477 28.4256 87.7741L28.0946 87.9062L27.0238 86.4348L27.2575 86.1706C27.0725 85.8688 26.907 85.5575 26.761 85.2368L26.4105 85.2745L25.7875 83.5767L26.0795 83.3879C25.9919 83.0484 25.914 82.7088 25.8556 82.3504L25.5344 82.2938Z" fill="#14191E"/>
</g>
<path d="M36.9531 78.3698C36.9531 78.483 37.0504 78.5773 37.1673 78.5773C37.2841 78.5773 37.3814 78.483 37.3814 78.3698C37.3814 78.2567 37.2841 78.1624 37.1673 78.1624C37.0504 78.1624 36.9531 78.2567 36.9531 78.3698Z" fill="#22272B"/>
<g opacity="0.5">
<path d="M36.9917 78.2567C36.9917 78.2661 36.9917 78.2755 36.9917 78.285C36.9917 78.3982 37.0891 78.4925 37.2059 78.4925C37.274 78.4925 37.3421 78.4548 37.381 78.4076C37.3713 78.5114 37.2837 78.5868 37.1669 78.5868C37.0501 78.5868 36.9528 78.4925 36.9528 78.3793C36.9528 78.3227 36.9723 78.285 36.9917 78.2567Z" fill="#22272B"/>
</g>
<path d="M37.9176 78.483C37.8689 78.5868 37.9176 78.7095 38.0247 78.7566C38.1317 78.8038 38.2583 78.7566 38.307 78.6529C38.3557 78.5491 38.307 78.4265 38.1999 78.3793C38.0929 78.3321 37.9663 78.3793 37.9176 78.483Z" fill="#22272B"/>
<g opacity="0.5">
<path d="M38.0053 78.389C38.0053 78.3984 37.9956 78.3984 37.9956 78.4079C37.9469 78.5116 37.9957 78.6342 38.1027 78.6813C38.1709 78.7096 38.239 78.7002 38.2974 78.6719C38.239 78.7568 38.1319 78.7946 38.0248 78.7569C37.9177 78.7097 37.869 78.587 37.9177 78.4833C37.9372 78.4455 37.9664 78.4078 38.0053 78.389Z" fill="#22272B"/>
</g>
<path d="M38.7544 78.9644C38.6668 79.0398 38.657 79.1718 38.7349 79.2567C38.8128 79.3416 38.9491 79.3511 39.0368 79.2756C39.1244 79.2001 39.1341 79.0681 39.0562 78.9833C38.9784 78.8984 38.842 78.8889 38.7544 78.9644Z" fill="#22272B"/>
<g opacity="0.5">
<path d="M38.8712 78.9073C38.8615 78.9168 38.8615 78.9168 38.8517 78.9262C38.7641 79.0017 38.7545 79.1338 38.8324 79.2187C38.881 79.2659 38.9491 79.2941 39.0173 79.2847C38.9297 79.3413 38.8128 79.3318 38.7349 79.2563C38.657 79.1715 38.6668 79.0395 38.7544 78.964C38.7934 78.9357 38.8323 78.9168 38.8712 78.9073Z" fill="#22272B"/>
</g>
<path d="M39.3178 79.7282C39.2107 79.7659 39.1425 79.8792 39.1815 79.9923C39.2204 80.0961 39.3371 80.1621 39.454 80.1244C39.561 80.0867 39.6292 79.9735 39.5903 79.8603C39.5416 79.7565 39.4249 79.6999 39.3178 79.7282Z" fill="#22272B"/>
<g opacity="0.5">
<path d="M39.4443 79.7283C39.4346 79.7283 39.4249 79.7283 39.4152 79.7377C39.3081 79.7754 39.24 79.8887 39.2789 80.0018C39.2984 80.0679 39.3568 80.1151 39.4152 80.1339C39.3081 80.1528 39.2108 80.0962 39.1718 79.9924C39.1329 79.8886 39.2011 79.766 39.3081 79.7283C39.3568 79.7188 39.4054 79.7188 39.4443 79.7283Z" fill="#22272B"/>
</g>
<path d="M39.5026 80.6527C39.3858 80.6432 39.2787 80.7186 39.269 80.8318C39.2593 80.945 39.3371 81.0488 39.4539 81.0582C39.5707 81.0676 39.6778 80.9922 39.6875 80.879C39.707 80.7658 39.6194 80.6621 39.5026 80.6527Z" fill="#22272B"/>
<g opacity="0.5">
<path d="M39.62 80.6998C39.6103 80.6998 39.6005 80.6997 39.5908 80.6903C39.474 80.6809 39.3669 80.7564 39.3572 80.8696C39.3474 80.9356 39.3767 81.0016 39.4254 81.0488C39.3183 81.0299 39.2501 80.9356 39.2598 80.8318C39.2696 80.7186 39.3766 80.6338 39.4935 80.6527C39.5519 80.6621 39.5908 80.6715 39.62 80.6998Z" fill="#22272B"/>
</g>
<path d="M39.2902 81.5676C39.1929 81.511 39.0565 81.5487 38.9981 81.643C38.9397 81.7374 38.9787 81.8695 39.0761 81.9261C39.1734 81.9827 39.3096 81.9449 39.3681 81.8505C39.4265 81.7562 39.3876 81.6242 39.2902 81.5676Z" fill="#22272B"/>
<g opacity="0.5">
<path d="M39.3779 81.6619C39.3682 81.6524 39.3681 81.6524 39.3584 81.643C39.2611 81.5864 39.1248 81.6242 39.0664 81.7185C39.0275 81.7751 39.0275 81.8505 39.0567 81.9071C38.9691 81.8411 38.9496 81.7279 38.9982 81.643C39.0566 81.5486 39.1832 81.511 39.2903 81.5676C39.3293 81.5959 39.3584 81.6241 39.3779 81.6619Z" fill="#22272B"/>
</g>
<path d="M38.7053 82.322C38.6372 82.2277 38.5008 82.2089 38.4035 82.275C38.3062 82.341 38.2866 82.473 38.3548 82.5673C38.4229 82.6616 38.5593 82.6805 38.6566 82.6145C38.754 82.5485 38.7735 82.4164 38.7053 82.322Z" fill="#22272B"/>
<g opacity="0.5">
<path d="M38.7445 82.4448C38.7445 82.4353 38.7347 82.426 38.7347 82.426C38.6666 82.3317 38.5304 82.3128 38.433 82.3788C38.3746 82.4165 38.3454 82.4826 38.3454 82.5486C38.2968 82.4543 38.3162 82.3411 38.4038 82.2845C38.5011 82.2184 38.6277 82.2372 38.7056 82.3316C38.7348 82.3599 38.7445 82.3976 38.7445 82.4448Z" fill="#22272B"/>
</g>
<path d="M37.8585 82.7844C37.8293 82.6712 37.7222 82.6051 37.6054 82.624C37.4885 82.6523 37.4204 82.7561 37.4398 82.8692C37.469 82.9824 37.5761 83.0484 37.6929 83.0295C37.8098 83.0012 37.8877 82.8976 37.8585 82.7844Z" fill="#22272B"/>
<g opacity="0.5">
<path d="M37.8483 82.907C37.8483 82.8976 37.8483 82.8881 37.8483 82.8787C37.8191 82.7655 37.712 82.6994 37.5952 82.7183C37.527 82.7372 37.4686 82.7749 37.4394 82.8409C37.4297 82.7372 37.4978 82.6429 37.6049 82.624C37.7217 82.5957 37.8288 82.6712 37.858 82.7844C37.8678 82.8221 37.8678 82.8693 37.8483 82.907Z" fill="#22272B"/>
</g>
<path d="M36.8949 82.8694C36.9241 82.7562 36.8463 82.6524 36.7295 82.6241C36.6127 82.5958 36.5056 82.6713 36.4764 82.7845C36.4472 82.8977 36.5251 83.0014 36.6419 83.0297C36.7587 83.0485 36.8754 82.9826 36.8949 82.8694Z" fill="#22272B"/>
<g opacity="0.5">
<path d="M36.8268 82.9732C36.8268 82.9638 36.8365 82.9543 36.8365 82.9449C36.8657 82.8317 36.7878 82.7279 36.671 82.6996C36.6028 82.6808 36.5348 82.7091 36.4861 82.7468C36.525 82.6525 36.6224 82.5865 36.7295 82.6148C36.8463 82.6431 36.9143 82.7468 36.8949 82.86C36.8851 82.9072 36.8657 82.9449 36.8268 82.9732Z" fill="#22272B"/>
</g>
<path d="M35.9794 82.5673C36.0476 82.473 36.0281 82.3504 35.9307 82.275C35.8334 82.2089 35.7069 82.2277 35.629 82.322C35.5608 82.4164 35.5802 82.5391 35.6776 82.6145C35.7749 82.69 35.9113 82.6616 35.9794 82.5673Z" fill="#22272B"/>
<g opacity="0.5">
<path d="M35.8722 82.6428C35.8819 82.6333 35.8819 82.6333 35.8917 82.6239C35.9598 82.5296 35.9403 82.4069 35.843 82.3314C35.7846 82.2937 35.7165 82.2844 35.6483 82.3032C35.7165 82.2278 35.8429 82.2183 35.9305 82.2749C36.0279 82.3409 36.0474 82.4729 35.9793 82.5672C35.9501 82.605 35.9111 82.6239 35.8722 82.6428Z" fill="#22272B"/>
</g>
<path d="M35.2588 81.9259C35.3562 81.8693 35.3951 81.7467 35.3367 81.6429C35.2783 81.5391 35.1518 81.5109 35.0447 81.5675C34.9474 81.6241 34.9083 81.7466 34.9668 81.8504C35.0349 81.9542 35.1615 81.9825 35.2588 81.9259Z" fill="#22272B"/>
<g opacity="0.5">
<path d="M35.1423 81.9544C35.152 81.9544 35.1618 81.9449 35.1618 81.9449C35.2591 81.8883 35.298 81.7657 35.2396 81.6619C35.2007 81.6053 35.1422 81.5676 35.0741 81.5582C35.1714 81.5204 35.2883 81.5487 35.337 81.643C35.3954 81.7374 35.3565 81.8695 35.2591 81.9261C35.2202 81.9449 35.1812 81.9544 35.1423 81.9544Z" fill="#22272B"/>
</g>
<path d="M34.8801 81.0677C34.997 81.0582 35.0845 80.9545 35.065 80.8413C35.0553 80.7281 34.9482 80.6433 34.8314 80.6621C34.7146 80.681 34.627 80.7753 34.6465 80.8885C34.6563 80.9922 34.7633 81.0771 34.8801 81.0677Z" fill="#22272B"/>
<g opacity="0.5">
<path d="M34.7543 81.0392C34.764 81.0392 34.7738 81.0392 34.7835 81.0392C34.9003 81.0298 34.9879 80.9261 34.9684 80.8129C34.9587 80.7468 34.9197 80.6903 34.8613 80.6526C34.9684 80.6526 35.056 80.728 35.0657 80.8318C35.0755 80.9449 34.9976 81.0487 34.8808 81.0581C34.8419 81.0676 34.7932 81.0581 34.7543 81.0392Z" fill="#22272B"/>
</g>
<path d="M34.899 80.1242C35.0061 80.1619 35.1327 80.0959 35.1716 79.9921C35.2106 79.8884 35.1424 79.7657 35.0353 79.728C34.9283 79.6903 34.8017 79.7563 34.7627 79.8601C34.7238 79.9733 34.7822 80.0865 34.899 80.1242Z" fill="#22272B"/>
<g opacity="0.5">
<path d="M34.7924 80.0489C34.8021 80.0489 34.8118 80.0583 34.8118 80.0583C34.9189 80.0961 35.0454 80.03 35.0843 79.9263C35.1038 79.8602 35.0942 79.7941 35.0552 79.7375C35.1526 79.7847 35.2012 79.8885 35.172 79.9828C35.1331 80.0866 35.0162 80.1526 34.8994 80.1149C34.8508 80.1054 34.8118 80.0866 34.7924 80.0489Z" fill="#22272B"/>
</g>
<path d="M35.2984 79.266C35.386 79.3414 35.5222 79.3321 35.6001 79.2472C35.678 79.1623 35.6682 79.0302 35.5806 78.9547C35.493 78.8793 35.3568 78.8887 35.2789 78.9736C35.2107 79.0585 35.2108 79.1905 35.2984 79.266Z" fill="#22272B"/>
<g opacity="0.5">
<path d="M35.2393 79.1622C35.249 79.1716 35.249 79.1716 35.2587 79.1811C35.3464 79.2565 35.4826 79.2471 35.5605 79.1622C35.6091 79.115 35.6287 79.0396 35.6092 78.983C35.6773 79.0585 35.6773 79.181 35.6092 79.2565C35.5313 79.3414 35.395 79.3508 35.3073 79.2754C35.2684 79.2377 35.249 79.1999 35.2393 79.1622Z" fill="#22272B"/>
</g>
<path d="M36.0283 78.653C36.077 78.7568 36.2035 78.8039 36.3105 78.7567C36.4176 78.7096 36.4663 78.5869 36.4176 78.4832C36.3689 78.3794 36.2425 78.3322 36.1354 78.3794C36.0283 78.4266 35.9796 78.5492 36.0283 78.653Z" fill="#22272B"/>
<g opacity="0.5">
<path d="M36.0187 78.5303C36.0187 78.5397 36.0187 78.5491 36.0284 78.5585C36.0771 78.6623 36.2036 78.7095 36.3106 78.6624C36.3788 78.6341 36.4177 78.5774 36.4372 78.5114C36.4664 78.6057 36.4177 78.7189 36.3204 78.7567C36.2133 78.8038 36.0867 78.7567 36.038 78.6529C36.0088 78.6058 36.0089 78.568 36.0187 78.5303Z" fill="#22272B"/>
</g>
<g opacity="0.4">
<path d="M251 68.079H67.8311V69.8052H251V68.079Z" fill="#FAA701"/>
</g>
<g opacity="0.4">
<path d="M251 57.2788H67.8311V58.288H251V57.2788Z" fill="#FAA701"/>
</g>
</svg>
