<svg width="59" height="59" viewBox="0 0 59 59" fill="none" xmlns="http://www.w3.org/2000/svg">
<path d="M31.7816 1.18232C31.6898 1.1887 31.5974 1.20642 31.5074 1.23533L12.6274 7.13533C12.1341 7.28873 11.8 7.74436 11.8 8.26002V51.92C11.8 52.4616 12.1679 52.9333 12.6942 53.0654L31.5742 57.7854C31.6686 57.8091 31.7644 57.82 31.86 57.82C32.1208 57.82 32.3759 57.7328 32.586 57.5688C32.8727 57.3458 33.04 57.0035 33.04 56.64V2.36002C33.04 1.98478 32.8627 1.6312 32.5606 1.40818C32.3341 1.2418 32.0572 1.16319 31.7816 1.18232ZM28.32 28.32C28.9714 28.32 29.5 29.113 29.5 30.09C29.5 31.0671 28.9714 31.86 28.32 31.86C27.6686 31.86 27.14 31.0671 27.14 30.09C27.14 29.113 27.6686 28.32 28.32 28.32Z" fill="#F9C808"/>
<path d="M35.4 8.26002V5.90002H46.02C46.3329 5.90006 46.6331 6.02439 46.8543 6.24567C47.0756 6.46696 47.2 6.76708 47.2 7.08002V31.86H44.84V8.26002H35.4Z" fill="white"/>
<path fill-rule="evenodd" clip-rule="evenodd" d="M37 34C35.8954 34 35 34.8954 35 36V51C35 52.1046 35.8954 53 37 53H54C55.1046 53 56 52.1046 56 51V36C56 34.8954 55.1046 34 54 34H37ZM43 39C42.4477 39 42 39.4477 42 40C42 40.5523 42.4477 41 43 41H49C49.5523 41 50 40.5523 50 40C50 39.4477 49.5523 39 49 39H43Z" fill="#F9C808"/>
</svg>
