<svg width="227" height="25" viewBox="0 0 227 25" fill="none" xmlns="http://www.w3.org/2000/svg">
<path d="M212.705 20.9089V9.5524C212.705 9.00973 212.837 8.52 213.102 8.08321C213.367 7.63319 213.724 7.27581 214.174 7.01109C214.624 6.74637 215.114 6.61401 215.644 6.61401H224.042C224.584 6.61401 225.074 6.74637 225.511 7.01109C225.961 7.27581 226.318 7.63319 226.583 8.08321C226.861 8.52 227 9.00973 227 9.5524V20.9089H223.883V16.3028H215.783V20.9089H212.705ZM215.783 13.2055H223.883V9.71124H215.783V13.2055Z" fill="white"/>
<path d="M197.329 20.9089V6.61401H200.427V12.2128H203.226L207.912 6.61401H211.128V7.68613L206.026 13.7615L211.128 19.8368V20.9089H207.912L203.226 15.3101H200.427V20.9089H197.329Z" fill="white"/>
<path d="M185.26 20.9089L176.981 6.61401H180.554L186.55 16.9977L192.546 6.61401H196.1L187.821 20.9089H185.26Z" fill="white"/>
<path d="M160.84 20.9089V9.5524C160.84 9.00973 160.973 8.52 161.238 8.08321C161.502 7.63319 161.86 7.27581 162.31 7.01109C162.76 6.74637 163.249 6.61401 163.779 6.61401H172.177C172.72 6.61401 173.209 6.74637 173.646 7.01109C174.096 7.27581 174.454 7.63319 174.718 8.08321C174.996 8.52 175.135 9.00973 175.135 9.5524V20.9089H172.018V16.3028H163.918V20.9089H160.84ZM163.918 13.2055H172.018V9.71124H163.918V13.2055Z" fill="white"/>
<path d="M150.62 20.9089V9.71124H145.021V6.61401H159.316V9.71124H153.717V20.9089H150.62Z" fill="white"/>
<path d="M132.193 20.9089C131.663 20.9089 131.174 20.7765 130.724 20.5118C130.274 20.2471 129.916 19.8897 129.652 19.4397C129.387 18.9897 129.254 18.4999 129.254 17.9705V16.6403H132.332V17.8117H140.432V15.3101H132.193C131.663 15.3101 131.174 15.1777 130.724 14.913C130.274 14.6483 129.916 14.2975 129.652 13.8607C129.387 13.4107 129.254 12.9143 129.254 12.3717V9.5524C129.254 9.00973 129.387 8.52 129.652 8.08321C129.916 7.63319 130.274 7.27581 130.724 7.01109C131.174 6.74637 131.663 6.61401 132.193 6.61401H140.611C141.14 6.61401 141.623 6.74637 142.06 7.01109C142.51 7.27581 142.868 7.63319 143.132 8.08321C143.41 8.52 143.549 9.00973 143.549 9.5524V10.8826H140.432V9.71124H132.332V12.2128H140.611C141.14 12.2128 141.623 12.3452 142.06 12.6099C142.51 12.8746 142.868 13.232 143.132 13.682C143.41 14.1188 143.549 14.6086 143.549 15.1512V17.9705C143.549 18.4999 143.41 18.9897 143.132 19.4397C142.868 19.8897 142.51 20.2471 142.06 20.5118C141.623 20.7765 141.14 20.9089 140.611 20.9089H132.193Z" fill="white"/>
<path d="M115.751 20.9089C115.222 20.9089 114.732 20.7765 114.282 20.5118C113.832 20.2471 113.475 19.8897 113.21 19.4397C112.945 18.9897 112.813 18.4999 112.813 17.9705V9.5524C112.813 9.00973 112.945 8.52 113.21 8.08321C113.475 7.63319 113.832 7.27581 114.282 7.01109C114.732 6.74637 115.222 6.61401 115.751 6.61401H124.169C124.699 6.61401 125.182 6.74637 125.619 7.01109C126.069 7.27581 126.426 7.63319 126.691 8.08321C126.969 8.52 127.108 9.00973 127.108 9.5524V17.9705C127.108 18.4999 126.969 18.9897 126.691 19.4397C126.426 19.8897 126.069 20.2471 125.619 20.5118C125.182 20.7765 124.699 20.9089 124.169 20.9089H115.751ZM115.89 17.8117H123.991V9.71124H115.89V17.8117Z" fill="white"/>
<path d="M96.3344 20.9089V6.61401H107.671C108.214 6.61401 108.703 6.74637 109.14 7.01109C109.59 7.27581 109.948 7.63319 110.212 8.08321C110.49 8.52 110.629 9.00973 110.629 9.5524V17.9705C110.629 18.4999 110.49 18.9897 110.212 19.4397C109.948 19.8897 109.59 20.2471 109.14 20.5118C108.703 20.7765 108.214 20.9089 107.671 20.9089H96.3344ZM99.3919 17.8117H107.512V9.71124H99.3919V17.8117Z" fill="white"/>
<path d="M79.7764 20.9089V6.61401H91.1131C91.6557 6.61401 92.1455 6.74637 92.5823 7.01109C93.0323 7.27581 93.3896 7.63319 93.6544 8.08321C93.9323 8.52 94.0713 9.00973 94.0713 9.5524V17.9705C94.0713 18.4999 93.9323 18.9897 93.6544 19.4397C93.3896 19.8897 93.0323 20.2471 92.5823 20.5118C92.1455 20.7765 91.6557 20.9089 91.1131 20.9089H79.7764ZM82.8339 17.8117H90.9542V9.71124H82.8339V17.8117Z" fill="white"/>
<path d="M66.1938 20.9089C65.6644 20.9089 65.1747 20.7765 64.7246 20.5118C64.2746 20.2471 63.9172 19.8897 63.6525 19.4397C63.3878 18.9897 63.2554 18.4999 63.2554 17.9705V6.61401H66.3328V17.8117H74.4332V6.61401H77.5503V17.9705C77.5503 18.4999 77.4113 18.9897 77.1334 19.4397C76.8687 19.8897 76.5113 20.2471 76.0613 20.5118C75.6245 20.7765 75.1414 20.9089 74.6119 20.9089H66.1938Z" fill="white"/>
<path d="M46.8356 20.9089V6.61401H57.6361C58.1656 6.61401 58.6487 6.74637 59.0855 7.01109C59.5355 7.27581 59.8929 7.63319 60.1576 8.08321C60.4356 8.52 60.5745 9.00973 60.5745 9.5524V12.2327C60.5745 12.4048 60.5613 12.5702 60.5348 12.729C60.5216 12.8746 60.4885 13.0136 60.4356 13.146C60.6341 13.3975 60.7995 13.6887 60.9319 14.0196C61.0643 14.3505 61.1304 14.6814 61.1304 15.0123V17.9705C61.1304 18.4999 60.9915 18.9897 60.7135 19.4397C60.4488 19.8897 60.0914 20.2471 59.6414 20.5118C59.2046 20.7765 58.7149 20.9089 58.1722 20.9089H46.8356ZM49.9129 17.8117H58.0134V15.1909H49.9129V17.8117ZM49.9129 12.0937H57.4575V9.71124H49.9129V12.0937Z" fill="white"/>
<path d="M17.5455 7.52698H19.2579C19.8456 7.52698 20.3658 7.90734 20.544 8.46741L21.5944 11.7687H17.5455V7.52698Z" fill="#FAA701"/>
<path d="M29.1139 16.5889C28.9009 16.5889 28.7283 16.7616 28.7283 16.9745V17.9386C28.7283 18.1516 28.9009 18.3242 29.1139 18.3242H31.0271C31.3061 18.3242 31.4928 18.037 31.3794 17.782L31.0528 17.0469C30.929 16.7684 30.6528 16.5889 30.348 16.5889H29.1139Z" fill="#FAA701"/>
<path d="M31.5053 14.1513C31.464 13.807 31.7328 13.504 32.0796 13.504H36.8262C37.1457 13.504 37.4046 13.763 37.4046 14.0824V17.7458C37.4046 18.0652 37.1457 18.3242 36.8262 18.3242H32.5192C32.2264 18.3242 31.9798 18.1054 31.9449 17.8147L31.5053 14.1513Z" fill="#FAA701"/>
<path d="M29.4995 7.52698H21.5944L23.1369 11.7687H31.042L29.4995 7.52698Z" fill="#FAA701"/>
<path fill-rule="evenodd" clip-rule="evenodd" d="M19.8592 0.393066H8.48353V18.517H0.964038V20.2522H0V21.9875H0.777106C0.876593 23.6015 2.21708 24.8797 3.8561 24.8797C5.49513 24.8797 6.83562 23.6015 6.9351 21.9875H7.13974C7.23923 23.6015 8.57971 24.8797 10.2187 24.8797C11.8578 24.8797 13.1982 23.6015 13.2977 21.9875H14.0809C14.1804 23.6015 15.5209 24.8796 17.1599 24.8796C18.7989 24.8796 20.1394 23.6015 20.2389 21.9875H21.986C22.0855 23.6015 23.4259 24.8797 25.065 24.8797C26.704 24.8797 28.0445 23.6015 28.144 21.9875L31.042 21.9875C31.042 23.5848 32.3368 24.8796 33.9341 24.8796C35.5314 24.8796 36.8262 23.5848 36.8262 21.9875L39.3327 21.9875V20.2522H27.948C27.6299 19.3302 26.8529 18.7099 25.065 18.7099C23.2771 18.7099 22.5 19.3302 22.182 20.2522H13.8821V2.32114H19.8592V0.393066ZM24.4866 23.7227C25.2319 23.7227 25.8362 22.9027 25.8362 21.8911C25.8362 20.8795 25.2319 20.0594 24.4866 20.0594C23.7412 20.0594 23.1369 20.8795 23.1369 21.8911C23.1369 22.9027 23.7412 23.7227 24.4866 23.7227ZM10.99 21.8911C10.99 22.9027 10.3857 23.7227 9.64033 23.7227C8.89493 23.7227 8.29068 22.9027 8.29068 21.8911C8.29068 20.8795 8.89493 20.0594 9.64033 20.0594C10.3857 20.0594 10.99 20.8795 10.99 21.8911ZM3.27769 23.7227C4.02309 23.7227 4.62735 22.9027 4.62735 21.8911C4.62735 20.8795 4.02309 20.0594 3.27769 20.0594C2.5323 20.0594 1.92804 20.8795 1.92804 21.8911C1.92804 22.9027 2.5323 23.7227 3.27769 23.7227Z" fill="white"/>
</svg>
