<svg width="48" height="48" viewBox="0 0 48 48" fill="none" xmlns="http://www.w3.org/2000/svg">
<g clip-path="url(#clip0_525_99)">
<path fill-rule="evenodd" clip-rule="evenodd" d="M46.0625 11.25V36.75C46.0625 42.1248 41.6873 46.5 36.3125 46.5H11.6875C6.31268 46.5 1.9375 42.1248 1.9375 36.75V11.25C1.9375 5.87518 6.31268 1.5 11.6875 1.5H36.3125C41.6873 1.5 46.0625 5.87518 46.0625 11.25ZM45.3125 11.25C45.3125 6.28595 41.2765 2.25 36.3125 2.25H11.6875C6.72345 2.25 2.6875 6.28595 2.6875 11.25V36.75C2.6875 41.714 6.72345 45.75 11.6875 45.75H36.3125C41.2765 45.75 45.3125 41.714 45.3125 36.75V11.25Z" fill="white"/>
<path d="M23 14.0536C23 13.4716 23.4768 13 24.065 13C24.6532 13 25.13 13.4716 25.13 14.0536C25.13 14.6355 24.6532 15.1072 24.065 15.1072C23.4768 15.1072 23 14.6355 23 14.0536Z" fill="white"/>
<path d="M23 19.2679C23 18.686 23.4768 18.2143 24.065 18.2143C24.6532 18.2143 25.13 18.686 25.13 19.2679C25.13 19.8499 24.6532 20.3215 24.065 20.3215C23.4768 20.3215 23 19.8499 23 19.2679Z" fill="white"/>
<path d="M23 24.4823C23 23.9003 23.4768 23.4287 24.065 23.4287C24.6532 23.4287 25.13 23.9003 25.13 24.4823C25.13 25.0642 24.6532 25.5359 24.065 25.5359C23.4768 25.5359 23 25.0642 23 24.4823Z" fill="white"/>
<path d="M24.0131 32.9414L28.7655 27.9447L29.5788 28.7016L24.0153 34.551L18.4213 28.7008L19.2324 27.9418L24.0131 32.9414Z" fill="white"/>
</g>
<defs>
<clipPath id="clip0_525_99">
<rect width="48" height="48" fill="white"/>
</clipPath>
</defs>
</svg>
